<?xml version="1.0" encoding="UTF-8"?>
<svg id="_レイヤー_1" data-name="レイヤー 1" xmlns="http://www.w3.org/2000/svg" version="1.1" viewBox="0 0 280.5 355.8">
  <defs>
    <style>
      .cls-1 {
        fill: #85807f;
      }

      .cls-1, .cls-2, .cls-3, .cls-4, .cls-5 {
        stroke-width: 0px;
      }

      .cls-2 {
        fill: #211715;
      }

      .cls-3 {
        fill: #d7feff;
      }

      .cls-4 {
        fill: #fff;
      }

      .cls-5 {
        fill: #f2635f;
      }
    </style>
  </defs>
  <path class="cls-4" d="M48.4,312.8c0,6.1-.2,12.3-.7,18.7h137.4l-.3-1.8c-.7-4.7-2.2-12.1-4-20.5h-22.2c-36.3-1.6-80-1.5-110.2,0,0,1.2,0,2.4,0,3.6Z"/>
  <path class="cls-4" d="M115.5,73c1.5-1.3,3.4-2,5.4-1.9,3.9.1,5.6,2.1,6.3,3.3,2.1,3.5,2.1,10,.6,14-1.2,3.9-3.4,7.3-6.6,9.9-2.1,1.4-4.5,2.3-7.1,2.6l-.4,1.1c-.7,2.1-2.5,5.7-2.5,5.7-1.4,2.7-2.9,5.3-4.6,7.8.7,2.1,1.4,4.1,2.1,6.2.5,1.9,1.3,3.6,2.2,5.3,2.7,4.5,8.4,7.1,14,8.2,0,0,.4,0,.8.2-11.1,11.8-25.7,19.7-41.6,22.6-6,1-12.1,1.3-18.1-.2-5.9-1.5-11.2-4.8-15-9.6,3.3-1.6,6.8-3.3,9.1-4.7,2.2-1.1,3.9-2.8,5-5-8.5.5-16.3-1.7-24.1-6.7-9.4-6-14.4-16.5-17.2-28.5-1.6-6.9-3.2-14.5-5.1-22,0,0-17.6-38.7,32.3-43.1,65.7-5.8,64.5,34.6,64.5,34.6Z"/>
  <path class="cls-1" d="M103.4,67.7c-13.2-17.2-28-20.1-31.2-20.9-2.8-.4-5.6-.6-8.5-.5l-1.3.5c-10.1,3.7-18.4,13.2-22.9,16.9-.8.6-1.9.4-2.4-.4-.2-.3-.3-.7-.3-1,0-1.1-.3-2.2-.8-3.2-.6-1.3-1.7-1.7-2.5-1.1-6.4,4.9-14,20-14.1,25.2,0,0,0,.7,0,1.7-3.1-9.6-4.6-19.6-4.4-29.7.4-8.8,3.2-19,8-26.5C31,15.7,44.7,6.8,62.8,3.5c11.4-2.1,23.1-1.5,36.7,5.6l8.4,4.4,1.6,1.2c8.3,5.9,13,13.2,16.6,22.4,1.8,4.6,2.9,9.5,3.3,14.5.3,5.3,1.6,17.5-1.3,24.7-.2-.7-.5-1.3-.9-1.9-.7-1.2-2.4-3.2-6.3-3.3-2,0-3.9.6-5.4,1.9-1.2.3-2.3.4-3.5.6-.6-.4-6.4-3.6-8.6-5.9"/>
  <path class="cls-2" d="M104.5,116.2c.9,2.8,1.8,5.5,2.8,8.3.8,2.6,2.2,4.9,4.1,6.9,3.5,3.4,8.3,5.3,13.1,6.3,1.3.3,2.6-.4,3-1.7.3-1.3-.4-2.6-1.7-2.9-3.9-.8-8.1-2.3-10.9-5.1-1.4-1.5-2.5-3.3-3.1-5.3-.9-2.6-1.7-5.2-2.6-7.8-.4-1.3-1.7-2-3-1.7-1.3.4-2,1.7-1.7,3h0Z"/>
  <path class="cls-2" d="M71.6,49.1c7.9,1.8,15.2,5.5,21.3,10.8,3.1,2.7,6,5.7,8.5,9,.7,1.1,2.1,1.5,3.3.9,1.1-.7,1.5-2.1.9-3.3-7.4-9.6-17.1-17.4-28.8-21-1.3-.4-2.5-.7-3.8-1-3-.7-4.3,3.9-1.3,4.6h0Z"/>
  <path class="cls-2" d="M21.7,83c0-.2,0-.3,0-.5,0,.6,0,.3,0,.1,0-.3.1-.7.2-1,.2-.9.5-1.7.8-2.5.7-1.9,1.5-3.7,2.4-5.5,1.9-4.1,4.4-7.9,7.2-11.3.6-.7,1.2-1.3,1.9-2,.1-.1.3-.2.4-.3.5-.4.4,0,0,0-1.1,0-.9-.4-.5.7.4,1.1.3,2.4.8,3.4.7,1.4,2.1,2.3,3.6,2.3,2.2,0,3.9-2,5.3-3.3,1.6-1.5,3.2-3,4.9-4.5,4.3-3.8,9-7.5,14.4-9.5,1.3-.4,2-1.7,1.7-3-.4-1.3-1.7-2-3-1.7-5.4,2.2-10.3,5.3-14.6,9.1-1.9,1.6-3.7,3.3-5.5,5-.7.6-1.4,1.3-2.1,1.9-.3.3-.6.5-.9.8-.6.5-1.2.7.2.4.4,0,.4.7.2-.7,0-.6-.2-1.2-.4-1.8-.4-1.5-1.4-2.8-2.7-3.6-2.6-1.2-4.7.9-6.4,2.7-3.2,3.6-6,7.7-8.1,12-2,3.8-4.3,8.3-4.5,12.7-.1,3.1,4.7,3.1,4.8,0Z"/>
  <path class="cls-2" d="M58.4,119.2c.4-.3.8-.5,1.3-.8.1,0,.2-.1.3-.2,0,0,.4-.2.2,0-.3.1.3,0,.3,0,.1,0,.3,0,.4-.1.6-.2,1.1-.3,1.7-.5.3,0,.5-.1.8-.2.1,0,.3,0,.4,0,.4,0-.6,0,0,0,.5,0,1.1,0,1.6,0,.3,0,.6,0,.9,0,.1,0,.3,0,.4,0,0,0,.5,0,.1,0-.4,0,.2,0,.2,0,.1,0,.3,0,.4,0,.3,0,.6.2.9.3.7.2,1.4.5,2.1.7,1.3.3,2.6-.4,3-1.7.3-1.3-.4-2.6-1.7-3-1.4-.5-2.8-.9-4.2-1.2-1.3-.2-2.6-.2-3.9,0-2.7.2-5.3,1.1-7.6,2.6-1.1.7-1.5,2.1-.9,3.3.7,1.1,2.1,1.5,3.3.9Z"/>
  <path class="cls-2" d="M69.3,87.7c-1-2.4-1-8.1,3.7-9,6.2-.5,7.1,6.3,5.3,9.8-1.5,2.8-6.4,4.3-9-.7Z"/>
  <path class="cls-2" d="M32.7,92c-.9-2.4-1-8.2,3.3-9,5.7-.4,6.6,6.4,5,9.8-1.3,2.8-5.8,4.3-8.2-.8Z"/>
  <path class="cls-2" d="M52.6,95.2c-.7,1.6-1.4,3.3-2,5-.2.6-.3,1.2-.3,1.8,0,.6.2,1.1.5,1.6.3.5.7.9,1.2,1.2.7.4,1.5.7,2.3.8.3,0,.6,0,1,0,1.3,0,2.4-1.1,2.4-2.4,0-1.3-1.1-2.4-2.4-2.4-.3,0-.6,0-1,0h.6c-.2,0-.4,0-.6,0l.6.2c-.2,0-.4-.2-.6-.3l.5.4c0,0-.2-.1-.2-.2l.4.5s0,0,0-.1l.2.6c0,0,0-.2,0-.2v.6c0-.1,0-.3,0-.4v.6c0-.7.3-1.4.6-2,.3-.7.6-1.4.9-2.2l-.2.6c.1-.3.3-.7.4-1,.3-.6.4-1.2.2-1.8-.4-1.3-1.7-2-3-1.7,0,0,0,0,0,0-.6.2-1.1.6-1.4,1.1h0Z"/>
  <path class="cls-2" d="M102.5,124.7c6-6.3,10.6-13.8,13.6-22,.4-1.3-.4-2.6-1.7-3-1.3-.4-2.6.4-3,1.7-1.1,2.9-2.4,5.7-4,8.4-2.4,4.2-5.2,8-8.4,11.6-2.1,2.3,1.3,5.7,3.4,3.4h0Z"/>
  <path class="cls-2" d="M100.7,7C91.4,2,80.9-.4,70.3.1c-9.7.6-19.2,3.2-27.8,7.6-7.9,4.1-14.7,9.9-20,17-6,8.2-9.1,18.3-9.9,28.3-.4,5.2-.1,10.4.6,15.6.7,5.9,2.1,11.8,4,17.5,1,2.9,5.6,1.7,4.6-1.3-6-17.4-7.3-38.6,2.8-54.7,9.1-14.5,25.5-22.8,42.2-24.9,10.8-1.3,21.8.8,31.4,5.9,2.7,1.4,5.2-2.7,2.4-4.1Z"/>
  <path class="cls-2" d="M90.2,127.5c-5.9,3.8-12.3,6.5-19.1,8-6.7,1.4-13.7,1-20.2-1.3-6.1-2.1-11.5-5.8-15.6-10.7-3.9-4.8-6.3-10.8-8-16.7-2.5-8.6-4-17.4-6.2-26-.8-3-5.4-1.7-4.6,1.3,2.1,8.1,3.6,16.4,5.8,24.5,1.7,6.5,4.3,13.1,8.3,18.5,8.7,11.8,24.1,17.5,38.5,15.5,8.5-1.2,16.3-4.6,23.6-9,2.6-1.6.2-5.8-2.4-4.1h0Z"/>
  <path class="cls-2" d="M73.6,72.3c2.1,1.5,4.6,2.3,7.2,2.3.6,0,1.2-.3,1.7-.7.9-.9.9-2.5,0-3.4-.5-.5-1.1-.7-1.7-.7-.5,0-.9,0-1.4,0h.6c-.9,0-1.8-.3-2.6-.6l.6.2c-.7-.3-1.4-.7-2-1.1-.6-.3-1.2-.4-1.8-.2-1.3.4-2,1.7-1.7,3h0s.2.6.2.6c.2.4.5.7.9.9Z"/>
  <path class="cls-2" d="M90.1,83.4c0,2.2.2,4.5.5,6.7.3,2,.6,4.2,2,5.8,1.6,1.5,3.9,2.1,6,1.4,2.1-.7,3.7-2.4,4.2-4.6.4-1.3-.4-2.6-1.7-3-1.3-.4-2.6.4-3,1.7,0,.2,0,.3-.1.5-.2.5.3-.5,0,0,0,.1-.2.3-.2.4-.2.4.2-.2,0,0-.1.1-.2.2-.3.3-.2.2.4-.2,0,0,0,0-.2.1-.3.2h.3c-.2,0-.3,0-.5,0-.5.1.5,0,0,0-.2,0-.3,0-.5,0,0,0,.6.1,0,0,0,0-.6-.1-.3,0,.3,0,0,0-.1,0-.5-.2.3.3,0,0-.1-.1-.1-.1,0,0s.1.2,0,0c0,0,0-.1-.1-.2,0-.2,0,0,0,.2-.2-.3-.2-.6-.3-.9,0-.3-.2-.7-.2-1,0-.4-.2-.9-.2-1.3,0,0,0-.8,0-.2,0-.2,0-.4,0-.6-.2-1.7-.3-3.3-.3-5,0-1.3-1.1-2.4-2.4-2.4s-2.4,1.1-2.4,2.4h0Z"/>
  <path class="cls-2" d="M45.6,153.7c3.8-2,7.6-3.8,11.4-5.7,4-2,8.1-4,10.2-8.2.6-1.1.3-2.6-.9-3.3-1.1-.7-2.6-.3-3.3.9-1.8,3.6-5.7,5.1-9.1,6.7-3.6,1.8-7.3,3.5-10.9,5.4-2.7,1.5-.3,5.6,2.4,4.1h0Z"/>
  <path class="cls-2" d="M117.2,74.7c1.1-.8,2.4-1.3,3.7-1.2.7,0,1.4.1,2.1.4.2,0,.4.2.7.3.2,0,.3.2.5.3.2.1.3.3.5.5.1.1.5.6.2.2.3.4.5.8.7,1.2.5,1.3.8,2.8.9,4.2.3,5.6-1.9,12.2-6.5,15.7-2.3,1.7-5.8,2.7-8.5,1.8-2.9-1-4.2,3.7-1.3,4.6,3.8,1.2,8.3,0,11.7-1.9,3.5-2.1,5.9-5.7,7.4-9.4,1.6-3.5,2.2-7.4,2-11.2-.2-3.4-1.1-7.1-3.9-9.4-4-3.1-9.6-2.9-13.5.4-.9.9-.9,2.5,0,3.4.9.9,2.4.9,3.4,0h0Z"/>
  <path class="cls-3" d="M216.4,189.7c-10.2-13.7-18.4-23.1-33.1-33.8-6.7-4.9-13.8-9.2-21.3-12.7-8.7-3.8-15.6-5.4-24.5-8.2l-11.5.4c-11.1,11.8-25.7,19.7-41.6,22.6-6,1-12.1,1.3-18.1-.2-6.3-1.5-11.9-5.3-15.7-10.5-15.8,7.8-30.5,16.8-37.8,27.1-5.6,7.9-7.7,18.7-8.8,28-2.2,18.1-.8,25.9-.8,52.4s.3,37.4-.6,54.3h47.1c30.2-1.5,73.2-1.5,109.2,0l11.9-5,19.3-8.1c2.4,2.3,2.9,4.1,5.7,1.7,1.9-1.6,3.8-3.2,5.7-4.9,3.4-3,6.6-6,9.8-9.2,6-6.1,11.5-12.6,16.6-19.5,7.2-9.6,9.7-12.4,9.8-22.6.3-20.7-8.8-35.5-21-51.9ZM175.9,254.3s-2.9,3.1-5.9,6.1c0-.2,0-.4-.1-.5-1.4-12.5-5.6-43.2-7.4-59.4,1.1,1.3,2.2,2.6,3.3,3.8,8.9,10.4,16.6,21.4,16.7,35.1,0,6.3-2.4,9.5-6.7,14.9Z"/>
  <path class="cls-2" d="M108.3,16.8c7.1,5.1,12,12.2,15.2,20.2,3.3,8.2,4,17,4,25.7,0,4.5-.2,9.1-1.9,13.3-.3,1.3.4,2.6,1.7,3,1.3.3,2.6-.4,3-1.7,1.6-4,2-8.5,2.1-12.8,0-3.9-.2-7.9-.5-11.8-.7-10.2-4-20.1-9.7-28.5-3.1-4.5-7-8.4-11.4-11.5-1.1-.7-2.6-.3-3.3.9-.6,1.1-.3,2.6.9,3.3h0Z"/>
  <path class="cls-2" d="M48.4,148.6c15.1,20.7,45.8,12.6,64.1,1,5.5-3.5,10.6-7.7,15.2-12.4,2.1-2.2-1.2-5.6-3.4-3.4-7.3,7.7-16.1,13.7-25.9,17.7-9.9,4-21.7,6.8-32.3,3.8-5.4-1.5-10.2-4.7-13.5-9.2-.7-1.1-2.1-1.5-3.3-.9-1.1.7-1.5,2.1-.9,3.3Z"/>
  <path class="cls-2" d="M160.8,202.1c5.2,5.9,10.4,12,14.2,18.9,1.9,3.3,3.3,6.9,4.2,10.6.8,3.5,1.4,7.4.7,11-.8,3.8-3.3,6.9-5.7,9.9-.9,1-.9,2.4,0,3.4.9.9,2.5.9,3.4,0,2.5-3.2,5.2-6.4,6.5-10.3,1.3-4,1-8.5.3-12.6-1.4-8.4-5.7-16.1-10.7-22.8-3-4-6.2-7.8-9.5-11.5-2-2.3-5.4,1.1-3.4,3.4h0Z"/>
  <path class="cls-2" d="M136.7,137.4c7.8,2.4,15.7,4.4,23.2,7.6,6.4,2.8,12.4,6.2,18.1,10.2,12.2,8.3,23,18.5,32,30.2,8.9,11.3,17.9,23.5,22.2,37.4,2.2,7,3,14.3,2.5,21.6-.2,2.5-.8,5-1.8,7.4-1.4,2.6-2.9,5.1-4.8,7.4-5,6.9-10.4,13.5-16.1,19.8-5.9,6.2-12.2,12-18.9,17.5-.3.2-.2-.1-.1,0,0,0,.2,0,.3,0,0,0,.2,0,.2.1,0,0-.5-.4-.4-.4-.6-.6-1.2-1.3-1.8-1.9-2.2-2.2-5.6,1.2-3.4,3.4,1.2,1.2,2.3,2.9,4.1,3.4,2,.6,3.8-.6,5.3-1.8,3.6-2.9,7.1-6,10.5-9.2,6.6-6.3,12.8-13.1,18.4-20.3,2.6-3.3,5.1-6.7,7.6-10.1,1.8-2.4,3.3-5.1,4.4-8,1-3.1,1.5-6.3,1.5-9.5,0-4-.2-8.1-.8-12-2.4-15.4-10.9-28.7-20-41-4.5-6.2-9.3-12.2-14.5-17.8-5.3-5.6-11-10.7-17.2-15.4-6.6-5.1-13.6-9.5-21-13.3-7-3.5-14.5-5.8-22-8.1-2.1-.6-4.2-1.2-6.3-1.9-3-.9-4.2,3.7-1.3,4.6h0Z"/>
  <path class="cls-2" d="M159.4,194.2c1.8,18.6,4.6,37.2,6.9,55.8.5,3.8.8,7.6,1.4,11.3.7,3.6,1.4,7.1,2.2,10.7,2.2,10,4.5,19.9,6.8,29.9,2.1,9.4,4.4,18.9,5.8,28.5.4,1.3,1.7,2,3,1.7,1.3-.4,2-1.7,1.7-3-1.2-8.3-3.1-16.5-4.9-24.6-2.2-10-4.6-20-6.8-30.1-.9-4-1.8-8-2.6-12-.1-.7-.3-1.4-.4-2.1,0-.2-.2-1.3-.1-.6,0-.4-.1-.8-.1-1.3-.2-1.8-.4-3.6-.7-5.4-1.2-9.9-2.5-19.8-3.8-29.7-1.2-9.7-2.6-19.3-3.5-29,0-1.3-1.1-2.4-2.4-2.4-1.3,0-2.4,1.1-2.4,2.4h0Z"/>
  <path class="cls-4" d="M172.6,329.5c-.5-3.5-1-6.7-1.5-10.1l-1.2.3c.2,1.9-1.6,3.6-3.6,3.7-2,0-3.7-1.1-4.7-2.8-1-1.7-1.6-3.5-1.9-5.4-1.8-8.9-2.6-18-2.2-27.1,0-1.1.2-2.2.4-3.3.7-1.6,1.6-3.1,2.8-4.4,2.6-3,4.8-4.2,7.9-5.9,1.6-.9,3.3-1.4,5.1-1.4,1.1.2,2.2.6,3.1,1.2,5.1,3.2,9.1,7.7,11.6,13.1-1.3,1.7.3,5.4.3,5.4-.5,1.5-1.4,1.9-1.5,3.5-.1,1.8-.8,5.4-.5,7.2,2.3,12,.9,15.6,1.4,27.8.2,6.4-.3,12.1-2.7,17.8-.9,2.2-2.7,4.5-5,4.2-1.3-.3-2.4-1.1-3-2.2-1.9-2.9-2.6-8.1-3.2-11.5-.7-3.7-1.2-7-1.6-10.2Z"/>
  <path class="cls-2" d="M166.3,307.3c1.9,8.4,3.1,16.9,4.3,25.4.6,4,1.2,8.1,2,12.1.7,3.6,1.8,8.2,5.3,10.2,4.2,2.4,8.1-1.1,9.6-4.9,1.7-4.1,2.6-8.5,2.8-13,.2-4,0-8-.2-12-.2-3.9-.3-7.7-.5-11.6-.2-3.4-.3-6.9-.5-10.3,0-1,0-1.9,0-2.9,0-1.6.4-3.2,1-4.6,1-2.9-3.7-4.2-4.6-1.3-.8,2.3-1.2,4.7-1.2,7.2,0,2.4.2,4.9.3,7.3.3,6.9.7,13.9.9,20.8.3,3.9.1,7.9-.5,11.8-.4,2-.9,3.9-1.6,5.8-.4,1.1-1.1,3.2-2.4,3.6-1.1.4-2-1.4-2.4-2.2-.6-1.5-1.1-3-1.4-4.6-.8-3.8-1.4-7.6-1.9-11.4-1.4-8.9-2.5-17.9-4.5-26.7-.7-3-5.3-1.7-4.6,1.3h0Z"/>
  <path class="cls-2" d="M192.4,293.8c-1.3-6.4-5-12.4-9.3-17.1-2-2.3-4.5-4.2-7.3-5.4-3.6-1.4-7.3.6-10.4,2.4-3,1.7-5.6,4-7.6,6.7-1.2,1.4-2,3.1-2.4,4.9-.3,1.9-.4,3.9-.4,5.8-.1,8.4.7,16.8,2.4,25,.8,3.9,2.5,7.9,6.5,9.4,3.8,1.4,8.6-1.4,8.4-5.7-.2-3.1-5-3.1-4.8,0,0,.7-.5,1.2-1.1,1.3,0,0,0,0,0,0-1,0-1.8-.5-2.4-1.3-1.8-2.1-2-5.5-2.5-8.1-1.2-6.7-1.7-13.4-1.6-20.2,0-1.6,0-3.2.2-4.7.2-1.3.7-2.5,1.6-3.5,1.5-2.1,3.4-3.8,5.6-5.1,1.9-1.2,4.9-3.3,7.2-2.3,2,1,3.7,2.4,5.2,4.1,4,4.2,6.9,9.4,8.2,15.1.4,1.3,1.7,2,3,1.7,1.3-.4,2-1.7,1.7-3h0Z"/>
  <path class="cls-2" d="M49.5,311.5c13.3-.7,26.7-1,40-1.1,14.9-.1,29.8,0,44.6.3,8.2.2,16.4.5,24.5.8,3.1.1,3.1-4.7,0-4.8-14.7-.7-29.4-1-44.1-1.1-14.5-.1-29,0-43.5.3-7.2.2-14.4.4-21.6.8-3.1.2-3.1,5,0,4.8Z"/>
  <path class="cls-5" d="M225.8,319.7c8.4,1.6,16.9,2.9,25.3,4.5l-1.4-3.5c-1.6,3.8-3.5,7.4-5.2,11.2-.6,1.2-.3,3.3,1.4,3.5,8.8,1.3,17.6,2.6,26.3,3.9,1.3.3,2.6-.4,3-1.7.3-1.3-.4-2.6-1.7-3-8.8-1.3-17.6-2.6-26.4-3.9l1.4,3.5c1.7-3.7,3.6-7.4,5.2-11.2.5-1.3.3-3.2-1.4-3.5-8.4-1.6-16.9-2.9-25.3-4.5-1.3-.3-2.6.4-3,1.7-.3,1.3.4,2.6,1.7,3h0Z"/>
  <path class="cls-5" d="M219.9,304.6c10.5-3.3,20.5-7.9,31-11.1l-3-2.3c.4,4.1.4,8.2.6,12.3,0,1.3,1.1,2.4,2.5,2.4.2,0,.4,0,.6,0,9-3.2,18.2-5.9,27.2-9.1,1.3-.4,2-1.7,1.7-3-.4-1.3-1.7-2-3-1.7-9,3.2-18.2,5.9-27.2,9.1l3,2.3c-.3-4.1-.3-8.2-.6-12.3,0-1.3-1.1-2.4-2.5-2.4-.2,0-.4,0-.6,0-10.5,3.2-20.5,7.9-31,11.1-2.9.9-1.7,5.6,1.3,4.6h0Z"/>
  <path class="cls-2" d="M49.3,145.3c-11.9,5.8-24.1,12.4-33.5,21.9-4.3,4.3-7.7,9.5-9.8,15.2-2.2,6.1-3.6,12.5-4.3,18.9-1.1,9-1.5,18-1.3,27.1.2,12,.3,24,.4,35.9,0,15,.1,30-.6,45-.2,3.1,4.6,3.1,4.8,0,.7-13.2.7-26.3.6-39.5,0-12.3,0-24.6-.3-36.8-.3-8.8,0-17.5.6-26.3,1.1-11.4,2.9-23.9,10.5-33,4.4-5,9.5-9.4,15.1-12.9,6.5-4.2,13.3-8,20.4-11.4,1.1-.7,1.5-2.1.9-3.3-.7-1.1-2.1-1.5-3.3-.9h0Z"/>
  <path class="cls-2" d="M32.6,219.8c1.6,5.5,2.8,11.2,3.9,16.9,1.5,7.2,2.9,14.4,4.2,21.6,1.1,6.3,2.2,12.6,3.2,18.9.2,1.2.3,2.3.5,3.5,0,.2,0,.4,0,.7,0,.3,0,.7,0,.1,0,.4.1.9.2,1.3.4,3.5.5,7,.8,10.5.8,12.7.8,25.5-.1,38.3,0,1.3,1.1,2.4,2.4,2.4,1.3,0,2.4-1.1,2.4-2.4.8-11.4,1-22.9.3-34.3-.3-6.5-.7-12.9-1.6-19.3-2-13.3-4.4-26.6-7.1-39.7-1.3-6.6-2.7-13.2-4.5-19.6-.8-3-5.5-1.7-4.6,1.3h0Z"/>
</svg>