<?xml version="1.0" encoding="UTF-8"?>
<svg id="_レイヤー_2" data-name="レイヤー 2" xmlns="http://www.w3.org/2000/svg" viewBox="0 0 295.55 201.68">
  <defs>
    <style>
      .cls-1 {
        fill: #ca161d;
      }

      .cls-1, .cls-2, .cls-3 {
        stroke-width: 0px;
      }

      .cls-2 {
        fill: #ef7e46;
      }

      .cls-3 {
        fill: #423232;
      }
    </style>
  </defs>
  <g id="_レイヤー_1-2" data-name="レイヤー 1">
    <g>
      <g>
        <path class="cls-1" d="M176.58,38.81c2.77,2.77,6.45,4.29,10.35,4.29,3.91,0,7.59-1.53,10.36-4.29.85-.86.85-2.24,0-3.1-.86-.85-2.24-.85-3.1,0-1.94,1.94-4.52,3.01-7.26,3.01-2.74,0-5.32-1.07-7.26-3.01-.85-.85-2.24-.85-3.1,0-.85.86-.85,2.24,0,3.1Z"/>
        <path class="cls-1" d="M181.54,26.71c-.05.94-.46,1.8-1.15,2.42-.65.59-1.48.91-2.35.91-.06,0-.12,0-.18,0-1.93-.09-3.42-1.74-3.32-3.67.1-1.93,1.75-3.42,3.67-3.32,1.92.09,3.42,1.74,3.32,3.67Z"/>
        <path class="cls-1" d="M199.33,26.36c.09,1.93-1.4,3.57-3.32,3.67-.06,0-.12,0-.18,0-.87,0-1.7-.32-2.35-.91-.69-.63-1.1-1.48-1.15-2.42-.09-1.93,1.4-3.57,3.32-3.67.93-.04,1.83.28,2.52.9.69.63,1.1,1.49,1.15,2.42Z"/>
        <path class="cls-2" d="M118.96,38.81c-2.77,2.77-6.45,4.29-10.35,4.29s-7.59-1.53-10.36-4.29c-.85-.86-.85-2.24,0-3.1.86-.85,2.24-.85,3.1,0,1.94,1.94,4.52,3.01,7.26,3.01s5.32-1.07,7.26-3.01c.85-.85,2.24-.85,3.1,0,.85.86.85,2.24,0,3.1Z"/>
        <path class="cls-2" d="M114.01,26.71c.05.94.46,1.8,1.15,2.42.65.59,1.48.91,2.35.91.06,0,.12,0,.18,0,1.93-.09,3.42-1.74,3.32-3.67-.1-1.93-1.75-3.42-3.67-3.32-1.92.09-3.42,1.74-3.32,3.67Z"/>
        <path class="cls-2" d="M96.22,26.36c-.09,1.93,1.4,3.57,3.32,3.67.06,0,.12,0,.18,0,.87,0,1.7-.32,2.35-.91.69-.63,1.1-1.48,1.15-2.42.09-1.93-1.4-3.57-3.32-3.67-.93-.04-1.83.28-2.52.9-.69.63-1.1,1.49-1.15,2.42Z"/>
        <path class="cls-2" d="M227.03,24.78c.09,1.93-1.4,3.57-3.32,3.67-.06,0-.12,0-.18,0-.87,0-1.7-.32-2.35-.91-.69-.63-1.1-1.48-1.15-2.42-.09-1.93,1.4-3.57,3.32-3.67.93-.04,1.83.28,2.52.9.69.63,1.1,1.49,1.15,2.42Z"/>
        <path class="cls-2" d="M222.98,14.3c.12,2.4-1.73,4.44-4.13,4.56-.07,0-.15,0-.22,0-1.08,0-2.11-.4-2.92-1.13-.86-.78-1.37-1.84-1.42-3.01-.12-2.4,1.73-4.44,4.13-4.56,1.15-.05,2.27.34,3.13,1.12.86.79,1.37,1.85,1.42,3.01Z"/>
        <path class="cls-2" d="M214.28,4.69c.13,2.72-1.97,5.04-4.69,5.17-.08,0-.17,0-.25,0-1.23,0-2.39-.45-3.31-1.28-.98-.88-1.55-2.09-1.62-3.42-.13-2.72,1.97-5.04,4.69-5.17,1.31-.06,2.58.39,3.56,1.27.98.89,1.55,2.1,1.62,3.42Z"/>
        <path class="cls-1" d="M68.52,24.78c-.09,1.93,1.4,3.57,3.32,3.67.06,0,.12,0,.18,0,.87,0,1.7-.32,2.35-.91.69-.63,1.1-1.48,1.15-2.42.09-1.93-1.4-3.57-3.32-3.67-.93-.04-1.83.28-2.52.9-.69.63-1.1,1.49-1.15,2.42Z"/>
        <path class="cls-1" d="M72.57,14.3c-.12,2.4,1.73,4.44,4.13,4.56.07,0,.15,0,.22,0,1.08,0,2.11-.4,2.92-1.13.86-.78,1.37-1.84,1.42-3.01.12-2.4-1.73-4.44-4.13-4.56-1.15-.05-2.27.34-3.13,1.12-.86.79-1.37,1.85-1.42,3.01Z"/>
        <path class="cls-1" d="M81.27,4.69c-.13,2.72,1.97,5.04,4.69,5.17.08,0,.17,0,.25,0,1.23,0,2.39-.45,3.31-1.28.98-.88,1.55-2.09,1.62-3.42.13-2.72-1.97-5.04-4.69-5.17-1.31-.06-2.58.39-3.56,1.27-.98.89-1.55,2.1-1.62,3.42Z"/>
        <path class="cls-2" d="M170.05,47.27c-4.67-8.08-10.18-15.16-16.18-21.1-1.99-1.96-4.02-3.79-6.1-5.49l-.02-.02c-11.46-9.35-24.09-14.59-35.63-14.57-5.95,0-11.6,1.39-16.67,4.29-22.08,12.75-24.46,49.93-5.34,83.05,13.15,22.79,33.05,37.7,51.37,40.65.03,0,.07,0,.12.02.85.14,1.71.25,2.59.32.19.02.39.03.57.05.91.07,1.81.1,2.74.1h.27c3.18-.02,6.46-.44,9.75-1.23,2.48-.71,4.9-1.71,7.18-3.03,6.78-3.92,11.7-10.14,14.71-17.83,6.81-17.36,3.89-42.26-9.36-65.22ZM174.7,95.92c-.83,12.88-5.83,22.58-14.06,27.35-1.59.91-3.26,1.62-5.04,2.15-2.37.71-4.89,1.06-7.56,1.06h-.27c-.9-.02-1.81-.07-2.74-.15h-.1c-.78-.07-1.56-.17-2.3-.32-.07,0-.14-.02-.19-.02-6.68-1.17-13.83-4.28-20.66-9.06-1.93-1.34-3.79-2.79-5.61-4.36-7.29-6.22-13.78-14.13-19.02-23.21-4.31-7.44-7.49-15.21-9.5-23.09-1.89-7.47-2.64-14.69-2.2-21.47.83-12.88,5.83-22.6,14.06-27.35,3.7-2.15,7.93-3.23,12.59-3.23,8.15,0,17.48,3.4,26.27,9.55,1.08.78,2.16,1.57,3.23,2.42,2.1,1.66,4.14,3.45,6.14,5.38l.02.02c5.76,5.61,10.92,12.29,15.23,19.76,4.31,7.45,7.51,15.21,9.5,23.09,1.89,7.47,2.64,14.71,2.2,21.48Z"/>
        <path class="cls-1" d="M200.09,10.36c-5.07-2.92-10.72-4.31-16.67-4.31-11.07,0-23.12,4.82-34.2,13.44,2.1,1.74,4.14,3.6,6.14,5.56.59-.44,1.2-.88,1.79-1.3,8.79-6.17,18.12-9.55,26.27-9.55,4.67,0,8.89,1.08,12.59,3.21,8.23,4.77,13.24,14.47,14.06,27.35.44,6.78-.3,14-2.2,21.48-2.01,7.88-5.21,15.64-9.5,23.09-4.51,7.83-9.99,14.81-16.08,20.57-2.33,7.56-6.25,13.79-11.53,18.36,12.95-6.85,25.46-18.93,34.65-34.87,19.12-33.11,16.73-70.29-5.34-83.03ZM132.54,51.31c3.97-6.9,8.67-13.12,13.89-18.44-1.98-1.93-4.02-3.72-6.12-5.36-5.48,5.63-10.51,12.26-14.82,19.73-12.39,21.47-15.75,44.63-10.56,61.75,2.54,2.37,5.19,4.51,7.91,6.44,2.59,1.81,5.22,3.36,7.84,4.67-5.71-5.32-9.16-13.73-9.84-24.22-.44-6.78.3-14,2.2-21.48,1.99-7.86,5.19-15.64,9.5-23.07Z"/>
      </g>
      <g>
        <g>
          <path class="cls-3" d="M4.15,173.81c-.48.51-1.06.76-1.73.76s-1.24-.26-1.71-.78c-.47-.52-.71-1.15-.71-1.88v-17.25c0-.76.24-1.41.73-1.96s1.07-.82,1.76-.82,1.28.27,1.78.8c.5.53.74,1.18.74,1.94v4.37c0,.05.01.08.04.08.05,0,.07-.03.07-.08,2.17-3.5,5.13-5.74,8.88-6.72.23-.05.35-.23.35-.53v-.68c0-.84.26-1.54.79-2.13.53-.58,1.17-.87,1.94-.87s1.4.29,1.93.87c.53.58.79,1.29.79,2.13v.38c0,.28.13.44.38.49,3.23.38,5.68,1.52,7.36,3.42,1.68,1.9,2.52,4.53,2.52,7.9s-.91,6.2-2.73,8.11c-1.82,1.91-4.47,3.01-7.95,3.29-.28,0-.45.14-.52.42-.88,2.58-2.62,4.54-5.22,5.89-.67.33-1.35.35-2.04.08-.69-.28-1.22-.77-1.59-1.48-.32-.66-.38-1.32-.16-1.99.22-.67.62-1.2,1.19-1.58.76-.48,1.36-1.03,1.8-1.63.05-.08.07-.17.07-.29s-.05-.18-.14-.21c-1.41-.51-2.67-1.24-3.8-2.2-.55-.46-.85-1.08-.9-1.86s.15-1.48.59-2.09c.39-.56.91-.87,1.55-.95.65-.08,1.23.09,1.76.49.53.43,1.19.82,1.97,1.18.09.05.18.04.26-.04.08-.08.12-.16.12-.27v-9.88c0-.1-.04-.18-.1-.25-.07-.06-.15-.08-.24-.06-2.42.89-4.44,2.56-6.07,5.01-1.62,2.46-2.61,5.45-2.96,8.97-.07.76-.35,1.39-.83,1.9ZM24.5,163.25c0-3.19-1.45-5.1-4.36-5.74-.09-.03-.17,0-.24.08-.07.08-.1.18-.1.3v10.71c0,.28.12.39.35.34,2.9-.63,4.36-2.53,4.36-5.7Z"/>
          <path class="cls-3" d="M35.77,166.02c-.67.15-1.3.03-1.88-.38-.59-.4-.96-.97-1.12-1.71s-.06-1.42.31-2.07c.37-.65.89-1.06,1.55-1.23,5.28-1.29,9.8-1.94,13.58-1.94s6.29.75,8.1,2.26c1.81,1.51,2.71,3.58,2.71,6.21,0,3.62-1.43,6.58-4.29,8.87s-7.17,3.8-12.93,4.54c-.69.1-1.32-.09-1.88-.57-.57-.48-.91-1.1-1.02-1.86-.12-.71.02-1.36.41-1.96.39-.59.92-.94,1.59-1.04,8.34-1.24,12.51-3.8,12.51-7.67,0-1.14-.45-1.97-1.35-2.49-.9-.52-2.29-.78-4.18-.78-2.86,0-6.9.61-12.13,1.82ZM40.06,149.23c4.17.48,8.02.77,11.54.87.69.03,1.28.3,1.78.84s.74,1.18.74,1.94-.24,1.41-.73,1.94c-.48.53-1.07.79-1.76.76-3.92-.13-7.98-.46-12.2-.99-.67-.08-1.21-.41-1.62-1.01s-.58-1.26-.48-2c.09-.73.4-1.33.93-1.79s1.13-.65,1.8-.57Z"/>
          <path class="cls-3" d="M68.64,180c-2.14,0-3.87-.68-5.17-2.05-1.3-1.37-1.95-3.23-1.95-5.58,0-2.53.69-4.79,2.07-6.76,1.38-1.97,3.35-3.49,5.91-4.56.23-.08.35-.27.35-.57v-3.08c0-.28-.13-.42-.38-.42h-4.11c-.6,0-1.12-.25-1.57-.74-.45-.49-.67-1.07-.67-1.73s.22-1.23.67-1.71c.45-.48.97-.72,1.57-.72h4.11c.25,0,.38-.14.38-.42v-.84c0-.76.25-1.41.76-1.96.51-.54,1.11-.82,1.8-.82s1.28.27,1.78.82c.5.54.74,1.2.74,1.96v.84c0,.28.13.42.38.42h11.61c.6,0,1.12.24,1.57.72.45.48.67,1.05.67,1.71s-.22,1.23-.67,1.73c-.45.49-.97.74-1.57.74h-11.61c-.25,0-.38.14-.38.42v1.86c0,.13.04.23.12.3.08.08.17.1.26.08,1.2-.1,2.14-.15,2.83-.15,4.05,0,7.17.97,9.35,2.91,2.18,1.94,3.27,4.58,3.27,7.92,0,2.51-.67,4.71-2,6.61s-3.2,3.32-5.6,4.25c-.65.25-1.28.2-1.9-.17-.62-.37-1.04-.93-1.24-1.69-.18-.68-.12-1.35.19-2,.31-.65.78-1.13,1.4-1.46,1.2-.63,2.14-1.44,2.83-2.43.69-.99,1.04-2.03,1.04-3.12,0-1.57-.45-2.84-1.35-3.8-.18-.2-.33-.16-.45.11-1.64,4.25-3.81,7.55-6.51,9.88-2.71,2.33-5.55,3.5-8.52,3.5ZM69.5,167.04c-1.8,1.29-2.7,2.85-2.7,4.67,0,.99.21,1.75.64,2.3.43.54,1.02.82,1.78.82.02,0,.06,0,.12-.02.06-.01.1-.02.12-.02.25,0,.38-.15.38-.46v-7.1c0-.1-.04-.17-.12-.21-.08-.04-.16-.03-.22.02ZM78.14,164.69c-.9,0-1.84.06-2.83.19-.25.05-.38.22-.38.49v5.77c0,.08.04.13.1.15.07.03.13.01.17-.04,1.45-1.67,2.68-3.74,3.7-6.19.02-.1.01-.19-.03-.27-.05-.08-.12-.11-.21-.11h-.52Z"/>
          <path class="cls-3" d="M102.3,180.76c-2.05,0-3.95-1.48-5.69-4.45-1.74-2.96-2.61-6.58-2.61-10.86,0-3.52.37-7.07,1.11-10.64.16-.84.58-1.49,1.24-1.98.67-.48,1.39-.67,2.18-.57.71.1,1.27.48,1.68,1.14.4.66.54,1.38.4,2.17-.69,3.62-1.04,6.91-1.04,9.88,0,2.56.35,4.73,1.05,6.51.7,1.79,1.4,2.68,2.09,2.68.42,0,.96-.45,1.64-1.35.68-.9,1.39-2.2,2.12-3.89.32-.71.81-1.21,1.45-1.5.65-.29,1.29-.31,1.94-.06.67.28,1.15.77,1.45,1.48.3.71.3,1.41,0,2.09-1.2,2.96-2.62,5.26-4.27,6.9-1.65,1.63-3.23,2.45-4.75,2.45ZM116.95,173.58c-.28-6.21-1.34-12.07-3.18-17.59-.25-.73-.22-1.45.09-2.15.31-.7.81-1.16,1.5-1.39.76-.23,1.49-.17,2.18.17s1.17.89,1.45,1.65c2.1,5.72,3.28,12.16,3.56,19.3.02.86-.23,1.59-.76,2.18-.53.6-1.19.89-1.97.89s-1.45-.3-1.99-.89c-.54-.59-.84-1.32-.88-2.18Z"/>
        </g>
        <g>
          <path class="cls-3" d="M127.78,158.54l-.03-.27c-.27-1.59.18-3.08,1.36-4.49.68-.84,1.22-1.59,1.63-2.25.73-1.18,1.77-1.77,3.13-1.77s2.43.57,3.33,1.7c.39.48.77.93,1.16,1.36.5.57.81,1.21.93,1.92.12.71.02,1.4-.32,2.06-.11.23-.17.44-.17.65v.31c0,.66-.23,1.22-.7,1.68-.46.46-1.01.7-1.65.7-.2,0-.31.1-.31.31v1.56c0,.23.11.34.34.34h.58c.57,0,1.05.2,1.46.61s.61.91.61,1.5-.2,1.05-.6,1.46-.89.61-1.48.61h-.58c-.23,0-.34.11-.34.34v7.04c0,.23.11.32.34.27.04-.02.12-.04.22-.07.1-.02.18-.03.22-.03.5-.11.95-.01,1.36.31s.61.73.61,1.22c0,.61-.18,1.16-.53,1.63-.35.48-.81.79-1.38.95-2.4.63-4.57,1.12-6.5,1.46-.57.09-1.09-.03-1.56-.36s-.76-.79-.85-1.38c-.09-.57.04-1.08.39-1.55s.82-.75,1.41-.87c.39-.04.87-.14,1.46-.27.25-.05.37-.19.37-.44v-7.89c0-.25-.14-.37-.41-.37h-1.09c-.57,0-1.05-.2-1.46-.61s-.61-.9-.61-1.46.2-1.09.61-1.5.9-.61,1.46-.61h1.09c.27,0,.41-.12.41-.37v-1.67c0-.11-.07-.17-.2-.17h-.44c-.27,0-.51-.1-.71-.31s-.31-.44-.31-.71c0-.07-.02-.08-.07-.03,0,.02-.02.05-.07.09-.05.03-.07.06-.07.08-.34.36-.75.46-1.22.29-.48-.17-.76-.5-.85-1ZM130.09,173.91c-.36.07-.69,0-.99-.19s-.46-.47-.51-.83c-.11-1.02-.27-2.15-.48-3.4-.05-.36.04-.69.25-.99s.5-.49.87-.58c.36-.09.69-.03.99.17.29.2.48.49.54.85.2,1.29.36,2.42.48,3.37.04.36-.04.7-.26,1-.22.31-.52.5-.9.59ZM132.54,155.78c-.05.07-.05.14-.02.2.03.07.1.1.19.1h2.99c.09,0,.15-.03.19-.1.03-.07.03-.14-.02-.2-.52-.68-1.04-1.47-1.56-2.38-.02-.07-.08-.1-.17-.1s-.16.03-.2.1c-.59,1.09-1.05,1.88-1.39,2.38ZM138.16,167.55c.34.02.62.17.83.44.21.27.3.58.25.92-.07.95-.17,1.88-.31,2.79-.02.32-.17.57-.44.75s-.57.25-.88.2c-.34-.07-.61-.23-.8-.49-.19-.26-.27-.56-.22-.9.2-1.72.31-2.62.31-2.69.04-.32.19-.57.42-.77s.52-.28.83-.25ZM147.41,175.78c1.18-.77,2.23-1.67,3.16-2.69.05-.04.05-.1,0-.17-.04-.07-.1-.1-.17-.1h-1.77c-.16,0-.24.09-.24.27,0,.5-.18.92-.53,1.28s-.79.53-1.31.53-.96-.17-1.31-.53-.53-.78-.53-1.28v-7.48c0-.79.28-1.47.85-2.04s1.25-.85,2.04-.85h2.86c.23,0,.34-.12.34-.38,0-.07,0-.17-.02-.32-.01-.15-.02-.25-.02-.32,0-.25-.15-.38-.44-.38h-5.71c-.09,0-.18.04-.27.12-.09.08-.14.18-.14.29v2.69c0,6.53-.37,11.23-1.12,14.08-.16.57-.51.97-1.05,1.21-.54.24-1.09.22-1.63-.05-.57-.29-.98-.73-1.22-1.29-.25-.57-.31-1.17-.17-1.8.57-2.58.85-7.86.85-15.82v-5.92c0-.79.28-1.47.85-2.04.57-.57,1.25-.85,2.04-.85h7.25c.25,0,.37-.14.37-.41,0-.07,0-.18-.02-.32-.01-.15-.02-.25-.02-.32,0-.57.2-1.04.6-1.43s.88-.58,1.45-.58,1.05.19,1.45.58c.4.39.59.86.59,1.43,0,.07,0,.18.02.34.01.16.02.27.02.34,0,.25.11.37.34.37h.51c.2,0,.28-.11.24-.34l-.2-.71c-.14-.45-.1-.88.12-1.28.21-.4.54-.66.97-.8.45-.14.88-.1,1.28.1.4.2.66.52.8.95.25.77.44,1.44.58,2.01,0,.05.03.07.1.07.43,0,.65.22.65.65v1.43c0,.59-.2,1.09-.61,1.5s-.9.61-1.46.61h-2.82c-.25,0-.37.14-.37.41.11,2.86.25,5.35.41,7.48,0,.05.02.07.05.07s.06-.02.08-.07c.23-.84.48-1.93.75-3.27.11-.5.39-.87.83-1.11s.89-.24,1.34-.02c.54.25.95.65,1.22,1.19.27.54.35,1.1.24,1.67-.75,3.49-1.85,6.59-3.3,9.29-.14.25-.17.5-.1.75.32,1.47.57,2.21.75,2.21.16,0,.28-.93.38-2.79.02-.41.21-.72.58-.94.36-.21.73-.24,1.09-.08.48.2.85.53,1.12.97.27.44.4.92.37,1.45-.18,2.36-.56,4.12-1.14,5.29-.58,1.17-1.25,1.75-2.02,1.75-1.45,0-2.71-1.33-3.78-3.98-.02-.09-.08-.14-.17-.15-.09-.01-.16.02-.2.08-.95,1.07-2.03,2.04-3.23,2.93-.52.34-1.07.45-1.65.32-.58-.12-1.05-.45-1.41-.97-.32-.48-.41-.99-.27-1.53.14-.54.44-.97.92-1.29ZM150.13,157.51c.25,0,.37-.12.37-.37,0-.07,0-.18-.02-.34s-.02-.27-.02-.34c0-.23-.14-.34-.41-.34h-5.44c-.27,0-.41.12-.41.37v.65c0,.25.14.37.41.37h5.51ZM148.53,169.01v-2.35c0-.09-.04-.18-.12-.27-.08-.09-.18-.14-.29-.14h-.1c-.09,0-.18.05-.27.14-.09.09-.14.18-.14.27v2.35c0,.25.14.38.41.38h.1c.27,0,.41-.12.41-.38ZM150.91,163.88v8.44c0,.07.03.11.08.12.06.01.11,0,.15-.05.05-.07.15-.19.31-.37.16-.18.27-.33.34-.44.11-.16.15-.39.1-.68-.34-1.84-.66-4.18-.95-7.04l-.03.03Z"/>
          <path class="cls-3" d="M165.5,165.37c-.63.09-1.23-.04-1.79-.39s-.92-.84-1.11-1.48c-.16-.57-.07-1.11.25-1.62.33-.51.79-.81,1.38-.9,4.35-.66,7.83-1.42,10.43-2.28,2.6-.86,4.82-1.95,6.68-3.27.09-.07.1-.14.03-.2-.02-.02-.06-.03-.1-.03h-7.89c-.23,0-.45.08-.68.24-1.45,1.13-3.02,2.16-4.69,3.06-.66.34-1.34.45-2.04.32-.7-.12-1.32-.46-1.84-1-.41-.45-.56-.97-.44-1.57.11-.59.43-1.02.95-1.29,2.54-1.34,4.67-2.76,6.39-4.25,1.47-1.29,3.08-1.84,4.83-1.63l.99.14c.41.05.69.25.85.63.16.37.11.72-.14,1.04-.05.05-.06.09-.03.14.02.05.06.07.1.07h9.29c.59,0,1.08.2,1.48.59.4.4.6.88.6,1.45,0,1.43-.51,2.58-1.53,3.47-.14.11-.6.49-1.39,1.12-.23.18-.24.34-.03.48,1.38,1.04,3.23,2.02,5.54,2.92.59.25,1.02.65,1.29,1.21.27.56.31,1.13.1,1.72s-.59,1.03-1.16,1.33c-.57.29-1.15.34-1.74.14-3.27-1.13-6.01-2.71-8.23-4.73-.18-.16-.39-.18-.61-.07-4.01,2.02-9.26,3.57-15.75,4.66ZM163.33,178.16c-.27-.59-.26-1.18.03-1.79s.76-.98,1.39-1.14c3.81-.95,6.46-2.06,7.96-3.33,1.5-1.27,2.25-2.9,2.25-4.9v-1.29c0-.77.27-1.42.82-1.96.54-.53,1.2-.8,1.97-.8s1.43.27,1.97.8c.54.53.82,1.19.82,1.96v1.29c0,1.97.75,3.59,2.25,4.86,1.5,1.27,4.15,2.39,7.96,3.37.63.16,1.1.54,1.39,1.14s.31,1.2.03,1.79c-.32.68-.82,1.2-1.5,1.55-.68.35-1.37.43-2.07.22-4.45-1.29-7.89-3.4-10.34-6.33-.2-.18-.38-.2-.51-.07-2.63,2.99-6.25,5.14-10.85,6.43-.73.2-1.42.13-2.09-.22s-1.16-.88-1.48-1.58ZM170.06,170.88c-.36.61-.9,1.03-1.6,1.24-.7.22-1.39.2-2.08-.05-.57-.2-.95-.61-1.14-1.21s-.12-1.16.22-1.68c.45-.73.85-1.43,1.19-2.11.32-.63.78-1.11,1.39-1.43.61-.32,1.26-.4,1.94-.24.66.18,1.13.56,1.43,1.14s.31,1.16.03,1.75c-.34.75-.8,1.61-1.39,2.58ZM188.67,171.02c-.43.61-1.02,1.01-1.77,1.21-.75.19-1.47.15-2.18-.12-.57-.2-.93-.6-1.09-1.19-.16-.59-.06-1.13.31-1.63.38-.5.76-1.07,1.12-1.7.39-.63.92-1.11,1.6-1.41.68-.31,1.36-.35,2.04-.12.66.2,1.12.61,1.39,1.22s.24,1.21-.1,1.8c-.29.5-.74,1.15-1.33,1.94Z"/>
          <path class="cls-3" d="M197.89,159.59c-.61,0-1.13-.21-1.57-.63s-.65-.94-.65-1.55.22-1.14.65-1.58.95-.66,1.57-.66h.17c.2,0,.31-.1.31-.31v-2.65c0-.7.24-1.3.73-1.79.49-.49,1.08-.73,1.79-.73s1.3.24,1.79.73c.49.49.73,1.08.73,1.79v2.62c0,.23.11.34.34.34h.34c.61,0,1.13.22,1.56.66s.65.97.65,1.58-.22,1.13-.65,1.55-.95.63-1.56.63h-.34c-.23,0-.34.11-.34.34v4.12c0,.18.09.25.27.2.48-.14.92-.1,1.34.12.42.22.71.55.87,1,.09.23.24.29.44.2.2-.07.43-.1.68-.1h3.23c.25,0,.44-.1.58-.31.02-.04.06-.1.1-.17.05-.07.08-.12.1-.17.25-.41.63-.82,1.16-1.22.09-.04.09-.11,0-.2-.02-.02-.05-.03-.07-.03h-5.17c-.57,0-1.05-.19-1.45-.58-.4-.38-.6-.86-.6-1.43s.2-1.05.6-1.45c.4-.4.88-.6,1.45-.6h2.42c.23,0,.29-.11.2-.34-.07-.11-.18-.35-.32-.7s-.27-.62-.36-.8c-.18-.43-.26-.83-.24-1.19,0-.25-.1-.37-.31-.37h-.44c-.59,0-1.1-.21-1.53-.63-.43-.42-.65-.92-.65-1.51s.21-1.09.65-1.51c.43-.42.94-.63,1.53-.63h5.54c.2,0,.31-.1.31-.31,0-.63.22-1.17.65-1.6s.96-.65,1.6-.65h.88c.63,0,1.17.22,1.62.65.44.43.66.96.66,1.6,0,.2.1.31.31.31h5.58c.59,0,1.09.21,1.51.63.42.42.63.92.63,1.51s-.21,1.09-.63,1.51c-.42.42-.92.63-1.51.63h-.61c-.09,0-.17.04-.22.12-.06.08-.07.17-.05.25.11.45.07.9-.14,1.33l-.61,1.33c-.05.09-.05.18,0,.25.04.08.11.12.2.12h2.18c.57,0,1.05.2,1.45.6s.6.88.6,1.45-.2,1.04-.6,1.43c-.4.39-.88.58-1.45.58h-9.01c-.07,0-.12.03-.15.1-.03.07-.04.14-.02.2.32.52.34,1.03.07,1.53-.09.18-.03.27.17.27h8.88c.59,0,1.09.21,1.5.63.41.42.61.91.61,1.48s-.2,1.05-.61,1.46-.91.61-1.5.61h-.75c-.23,0-.4.11-.51.34-.63,1.38-1.37,2.57-2.21,3.57-.14.2-.11.34.07.41.93.43,2,.94,3.2,1.53.57.29.93.75,1.09,1.36.16.61.08,1.19-.24,1.73-.32.57-.79.94-1.43,1.11s-1.24.1-1.8-.22c-1.59-.86-3.15-1.67-4.69-2.42-.23-.11-.45-.11-.68,0-2.65,1.38-6.23,2.37-10.72,2.96-.61.09-1.17-.05-1.67-.41-.5-.36-.83-.84-.99-1.43-.14-.54-.04-1.05.29-1.51.33-.46.78-.72,1.34-.77,2.47-.27,4.54-.66,6.19-1.16.07-.02.1-.06.1-.12s-.02-.1-.07-.12c-.66-.25-1.34-.48-2.04-.68-.11-.05-.22-.02-.31.07-.32.27-.68.43-1.09.48-.41.05-.78-.04-1.12-.27l-.75-.48c-.5-.29-.78-.73-.85-1.31-.07-.58.09-1.08.48-1.51.18-.18.43-.48.75-.88.02-.04.04-.08.05-.12s0-.07-.02-.1c-.02-.03-.06-.05-.1-.05h-.24c-.79,0-1.4-.34-1.8-1.02-.11-.2-.26-.25-.44-.14-.25.16-.5.27-.75.34-.04,0-.09.01-.14.03-.05.02-.09.03-.14.03-.23.07-.34.22-.34.44v5.17c0,1.04-.01,1.86-.03,2.45-.02.59-.1,1.14-.24,1.67-.14.52-.29.89-.46,1.11-.17.21-.45.41-.83.58s-.8.27-1.24.31c-.44.03-1.05.05-1.82.05h-.61c-.61-.05-1.14-.28-1.58-.71-.44-.43-.68-.95-.7-1.56-.02-.57.17-1.04.56-1.43.4-.38.88-.57,1.45-.54h.03c.2,0,.33-.06.38-.19.04-.12.07-.53.07-1.21v-4.42c0-.2-.09-.28-.27-.24-.57.11-1.07,0-1.51-.34-.44-.34-.69-.79-.73-1.36v-.24c-.05-.66.14-1.25.56-1.79s.96-.87,1.62-1c.23-.04.34-.17.34-.37v-5.34c0-.23-.1-.34-.31-.34h-.17ZM218.91,169.66h-4.73c-.27,0-.48.1-.61.31-.02.05-.07.11-.14.19-.07.08-.12.14-.17.19-.05.07-.06.15-.03.24.02.09.08.15.17.17.82.23,2.04.61,3.67,1.16.23.07.43.01.61-.17.52-.52.99-1.09,1.39-1.7.04-.07.05-.15.02-.24-.03-.09-.1-.14-.19-.14ZM219.21,155.92h-5.48c-.09,0-.16.04-.2.12-.04.08-.04.17,0,.25.27.59.66,1.47,1.16,2.65.11.25.29.37.54.37h2.31c.27,0,.46-.11.58-.34.45-.84.9-1.75,1.33-2.72.02-.09.01-.17-.03-.24-.05-.07-.11-.1-.2-.1Z"/>
          <path class="cls-3" d="M232.85,166.56c-.7-.02-1.29-.29-1.77-.82-.48-.52-.71-1.13-.71-1.84v-2.65c0-.66.23-1.22.7-1.68s1.03-.7,1.68-.7c.2,0,.31-.1.31-.31v-5.95c0-.79.28-1.47.85-2.04s1.25-.85,2.04-.85h19.66c.79,0,1.47.28,2.04.85s.85,1.25.85,2.04v5.95c0,.2.1.31.31.31.66,0,1.22.23,1.68.7s.7,1.03.7,1.68v2.65c0,.7-.24,1.32-.71,1.84-.48.52-1.07.79-1.77.82-.25,0-.37.12-.37.37v7.99c0,1.36-.04,2.36-.12,2.99s-.35,1.16-.8,1.58c-.45.42-1.01.66-1.67.73-.66.07-1.71.1-3.16.1-1.07,0-2.15-.02-3.26-.07-.54-.02-1.01-.23-1.4-.63-.39-.4-.59-.87-.61-1.41-.02-.52.15-.98.53-1.36.38-.39.82-.57,1.34-.54,1.18.07,2.08.1,2.69.1.43,0,.69-.03.78-.1.09-.07.14-.29.14-.68v-.07c0-.25-.14-.37-.41-.37h-13.2c-.27,0-.41.12-.41.37v2.04c0,.77-.27,1.42-.82,1.96-.54.53-1.2.8-1.97.8s-1.42-.27-1.96-.8-.8-1.19-.8-1.96v-10.68c0-.25-.12-.37-.37-.37ZM236.02,162.17c-.25,0-.37.12-.37.37v.44c0,.25.11.37.34.37l.07-.03h19.46l.07.03c.23,0,.34-.12.34-.37v-.44c0-.25-.12-.37-.37-.37h-19.53ZM238.33,153.98v4.49c0,.27.12.41.37.41h2.21c.25,0,.37-.14.37-.41v-.88c0-.79.28-1.47.85-2.04s1.25-.85,2.04-.85h8.67c.25,0,.37-.14.37-.41v-.31c0-.25-.12-.37-.37-.37h-14.15c-.25,0-.37.12-.37.37ZM252.79,167.55v-.51c0-.11-.04-.21-.14-.29-.09-.08-.18-.12-.27-.12h-13.2c-.09,0-.18.04-.27.12-.09.08-.14.18-.14.29v.51c0,.09.04.18.14.27.09.09.18.14.27.14h13.2c.09,0,.18-.05.27-.14.09-.09.14-.18.14-.27ZM252.79,171.84v-.54c0-.25-.14-.37-.41-.37h-13.2c-.27,0-.41.12-.41.37v.54c0,.25.14.37.41.37h13.2c.27,0,.41-.12.41-.37ZM253.23,157.92c0-.25-.12-.37-.37-.37h-6.19c-.25,0-.37.12-.37.37v.54c0,.27.12.41.37.41h6.19c.25,0,.37-.14.37-.41v-.54Z"/>
          <path class="cls-3" d="M268.79,179.74c-.46.46-1.03.7-1.68.7s-1.22-.23-1.68-.7-.7-1.03-.7-1.68v-25c0-.79.28-1.47.85-2.04.57-.57,1.25-.85,2.04-.85h7.25c.54,0,1.01.2,1.4.6.38.4.58.87.58,1.41,0,.09.04.16.12.2.08.04.16.04.25,0,.41-.18.82-.27,1.22-.27h2.86c.23,0,.34-.12.34-.37,0-.75.27-1.38.8-1.91.53-.52,1.17-.78,1.92-.78h.14c.75,0,1.38.26,1.9.78.52.52.78,1.16.78,1.91,0,.25.12.37.37.37h4.52c.79,0,1.47.28,2.04.85.57.57.85,1.25.85,2.04v2.96c0,.7-.24,1.3-.73,1.79s-1.08.73-1.79.73c-.25,0-.41.11-.48.34-.14.43-.39.78-.75,1.05-.36.27-.77.41-1.22.41h-9.87c-.45,0-.86-.14-1.22-.41-.36-.27-.61-.61-.75-1.02-.09-.25-.24-.37-.44-.37-.59-.05-1.09-.28-1.51-.7-.42-.42-.64-.92-.66-1.51,0-.02-.02-.03-.05-.03s-.06.01-.08.03c-.39,1.02-.9,2.15-1.53,3.4-.11.2-.09.42.07.65.48.68.9,1.45,1.26,2.31.02.09.08.14.19.14s.19-.02.26-.07c.34-.27.76-.41,1.26-.41h16.02c.59,0,1.09.21,1.51.63.42.42.63.92.63,1.51s-.21,1.1-.63,1.53-.92.65-1.51.65h-2.92c-.25,0-.37.12-.37.38v6.09c0,.34.03.54.1.59s.33.08.78.08c.25,0,.42-.01.51-.03.09-.02.18-.12.27-.31s.15-.45.19-.82c.03-.36.06-.91.08-1.63.02-.54.24-.99.66-1.33.42-.34.89-.48,1.41-.41.57.09,1.03.36,1.39.8.36.44.53.95.51,1.51-.04.88-.08,1.6-.12,2.16-.03.56-.11,1.09-.24,1.6-.12.51-.22.9-.29,1.17-.07.27-.23.53-.49.77-.26.24-.48.4-.65.49-.17.09-.49.17-.95.24-.46.07-.87.1-1.21.1h-1.6c-1.63,0-2.8-.08-3.49-.25-.69-.17-1.15-.46-1.38-.87-.23-.41-.34-1.11-.34-2.11v-7.86c0-.25-.12-.38-.37-.38h-.41c-.27,0-.41.12-.41.38-.14,2.36-.71,4.36-1.72,6-1.01,1.64-2.56,3.11-4.64,4.41-.61.36-1.25.45-1.91.27-.66-.18-1.18-.57-1.56-1.16-.34-.54-.43-1.13-.25-1.75.17-.62.54-1.09,1.11-1.41,1.38-.82,2.4-1.72,3.06-2.7.66-.99,1.07-2.22,1.22-3.69.05-.23-.07-.34-.34-.34h-1.67c-.09,0-.23-.02-.41-.07-.09-.02-.18,0-.25.05-.08.06-.12.13-.12.22v.2c0,1.63-.28,2.88-.85,3.73-.57.85-1.44,1.39-2.62,1.62-.59.11-1.13-.02-1.62-.41-.49-.38-.81-.9-.97-1.53l-.2-.75c-.14-.57.2-1.07,1.02-1.5.43-.23.65-.96.65-2.21,0-.88-.13-1.68-.39-2.38-.26-.7-.73-1.5-1.41-2.38-.07-.09-.14-.1-.2-.03-.02.02-.03.06-.03.1v14.8c0,.66-.23,1.22-.7,1.68ZM269.49,154.56v5.92s.02.07.07.08c.04.01.08,0,.1-.05.93-1.84,1.74-3.82,2.42-5.95.04-.09.03-.18-.03-.27-.07-.09-.15-.14-.24-.14h-1.94c-.25,0-.37.14-.37.41ZM280.2,156.77v1.02c0,.25.14.37.41.37h8.91c.27,0,.41-.12.41-.37v-1.02c0-.25-.14-.37-.41-.37h-8.91c-.27,0-.41.12-.41.37Z"/>
        </g>
        <g>
          <path class="cls-3" d="M3.62,194.2l-3.17-5.35c-.14-.25-.14-.5.02-.74.16-.24.4-.36.72-.36h.4c.42,0,.81.11,1.16.32s.62.49.78.83l1.63,3.43s0,.01.02.01.02,0,.02-.01l1.63-3.43c.17-.34.43-.62.78-.83.36-.21.75-.32,1.16-.32h.33c.32,0,.56.12.73.36s.17.49.02.74l-3.17,5.35c-.07.14-.1.24-.1.31v2.7c0,.34-.14.64-.41.88-.27.24-.61.37-.99.37h-.07c-.38,0-.72-.12-1-.37-.28-.24-.42-.54-.42-.88v-2.7c0-.09-.03-.19-.08-.31Z"/>
          <path class="cls-3" d="M14.07,198.6c-.97,0-1.67-.24-2.11-.72-.43-.48-.65-1.3-.65-2.46v-3.43c0-.32.13-.6.38-.82s.56-.34.92-.34.67.11.92.34c.25.22.37.5.37.82v3.27c0,.57.09.96.26,1.17.18.21.47.32.89.32.39,0,.74-.14,1.06-.42.32-.28.48-.58.48-.9v-3.4c0-.33.13-.61.39-.84s.58-.34.95-.34.69.12.95.34c.26.23.39.51.39.84v5.31c0,.31-.12.58-.37.8-.25.22-.55.33-.9.33h-.31c-.26,0-.49-.08-.69-.25s-.29-.37-.31-.6v-.1s0-.01-.02-.01l-.03.03c-.72.72-1.57,1.08-2.58,1.08Z"/>
          <path class="cls-3" d="M23.64,198.6c-.76,0-1.38-.22-1.87-.65-.49-.43-.74-1-.74-1.69,0-1.78,1.49-2.67,4.46-2.67h.56c.12,0,.18-.05.18-.16v-.03c0-.37-.11-.64-.32-.81-.21-.17-.58-.25-1.08-.25-.56,0-1.35.09-2.38.28-.24.05-.46,0-.64-.12-.19-.13-.28-.31-.28-.52,0-.25.09-.48.26-.68.17-.2.39-.32.67-.36.96-.17,1.79-.25,2.49-.25,1.44,0,2.46.23,3.06.69.6.46.9,1.22.9,2.29v3.69c0,.3-.12.56-.36.78s-.54.32-.89.32h-.23c-.29,0-.53-.09-.73-.26-.2-.18-.3-.39-.31-.63v-.1s0-.01-.02-.01c-.02,0-.03,0-.03.01-.69.76-1.59,1.14-2.69,1.14ZM25.49,194.97c-1.34,0-2.01.37-2.01,1.1,0,.26.09.47.26.62.18.15.41.23.71.23.53,0,.96-.15,1.29-.45.33-.3.5-.7.5-1.19v-.13c0-.12-.06-.18-.18-.18h-.56Z"/>
          <path class="cls-3" d="M32.49,189.37c-.3,0-.55-.09-.76-.28s-.31-.41-.31-.67.1-.49.31-.67.46-.28.76-.28h.66c.3,0,.55.09.76.28.21.19.31.41.31.67s-.1.49-.31.67c-.21.19-.46.28-.76.28h-.66ZM33.81,198.09c-.28.24-.61.37-.99.37s-.72-.12-.99-.37-.41-.54-.41-.88v-5.13c0-.34.14-.64.41-.88s.61-.37.99-.37.71.12.99.37.41.54.41.88v5.13c0,.34-.14.64-.41.88Z"/>
          <path class="cls-3" d="M41.89,198.46c-.34,0-.61-.12-.82-.37-.2-.25-.25-.52-.14-.81l3.04-8.33c.13-.35.37-.64.7-.86.34-.22.71-.33,1.13-.33h.17c.42,0,.79.11,1.13.33.34.22.57.5.7.86l3.04,8.33c.11.29.07.56-.13.81s-.47.37-.83.37h-.18c-.41,0-.78-.11-1.11-.34s-.54-.51-.64-.87l-.26-.95c-.04-.11-.12-.16-.23-.16h-3.2c-.11,0-.19.05-.23.16l-.26.95c-.1.35-.31.64-.64.87-.33.22-.7.34-1.11.34h-.12ZM45.83,189.92l-1.19,4.16s0,.09.03.12.07.04.12.04h2.11c.06,0,.1-.01.12-.04s.04-.07.03-.12l-1.19-4.16s0-.01-.02-.01-.02,0-.02.01Z"/>
          <path class="cls-3" d="M56.15,198.6c-1.42,0-2.51-.33-3.27-1-.76-.66-1.14-1.65-1.14-2.96s.37-2.26,1.1-2.94c.73-.68,1.78-1.02,3.14-1.02.5,0,1.06.04,1.7.12.3.04.54.16.73.36s.29.43.29.7c0,.22-.1.41-.31.55-.2.14-.43.19-.68.15-.42-.07-.86-.1-1.32-.1-.63,0-1.09.17-1.4.52s-.45.9-.45,1.66.16,1.34.49,1.68c.33.34.83.51,1.53.51.45,0,.88-.03,1.27-.1.25-.05.48,0,.69.13s.31.32.31.54c0,.26-.09.5-.28.71-.19.21-.43.33-.73.37-.64.08-1.2.12-1.68.12Z"/>
          <path class="cls-3" d="M63.62,198.6c-.97,0-1.67-.24-2.11-.72-.43-.48-.65-1.3-.65-2.46v-3.43c0-.32.13-.6.38-.82s.56-.34.92-.34.67.11.92.34c.25.22.37.5.37.82v3.27c0,.57.09.96.26,1.17.18.21.47.32.89.32.39,0,.74-.14,1.06-.42.32-.28.48-.58.48-.9v-3.4c0-.33.13-.61.39-.84s.58-.34.95-.34.69.12.95.34c.26.23.39.51.39.84v5.31c0,.31-.12.58-.37.8-.25.22-.55.33-.9.33h-.31c-.26,0-.49-.08-.69-.25s-.29-.37-.31-.6v-.1s0-.01-.02-.01l-.03.03c-.72.72-1.57,1.08-2.58,1.08Z"/>
          <path class="cls-3" d="M73.29,201.33c-.26.23-.58.34-.95.34s-.69-.12-.95-.34-.39-.51-.39-.84v-8.53c0-.31.12-.58.37-.8.25-.22.55-.33.9-.33h.31c.26,0,.49.08.69.25.19.17.29.37.31.6v.1s0,.01.02.01l.03-.03c.7-.72,1.55-1.08,2.54-1.08s1.84.34,2.45,1.03c.61.68.92,1.66.92,2.93s-.32,2.2-.95,2.9c-.63.7-1.44,1.06-2.42,1.06-.91,0-1.73-.3-2.44-.89-.01,0-.02-.02-.03-.02s-.02,0-.02.02v2.78c0,.33-.13.61-.39.84ZM73.61,193.74v1.82c0,.32.17.62.5.89.34.27.72.4,1.15.4.51,0,.91-.18,1.21-.55.3-.37.45-.92.45-1.65,0-1.46-.55-2.2-1.65-2.2-.43,0-.81.13-1.15.4s-.5.56-.5.89Z"/>
          <path class="cls-3" d="M83.89,198.6c-.97,0-1.67-.24-2.11-.72-.43-.48-.65-1.3-.65-2.46v-3.43c0-.32.13-.6.38-.82s.56-.34.92-.34.67.11.92.34c.25.22.37.5.37.82v3.27c0,.57.09.96.26,1.17.18.21.47.32.89.32.39,0,.74-.14,1.06-.42.32-.28.48-.58.48-.9v-3.4c0-.33.13-.61.39-.84s.58-.34.95-.34.69.12.95.34c.26.23.39.51.39.84v5.31c0,.31-.12.58-.37.8-.25.22-.55.33-.9.33h-.31c-.26,0-.49-.08-.69-.25s-.29-.37-.31-.6v-.1s0-.01-.02-.01l-.03.03c-.72.72-1.57,1.08-2.58,1.08Z"/>
          <path class="cls-3" d="M93.54,198.11c-.26.23-.58.34-.95.34s-.69-.11-.94-.34c-.25-.23-.38-.51-.38-.84v-5.31c0-.31.12-.58.37-.8.25-.22.55-.33.9-.33h.31c.26,0,.49.08.68.25s.29.37.3.6l.02.1s0,.01.02.01l.03-.03c.72-.72,1.57-1.08,2.58-1.08s1.72.25,2.16.75c.44.5.66,1.36.66,2.57v3.28c0,.32-.12.6-.37.82-.25.22-.55.34-.92.34s-.67-.11-.92-.34c-.25-.22-.38-.5-.38-.82v-3.21c0-.59-.09-.99-.26-1.21s-.5-.33-.96-.33c-.38,0-.74.14-1.06.42-.33.28-.49.58-.49.9v3.4c0,.33-.13.61-.39.84Z"/>
          <path class="cls-3" d="M105.23,198.6c-1.42,0-2.51-.33-3.27-1-.76-.66-1.14-1.65-1.14-2.96s.37-2.26,1.1-2.94c.73-.68,1.78-1.02,3.14-1.02.5,0,1.06.04,1.7.12.3.04.54.16.73.36s.29.43.29.7c0,.22-.1.41-.31.55-.2.14-.43.19-.68.15-.42-.07-.86-.1-1.32-.1-.63,0-1.09.17-1.4.52s-.45.9-.45,1.66.16,1.34.49,1.68c.33.34.83.51,1.53.51.45,0,.88-.03,1.27-.1.25-.05.48,0,.69.13s.31.32.31.54c0,.26-.09.5-.28.71-.19.21-.43.33-.73.37-.64.08-1.2.12-1.68.12Z"/>
          <path class="cls-3" d="M110.54,192.78c-.25,0-.47-.08-.66-.24-.19-.16-.28-.35-.28-.58s.09-.42.28-.59c.19-.17.41-.25.66-.25h.61c.12,0,.18-.05.18-.16v-1.44c0-.33.13-.61.39-.84s.58-.34.95-.34.69.12.95.34.39.51.39.84v1.44c0,.11.06.16.18.16h1.58c.25,0,.47.08.65.25.18.17.27.36.27.59s-.09.42-.27.58c-.18.16-.4.24-.65.24h-1.58c-.12,0-.18.06-.18.18v2.46c0,.62.06,1.01.19,1.17.13.17.41.25.85.25.09,0,.25,0,.5-.03.25-.03.48.03.68.17s.3.32.3.53c0,.26-.09.49-.27.69s-.42.31-.7.34c-.51.04-.89.06-1.16.06-1.12,0-1.91-.21-2.37-.64s-.68-1.19-.68-2.29v-2.71c0-.12-.06-.18-.18-.18h-.61Z"/>
          <path class="cls-3" d="M121.56,198.6c-.97,0-1.67-.24-2.11-.72-.43-.48-.65-1.3-.65-2.46v-3.43c0-.32.13-.6.38-.82s.56-.34.92-.34.67.11.92.34c.25.22.37.5.37.82v3.27c0,.57.09.96.26,1.17.18.21.47.32.89.32.39,0,.74-.14,1.06-.42.32-.28.48-.58.48-.9v-3.4c0-.33.13-.61.39-.84s.58-.34.95-.34.69.12.95.34c.26.23.39.51.39.84v5.31c0,.31-.12.58-.37.8-.25.22-.55.33-.9.33h-.31c-.26,0-.49-.08-.69-.25s-.29-.37-.31-.6v-.1s0-.01-.02-.01l-.03.03c-.72.72-1.57,1.08-2.58,1.08Z"/>
          <path class="cls-3" d="M131.28,198.1c-.26.23-.59.35-.97.35s-.71-.12-.97-.35c-.26-.23-.4-.52-.4-.87v-5.22c0-.33.13-.61.39-.84s.58-.34.95-.34.69.12.94.34.38.51.38.84v.26s0,.01.02.01c.02,0,.03,0,.03-.01.65-.78,1.58-1.25,2.79-1.41.26-.04.5.03.69.21s.3.39.3.65c0,.23-.1.44-.3.62s-.43.28-.71.31c-.86.1-1.53.37-2.01.83-.49.46-.73,1.04-.73,1.75v2.01c0,.34-.13.63-.4.87Z"/>
          <path class="cls-3" d="M141.37,198.6c-1.5,0-2.65-.34-3.46-1.01-.81-.67-1.21-1.66-1.21-2.95s.36-2.26,1.08-2.94c.72-.68,1.76-1.02,3.13-1.02,2.46,0,3.79,1.13,3.96,3.39.02.34-.11.64-.4.89-.29.25-.63.37-1.04.37h-3.9c-.05,0-.1.02-.13.05-.03.04-.04.07-.03.11.1.53.34.9.71,1.13s.94.34,1.68.34c.5,0,1.02-.06,1.58-.19.23-.05.44,0,.63.12.19.13.28.3.28.51,0,.25-.09.48-.26.67-.17.2-.39.32-.67.37-.64.11-1.29.16-1.96.16ZM140.96,192.28c-.48,0-.85.11-1.11.34-.25.22-.42.6-.5,1.13-.01.05,0,.09.04.12.04.04.08.05.12.05h2.71c.12,0,.18-.05.18-.16-.04-.99-.53-1.48-1.45-1.48Z"/>
          <path class="cls-3" d="M160.56,197.14c-1.01.97-2.39,1.46-4.13,1.46s-3.12-.49-4.13-1.46c-1.01-.97-1.52-2.32-1.52-4.04s.51-3.07,1.52-4.04c1.01-.97,2.39-1.46,4.13-1.46s3.11.49,4.13,1.46c1.01.97,1.52,2.32,1.52,4.04s-.51,3.07-1.52,4.04ZM159.2,193.1c0-2.3-.92-3.44-2.77-3.44s-2.77,1.15-2.77,3.44.92,3.45,2.77,3.45,2.77-1.15,2.77-3.45Z"/>
          <path class="cls-3" d="M166.02,198.1c-.26.23-.59.35-.97.35s-.71-.12-.97-.35c-.26-.23-.4-.52-.4-.87v-5.22c0-.33.13-.61.39-.84s.58-.34.95-.34.69.12.94.34.38.51.38.84v.26s0,.01.02.01c.02,0,.03,0,.03-.01.65-.78,1.58-1.25,2.79-1.41.26-.04.5.03.69.21s.3.39.3.65c0,.23-.1.44-.3.62s-.43.28-.71.31c-.86.1-1.53.37-2.01.83-.49.46-.73,1.04-.73,1.75v2.01c0,.34-.13.63-.4.87Z"/>
          <path class="cls-3" d="M172.54,192.78c-.25,0-.47-.08-.66-.24-.19-.16-.28-.35-.28-.58s.09-.42.28-.59c.19-.17.41-.25.66-.25h.61c.12,0,.18-.05.18-.16v-1.44c0-.33.13-.61.39-.84s.58-.34.95-.34.69.12.95.34.39.51.39.84v1.44c0,.11.06.16.18.16h1.58c.25,0,.47.08.65.25.18.17.27.36.27.59s-.09.42-.27.58c-.18.16-.4.24-.65.24h-1.58c-.12,0-.18.06-.18.18v2.46c0,.62.06,1.01.19,1.17.13.17.41.25.85.25.09,0,.25,0,.5-.03.25-.03.48.03.68.17s.3.32.3.53c0,.26-.09.49-.27.69s-.42.31-.7.34c-.51.04-.89.06-1.16.06-1.12,0-1.91-.21-2.37-.64s-.68-1.19-.68-2.29v-2.71c0-.12-.06-.18-.18-.18h-.61Z"/>
          <path class="cls-3" d="M183.25,198.11c-.26.23-.58.34-.95.34s-.69-.11-.95-.34c-.26-.23-.39-.51-.39-.84v-8.62c0-.33.13-.61.39-.84.26-.23.58-.34.95-.34s.69.11.95.34c.26.23.39.51.39.84v2.97s0,.01.02.01c.01,0,.02,0,.03-.01.77-.62,1.6-.94,2.48-.94,1.01,0,1.74.26,2.18.77s.66,1.43.66,2.75v3.09c0,.32-.13.6-.39.82s-.56.34-.92.34-.66-.11-.92-.34-.39-.5-.39-.82v-2.8c0-.78-.08-1.3-.26-1.55-.17-.25-.49-.38-.97-.38-.37,0-.72.14-1.05.43-.32.29-.49.59-.49.92v3.36c0,.33-.13.61-.39.84Z"/>
          <path class="cls-3" d="M198.04,197.56c-.76.69-1.82,1.04-3.19,1.04s-2.43-.35-3.19-1.04c-.76-.69-1.14-1.67-1.14-2.92s.38-2.22,1.14-2.92c.76-.69,1.82-1.04,3.19-1.04s2.43.35,3.19,1.04c.76.69,1.14,1.67,1.14,2.92s-.38,2.22-1.14,2.92ZM196.08,192.88c-.27-.36-.68-.54-1.23-.54s-.96.18-1.23.54c-.27.36-.4.95-.4,1.76s.13,1.4.4,1.76.68.54,1.23.54.96-.18,1.23-.54c.27-.36.4-.95.4-1.76s-.13-1.4-.4-1.76Z"/>
          <path class="cls-3" d="M203.06,201.33c-.26.23-.58.34-.95.34s-.69-.12-.95-.34-.39-.51-.39-.84v-8.53c0-.31.12-.58.37-.8.25-.22.55-.33.9-.33h.31c.26,0,.49.08.69.25.19.17.29.37.31.6v.1s0,.01.02.01l.03-.03c.7-.72,1.55-1.08,2.54-1.08s1.84.34,2.45,1.03c.61.68.92,1.66.92,2.93s-.32,2.2-.95,2.9c-.63.7-1.44,1.06-2.42,1.06-.91,0-1.73-.3-2.44-.89-.01,0-.02-.02-.03-.02s-.02,0-.02.02v2.78c0,.33-.13.61-.39.84ZM203.38,193.74v1.82c0,.32.17.62.5.89.34.27.72.4,1.15.4.51,0,.91-.18,1.21-.55.3-.37.45-.92.45-1.65,0-1.46-.55-2.2-1.65-2.2-.43,0-.81.13-1.15.4s-.5.56-.5.89Z"/>
          <path class="cls-3" d="M215.09,198.6c-1.5,0-2.65-.34-3.46-1.01-.81-.67-1.21-1.66-1.21-2.95s.36-2.26,1.08-2.94c.72-.68,1.76-1.02,3.13-1.02,2.46,0,3.79,1.13,3.96,3.39.02.34-.11.64-.4.89-.29.25-.63.37-1.04.37h-3.9c-.05,0-.1.02-.13.05-.03.04-.04.07-.03.11.1.53.34.9.71,1.13s.94.34,1.68.34c.5,0,1.02-.06,1.58-.19.23-.05.44,0,.63.12.19.13.28.3.28.51,0,.25-.09.48-.26.67-.17.2-.39.32-.67.37-.64.11-1.29.16-1.96.16ZM214.68,192.28c-.48,0-.85.11-1.11.34-.25.22-.42.6-.5,1.13-.01.05,0,.09.04.12.04.04.08.05.12.05h2.71c.12,0,.18-.05.18-.16-.04-.99-.53-1.48-1.45-1.48Z"/>
          <path class="cls-3" d="M223.13,198.6c-.98,0-1.78-.35-2.41-1.05-.63-.7-.94-1.67-.94-2.91s.3-2.25.91-2.93c.6-.68,1.42-1.03,2.44-1.03.9,0,1.72.3,2.46.89.01.01.02.01.03.01s.02,0,.02-.01v-2.93c0-.33.13-.61.39-.84.26-.23.58-.34.95-.34s.69.11.94.34c.25.23.38.51.38.84v8.71c0,.3-.12.56-.36.78s-.53.32-.88.32h-.28c-.26,0-.49-.08-.69-.25s-.29-.37-.31-.6v-.1s0-.01-.02-.01l-.03.03c-.69.72-1.56,1.08-2.61,1.08ZM224.04,192.45c-1.1,0-1.65.73-1.65,2.2,0,.74.15,1.29.45,1.66.3.36.7.54,1.21.54.44,0,.83-.13,1.16-.4.33-.26.5-.56.5-.89v-1.82c0-.33-.17-.63-.5-.89-.33-.26-.71-.4-1.16-.4Z"/>
          <path class="cls-3" d="M232.05,189.37c-.3,0-.55-.09-.76-.28s-.31-.41-.31-.67.1-.49.31-.67.46-.28.76-.28h.66c.3,0,.55.09.76.28.21.19.31.41.31.67s-.1.49-.31.67c-.21.19-.46.28-.76.28h-.66ZM233.37,198.09c-.28.24-.61.37-.99.37s-.72-.12-.99-.37-.41-.54-.41-.88v-5.13c0-.34.14-.64.41-.88s.61-.37.99-.37.71.12.99.37.41.54.41.88v5.13c0,.34-.14.64-.41.88Z"/>
          <path class="cls-3" d="M240.21,198.6c-1.42,0-2.51-.33-3.27-1-.76-.66-1.14-1.65-1.14-2.96s.37-2.26,1.1-2.94c.73-.68,1.78-1.02,3.14-1.02.5,0,1.06.04,1.7.12.3.04.54.16.73.36s.29.43.29.7c0,.22-.1.41-.31.55-.2.14-.43.19-.68.15-.42-.07-.86-.1-1.32-.1-.63,0-1.09.17-1.4.52s-.45.9-.45,1.66.16,1.34.49,1.68c.33.34.83.51,1.53.51.45,0,.88-.03,1.27-.1.25-.05.48,0,.69.13s.31.32.31.54c0,.26-.09.5-.28.71-.19.21-.43.33-.73.37-.64.08-1.2.12-1.68.12Z"/>
          <path class="cls-3" d="M255.03,198.6c-1.81,0-3.23-.47-4.26-1.42-1.03-.95-1.55-2.31-1.55-4.08s.5-3.09,1.5-4.05c1-.96,2.4-1.44,4.19-1.44.77,0,1.43.04,1.96.12.34.05.62.2.84.44.22.24.33.53.33.85,0,.26-.12.47-.35.62-.23.15-.5.2-.79.14-.52-.11-1.07-.16-1.67-.16-.99,0-1.76.3-2.32.89s-.83,1.46-.83,2.59.3,1.98.89,2.59c.59.62,1.39.92,2.38.92.61,0,1.17-.05,1.7-.16.29-.06.55-.01.78.14.24.15.36.35.36.61,0,.31-.11.59-.33.83-.22.24-.5.38-.84.43-.63.09-1.29.13-2,.13Z"/>
          <path class="cls-3" d="M263.27,198.09c-.28.24-.61.37-.99.37s-.72-.12-.99-.37-.41-.54-.41-.88v-8.5c0-.34.14-.64.41-.88s.61-.37.99-.37.71.12.99.37.41.54.41.88v8.5c0,.34-.14.64-.41.88Z"/>
          <path class="cls-3" d="M267.76,189.37c-.3,0-.55-.09-.76-.28s-.31-.41-.31-.67.1-.49.31-.67.46-.28.76-.28h.66c.3,0,.55.09.76.28.21.19.31.41.31.67s-.1.49-.31.67c-.21.19-.46.28-.76.28h-.66ZM269.08,198.09c-.28.24-.61.37-.99.37s-.72-.12-.99-.37-.41-.54-.41-.88v-5.13c0-.34.14-.64.41-.88s.61-.37.99-.37.71.12.99.37.41.54.41.88v5.13c0,.34-.14.64-.41.88Z"/>
          <path class="cls-3" d="M274.36,198.11c-.26.23-.58.34-.95.34s-.69-.11-.94-.34c-.25-.23-.38-.51-.38-.84v-5.31c0-.31.12-.58.37-.8.25-.22.55-.33.9-.33h.31c.26,0,.49.08.68.25s.29.37.3.6l.02.1s0,.01.02.01l.03-.03c.72-.72,1.57-1.08,2.58-1.08s1.72.25,2.16.75c.44.5.66,1.36.66,2.57v3.28c0,.32-.12.6-.37.82-.25.22-.55.34-.92.34s-.67-.11-.92-.34c-.25-.22-.38-.5-.38-.82v-3.21c0-.59-.09-.99-.26-1.21s-.5-.33-.96-.33c-.38,0-.74.14-1.06.42-.33.28-.49.58-.49.9v3.4c0,.33-.13.61-.39.84Z"/>
          <path class="cls-3" d="M283.69,189.37c-.3,0-.55-.09-.76-.28s-.31-.41-.31-.67.1-.49.31-.67.46-.28.76-.28h.66c.3,0,.55.09.76.28.21.19.31.41.31.67s-.1.49-.31.67c-.21.19-.46.28-.76.28h-.66ZM285.01,198.09c-.28.24-.61.37-.99.37s-.72-.12-.99-.37-.41-.54-.41-.88v-5.13c0-.34.14-.64.41-.88s.61-.37.99-.37.71.12.99.37.41.54.41.88v5.13c0,.34-.14.64-.41.88Z"/>
          <path class="cls-3" d="M291.85,198.6c-1.42,0-2.51-.33-3.27-1-.76-.66-1.14-1.65-1.14-2.96s.37-2.26,1.1-2.94c.73-.68,1.78-1.02,3.14-1.02.5,0,1.06.04,1.7.12.3.04.54.16.73.36s.29.43.29.7c0,.22-.1.41-.31.55-.2.14-.43.19-.68.15-.42-.07-.86-.1-1.32-.1-.63,0-1.09.17-1.4.52s-.45.9-.45,1.66.16,1.34.49,1.68c.33.34.83.51,1.53.51.45,0,.88-.03,1.27-.1.25-.05.48,0,.69.13s.31.32.31.54c0,.26-.09.5-.28.71-.19.21-.43.33-.73.37-.64.08-1.2.12-1.68.12Z"/>
        </g>
      </g>
    </g>
  </g>
</svg>