<?xml version="1.0" encoding="iso-8859-1"?>
<!-- Generator: Adobe Illustrator 28.5.0, SVG Export Plug-In . SVG Version: 9.03 Build 54727)  -->
<svg version="1.1" id="&#x30EC;&#x30A4;&#x30E4;&#x30FC;_1"
	 xmlns="http://www.w3.org/2000/svg" xmlns:xlink="http://www.w3.org/1999/xlink" x="0px" y="0px" viewBox="0 0 476.22 476.22"
	 style="enable-background:new 0 0 476.22 476.22;" xml:space="preserve">
<path style="fill:#F4D1BD;stroke:#1F160A;stroke-width:8;stroke-linecap:round;stroke-linejoin:round;" d="M152.552-1.562
	c-0.606,14.216-1.874,26.792-4.354,36.249c-16.464,5.194-23.316,32.024-24.104,46.085c-1.271,22.658,11.482,84.366,36.574,51.103
	c7.724-10.243,4.938-9.65,6.159-21.63c1.625-15.953,9.335-17.411,13.863-32.586c4.786-16.029,8.66-24.861,9.099-34.472
	c0.213-5.908-0.793-14.377-4.786-17.645c1.939-9.461,3.912-18.373,5.912-27.106"/>
<path style="fill:#F4D1BD;stroke:#1F160A;stroke-width:8;stroke-linecap:round;stroke-linejoin:round;" d="M282.631,409.566
	c-10.388-15.876-17.516-61.571-21.463-95.084c-3.949-33.508-3.073-86.835-23.642-118.133c-20.571-31.294-6.974-77.179-0.725-88.544
	l-76.957-4.092c-7.713,9.078-8.202,65.228,0.708,89.914c8.911,24.694,17.636,53.834,33.141,94.621
	c15.505,40.792,28.561,79.829,38.319,110.815c0,0-1.815,10.136-8.682,12.451c-6.865,2.309-59.506,23.116-72.095,27.736
	c-12.59,4.623-5.721,24.275,22.887,21.963c28.611-2.312,43.489-17.34,67.518-13.871c24.031,3.468,38.911,6.936,44.632-3.469
	C291.993,433.471,290.431,421.492,282.631,409.566z"/>
<path style="fill:#FFE787;stroke:#20160A;stroke-width:8;stroke-linecap:round;stroke-linejoin:round;" d="M280.571-2
	c-36.742,18.791-108.384,56.895-122.384,75.191c-19,24.826-24.983,40.382-14.106,95.509c10.878,55.12,19.636,87.034,19.636,87.034
	l101.442-21.968c0,0-12.911-76.27-16.815-84.292c-3.901-8.021,0.184-14.372,12.257-19.041
	c12.072-4.672,74.882-23.438,110.152-32.842c35.271-9.404,61.233-24.687,67.197-47.572c3.023-11.613,5.296-50.246,5.296-50.246"/>
<path style="fill:#F4D1BD;" d="M478.22,284.015c-15.562-21.674-33.914-44.976-55.443-54.248
	c-31.358-13.497-42.234-57.967-42.617-70.614l-63.666,40.124c-1.874,11.63,24.387,56.944,43.255,71.716
	c18.864,14.778,39.699,33.232,71.497,57.199c15.899,11.987,31.099,23.966,45.142,35.371L478.22,284.015z"/>
<path style="fill:none;stroke:#1F160A;stroke-width:8;stroke-linecap:round;stroke-linejoin:round;" d="M478.22,284.015
	c-15.562-21.674-33.914-44.976-55.443-54.248c-31.358-13.497-42.234-57.967-42.617-70.614l-63.666,40.124
	c-1.874,11.63,24.387,56.944,43.255,71.716c18.864,14.778,39.699,33.232,71.497,57.199c15.899,11.987,31.099,23.966,45.142,35.371"
	/>
<path style="fill:#FFE787;stroke:#1F160A;stroke-width:8;stroke-linecap:round;stroke-linejoin:round;" d="M320.092-1.578
	c-2.557,30.211-13.095,154.15-16.121,180.998c-3.452,30.632-0.863,46.483,34.024,84.564c34.891,38.074,57.067,58.729,57.067,58.729
	l70.931-74.833c0,0-47.713-52.403-53.498-58.12c-6.132-6.056-0.555-26.962,3.627-40.204c5.516-17.467,20.49-73.458,34.494-100.697
	c8.322-16.187,11.621-33.839,12.302-50.495"/>
<path style="fill:#F4D1BD;stroke:#1F160A;stroke-width:8;stroke-linecap:round;stroke-linejoin:round;" d="M156.706,55.793
	c0,0-2.043,11.599-2.551,16.964c-0.445,4.707-1.685,11.433-2.004,16.032c-0.414,5.917-2.296,19.736,6.013,19.039
	c8.719-0.728,11.917-21.261,14.53-28.558c3.1-8.666,7.351-12.42,11.321-20.277c3.392-6.711,5.33-12.571,4.808-20.113"/>
<path style="fill:#FFFFFF;" d="M476.221,476.221H0V0h476.221V476.221z M484.89-8.669H-8.669V484.89H484.89V-8.669z"/>
<path style="fill:#E5625D;" d="M79.799,98.113c1.688,0.388,3.384-0.622,3.847-2.292c0.416-1.694-0.604-3.407-2.292-3.847
	c-11.196-1.573-22.314-3.581-33.508-5.13c-1.881-0.261-4.106,0.875-3.945,3.107c0.396,5.401,1.272,10.757,1.774,16.148l3.945-3.107
	c-11.539-2.048-23.056-4.206-34.591-6.265l0,0c-1.696-0.429-3.419,0.596-3.849,2.293c-0.429,1.696,0.596,3.419,2.293,3.849
	c11.538,2.064,23.053,4.216,34.592,6.263c1.849,0.329,4.147-0.931,3.945-3.107c-0.506-5.39-1.382-10.746-1.774-16.148l-3.945,3.107
	C57.48,94.533,68.607,96.534,79.799,98.113L79.799,98.113z"/>
<path style="fill:#E5625D;" d="M98.506,78.356c1.533,0.834,3.45,0.281,4.303-1.241c0.786-1.537,0.242-3.421-1.241-4.303
	c0.459,0.335-0.518-0.385-0.603-0.449c-0.269-0.204-0.539-0.406-0.808-0.61c-0.678-0.517-1.354-1.038-2.026-1.562
	c-1.401-1.1-2.797-2.208-4.186-3.324c-3.112-2.503-6.2-5.037-9.29-7.568c-5.616-4.601-11.191-9.283-17.071-13.549
	c-1.531-0.845-3.458-0.289-4.303,1.241c-2.192,4.956-3.933,10.093-6.023,15.09l4.957-0.764
	c-9.946-7.776-20.211-15.134-30.148-22.921c-1.281-1.169-3.255-1.121-4.477,0.109c-1.193,1.271-1.146,3.265,0.108,4.478
	c9.938,7.788,20.203,15.146,30.148,22.922c1.431,1.12,4.096,1.293,4.956-0.762c2.09-4.996,3.832-10.136,6.023-15.089l-4.303,1.241
	c0.288,0.209,0.302,0.218,0.041,0.028l0.488,0.363l0.765,0.577c0.653,0.497,1.3,0.997,1.943,1.499
	c1.361,1.067,2.716,2.145,4.064,3.229c3.08,2.48,6.139,4.989,9.196,7.496c5.755,4.712,11.476,9.491,17.49,13.873L98.506,78.356z"/>
</svg>
