<?xml version="1.0" encoding="UTF-8"?>
<svg id="_レイヤー_2" data-name="レイヤー 2" xmlns="http://www.w3.org/2000/svg" viewBox="0 0 1517.56 1517.56">
  <defs>
    <style>
      .cls-1 {
        fill: #ca161d;
      }

      .cls-1, .cls-2, .cls-3 {
        stroke-width: 0px;
      }

      .cls-2 {
        fill: #ef7e46;
      }

      .cls-3 {
        fill: #fff;
      }
    </style>
  </defs>
  <g id="_レイヤー_1-2" data-name="レイヤー 1">
    <rect class="cls-3" width="1517.56" height="1517.56" rx="154.27" ry="154.27"/>
    <g>
      <path class="cls-1" d="M1017.21,503.32c24.81,24.81,57.85,38.5,92.87,38.5,35.08,0,68.11-13.68,92.92-38.5,7.66-7.71,7.66-20.12,0-27.83-7.71-7.66-20.12-7.66-27.77,0-17.41,17.41-40.54,27.01-65.15,27.01-24.56,0-47.68-9.6-65.1-27.01-7.66-7.66-20.12-7.66-27.77,0-7.66,7.71-7.66,20.12,0,27.83Z"/>
      <path class="cls-1" d="M1061.69,394.73c-.45,8.42-4.1,16.11-10.27,21.73-5.84,5.28-13.25,8.14-21.05,8.14-.56,0-1.07,0-1.63-.06-17.29-.84-30.65-15.61-29.81-32.9.9-17.29,15.72-30.71,32.95-29.81,17.24.84,30.65,15.61,29.81,32.9Z"/>
      <path class="cls-1" d="M1221.25,391.65c.84,17.29-12.52,32.06-29.81,32.9-.51.06-1.07.06-1.57.06-7.8,0-15.21-2.86-21.05-8.14-6.23-5.61-9.88-13.31-10.27-21.73-.84-17.29,12.52-32.06,29.81-32.9,8.31-.39,16.39,2.47,22.63,8.08,6.23,5.67,9.88,13.36,10.27,21.73Z"/>
      <path class="cls-2" d="M500.35,503.32c-24.81,24.81-57.85,38.5-92.87,38.5s-68.11-13.68-92.92-38.5c-7.66-7.71-7.66-20.12,0-27.83,7.71-7.66,20.12-7.66,27.77,0,17.41,17.41,40.54,27.01,65.15,27.01s47.68-9.6,65.1-27.01c7.66-7.66,20.12-7.66,27.77,0,7.66,7.71,7.66,20.12,0,27.83Z"/>
      <path class="cls-2" d="M455.87,394.73c.45,8.42,4.1,16.11,10.27,21.73,5.84,5.28,13.25,8.14,21.05,8.14.56,0,1.07,0,1.63-.06,17.29-.84,30.65-15.61,29.81-32.9-.9-17.29-15.72-30.71-32.95-29.81-17.24.84-30.65,15.61-29.81,32.9Z"/>
      <path class="cls-2" d="M296.31,391.65c-.84,17.29,12.52,32.06,29.81,32.9.51.06,1.07.06,1.57.06,7.8,0,15.21-2.86,21.05-8.14,6.23-5.61,9.88-13.31,10.27-21.73.84-17.29-12.52-32.06-29.81-32.9-8.31-.39-16.39,2.47-22.63,8.08-6.23,5.67-9.88,13.36-10.27,21.73Z"/>
      <path class="cls-2" d="M1469.74,377.43c.84,17.29-12.52,32.06-29.81,32.9-.51.06-1.07.06-1.57.06-7.8,0-15.21-2.86-21.05-8.14-6.23-5.61-9.88-13.31-10.27-21.73-.84-17.29,12.52-32.06,29.81-32.9,8.31-.39,16.39,2.47,22.63,8.08,6.23,5.67,9.88,13.36,10.27,21.73Z"/>
      <path class="cls-2" d="M1433.42,283.44c1.05,21.49-15.56,39.83-37.04,40.88-.63.07-1.33.07-1.95.07-9.7,0-18.9-3.56-26.16-10.12-7.74-6.98-12.28-16.53-12.77-27-1.05-21.49,15.56-39.83,37.04-40.88,10.32-.49,20.37,3.07,28.11,10.05,7.74,7.05,12.28,16.6,12.77,27Z"/>
      <path class="cls-2" d="M1355.39,197.25c1.19,24.4-17.66,45.23-42.06,46.42-.71.08-1.51.08-2.22.08-11.01,0-21.47-4.04-29.7-11.49-8.79-7.92-13.94-18.77-14.5-30.65-1.19-24.4,17.66-45.23,42.06-46.42,11.72-.55,23.13,3.49,31.92,11.41,8.79,8,13.94,18.85,14.49,30.65Z"/>
      <path class="cls-1" d="M47.83,377.43c-.84,17.29,12.52,32.06,29.81,32.9.51.06,1.07.06,1.57.06,7.8,0,15.21-2.86,21.05-8.14,6.23-5.61,9.88-13.31,10.27-21.73.84-17.29-12.52-32.06-29.81-32.9-8.31-.39-16.39,2.47-22.63,8.08-6.23,5.67-9.88,13.36-10.27,21.73Z"/>
      <path class="cls-1" d="M84.15,283.44c-1.05,21.49,15.56,39.83,37.04,40.88.63.07,1.33.07,1.95.07,9.7,0,18.9-3.56,26.16-10.12,7.74-6.98,12.28-16.53,12.77-27,1.05-21.49-15.56-39.83-37.04-40.88-10.32-.49-20.37,3.07-28.11,10.05-7.74,7.05-12.28,16.6-12.77,27Z"/>
      <path class="cls-1" d="M162.17,197.25c-1.19,24.4,17.66,45.23,42.06,46.42.71.08,1.51.08,2.22.08,11.01,0,21.47-4.04,29.7-11.49,8.79-7.92,13.94-18.77,14.5-30.65,1.19-24.4-17.66-45.23-42.06-46.42-11.72-.55-23.13,3.49-31.92,11.41-8.79,8-13.94,18.85-14.49,30.65Z"/>
      <path class="cls-2" d="M958.64,579.21c-41.85-72.48-91.29-136.02-145.12-189.25-17.89-17.59-36.09-33.97-54.74-49.28l-.15-.15c-102.81-83.86-216.08-130.86-319.65-130.71-53.38,0-104.02,12.43-149.52,38.52-198.04,114.33-219.42,447.94-47.92,745,117.97,204.41,296.45,338.15,460.83,364.69.3,0,.61,0,1.06.15,7.58,1.21,15.32,2.27,23.2,2.88,1.67.15,3.49.3,5.16.45,8.19.61,16.23.91,24.57.91h2.43c28.51-.15,57.93-3.94,87.5-11.07,22.29-6.37,43.98-15.32,64.45-27.14,60.81-35.18,104.93-90.98,131.93-159.98,61.11-155.73,34.88-379.1-84.01-585.02ZM1000.34,1015.63c-7.43,115.55-52.32,202.59-126.16,245.35-14.25,8.19-29.27,14.56-45.19,19.26-21.23,6.37-43.82,9.55-67.78,9.55h-2.43c-8.04-.15-16.22-.61-24.57-1.37h-.91c-6.97-.61-13.95-1.52-20.62-2.88-.61,0-1.21-.15-1.67-.15-59.9-10.46-124.04-38.36-185.3-81.28-17.29-11.98-33.97-25.02-50.34-39.12-65.36-55.8-123.58-126.77-170.59-208.2-38.67-66.72-67.18-136.47-85.22-207.14-16.98-67.02-23.66-131.77-19.71-192.58,7.43-115.55,52.32-202.74,126.16-245.35,33.21-19.26,71.12-28.96,112.97-28.96,73.09,0,156.79,30.48,235.65,85.68,9.71,6.98,19.41,14.1,28.96,21.68,18.8,14.86,37.15,30.93,55.04,48.22l.15.15c51.71,50.34,97.96,110.24,136.63,177.27,38.67,66.87,67.33,136.47,85.22,207.14,16.98,67.02,23.66,131.92,19.71,192.73Z"/>
      <path class="cls-1" d="M1228.1,248.04c-45.49-26.23-96.14-38.67-149.52-38.67-99.32,0-207.44,43.22-306.76,120.55,18.8,15.62,37.15,32.3,55.04,49.89,5.31-3.94,10.77-7.88,16.07-11.68,78.85-55.35,162.56-85.68,235.65-85.68,41.85,0,79.76,9.71,112.97,28.81,73.85,42.76,118.73,129.8,126.16,245.35,3.94,60.81-2.73,125.56-19.71,192.73-18.04,70.66-46.7,140.27-85.22,207.14-40.49,70.21-89.62,132.84-144.21,184.54-20.93,67.78-56.11,123.74-103.42,164.68,116.15-61.41,228.37-169.83,310.86-312.83,171.5-297.06,150.12-630.51-47.92-744.85ZM622.16,615.46c35.63-61.87,77.79-117.67,124.65-165.44-17.74-17.29-36.09-33.36-54.89-48.07-49.13,50.5-94.32,109.94-132.99,176.96-111.15,192.58-141.33,400.33-94.77,553.93,22.75,21.23,46.55,40.49,70.97,57.77,23.2,16.23,46.86,30.18,70.36,41.85-51.25-47.77-82.19-123.13-88.25-217.3-3.94-60.81,2.73-125.56,19.71-192.73,17.89-70.51,46.55-140.27,85.22-206.99Z"/>
    </g>
  </g>
</svg>