<?xml version="1.0" encoding="UTF-8"?><svg id="b" xmlns="http://www.w3.org/2000/svg" width="203.498" height="254.672" viewBox="0 0 203.498 254.672"><defs><style>.d{fill:#7abee6;}.d,.e,.f,.g,.h{stroke-width:0px;}.e{fill:none;}.f{fill:#fff;}.g{fill:#c6c6c6;}.h{fill:#211715;}</style></defs><g id="c"><path class="e" d="M135.607,11.656c-7.21-4.714-15.584-7.671-26.108-7.671-11.039,0-20.412,3.329-27.913,8.907-8.71,6.477-18.573,18.015-19.362,36.689-.189,4.463.38,9.578,1.729,14.767"/><path class="e" d="M155.074,64.347c1.349-5.462,1.919-9.661,1.703-14.767-.665-15.739-7.507-26.408-15.082-33.251"/><path class="e" d="M70.646,66.073c-1.281-1.231-3.007-1.694-4.484-1.642-3.215.113-4.582,1.852-5.171,2.873-1.757,3.047-1.683,8.662-.503,12.136.835,2.46,2.203,6.224,5.502,8.923,1.359,1.112,3.359,1.845,5.272,1.522"/><path class="e" d="M48.599,146.217c7.139-4.405,15.804-7.807,25.204-11.543,3.892-1.662,6.049-2.637,8.732-4.121"/><path class="d" d="M48.641,146.192c7.131-4.392,15.781-7.789,25.162-11.517,1.658-.708,3.001-1.291,4.204-1.842,9.898,7.977,20.702,11.046,32.03,11.046,10.969,0,21.89-2.999,31.692-10.766,1.08.46,2.21.95,3.82,1.6,13.7,5.56,27.7,10.8,36.95,24.07,5.17,7.42,7.897,15.658,9.583,24.897,3.751,20.546,5.708,39.167,9.007,68.593H50.81s0-14.576.002-27.391c-5.437,6.839-12.824,12.442-21.397,14.067-8.906,1.688-19.055-1.689-23.727-9.443-4.662-7.738-3.127-17.603-.772-26.321,4.489-16.626,11.426-32.592,20.518-47.226,0,0,3.98-5.695,9.98-2.362s13.227-7.404,13.227-7.404Z"/><path class="h" d="M49.852,148.264c5.369-3.284,11.143-5.838,16.957-8.216,5.706-2.334,11.523-4.443,16.937-7.422,2.707-1.489.288-5.636-2.423-4.145-5.32,2.927-11.036,4.976-16.636,7.285-5.91,2.437-11.794,5.011-17.258,8.353-2.631,1.609-.222,5.762,2.423,4.145h0Z"/><path class="g" d="M137.412,9.384c-2.019-.857-4.174-1.482-6.456-1.851l-8.173-1.823c-11.202-6.276-30.155-2.83-40.932,5.053-10.835,7.925-16.33,19.377-20.4,31.331-5.016,14.733-9.485,33.687-7.65,49.224.834,7.06,4.91,12.294,10.51,16.672,5.435,4.248,10.468,5.538,17.997,5.948l51.108.914,13.193-3.024c5.581-2.637,12.786-7.905,15.425-10.841,3.582-3.985,5.553-8.563,6.147-13.654.899-7.703-1.405-14.894-3.867-22.053-2.539-7.385-4.093-14.746-5.799-22.366-1.54-6.879-3.361-14.139-6.82-20.282-3.398-6.037-8.233-10.682-14.284-13.25Z"/><path class="f" d="M94.014,54.381c3.6-.622,5.906-1.201,5.906-1.201,11.123-2.742,17.196-8.679,24.705-16.55,11.011,5.085,17.908,15.591,21.149,23.635l2.505,6.217c1.3-1.54,3.232-2.108,4.861-2.051,3.215.113,4.582,1.852,5.171,2.873,1.757,3.047,1.683,8.662.503,12.136-.835,2.46-2.203,6.224-5.502,8.923-1.359,1.112-3.359,1.845-5.272,1.522l-.363-.061c-.625,1.822-1.406,3.442-1.669,4.242-1.36,3.692-9.032,16.873-18.641,21.519.033,2.511-.045,3.047.139,5.718.083,1.072.166,2.228.564,3.272.527,1.368,1.248,2.561,2.394,3.494,1.377,1.109,2.782,1.886,4.298,2.57l6.478,2.855c-9.674,7.485-20.417,10.386-31.204,10.386-11.103,0-21.704-2.949-31.441-10.577l5.695-2.182c1.96-.804,3.698-1.673,5.417-3.051,1.146-.934,1.867-2.126,2.394-3.494.397-1.045.481-2.2.564-3.272.181-2.454.11-3.106.157-5.139-4.608-2.21-8.863-5.793-12.595-10.261-5.633-6.739-8.36-14.101-9.605-19.549.678-6.939,2.212-13.807,5.102-19.786.146-.302.299-.602.458-.901,1.874-3.518,4.629-6.802,7.706-10.016,3.832-.287,7.36-.791,10.125-1.269Z"/><path class="h" d="M123.993,3.638c-9.406-5.176-21.512-4.22-31.373-.92-5.269,1.763-10.117,4.335-14.417,7.859-4.614,3.781-8.428,8.505-11.46,13.628-3.007,5.081-5.282,10.58-7.225,16.145-2.024,5.795-3.765,11.698-5.171,17.673-1.518,6.448-2.647,13.015-3.133,19.626-.236,3.21-.31,6.435-.148,9.651.147,2.913.393,5.893,1.296,8.682,1.999,6.174,6.508,11.038,11.675,14.788,5.406,3.923,11.719,5.195,18.271,5.569,3.086.176,3.076-4.624,0-4.8-5.118-.292-10.067-1.16-14.45-3.961-4.173-2.667-7.968-6.422-10.108-10.929-2.296-4.837-2.114-10.791-1.906-16.016.24-6.029,1.122-12.01,2.367-17.909,1.236-5.855,2.822-11.635,4.668-17.326,1.666-5.135,3.517-10.219,5.964-15.04,4.76-9.377,11.824-17.451,21.603-21.706,5.029-2.188,10.573-3.479,16.048-3.738,5.139-.244,10.506.354,15.076,2.869,2.708,1.49,5.133-2.654,2.423-4.145h0Z"/><path class="h" d="M130.317,9.848c6.894,1.159,12.959,4.864,17.085,10.532,4.944,6.791,6.99,15.108,8.799,23.174,1.032,4.6,2.025,9.21,3.223,13.77,1.155,4.397,2.671,8.657,4.037,12.987,2.516,7.975,4.074,16.925-.091,24.65-1.785,3.31-4.338,5.84-7.29,8.114-3.318,2.556-6.902,4.873-10.683,6.683-1.169.56-1.477,2.231-.861,3.284.699,1.195,2.11,1.423,3.284.861,3.606-1.726,6.998-3.923,10.195-6.315,2.994-2.241,5.724-4.586,7.908-7.649,5.427-7.609,5.679-17.235,3.543-26.034-1.155-4.759-2.968-9.314-4.346-14.006-1.391-4.737-2.491-9.552-3.566-14.369-1.98-8.867-3.88-18.119-8.855-25.882-4.802-7.494-12.253-12.939-21.107-14.427-1.277-.215-2.584.337-2.952,1.676-.316,1.151.391,2.736,1.676,2.952h0Z"/><path class="h" d="M100.765,32.656c-4.139,8.283-11.729,14.233-18.06,20.763-3.165,3.264-6.26,6.762-8.452,10.772-2.547,4.66-4.093,9.915-5.052,15.115-1.142,6.193-1.509,12.501-1.394,18.79.056,3.085,4.857,3.095,4.8,0-.189-10.34.665-21.551,5.483-30.903,4.091-7.942,11.59-13.689,17.683-20.014,3.502-3.635,6.868-7.559,9.137-12.101,1.377-2.755-2.762-5.189-4.145-2.423h0Z"/><path class="h" d="M124.775,32.991c-3.709,3.897-7.379,7.939-11.651,11.237-4.129,3.188-8.793,5.369-13.843,6.638-2.994.752-1.726,5.383,1.276,4.629,5.529-1.39,10.677-3.817,15.204-7.286,4.553-3.489,8.465-7.68,12.408-11.823,2.129-2.237-1.259-5.637-3.394-3.394h0Z"/><path class="h" d="M124.085,39.021c8.95,4.44,15.744,12.948,19.375,21.882.488,1.2,1.598,2.049,2.952,1.676,1.138-.313,2.167-1.744,1.676-2.952-4.181-10.289-11.482-19.741-21.581-24.751-1.161-.576-2.598-.311-3.284.861-.621,1.061-.305,2.705.861,3.284h0Z"/><path class="h" d="M108.659,80.717c.335,1.276.656,2.571.847,3.877l-.086-.638c.023.179.033.355.015.535l.086-.638c-.013.083-.031.161-.059.241l.242-.573c-.025.056-.051.104-.085.155l.375-.486c-.04.048-.078.086-.127.125l.486-.375c-.098.063-.201.114-.307.163l.573-.242c-.169.071-.337.122-.518.151l.638-.086c-.163.019-.323.018-.486,0l.638.086c-.183-.026-.363-.07-.546-.095-.319-.1-.638-.114-.957-.043-.319.014-.617.109-.892.285-.498.291-.973.862-1.103,1.434-.14.614-.11,1.304.242,1.849.312.484.835,1.022,1.434,1.103.453.061.894.175,1.355.196.727.032,1.396-.194,2.044-.493.809-.373,1.443-1.123,1.658-1.993.183-.74.107-1.358-.019-2.1-.211-1.249-.5-2.487-.821-3.712-.152-.579-.588-1.133-1.103-1.434s-1.273-.429-1.849-.242c-1.25.404-2.018,1.651-1.676,2.952h0Z"/><path class="h" d="M88.558,69.628c-.647,2.104-.225,6.944,3.76,7.356,5.268-.032,5.548-5.883,3.775-8.634-1.452-2.253-5.721-3.189-7.535,1.279Z"/><path class="h" d="M130.744,69.628c.648,2.104.226,6.944-3.76,7.355-5.268-.032-5.549-5.883-3.775-8.634,1.452-2.252,5.721-3.189,7.535,1.279Z"/><path class="h" d="M146.162,85.925c-.238,1.754-.815,3.421-1.477,5.056-.251.619-.522,1.231-.768,1.852-.09.227-.534,1.334-.216.606-.738,1.689-1.648,3.303-2.612,4.872-2.81,4.577-6.22,8.878-10.387,12.295-2.271,1.862-4.832,3.312-7.662,3.97-3.007.7-1.734,5.329,1.276,4.629,6.008-1.398,11.022-5.751,14.956-10.312,3.253-3.771,6.276-8.008,8.36-12.553,1.316-2.87,2.733-6.006,3.158-9.141.174-1.283-.309-2.577-1.676-2.952-1.119-.307-2.777.383-2.952,1.676h0Z"/><path class="h" d="M68.883,89.24c2.169,7.626,6.068,14.64,11.484,20.44,5.059,5.417,11.604,9.918,19.062,11.037,1.28.192,2.58-.321,2.952-1.676.311-1.133-.387-2.759-1.676-2.952-6.728-1.009-12.378-4.913-16.944-9.802-4.854-5.198-8.306-11.492-10.249-18.321-.844-2.966-5.477-1.705-4.629,1.276h0Z"/><path class="h" d="M150.353,67.77c1.013-.904,2.426-1.125,3.726-.815.515.122.997.321,1.42.645-.134-.103.766.913.453.464,1.465,2.104,1.454,5.098,1.23,7.545-.221,2.417-1.116,4.866-2.268,6.992-1.417,2.615-3.604,5.308-6.873,4.884-1.288-.167-2.4,1.223-2.4,2.4,0,1.436,1.109,2.232,2.4,2.4,7.094.921,11.411-6.78,13.184-12.501,1.577-5.089,1.564-12.963-3.303-16.329-3.337-2.308-8.028-1.698-10.963.921-2.31,2.061,1.095,5.446,3.394,3.394h0Z"/><path class="h" d="M79.226,135.618c3.889-1.49,8.092-2.74,11.446-5.284,2.46-1.866,3.872-4.481,4.25-7.537.273-2.206.253-4.418.3-6.634.028-1.297-1.123-2.4-2.4-2.4-1.324,0-2.372,1.099-2.4,2.4-.042,1.965-.037,3.921-.218,5.881s-.993,3.512-2.694,4.687c-2.885,1.993-6.285,3.004-9.56,4.259-1.21.464-2.044,1.615-1.676,2.952.318,1.157,1.735,2.143,2.952,1.676h0Z"/><path class="h" d="M124.966,115.584c.06,5.059-.341,10.889,4.059,14.386,3.217,2.556,7.277,3.953,11.003,5.595,1.185.522,2.577.347,3.284-.861.596-1.02.331-2.758-.861-3.284-3.229-1.423-6.811-2.64-9.736-4.651-1.768-1.215-2.582-2.848-2.762-4.876-.186-2.103-.162-4.202-.187-6.31-.037-3.087-4.837-3.095-4.8,0h0Z"/><path class="h" d="M77.703,135.63c14.194,10.84,33.929,13.62,50.728,7.59,5.019-1.801,9.701-4.356,13.938-7.59,1.029-.785,1.572-2.067.861-3.284-.592-1.013-2.247-1.652-3.284-.861-6.772,5.17-14.703,8.572-23.185,9.6-8.081.979-16.425.246-24.088-2.556-4.529-1.656-8.723-4.123-12.547-7.044-1.031-.787-2.686-.16-3.284.861-.722,1.235-.172,2.494.861,3.284h0Z"/><path class="f" d="M32.528,151.836c0-.021-.002-.041-.002-.062-.017-.834.432-1.597.866-2.31,1.591-2.611,1.603-2.631,4.771-7.83-2.279-6.907-4.558-13.814-6.837-20.721-.968-2.933-.682-9.401,1.553-12.178,2.207-2.742,4.774-4.914,7.609-6.676,3.91-2.43,8.329-4.079,13.015-5.365,1.028-.282,2.699-.579,3.713-.25,1.677.544,2.904,1.555,3.368,3.178.465,1.623.217,3.376-.318,4.977l-.231.803c.768-.134,1.571-.18,2.163-.011,1.695.485,2.956,1.453,3.477,3.058.521,1.606.335,3.366-.144,4.985l-.599,1.811c.215.008.417.039.598.091,1.645.47,2.869,1.41,3.375,2.968.506,1.558.325,3.267-.139,4.838,0,0-.208.962-.423,1.959,1.292.507,1.809,1.803,1.94,2.589.468,2.807-.781,4.264-2.94,5.661-2.953,1.911-5.2,3.002-8.307,4.461.102,1.892.696,3.708,1.126,5.549.4,1.715.657,3.518.237,5.229-.503,2.049-2.159,3.947-4.421,3.87.345,1.83.738,3.695.581,5.559-.145,1.72-.821,3.468-2.175,4.543-.527.418-1.138.721-1.768.958-2.078.783-4.439.856-6.519.079-.818-.306-1.584-.735-2.333-1.184-3.643-2.186-6.967-4.899-9.838-8.028-.67-.73-1.35-1.569-1.397-2.553Z"/><path class="f" d="M38.574,93.918c.471,1.106,2.937,6.12,3.708,7.003l.037.083c3.439-1.864,7.214-3.22,11.184-4.31,1.028-.282,2.699-.579,3.713-.25.025.008.048.019.073.027l.854-.433,2.194-1.649c2.558-2.367,3.527-3.824,3.734-5.182.371-2.44.076-3.393-.995-5.687-1.049-2.246-2.987-5.275-4.199-7.335-.532-.905-1.074-1.823-1.797-2.548-.911-.914-2.058-1.47-3.212-1.867-4.459-1.53-9.449-.773-12.982,2.265-3.533,3.038-5.421,8.366-4.501,13.448.405,2.236,1.301,4.348,2.189,6.433Z"/><path class="f" d="M92.783,136.091c-.378-.951-1.004-1.814-1.622-2.662-1.407-1.932-3.49-4.86-5.092-6.581-1.726-1.854-2.436-2.444-4.825-3.08-1.33-.354-3.022-.344-6.218,1.05l-2.164,1.095-2.628,1.554c.018.076.036.154.048.223.468,2.807-.781,4.264-2.94,5.661-1.942,1.257-3.583,2.159-5.36,3.045l.338,1.474c.504,1.884,3.416,6.333,4.244,7.207,1.56,1.646,3.114,3.129,5.006,4.393,4.3,2.873,10.174,3.296,14.376,1.278,4.202-2.018,6.892-6.281,7.268-10.972.098-1.215.045-2.486-.43-3.685Z"/><path class="h" d="M23.362,154.746c-5.287,8.534-9.828,17.493-13.638,26.78-3.669,8.943-7.03,18.378-8.686,27.929-1.535,8.846-.99,18.618,5.756,25.297,5.85,5.792,14.575,7.898,22.563,6.632,9.925-1.573,18.193-8.339,24.152-16.093.79-1.029.158-2.688-.861-3.284-1.238-.724-2.491-.17-3.284.861-4.738,6.165-11.224,11.427-18.861,13.381-6.55,1.676-14.228.462-19.425-4.067-6.187-5.391-6.729-13.847-5.412-21.451,1.527-8.819,4.556-17.525,7.839-25.827,3.814-9.643,8.541-18.922,14.001-27.735,1.631-2.633-2.519-5.046-4.145-2.423h0Z"/><path class="h" d="M39.276,99.987c-3.274,2.063-6.614,4.697-8.776,7.958-1.678,2.53-2.113,5.999-2.099,8.963.017,3.617,1.345,6.869,2.464,10.26,1.442,4.369,2.883,8.738,4.325,13.107.963,2.92,5.6,1.669,4.629-1.276-1.287-3.901-2.574-7.802-3.862-11.703-1-3.03-2.57-6.48-2.729-9.44-.125-2.336.059-5.159,1.205-7.142.752-1.302,1.985-2.414,3.082-3.425,1.295-1.193,2.695-2.221,4.183-3.158,2.607-1.643.201-5.798-2.423-4.145h0Z"/><path class="h" d="M62.58,105.236c.884-2.773,1.038-6.074-.819-8.493-1.627-2.119-4.249-3.078-6.862-2.745-2.678.342-5.331,1.298-7.847,2.25-2.696,1.02-5.319,2.228-7.777,3.738-2.627,1.615-.219,5.768,2.423,4.145,3.754-2.307,7.858-3.85,12.091-5.026.818-.227,1.521-.41,2.341-.406.413.002,1.133.271,1.567.649.229.2.309.301.457.608.062.128.233.626.272,1.006.102,1.018-.169,2.039-.475,2.998-.394,1.235.462,2.619,1.676,2.952,1.295.356,2.557-.437,2.952-1.676h0Z"/><path class="h" d="M67.845,114.072c.813-2.896.859-6.28-1.203-8.682-1.876-2.186-4.67-2.776-7.399-2.278-2.59.472-5.163,1.594-7.578,2.608-2.727,1.145-5.383,2.443-7.852,4.079-1.079.715-1.542,2.12-.861,3.284.627,1.072,2.198,1.58,3.284.861,3.757-2.49,7.94-4.26,12.216-5.643.748-.242,1.643-.538,2.354-.6.832-.072,1.187.015,1.916.54.423.305.702.809.82,1.543.164,1.019-.051,2.035-.325,3.012-.836,2.979,3.794,4.25,4.629,1.276h0Z"/><path class="h" d="M71.079,123.78c.8-2.84.819-6.099-1.162-8.469-1.725-2.064-4.401-2.717-6.963-2.306-2.368.379-4.75,1.334-6.971,2.217-2.429.965-4.751,2.107-6.93,3.555-1.079.716-1.542,2.119-.861,3.284.627,1.071,2.199,1.581,3.284.861,3.439-2.283,7.016-3.636,10.94-4.852.87-.27,1.524-.432,2.271-.437.369-.002-.369-.158.205.018.063.02.612.205.456.142.024.01.752.438.746.433.127.106.251.246.386.492.052.094.21.502.11.225.069.194.14.44.173.633.168.979-.047,1.985-.313,2.929-.839,2.978,3.791,4.25,4.629,1.276h0Z"/><path class="h" d="M56.662,138.199c.145,1.45.441,2.852.801,4.261.175.684.354,1.367.5,2.057.161.765.195.937.233,1.593.018.307.024.614.013.921-.006.175-.018.349-.035.524.031-.204.02-.157-.031.141-.068.287-.146.563-.235.844-.098.258-.097.256.004-.005-.044.093-.091.184-.142.274-.115.21-.241.414-.383.606.321-.434-.227.196-.299.271-.207.177-.202.177.016.001-.11.076-.222.147-.339.212-.245.122-.235.125.029.012-.126.047-.255.088-.386.121-1.206.345-2.078,1.711-1.676,2.952.397,1.228,1.659,2.046,2.952,1.676,3.264-.933,5.036-4.015,5.301-7.236.136-1.654-.184-3.355-.569-4.957-.175-.729-.372-1.453-.549-2.181-.093-.385-.182-.771-.259-1.16-.094-.477-.122-.702-.145-.927-.124-1.245-1.015-2.462-2.4-2.4-1.193.053-2.534,1.062-2.4,2.4h0Z"/><path class="h" d="M33.801,144.181c-1.032,1.694-2.255,3.38-3.083,5.182-1.107,2.407-.39,4.525,1.255,6.439,2.861,3.328,6.485,6.181,10.216,8.467,1.972,1.209,4.007,2.097,6.337,2.255,2.275.154,4.82-.397,6.743-1.65,4.32-2.816,3.941-8.194,3.103-12.627-.241-1.274-1.776-2-2.952-1.676-1.335.367-1.918,1.674-1.676,2.952.471,2.491,1.243,6.351-1.681,7.646-3.137,1.39-5.893-.005-8.527-1.726-2.678-1.749-5.125-3.816-7.332-6.13-.302-.316-1.122-.966-1.231-1.446-.115-.503.47-1.152.726-1.573.748-1.231,1.499-2.46,2.248-3.69,1.612-2.645-2.538-5.06-4.145-2.423h0Z"/><path class="h" d="M61.655,139.219c2.484-1.189,4.955-2.458,7.231-4.017,2.2-1.506,3.831-3.503,3.892-6.278.058-2.647-1.213-5.147-3.761-6.126-1.82-.699-4.247-.329-6.079.115-2.784.674-5.412,2.029-7.861,3.483-1.08.641-1.567,2.189-.861,3.284.7,1.086,2.128,1.547,3.284.861,1.067-.634,2.154-1.236,3.276-1.768.228-.108.458-.213.689-.316.096-.042.191-.084.288-.125-.082.035-.431.172-.012.01.439-.169.878-.334,1.326-.477.753-.241,1.516-.417,2.295-.552.426-.074-.542.05.013.003.163-.014.326-.03.489-.039.356-.021.713-.025,1.069-.013.147.005.304.034.449.025.196-.011-.155-.016-.173-.024.071.031.273.085.365.099-.005,0-.414-.176-.167-.066.098.043.409.129.109.037-.201-.062-.098-.098.01.015.058.053.114.109.166.168.086.097.072.075-.039-.065.012-.015-.131-.225.032.064.036.064.076.125.112.19.033.06.084.217.126.255-.017-.015-.152-.473-.117-.26.022.134.084.281.121.414.02.07.026.143.043.214-.053-.218-.019-.231-.007.002.014.263.014.519.01.782-.008.463.11-.355-.009.07-.033.118-.087.568-.193.643-.028.02.249-.424.073-.201-.081.103-.131.242-.203.354-.044.068-.098.133-.139.203-.151.258.314-.26.064-.096-.155.102-.282.303-.419.431-.085.079-.523.459-.309.279.228-.191-.014.01-.056.04-.133.094-.265.188-.4.279-2.263,1.525-4.692,2.785-7.149,3.961-1.136.543-1.523,2.256-.861,3.284.752,1.166,2.069,1.442,3.284.861h0Z"/><path class="h" d="M43.979,99.224c.534.653-.071-.158-.171-.324-.19-.313-.368-.634-.545-.955-.467-.848-.909-1.71-1.343-2.576-.824-1.646-1.594-3.307-2.23-5.036-1.642-4.465-1.594-9.522,1.617-13.323,2.999-3.55,8.268-4.564,12.492-2.709,2.206.969,3.151,3.349,4.33,5.301,1.231,2.037,2.637,4.136,3.412,6.401.702,2.052.185,3.452-1.079,4.865-1.151,1.286-2.07,2-3.531,3.098-1.035.777-1.569,2.073-.861,3.284.596,1.019,2.241,1.644,3.284.861,3.599-2.705,7.197-5.626,7.268-10.498.044-2.994-1.641-5.822-3.097-8.332-.725-1.251-1.486-2.48-2.228-3.72-.824-1.378-1.623-2.824-2.831-3.91-4.686-4.21-12.916-3.877-17.878-.397-5.217,3.659-7.58,10.278-6.581,16.478.503,3.123,1.848,6.118,3.221,8.949.98,2.018,1.929,4.191,3.358,5.938.821,1.004,2.542.852,3.394,0,.993-.993.823-2.387,0-3.394h0Z"/><path class="h" d="M60.006,138.508c.666,2.262,2.07,4.404,3.393,6.331,1.522,2.217,3.469,4.082,5.599,5.715,4.924,3.774,11.721,5.05,17.517,2.55,5.53-2.385,9.06-8.181,9.139-14.145.048-3.641-2.001-6.196-4.049-8.978-1.693-2.299-3.425-4.802-5.679-6.598-2.21-1.761-5.095-2.487-7.871-2.039-2.294.37-4.356,1.461-6.404,2.497-2.757,1.395-.33,5.537,2.423,4.145,1.31-.663,2.566-1.334,3.989-1.733,1.582-.443,2.545-.423,4.063.337,1.584.793,3.052,2.802,4.246,4.358.72.938,1.413,1.896,2.108,2.852.758,1.043,1.698,2.104,2.134,3.331.708,1.995.035,4.684-.869,6.515-.975,1.974-2.425,3.616-4.359,4.693-4.035,2.246-9.29,1.376-12.955-1.18-1.195-.834-2.265-1.838-3.29-2.87-.36-.363-.721-.727-1.058-1.112-.362-.414.208.285-.036-.048-.172-.234-.339-.472-.503-.711-.611-.89-1.187-1.806-1.725-2.742-.279-.485-.549-.974-.796-1.476-.272-.552-.207-.353-.388-.967-.871-2.957-5.505-1.698-4.629,1.276h0Z"/><path class="h" d="M80.957,154.756c.764.699,1.191,1.403,1.345,2.455.021.141.019.77-.027.988-.017.083-.25.69-.39.616l.095-.103c.211-.139.449-.163.716-.073.207.091.374.317.438.533.239.81-.499,1.117-1.086,1.131-.026,0-.167-.144-.142-.169.037-.036.061.319.078.44.105.718.09,1.477.065,2.2-.044,1.257-.225,2.454-.486,3.677.016-.074.197-.617.07-.184.205-.139.235-.161.09-.065-.085.058-.173.111-.265.157.544-.306-.178.137-.191.025-.022-.194.767.089.777.094.448.24.847.963.455,1.467l-.921.573c-.136-.049-.275-.071-.415-.068-.136.014.062.267.024.114.069.274.156.541.193.823-.042-.32.014.561.013.496.006.227.004.454-.002.681-.017.612-.088,1.166-.225,1.761-.29,1.262.389,2.598,1.676,2.952,1.211.333,2.661-.408,2.952-1.676.476-2.073.682-4.535-.072-6.572-.902-2.437-3.637-4.298-6.149-2.756-2.296,1.41-2.274,4.982.048,6.35,1.796,1.058,4.179.34,5.541-1.1,1.538-1.627,1.585-4.459,1.68-6.565.109-2.413-.012-5.35-2.301-6.757-2.222-1.365-5.417-.394-6.05,2.263-.611,2.564,1.431,4.98,4.042,4.924,2.784-.06,4.433-2.865,4.569-5.358.135-2.475-.931-5.001-2.752-6.667-.956-.875-2.449-.945-3.394,0-.887.887-.96,2.516,0,3.394h0Z"/><path class="h" d="M203.488,252.272c-2.23-19.901-4.256-39.852-7.443-59.629-1.579-9.8-3.216-19.631-7.661-28.614-4.54-9.173-11.751-16.448-20.497-21.67-4.656-2.779-9.617-4.986-14.614-7.072-5.037-2.103-10.081-4.358-15.237-6.15-2.924-1.016-4.18,3.619-1.276,4.629,4.443,1.544,8.762,3.493,13.115,5.274,4.223,1.728,8.417,3.542,12.444,5.691,8.502,4.538,15.766,10.705,20.563,19.161,4.829,8.513,6.557,18.101,8.143,27.636,1.41,8.478,2.578,16.993,3.629,25.523,1.445,11.728,2.718,23.477,4.034,35.22.144,1.288,1,2.4,2.4,2.4,1.185,0,2.545-1.104,2.4-2.4h0Z"/><path class="h" d="M48.41,229.062v23.21c0,3.089,4.8,3.094,4.8,0v-23.21c0-3.089-4.8-3.094-4.8,0h0Z"/><path class="h" d="M169.891,252.272c0-16.093,0-32.186,0-48.279,0-4.044,0-8.087,0-12.131,0-3.089-4.8-3.094-4.8,0,0,16.36,0,32.719,0,49.079,0,3.777,0,7.554,0,11.331,0,3.089,4.8,3.094,4.8,0h0Z"/><path class="h" d="M104.609,100.344c.287-.151.576-.296.87-.434.512-.241-.518.184.07-.024.213-.075.424-.152.64-.218.585-.179,1.18-.291,1.781-.401-.337.061-.224.026.047-.003.175-.019.351-.035.526-.048.424-.031.85-.047,1.275-.049.397-.002.793.007,1.189.03.183.011.365.024.547.041.086.008.769.113.171.011.595.102,1.182.215,1.759.395.243.076.482.196.726.26-.061-.016-.507-.242-.23-.092.1.054.206.099.307.152.148.078.294.161.436.25.2.126.729.536-.024-.05.988.77,2.444,1.035,3.394,0,.79-.861,1.058-2.57,0-3.394-2.3-1.792-5.15-2.384-8.03-2.403-2.778-.018-5.422.535-7.878,1.832-1.112.587-1.542,2.227-.861,3.284.729,1.131,2.094,1.489,3.284.861h0Z"/><path class="f" d="M2.447,50.49c.652-5.979,5.096-9.45,10.085-10.136,5.629-.773,11.398,2.011,15.807,5.274,1.745,1.291,3.358,2.758,4.834,4.349.353.381.492.529.829.924.549.644.7,1.292-.019,1.683-1.052.573-1.947,1.057-3.006,1.619-4.536,2.406-9.497,5.036-14.591,6.203-5.921,1.356-14.794-2.085-13.939-9.915Z"/><path class="f" d="M21.546,18.174c3.027-2.736,6.846-2.492,9.685-.589,3.202,2.147,4.871,6.161,5.634,9.804.302,1.442.459,2.913.489,4.385.007.353.011.49.004.842-.012.574-.228.971-.769.845-.792-.184-1.464-.342-2.254-.535-3.385-.827-7.086-1.731-10.195-3.437-3.614-1.983-6.559-7.73-2.594-11.314Z"/><path class="h" d="M4.847,50.49c.682-5.519,5.901-8.314,11.067-7.798,3.279.328,6.399,1.834,9.143,3.583,1.392.887,2.709,1.869,3.941,2.967.702.626,1.379,1.28,2.03,1.959.266.277,1.039.887,1.125,1.274v-1.276l.046-.042.861-.861c-1.559,1.165-3.54,1.973-5.264,2.874-1.753.917-3.519,1.813-5.327,2.62-2.933,1.31-6.187,2.581-9.14,2.497-2.156-.061-4.469-.708-6.284-2.158-1.678-1.341-2.42-3.26-2.2-5.64.12-1.292-1.189-2.4-2.4-2.4-1.398,0-2.28,1.104-2.4,2.4-.518,5.605,3.309,9.934,8.363,11.718,5.949,2.1,11.88-.13,17.32-2.654,1.517-.704,3.008-1.463,4.49-2.239,1.647-.862,3.411-1.652,4.975-2.659,4.001-2.575-.26-6.491-2.48-8.517-5.1-4.657-12.181-8.817-19.337-8.275-3.28.249-6.352,1.408-8.857,3.558C1.815,43.745.476,47.023.047,50.49c-.159,1.289,1.217,2.4,2.4,2.4,1.429,0,2.24-1.108,2.4-2.4Z"/><path class="h" d="M23.243,19.871c.401-.352.31-.285.763-.563.211-.13.429-.242.648-.356.056-.029.424-.168.087-.042.368-.137.738-.222,1.117-.318.683-.173-.262.006.15-.026.263-.02.524-.032.788-.027.15.003.298.015.448.022.687.034-.419-.131.249.037.327.082.654.151.975.257.178.059.356.119.528.193-.396-.17.05.041.144.089.374.193.727.416,1.074.653.59.404-.267-.284.253.204.114.107.234.207.347.315.286.27.54.563.806.852.498.544-.123-.187.137.161.118.158.231.32.341.484.265.396.51.805.736,1.224.384.712.571,1.151.743,1.609.306.813.559,1.645.768,2.487.441,1.778.618,3.301.616,5.161,0,.543.016.077.033.08l1.941-1.291-.283-.066c-.439-.157-.933-.22-1.388-.33-.982-.238-1.964-.478-2.942-.734-1.793-.471-3.601-.982-5.308-1.712-.449-.192-1.381-.635-1.989-1.011-.131-.081-.262-.202-.401-.266-.313-.145.385.352-.06-.044-.303-.27-.601-.538-.876-.837-.093-.101-.179-.207-.272-.308-.172-.212-.175-.212-.009,0-.062-.083-.122-.167-.181-.253-.207-.32-.414-.636-.592-.974-.096-.182-.188-.368-.269-.558.166.388.002-.03-.05-.192-.042-.129-.08-.259-.115-.39-.031-.116-.177-.967-.104-.349-.039-.329-.052-.662-.037-.993.006-.136.144-.708.006-.15.048-.196.085-.389.145-.583,0-.002.244-.6.097-.284-.119.256.239-.388.275-.453.201-.365.091-.142.014-.046.194-.244.419-.461.646-.674.946-.886.895-2.499,0-3.394-.944-.944-2.445-.889-3.394,0-3.273,3.065-3.23,7.905-.768,11.462,2.622,3.787,7.017,5.294,11.293,6.458,1.102.3,2.212.572,3.322.843,1.312.32,2.851.936,4.163.416,2.757-1.093,1.903-5.187,1.574-7.455-.599-4.129-2.238-8.582-5.397-11.444-1.926-1.745-4.3-2.834-6.904-3.003-2.726-.176-5.268.956-7.283,2.723-.975.855-.874,2.52,0,3.394.968.968,2.417.857,3.394,0Z"/><path class="h" d="M138.176,62.412c-.595-.185-1.181-.398-1.756-.638l.573.242c-1.361-.576-2.65-1.304-3.845-2.173-.475-.345-1.307-.391-1.849-.242-.557.153-1.16.584-1.434,1.103-.294.557-.442,1.232-.242,1.849l.242.573c.213.361.5.648.861.861,1.863,1.354,3.977,2.369,6.174,3.053,1.199.373,2.671-.441,2.952-1.676.297-1.303-.393-2.553-1.676-2.952h0Z"/></g></svg>