<?xml version="1.0" encoding="UTF-8"?>
<svg id="_レイヤー_1" data-name="レイヤー 1" xmlns="http://www.w3.org/2000/svg" version="1.1" viewBox="0 0 397.5 465.6">
  <defs>
    <style>
      .cls-1 {
        fill: #211715;
      }

      .cls-1, .cls-2, .cls-3, .cls-4, .cls-5, .cls-6 {
        stroke-width: 0px;
      }

      .cls-2 {
        fill: #a0a0a0;
      }

      .cls-3 {
        fill: #d9d9d9;
      }

      .cls-4 {
        fill: #5394cf;
      }

      .cls-5 {
        fill: #fff;
      }

      .cls-6 {
        fill: #7a7473;
      }
    </style>
  </defs>
  <path class="cls-3" d="M126.2,122.1c2.5,14.3,5,28.6,7.4,43l1.5,8.7c.2,2.2,1.8,3.9,4,4.3,1.4,0,2.9-.2,4.2-.8l5-1.5,37-11.4,18.5-5.7c1.2-.3,2.3-.8,3.2-1.7.9-1.1,1.3-2.4,1.1-3.8-.2-1.2-.4-2.4-.6-3.7-1.3-7.5-2.6-15-3.9-22.5-1.2-6.8-2.2-13.7-3.5-20.5-.5-2.6-3-4.3-5.6-3.8,0,0,0,0-.1,0-1.1.2-2.1.5-3.2.7-3.2.7-6.5,1.4-9.7,2.1-17.1,3.7-34.3,7.1-51.4,10.9-2.4.5-4.1,2.7-3.9,5.1,0,1.1.9,2,2,2,1.1,0,2-.9,2-2,0-.9.1-1.1.9-1.2.9-.2,1.9-.4,2.8-.6,1.8-.4,3.7-.8,5.5-1.1,4.1-.9,8.3-1.7,12.4-2.6,8.4-1.8,16.8-3.6,25.2-5.4,6-1.3,11.9-2.8,17.9-3.8,1.4-.2,1.3,1.1,1.5,2.2l.7,4c.6,3.5,1.2,6.9,1.8,10.4,1.3,7.5,2.6,15,3.9,22.5l.8,4.4c.3,1.1.4,2.2.6,3.3,0,.6-.2.8-.9,1-1.6.5-3.2,1-4.7,1.5l-8.5,2.6-35.1,10.8-8.5,2.6-4.3,1.3c-.7.2-2.2,1.1-2.8.3-.2-.5-.3-1-.3-1.5l-.3-1.8-.7-4.2c-2.4-14.1-4.9-28.1-7.3-42.2l-.5-3.1c-.3-1.1-1.4-1.7-2.5-1.4-1,.3-1.7,1.4-1.4,2.5Z"/>
  <path class="cls-3" d="M190.1,110.6c-14.2,3.1-28.4,6.1-42.5,9.1-4.2.9-8.4,1.8-12.7,2.7-1.1.3-1.7,1.4-1.4,2.5l2.6,15,4.1,23.7.9,5.5c.3,1.1,1.4,1.7,2.5,1.4,18.9-5.8,37.8-11.7,56.7-17.5,1-.3,1.7-1.4,1.4-2.5-2.2-13-4.5-26-6.7-39-.3-1.1-1.4-1.7-2.5-1.4l-2.4.5c-2.5.5-1.4,4.4,1.1,3.9l2.4-.5-2.5-1.4c2.3,13,4.5,26,6.7,39l1.4-2.5c-18.9,5.8-37.8,11.7-56.7,17.5l2.5,1.4-2.6-15-4.1-23.7-.9-5.5-1.4,2.5c15.1-3.2,30.2-6.4,45.3-9.6,3.3-.7,6.6-1.4,9.9-2.1,2.5-.5,1.5-4.4-1.1-3.9Z"/>
  <path class="cls-3" d="M146.6,187.3l26.3-8.2c10-3.1,19.9-6.2,29.9-9.3,2.9-.9,5.8-1.8,8.6-2.7h-1.1c9.8,2.9,19.6,5.8,29.1,9.3v-3.9c-15.8,5.6-31.6,11.1-47.5,16.6-4.9,1.7-9.8,3.4-14.8,5.1-2.4.8-1.4,4.7,1.1,3.9,17.4-6,34.8-12.1,52.2-18.2l10-3.5c1.1-.3,1.7-1.5,1.3-2.5-.2-.6-.7-1.1-1.3-1.3-6.6-2.5-13.4-4.5-20.2-6.6-1.8-.6-3.6-1.1-5.3-1.6-1.3-.4-3.1-1.3-4.4-1.1-1.5.3-3,.8-4.5,1.4-13.6,4.2-27.2,8.5-40.8,12.7l-19.8,6.1c-2.4.8-1.4,4.6,1.1,3.9h0Z"/>
  <path class="cls-3" d="M129.3,147c-2.1,8.2-4.5,16.3-6.6,24.6-.6,2.5,3.2,3.6,3.9,1.1,2.1-8.2,4.5-16.3,6.6-24.6.6-2.5-3.2-3.6-3.9-1.1h0Z"/>
  <path class="cls-3" d="M151.3,273.6c0-14.2.1-28.4.2-42.6,0-2.2,0-4.4,0-6.6l-1.5,1.9c30.5-11.4,61-23.1,91.3-35.1,8.6-3.4,17.3-6.8,25.9-10.2,1-.3,1.7-1.4,1.4-2.5-.3-1.1-1.4-1.7-2.5-1.4-30.3,12-60.7,23.9-91.2,35.4-8.7,3.3-17.3,6.6-26,9.8-.9.3-1.4,1-1.5,1.9,0,13.4-.1,26.7-.1,40.1,0,3,0,6.1,0,9.1,0,2.6,4,2.6,4,0h0Z"/>
  <path class="cls-3" d="M121.1,214.1l18.3,7.5c1.1.3,2.2-.3,2.5-1.4.3-1.1-.4-2.1-1.4-2.5l-18.3-7.5c-1.1-.3-2.2.3-2.5,1.4-.3,1.1.4,2.1,1.4,2.5h0Z"/>
  <path class="cls-3" d="M176.6,194.8l-29.9-9.6c-2.5-.8-3.5,3.1-1.1,3.9l29.9,9.6c2.5.8,3.5-3.1,1.1-3.9Z"/>
  <path class="cls-5" d="M9.4,441.7c4,0,7.3,3.1,7.4,7.1,0,0,0,.2,0,.2,0,4.6-2.9,7.5-7.4,7.5s-7.4-2.9-7.4-7.5c0-4,3.1-7.3,7.1-7.3,0,0,.2,0,.3,0Z"/>
  <path class="cls-5" d="M74.4,448.8c4,0,7.3,3.1,7.4,7.1,0,0,0,.2,0,.2,0,4.6-2.9,7.5-7.4,7.5s-7.4-2.9-7.4-7.5c0-4,3.1-7.3,7.1-7.3,0,0,.2,0,.3,0Z"/>
  <path class="cls-1" d="M9.4,443.7c.2,0,.4,0,.6,0,.6,0-.3,0,.3,0,.3,0,.7.1,1,.2,0,0,.6.2.2,0,.1,0,.2.1.3.2.2,0,.3.2.5.3,0,0,.6.5.4.2.2.2.5.4.7.6,0,0,.4.4.2.2s.2.3.2.2c.2.3.4.6.5.9.2.3-.1-.4,0,.1,0,.2.2.5.2.7.3,1.2.2,2.4-.1,3.5,0,.2-.1.3-.2.5,0,0,.2-.3,0,0-.2.3-.3.6-.5.9,0,0-.2.3,0,0-.1.1-.2.3-.3.4,0,.1-.2.2-.3.3,0,0-.5.4-.2.2-.2.2-.5.3-.7.5-.1,0-.3.2-.5.2.4-.2-.1,0-.2,0-.3,0-.6.2-.9.2,0,0-.6.1-.2,0-.2,0-.4,0-.6,0-.4,0-.8,0-1.2,0-.1,0-.3,0-.4,0-.6,0,.3.1-.2,0-.3,0-.6-.1-.9-.2-.2,0-.3-.1-.5-.2.4.2-.1,0-.2-.1-.3-.1-.5-.3-.8-.5.4.3-.3-.3-.3-.3-.1-.1-.2-.2-.3-.4.2.3,0,0,0,0-.2-.3-.4-.7-.6-1,.2.4-.1-.4-.2-.5,0-.3-.1-.6-.2-.9-.1-.6,0,.4,0-.2,0-.2,0-.4,0-.6,0-.4,0-.8,0-1.2,0,.4,0,0,0-.1,0-.2,0-.4.2-.7,0-.2.1-.4.2-.5.2-.5-.2.3,0-.2.2-.4.4-.7.6-1,.2-.3-.3.3,0-.1.2-.2.3-.4.5-.5,0,0,.2-.2.3-.2-.3.2.3-.2.4-.2.1,0,.3-.2.4-.2,0,0,.6-.3.3-.2.7-.3,1.5-.5,2.3-.4,2.6,0,2.6-4,0-4-4.2,0-7.8,2.7-9,6.7-1,3.6,0,7.9,3,10.2,3.2,2.3,7.4,2.6,10.9.7,3.3-1.8,4.9-5.7,4.5-9.3-.5-4.8-4.5-8.4-9.3-8.4-2.6,0-2.6,4,0,4Z"/>
  <path class="cls-1" d="M74.4,450.8c.2,0,.4,0,.6,0,.6,0-.3,0,.3,0,.3,0,.7.1,1,.2,0,0,.6.2.3,0,.1,0,.2.1.3.2.2,0,.3.2.5.3,0,0,.6.5.4.2.2.2.5.4.7.6,0,0,.4.4.2.2s.2.3.2.2c.2.3.4.6.5.9.2.3-.1-.4,0,.1,0,.2.2.5.2.7.3,1.2.2,2.4-.1,3.5,0,.2-.1.3-.2.5,0,0,.2-.3,0,0-.2.3-.3.6-.5.9,0,0-.2.3,0,0,0,.1-.2.3-.3.4,0,.1-.2.2-.3.3,0,0-.5.4-.2.2-.2.2-.5.3-.7.5-.2,0-.3.2-.5.2.4-.2-.1,0-.2,0-.3,0-.6.2-.9.2,0,0-.6.1-.2,0-.2,0-.4,0-.6,0-.4,0-.8,0-1.2,0-.1,0-.3,0-.4,0-.6,0,.3.1-.2,0-.3,0-.6-.1-.9-.2-.2,0-.3-.1-.5-.2.4.2-.1,0-.2-.1-.3-.1-.5-.3-.8-.5.4.3-.3-.3-.3-.3-.1-.1-.2-.2-.3-.4.2.3,0,0,0,0-.2-.3-.4-.7-.6-1,.2.4-.1-.4-.2-.5,0-.3-.1-.6-.2-.9-.1-.6,0,.4,0-.2,0-.2,0-.4,0-.6,0-.4,0-.8,0-1.2,0,.4,0,0,0-.1,0-.2,0-.4.2-.7,0-.2.1-.4.2-.5.2-.5-.2.3,0-.2.2-.4.4-.7.6-1,.2-.3-.3.3,0-.1.2-.2.3-.4.5-.5,0,0,.2-.2.3-.2-.3.2.3-.2.4-.2.1,0,.3-.2.4-.2,0,0,.6-.3.3-.2.7-.3,1.5-.5,2.3-.4,2.6,0,2.6-4,0-4-4.2,0-7.8,2.7-9,6.7-1,3.6,0,7.9,3,10.2,3.2,2.3,7.4,2.6,10.9.7,3.3-1.8,4.9-5.7,4.5-9.3-.5-4.8-4.5-8.4-9.3-8.4-2.6,0-2.6,4,0,4Z"/>
  <path class="cls-5" d="M85.6,420.3c-7.3-4.3-17.4-9-23-9.9,0-7.2,0-19.4,0-29.8h-11.6c0,10.5,0,23,0,30.6-15.5,4.2-29.9,11.6-42.4,21.7-2.9,2.3-6,5.1-4.5,8,.3.5,3.9,3.5,6.9,3.5,14.2-9,25-15.6,42.6-20.4,4.9,6.4,11.1,16,17.2,25.5.9,1,2.3,1.4,3.6,1,1.3-.3,2.6-.6,3.8-.9.9-.2,1.5-1.1,1.3-2.1,0,0,0-.2,0-.2-1.6-3.9-3.9-8.9-5.4-11.8-2.4-4.9-5.4-9.6-8.7-14,4.8,1,13.3,5.3,17.3,8l3.1-9.1Z"/>
  <path class="cls-5" d="M81.9,409.5c-1.1,0-2.2-.3-3.1-.9-3.1-1.8-3.2-6.2-3-9.8.6-9.1,1.3-15.8,1.3-21.2,7.7-1.7,16.1-4.4,19.8-7.2l.3-.2c0,13.4,0,32.4.2,39.3h-.5c-4.9,0-8.1,0-12.9,0-.7,0-1.4,0-2.1,0Z"/>
  <path class="cls-5" d="M96.9,370.4c-5.2,3.9-19.5,7.6-28.4,8.8-10.5,1.4-28.7,3.2-46.2-3.9-6.4-2.6-12.7-8.7-14.7-15.3-1.1-3.4-1.3-6.9-.7-10.4.7-3.5,2.6-6.6,5.5-8.7,0,0,16.7-10.1,63.3-10.7,46.7-.7,21.2,40.2,21.2,40.2Z"/>
  <path class="cls-5" d="M117.1,435.3c-4.3-.2-8.7-.8-12.9-1.6-2.2-.4-4.4-.9-6.1-2.4-2.2-2-1.8-8.3,1.1-13.3,0,0,1.2-3,2.3-6,7.6,0,15.1-1.1,22.4-3.3,2.5,1.6,5,3.2,5,3.2,4.5,2.8,7.1,4.2,11.2,6.5,2.2,1.3,5,4.9,5.4,6.9.5,2.7.6,4.5-.6,6-1.9,2.4-6.3,3-9.4,3.4-6.1.8-12.3,1-18.4.7Z"/>
  <path class="cls-5" d="M107.2,310l-3.9-2.6c-.4-.2-.8-.4-1.1-.6-3.9,3.1-8,5.9-12.4,8.3-3.4,1.6-6.8,2.9-10.4,4-19.9,7.1-41.8,4.6-62.3-1-2-.5-3.9-1.5-5.5-2.9l-.5,6.6c0,9.9.3,17.3,7.7,23.4,2.8,2.3,5.9,4.2,9.3,5.4,9.1,3.2,18.6,4.9,28.2,5.1,11.1.2,22.2-1.5,32.8-4.8,2.4-.8,6.1-1.9,8.4-2.6,0,.9,0,1.5,0,1.5,0,2.2,0,5,0,6.7,0,4.8-.3,43.7.1,53.4,0,.5.1,1.1.5,1.5.4.3.9.4,1.3.4,8.4.5,21.8-1.4,30.4-5.5,3.4-18,6.8-47.5,7.9-65.6.4-4.2.3-8.5-.3-12.6l-1.3-8.5c-2.6-2.5-5.6-6.1-6.2-6.4l-1.4-.8c-3.1-.2-6.2-.6-9.2-1.4-2.8-1-5.5-2.3-8.1-3.9-.7,1.4-1.4,2.7-2.2,3.9l-1.7-1.1Z"/>
  <path class="cls-5" d="M128.9,292.1l-10.5-1.9c-2.1,5.3-4.5,11.5-7.4,17,2.6,1.6,5.3,2.9,8.1,3.9,3,.8,6.1,1.3,9.2,1.4l1.4.8c.9.5,6.8,7.8,9.1,8.7,2.3.1,3.3,0,4.5-2.2s.6-3.8.2-6.2c-.7-4.6-2-9.2-3.7-13.5-.6-1.7-1.5-3.2-2.7-4.6-2.1-2.1-5.2-2.7-8.1-3.3h-.2Z"/>
  <path class="cls-5" d="M75.8,203.4l2-6.6c.7-1.8,1.5-3.6,2.5-5.3,5.9.5,11.8-.8,17.1-3.6,1.7-.8,3.2-2.1,4.2-3.7,1-1.5,1.8-3.1,2.3-4.8.7-2.4,1-4.9.8-7.5v-10.4c-.1-1.4.6-3.6.2-4.9-.9-3.3-4.3-4.8-5.9-7.8-.8-1.7-1.4-3.5-1.9-5.3-.5-1.7-.9-3.3-1.4-4.8-5.6,1-10.8,3.8-14.5,8.1-2.7,2.8-3.6,8.1-5.8,9.4,0,0-.4.3-1,.6-1-.9-2.3-1.5-3.7-1.7-3.1-.5-4.7.7-5.4,1.4-2.1,2.1-2.8,6.5-2.2,9.4.5,2.9,1.9,5.6,4,7.6,1.1,1,2.5,1.8,4,2.2-2.4,5.2-10.2,12.4-15.2,15.4-2.9,1.9-6.4,2.7-9.9,2.5,1.8,1.4,3.1,3.3,3.9,5.4.3,1,.4,2.1.4,3.2l25.4,1.2Z"/>
  <path class="cls-6" d="M71.3,116.2c-.4,0-.7-.2-1.1-.2-6.8-1.2-13.7-.9-20.3.9-6.5,1.9-16.8,6.1-24,21.7-3.1,6.9-4.3,14.6-3.3,22.2,1.6,10.9,7.4,20.7,16.1,27.4,2.1,1.6,5,3.4,7.4,5.6h.1c3.4.2,6.8-.7,9.7-2.5,5-3.1,12.9-10.2,15.2-15.4-1.5-.4-2.8-1.2-4-2.2-2.1-2.1-3.5-4.7-4-7.6-.7-2.9,0-7.3,2.2-9.4.7-.7,2.3-1.8,5.4-1.4,1.4.2,2.7.8,3.7,1.7.6-.4,1-.6,1-.6,2.2-1.3,3-6.6,5.8-9.4,3.8-4.3,8.9-7.1,14.5-8.1-.6-2.1-1.5-4.1-2.5-6.1-5.1-8.7-11-14.1-22-16.4Z"/>
  <path class="cls-1" d="M91.6,133.6c2.5,4.8,3.1,10.3,5.3,15.3,1,2,2.4,3.9,4.1,5.4.7.6,1.3,1.4,1.7,2.2.3.8.4,1.7.2,2.5-.8,5.6.3,11.4-.3,17-.3,2.5-1.1,4.8-2.5,6.9-1.3,1.7-3,3.1-5,3.9-5,2.4-10.5,3.3-16,2.6-1.1,0-2,.9-2,2,0,1.1.9,2,2,2,5.5.6,11.1-.2,16.2-2.4,2.3-.9,4.5-2.2,6.3-3.8,1.8-2,3.2-4.3,4-6.9.9-2.9,1.2-5.9,1-8.9,0-3.3-.2-6.6-.1-9.9,0-2.5.8-4.5-.3-6.9-1-2.1-2.9-3.6-4.4-5.3-2-2.3-2.5-5.7-3.4-8.6-.9-3.2-2-6.3-3.5-9.3-1.2-2.3-4.6-.3-3.5,2h0Z"/>
  <path class="cls-1" d="M78.6,190.5c-1.1,1.8-2,3.8-2.7,5.8-.7,2.2-1.4,4.4-2,6.6-.3,1.1.3,2.2,1.4,2.5,1.1.3,2.1-.3,2.5-1.4.7-2.1,1.3-4.3,2-6.4.1-.4.3-.8.4-1.2,0-.2,0-.2,0,0,0-.1,0-.2.2-.4,0-.2.2-.4.3-.5.5-1,1-1.9,1.5-2.9.6-1,.2-2.2-.7-2.7-.9-.5-2.2-.2-2.7.7h0Z"/>
  <path class="cls-1" d="M69,175.7c-2.3,4.2-6,7.6-9.7,10.6-1.7,1.4-3.5,2.7-5.5,3.8-2.3,1.2-5,1.7-7.6,1.6-2.6,0-2.6,4,0,4,3,0,5.9-.5,8.7-1.7,2.4-1.2,4.6-2.7,6.7-4.4,4.1-3.3,8.3-7.2,10.9-11.9,1.3-2.2-2.2-4.3-3.5-2h0Z"/>
  <path class="cls-1" d="M76.2,155.8c-2.3-2.3-5.6-3.2-8.8-2.5-2.3.5-4.1,2-5.1,4.1-2.3,5.2-1.6,11.3,1.9,15.8,2.1,2.9,5.4,4.7,9,4.9,2.6.2,2.6-3.8,0-4-5.2-.3-8.4-6.1-8.2-10.9,0-1.2.3-2.4.8-3.6.2-.4.4-.9.7-1.2.2-.2.3-.4.5-.6.3-.3-.3.2,0,0,.9-.5,1.9-.7,2.9-.6,1.3,0,2.5.6,3.4,1.5,1.8,1.9,4.6-1,2.8-2.8h0Z"/>
  <path class="cls-1" d="M98.3,150.4c.8,1.5,1.3,5.1-1.1,6-3.4.7-4.5-3.6-3.9-5.9.5-1.9,3.1-3.2,5-.1Z"/>
  <path class="cls-1" d="M102.5,169.4h-.2c0,0,.5-.1.5-.1-.7.3-1.4.5-2.1.6h.5c-.5,0-1.1,0-1.6,0-.5,0-1,.2-1.4.6-.8.8-.8,2,0,2.8,0,0,0,0,0,0l.4.3c.3.2.7.3,1,.3.5,0,1.1,0,1.6,0,.5,0,1.1-.2,1.6-.3.6-.2,1.2-.4,1.8-.7.5-.3.8-.7.9-1.2.1-.5,0-1.1-.2-1.5-.3-.5-.7-.8-1.2-.9h-.5c-.4,0-.7,0-1,.2h0Z"/>
  <path class="cls-1" d="M93.2,137.2c-4.8,1.3-9.2,3.9-12.7,7.4-1.6,1.6-2.9,3.5-3.8,5.6-.4.9-.8,1.9-1.3,2.8-.2.4-.4.7-.6,1.1.2-.3,0,.1-.1.2,0,0-.2.2-.2.2.2-.1.2-.2,0,0-2.2,1.4-.2,4.9,2,3.5,1.7-1.1,2.5-2.9,3.3-4.6.7-1.9,1.8-3.7,3.1-5.3,3.1-3.3,7.1-5.7,11.5-6.9,2.5-.6,1.4-4.5-1.1-3.9h0Z"/>
  <path class="cls-1" d="M95,131.6c-2.4-4.4-5.8-8.3-9.7-11.5-4.2-3-9-5.1-14.2-6-10.1-2-21.1-.8-30.2,4.3-9.4,5.2-16.1,14.9-19,25.1-3.5,12.1-1.5,25.2,5.5,35.6,2.7,4,6,7.6,9.9,10.6,2.3,1.8,4.9,3.4,7.1,5.3,2.3,2,3.8,4.1,3.8,7.3,0,2.6,4,2.6,4,0,0-2.8-.8-5.5-2.6-7.7-1.7-2-3.8-3.8-6-5.3-3.3-2.3-6.4-4.9-9.2-7.8-7.5-8.1-11.2-19.1-10.1-30.2,1.1-10.4,6.7-21.3,15.3-27.5,7.2-5.2,16.3-7.1,25.2-6.6,5.8.2,11.5,1.9,16.5,5,4.3,2.8,7.5,6.9,10.1,11.3,1.3,2.2,4.8.2,3.5-2h0Z"/>
  <path class="cls-4" d="M48.5,200.9c6.5-.8,17.4.3,22.7,2.2,7.7,2.6,15.1,7,19.7,13.6,3.1,5.8,5.2,12.1,6.1,18.6.8,5.5,2.1,11.8,3.1,17.6.7,5.1,2,10,3.9,14.8,1.4,3.4,11.2,13.3,16.3,18-3,7-6.6,17.6-11.4,25.3l-19.1,4c-3.4,1.6-6.8,2.9-10.4,4-19.9,7.1-41.8,4.6-62.3-1-3-.8-7.3-3.1-7.3-6.2.2-13.4,1.1-26.8,2.8-40.1,2.2-13.9,5.4-27.7,9.4-41.2,4.1-13.1,13.9-27,24.9-29.4.5-.1,1.1-.2,1.7-.3Z"/>
  <path class="cls-5" d="M45,200.7c-.1.4-.3.7-.5,1.2.7-.3,1.5-.5,2.2-.6,6.1-1.3,18.5-.1,24.4,2,5,1.6,9.7,4.1,13.8,7.3-2.4-8.2-10.3-12.1-18-14.2-5.7-1.6-11.5-2.3-17.4-2-1.2,0-2.3.6-2.7,1.7-.8,1.5-1.4,3-1.9,4.7Z"/>
  <path class="cls-5" d="M211.8,82.2c-.6.1-1.1.4-1.6.7-1.5,1.1-2.2,2.9-1.8,4.7-1.3.3-2.2,1.6-2,2.9.2,1.3.7,2.5,1.5,3.6-1.1,1.2-1.5,2.9-1,4.4.6,1.5,1.4,2.9,2.6,4,7.5,8.1,16.9,14.2,27.4,17.8,1.4,2.3,2.7,4.6,4.2,7l12.9-11c-.5-.6-1-1.2-1.6-1.9,2.4-7.7-.5-15.1-2.9-21.6l-2.1-5.7c-.5-1.4-1.2-3-2.6-3.5-1.6-.6-3.4.7-4.1,2.3-.5,1.7-.6,3.4-.2,5.1l.5,4.3-3.1-1.7c-4.4-2.5-8.5-5.5-12.2-8.9-1.4-1.5-3.1-2.7-5-3.5-1.9-.7-4.4-.3-5.5,1.5-1-.6-2.3-.9-3.5-.6Z"/>
  <path class="cls-1" d="M243.1,97.1c-.3-2.3-.6-4.6-.8-6.9-.1-1.4-.4-3.8,1.2-4.6,1.3-.6,2,2.1,2.3,2.9.8,2.1,1.5,4.2,2.3,6.2,1.4,3.9,2.9,8,3.2,12.2.1,2.2,0,4.4-.6,6.5-.3,1.5.1,2.1,1,3.2.8,1,1.7,1.9,2.5,2.9,1.7,1.9,4.5-.9,2.8-2.8-1.1-1.2-2.1-2.4-3.1-3.7l.5,1.9c2.2-7.5,0-14.8-2.6-21.8-.7-1.8-1.3-3.6-2-5.4-.5-1.7-1.2-3.3-2.3-4.6-2.5-2.7-6.5-1.6-8.2,1.4-.9,1.8-1.2,3.9-.8,5.9.2,2.2.5,4.4.8,6.7,0,1.1.9,2,2,2,1.1,0,2-.9,2-2h0Z"/>
  <path class="cls-1" d="M238.9,92c-4.6-2.8-9-6-13-9.7-1.9-1.6-3.9-3.1-6.4-3.3-2.3-.3-4.6.8-5.9,2.7l2.7-.7c-3.1-1.9-7.1-1-9,2.1-.9,1.5-1.2,3.3-.8,5l1.4-2.5c-1.8.4-3.1,1.9-3.4,3.7-.4,2.1.6,4,1.7,5.8l.3-2.4c-3,2.9-1.7,7.1.6,10,2.5,3,5.3,5.7,8.4,8.1,6.2,5,13.3,8.9,20.9,11.5l-1.2-.9c1.8,3,3.6,6,5.4,9,1.4,2.2,4.8.2,3.5-2-1.4-2.2-2.7-4.3-4-6.5-.5-1-1.1-2-1.7-2.8-.7-.7-2.2-1-3.2-1.3-3.9-1.5-7.6-3.4-11.2-5.6-3.6-2.2-6.9-4.8-10-7.7-1.5-1.3-2.8-2.8-4.1-4.3-.9-1.2-2-3.2-.7-4.4.6-.6.8-1.6.3-2.4-.5-.8-2.1-3.3-.7-3.6,1.1-.3,1.7-1.4,1.4-2.5-.2-1.4.7-2.7,2.1-3,.6-.1,1.3,0,1.8.4,1,.5,2.2.2,2.7-.7.8-1.2,2.8-.8,3.8-.2,1.8,1,3.2,2.6,4.8,3.9,3.5,3,7.3,5.7,11.3,8,2.2,1.3,4.2-2.2,2-3.5h0Z"/>
  <path class="cls-1" d="M232.7,95.2l-6.4,7.9c-.4.4-.6.9-.6,1.4,0,1.1.9,2,2,2,.5,0,1-.2,1.4-.6l6.4-7.9c.4-.4.6-.9.6-1.4,0-1.1-.9-2-2-2-.5,0-1,.2-1.4.6Z"/>
  <path class="cls-1" d="M232.9,95.9c-2.9-2.5-5.9-4.8-8.8-7.4-.8-.8-2-.8-2.8,0-.8.8-.8,2,0,2.8,0,0,0,0,0,0,2.8,2.6,5.9,4.9,8.8,7.4.8.8,2,.8,2.8,0,.8-.8.8-2,0-2.8Z"/>
  <path class="cls-1" d="M229.4,101.1c-5.7-4.5-11.5-9-17.3-13.4-1-.5-2.2-.2-2.7.7-.5,1-.2,2.2.7,2.7,5.6,4.2,11.1,8.4,16.5,12.7.8.7,2,.7,2.8,0,.8-.8.8-2,0-2.8Z"/>
  <path class="cls-5" d="M316.9,352.4c-4-.9-7.9,1.6-8.8,5.6,0,0,0,.2,0,.2-.9,4.6,1.4,8,5.9,8.9,4.6.9,7.9-1.4,8.8-6,.9-4-1.7-7.9-5.6-8.7,0,0-.2,0-.3,0Z"/>
  <path class="cls-5" d="M388,350.4c-4.1,0-7.4,3.1-7.5,7.2,0,0,0,.2,0,.2,0,4.7,2.9,7.6,7.5,7.6,4.7,0,7.5-2.9,7.5-7.6,0-4.1-3.2-7.4-7.2-7.5,0,0-.2,0-.3,0Z"/>
  <path class="cls-1" d="M317.5,350.4c-4.1-.9-8.3,1-10.4,4.7-1.9,3.5-1.5,7.8.9,10.9,2.7,2.8,6.7,4,10.5,2.9,3.8-1.1,6-4.8,6.4-8.6.4-4.7-2.8-9-7.5-9.9-1.1-.3-2.1.4-2.5,1.4-.3,1.1.3,2.2,1.4,2.5,1.3.2,2.6.9,3.4,2,0,0,.2.3,0,0,.1.2.2.3.3.5.2.3.3.5.4.8-.2-.4,0,.2,0,.2,0,.2,0,.3.1.5s0,.3.1.5c0,.2,0,.3,0,0,0,.1,0,.3,0,.4,0,.3,0,.7,0,1,0,.6,0-.3,0,.3,0,.1,0,.3,0,.4,0,.4-.2.8-.3,1.2,0,.1,0,.2-.1.4.1-.4-.2.3-.2.4-.1.3-.3.5-.5.8-.3.5.3-.2-.1.1-.1.1-.2.3-.3.4s-.7.6-.4.3c-.3.2-.6.4-.9.5-.5.3.4-.1-.1,0-.1,0-.2,0-.3.1-.3.1-.7.2-1,.2.4,0,0,0,0,0-.2,0-.4,0-.6,0-.4,0-.8,0-1.2,0,.4,0-.3,0-.3,0-.2,0-.4,0-.6-.1-.3,0-.6-.2-.9-.3-.6-.2.3.2-.2-.1-.1,0-.2-.1-.3-.2-.2,0-.3-.2-.5-.3-.1,0-.2-.1-.3-.2.1.1.2.1,0,0-.2-.2-.5-.4-.7-.6,0,0-.4-.4-.2-.2s-.1-.2-.1-.2c-.2-.2-.3-.5-.4-.7-.3-.5,0,.4,0-.2,0-.2-.1-.4-.2-.7,0-.1,0-.2,0-.3-.1-.5,0,.4,0-.2,0-.3,0-.6,0-.9,0-.2,0-.4,0-.6,0,0,0-.7,0-.3,0-.4.2-.8.3-1.2.4-1.2,1.2-2.3,2.3-3,.1,0,.2-.1.3-.2,0,0,.7-.3.4-.2.4-.1.7-.2,1.1-.3,0,0,.7,0,.3,0,.2,0,.4,0,.6,0s.4,0,.6,0c.1,0,.3,0,.4,0-.2,0-.1,0,.1,0,1.1.3,2.1-.4,2.5-1.4.3-1.1-.3-2.1-1.4-2.5Z"/>
  <path class="cls-1" d="M388,348.4c-4.2,0-7.9,2.7-9.1,6.8-1.1,3.7,0,7.8,3.1,10.3,3.2,2.3,7.5,2.6,11,.8,3.3-1.8,4.9-5.8,4.5-9.4-.5-4.8-4.6-8.5-9.4-8.5-2.6,0-2.6,4,0,4,.2,0,.4,0,.7,0,.6,0-.3,0,.3,0,.3,0,.7.1,1,.3,0,0,.6.2.3,0,.1,0,.2.1.4.2.2,0,.3.2.5.3,0,0,.6.5.4.2.2.2.5.4.7.7,0,0,.4.4.2.2s.2.3.2.3c.2.3.4.6.5.9.2.3-.1-.4,0,.1,0,.2.2.5.2.7.3,1.2.2,2.4-.1,3.6,0,.2-.1.3-.2.5,0,0-.2.3,0,0-.1.3-.3.6-.5.9,0,0-.1.2-.2.3.3-.4,0,0-.1.1,0,.1-.2.2-.3.3,0,0-.5.4-.2.2-.2.2-.5.3-.7.5-.2,0-.3.2-.5.2.4-.2-.1,0-.2,0-.3,0-.6.2-.9.2,0,0-.7.1-.2,0-.2,0-.4,0-.6,0-.4,0-.8,0-1.2,0-.1,0-.3,0-.4,0-.6,0,.3.1-.2,0-.3,0-.6-.1-.9-.2-.2,0-.3-.1-.5-.2.4.2-.2,0-.2-.1-.3-.1-.5-.3-.8-.5.3.2-.3-.3-.4-.3s-.6-.7-.3-.4c-.2-.3-.4-.7-.6-1,0,0-.1-.3,0,0,0-.2-.1-.3-.2-.5,0-.3-.2-.6-.2-.9-.1-.6,0,.4,0-.2,0-.2,0-.4,0-.6,0-.4,0-.8,0-1.2,0,.4,0,0,0-.1,0-.2,0-.4.2-.7,0-.2.1-.4.2-.5.2-.5-.2.3.1-.2.2-.4.4-.7.6-1.1.2-.3-.3.3.1-.1.2-.2.3-.4.5-.5,0,0,.2-.2.3-.3-.3.2.3-.2.4-.2.1,0,.3-.2.4-.2,0,0,.6-.3.3-.2.7-.3,1.5-.5,2.3-.5,2.6,0,2.6-4,0-4Z"/>
  <path class="cls-5" d="M309.8,334.5c4.4-1.9,12.4-4.3,17.4-4.7-2.3,2.3-3.2,3.6-7.6,9.1-2.7,3.5-5.2,7.2-7.5,11-.5.8-.3,1.9.6,2.5,0,0,.1,0,.2,0,1.2.5,2.4,1.1,3.6,1.7,1.1.5,2.9.6,3.8-.3,7.8-8.5,14.5-15.5,21.3-21.1,18.1,4.8,29.1,11.6,43.6,20.8,3,0,6.8-3.1,7-3.6,1.4-3-1.7-5.9-4.6-8.2-12.5-10.1-27-17.6-42.5-21.9,0-6.8.1-39.9.2-48l-13.1-.4v5.1c0,7.9,0,34.9,0,42.6-6,.2-16.3,2.9-23.9,5.7l.6,3.8.9,5.9Z"/>
  <path class="cls-5" d="M308.1,277.6c4.2,1.5,12.6,1.6,17.9.4,3.7-.8,7.4-1.8,10.9-3.1,6.9-2.6,14.8-5.5,21.7-8.3,10.5-4.1,17.3-6.8,22.8-17.1,4.2-8,5.4-20.2,6.7-29.1,2.3-16.3,3.9-32.7,5.1-49,.8-10.6,1.1-16.1,1-21-.1-4.9-3.4-13.3-11.9-16.2l-23-6.7-64.3,144,13,6.2Z"/>
  <path class="cls-5" d="M216.1,372c4.5,2.1,10,1.5,15.1-1.1,5.4-2.8,11.5-6.8,16.4-9.5,5.6-3.5,15.3-9.6,10.5-17.5l-2.5-6.9c-5.5,1.7-11.4,1.7-16.8-.1-.6-.2-1.2-.4-1.7-.7-2.7,4.8-7.4,8.3-12.2,11.2-8.2,4.9-13.2,10.4-14,16.9-.4,3.7,2.2,6.4,5,7.8h.2Z"/>
  <path class="cls-5" d="M252.4,391.3c-4.3-1.7-6.8-6.2-5.9-10.2,3.1-13.4,19.9-17.5,23.9-30.5,2.8,1.7,7,2,10.1,1.7,3.8-.4,7.6-1.2,11.3-2.4h.2c0,0,1.9,2.8,1.9,2.8,13,16.3-6.3,22.5-15.7,32.7-6.2,6.5-15.9,8.4-24.5,6.4-.5-.1-.9-.3-1.4-.4Z"/>
  <path class="cls-2" d="M244.4,222.6c21-7.7,35.2-12.1,49.3-15.1-.6,7.5-.6,15.4.6,21.1,1.3,6,6.7,18.6,10.1,23.5,1.6,2.4,5,8.8,8.7,14.2l-.5.2c-2.4,1-4.7,2.1-6.9,3.3-2.8,1.5-5.5,4.2-5.5,7.4,0,21.7-.4,47.3-2.5,68.4-.1.7-.5,1.4-1.1,1.8-1.5,1-3.1,1.8-4.8,2.4-3.7,1.2-7.4,2.1-11.3,2.4-3.6.3-8.7-.1-11.3-2.7-2.6-2.6-2.8-6.7-2.9-10.4-.6-19.1-2.5-59.3-2.8-79.7v-5.7c0,0,0,9.7,0,9.7.1,17.7.2,50.6.3,68.3l-6.7,4.6c-5.9,2.2-12.3,2.3-18.2.4-1.1-.3-2.2-.9-3-1.7-1-1.3-1.6-2.9-1.7-4.6-3.4-21.8-4.3-43.9-5.1-66-.2-5.4-.2-10.9.2-16.3.2-2.8.5-5.6.9-8.3.8-3.7,2.5-7.1,4.9-10,2.3-2.6,5-4.8,7.9-6.5"/>
  <path class="cls-5" d="M346.3,31.9c-5.2-6.1-15.4-11.7-35.4-11.7s-18.8,26.1-18.8,26.1c.6,4.7,1.1,9.4,1.6,13.7.8,7.5,3.2,14.3,8.4,18.5,2.5,2.1,5.3,3.7,8.4,4.7-.7,4.1-1.2,7.7-1.5,11.2-.2,1.7-.3,4.1-.3,6.8,2.6-2.1,4.8-3.8,4.8-3.8.7-.5,2-1.4,3.1-2.2.7,1.2,3,4.7,3.9,5.9,3.6-2.3,6.2-4.1,10.2-6.7l8.7-4.2c1.2-2.1,2.3-4.2,3.4-6.3-.6-.8-1-1.8-1-2.8,0-1.2,0-4.1,0-6.4,1.8-1.8,3.4-3.8,4.8-6,0,0,1.3-2.1,1.9-3.3l.3-.7c1.6,0,3.1-.3,4.5-1,2.1-1.3,3.7-3.3,4.7-5.6,1.1-2.3,1.7-6.3.6-8.5-.7-1.4-2-2.3-3.6-2.4-1.2-.2-2.4,0-3.4.8.5-5.8-1.3-11.6-5.1-16.1Z"/>
  <path class="cls-6" d="M292.4,26.3c-.3,1.2-.6,2.4-.8,3.7-.7,5.4-.7,10.9.2,16.3,0-1.5.2-3,.5-4.5.4-1.7,1.2-3.3,2.4-4.5.9-.8,1.3-1.3,2.1-2.2.6-.6,1.1-1.4,1.5-2.2l2.1-3.5c.3-.7.8-1.3,1.3-1.8,0,0,.2-.1.2-.1,0,0,.1,0,.2-.1,2.3-1.2,5.9-.5,8.5.7s4.8,2.7,7.7,3.4c1.8.4,3.7.6,5.6.6,2.8.1,5.6.3,8.3.5,1.3,0,3.4.3,4.7.5,4.9.9,4.9,2.4,5.5,4.6.7,2.5,1,4.2,1.5,6.5.3,1.4.5,3.2.8,5.5.2,1.8.6,2,1.4,2,.5,0,1-.3,1.4-.6,1.1-.8,2.3-2.1,3.8-3.1,1-.7,2.2-1,3.4-.8,1.5.1,2.9,1,3.6,2.4l.8,1.7c2.2-4.3,2.3-11.7,2.4-14.9.1-3.1-.2-6.2-1-9.1-1.9-7.1-5-12.7-11.9-17.4-8.7-6.8-16.5-8.4-24.3-7.8-11.2.7-20.1,5.2-26,12.4-2.7,3.5-4.7,7.5-5.9,11.8Z"/>
  <path class="cls-5" d="M309.7,136.1c-.3-1.9-1.3-22.3-1.1-34.9,2.6-2.1,4.8-3.8,4.8-3.8.7-.5,2-1.4,3.1-2.2.7,1.2,3,4.7,3.9,5.9,3.6-2.3,6.2-4.1,10.2-6.7l8.7-4.2c-8.8,15.7-18.5,30.9-29,45.5"/>
  <path class="cls-1" d="M339.6,74.8c0,2.1,0,4.2,0,6.3,0,2.1,1,4,2.5,5.4,1.3,1.2,2.9,2.3,4.3,3.5.8.8,2,.8,2.8,0,.8-.8.8-2,0-2.8-1.4-1.1-2.9-2.2-4.2-3.4-.2-.1-.3-.3-.4-.4-.3-.3-.5-.6-.7-1,0,0-.2-.6,0-.2,0-.2-.1-.4-.2-.6-.1-.5,0,.4,0,0,0-.2,0-.4,0-.6,0-2,0-4,0-6,0-1.1-.9-2-2-2s-2,.9-2,2h0Z"/>
  <path class="cls-1" d="M311.9,72c1.6.8,3.4,1.1,5.2,1.1.9,0,1.7-.1,2.6-.4.9-.3,1.9-.8,2.8-1.2.9-.6,1.3-1.8.7-2.7-.6-.9-1.8-1.2-2.7-.7-.4.2-.7.4-1.1.5,0,0-.2,0-.3.1,0,0-.4.2-.1,0,.3-.1,0,0,0,0s-.1,0-.2,0c-.3,0-.6.1-.9.2-.3,0,.4,0,.2,0,0,0-.2,0-.2,0-.2,0-.4,0-.6,0-.3,0-.7,0-1,0-.2,0-.3,0-.5,0-.3,0,0,0,.2,0,0,0-.2,0-.2,0-.3,0-.7-.1-1-.2-.1,0-.3-.1-.4-.2-.2,0,.4.2.2,0,0,0-.2,0-.2-.1-1-.6-2.2-.2-2.7.7s-.2,2.2.7,2.7Z"/>
  <path class="cls-1" d="M311.1,56.2c-.5.8-1,1.7-1.4,2.5-.3.5-.4,1.1-.5,1.7,0,.7.3,1.5.8,1.9.4.4.9.7,1.5.9.4,0,.7.1,1.1.1h-.5c0,0,0,0,0,0,.3,0,.5,0,.8,0,.3,0,.5,0,.7-.2,1-.6,1.3-1.8.7-2.7,0,0,0,0,0,0-.3-.5-.7-.8-1.2-.9-.3,0-.6,0-.9-.1h.5c-.1,0-.3,0-.4,0l.5.2c-.1,0-.2-.1-.3-.2l.4.3c0,0-.2-.2-.3-.2l.3.4s0,0,0,0l.2.5s0-.1,0-.2v.5c0,0,0-.1,0-.2v.5c0-.1,0-.3,0-.4l-.2.5c.4-.9.9-1.9,1.5-2.8.3-.5.3-1,.2-1.5-.3-1.1-1.4-1.7-2.5-1.4,0,0,0,0,0,0-.5.1-.9.5-1.2.9h0Z"/>
  <path class="cls-1" d="M340.3,78.7c2.4-2.1,4.5-4.4,6.4-6.9,1.3-1.7,2.4-3.4,3.3-5.3.6-1,.2-2.2-.7-2.7s-2.2-.2-2.7.7c0,0,0,0,0,0-.9,1.8-2,3.5-3.2,5.1l-.3.4s-.4.5-.2.2c-.2.3-.4.5-.6.8-.5.6-.9,1.1-1.4,1.7-1.1,1.2-2.2,2.2-3.4,3.2-.8.8-.8,2,0,2.8.8.8,2,.8,2.8,0Z"/>
  <path class="cls-1" d="M347.2,6.4c-5.3-3.7-11.6-5.9-18-6.3-6-.3-12,.6-17.7,2.7-5.2,2-9.9,5.1-13.7,9.2-4,4.6-6.8,10.2-7.9,16.3-1.3,7-1.1,14.1.5,21,.5,2.5,4.4,1.5,3.9-1.1-2.3-10.7-1.7-23.5,5.5-32.3,6.6-8.1,17-11.9,27.2-11.9,6.5,0,12.9,2.1,18.2,5.8,2.1,1.4,4.1-2,2-3.5h0Z"/>
  <path class="cls-1" d="M331.7,78.9c-7.2,3.3-15.7,5-23.2,1.4-3.5-1.6-6.6-4.1-8.8-7.3-2-3.3-3.3-6.9-3.8-10.8-.9-5.3-1.2-10.7-1.9-16,0-1.1-.9-2-2-2-1,0-2.1.9-2,2,.7,5.3,1.1,10.6,1.8,15.9.5,4.4,1.9,8.6,4.1,12.4,4.6,7.5,13.5,11.9,22.2,11.7,5.4-.2,10.7-1.6,15.5-4,.9-.6,1.3-1.8.7-2.7-.6-.9-1.8-1.2-2.7-.7Z"/>
  <path class="cls-1" d="M352.4,49.8c.9-.6,2-.7,2.9-.3.2,0,.4.2.5.3.2.1.2.1,0,0,0,0,.2.2.3.2s.3.5,0,0c.1.1.2.3.3.5.1.3.2.6.3,1,0,.6.1,1.1.1,1.7-.1,3.3-1.6,6.3-4.1,8.4-1.5,1.1-3.5,1.5-5.3,1.1-1-.5-2.2-.2-2.7.7-.5,1-.2,2.2.7,2.7,2.6,1.1,5.5,1,7.9-.3,2.3-1.2,4.1-3,5.3-5.2,1.2-2.1,2-4.5,2.1-6.9.3-2.3-.4-4.7-1.8-6.5-2.3-2.3-5.9-2.7-8.7-.9-.9.6-1.2,1.8-.7,2.7.6.9,1.8,1.3,2.7.7h0Z"/>
  <path class="cls-1" d="M350.5,13.9c5.3,4.9,8.5,11.7,9,18.9.2,3,0,6.1-.2,9.1-.2,3-.6,6.2-2.1,8.9-1.2,2.3,2.2,4.3,3.5,2,1.7-3.1,2.2-6.7,2.5-10.2.4-3.4.5-6.8.2-10.2-.8-8-4.1-15.9-10.1-21.3-1.9-1.7-4.7,1.1-2.8,2.8h0Z"/>
  <path class="cls-1" d="M326.7,48.7c.4,1.6.2,5.3-2.4,5.6-3.4,0-3.7-4.5-2.5-6.6.9-1.7,3.7-2.4,4.9,1Z"/>
  <path class="cls-1" d="M306.5,48.3c.4,1.6.2,5.3-2.4,5.6-3.4,0-3.7-4.5-2.5-6.6.9-1.7,3.7-2.4,4.9,1Z"/>
  <path class="cls-1" d="M342.8,49.4c0,1.3.4,2.5,1.1,3.5.8.8,2,1.1,3.1.7.5-.1,1-.4,1.5-.6.5-.4,1-.7,1.5-1.2.4-.4.8-.7,1.3-1.1.2-.2.5-.4.7-.6.2-.1.1-.1-.1,0,0,0,.1,0,.2-.1.1,0,.3-.2.4-.3.4-.3.8-.7.9-1.2.3-1.1-.3-2.2-1.4-2.5-.5-.1-1.1,0-1.5.2-1,.7-1.9,1.4-2.7,2.2-.3.3-.7.6-1,.9,0,0-.2.1-.3.2-.2.1.4-.3.1-.1-.2,0-.3.2-.5.2l.5-.2c-.3.1-.5.2-.8.3h.5c-.1,0-.2,0-.4,0h.5c0,0-.2,0-.3,0l.5.2s-.1,0-.1,0c.4.1.4.4.3.2.4.4.2.3,0,0l.2.5c-.1-.4-.2-.7-.3-1.1v.5c0-.2,0-.4,0-.6,0-.5-.2-1-.6-1.4-.8-.8-2-.8-2.8,0-.4.4-.6.9-.6,1.4h0Z"/>
  <path class="cls-1" d="M302.9,29.3c2.9-1.6,6.9.6,9.5,2,1.8,1,3.7,1.7,5.6,2.3,2.2.4,4.4.6,6.6.6,4,0,7.9.4,11.8.9,1.2.2,2.7.5,3.4,1.2,0,0,.3.5.2.4.2.4.3.8.4,1.3,1,4,1.8,8,2.3,12.1.3,1.1,1.4,1.7,2.5,1.4,1-.3,1.7-1.4,1.4-2.5-.5-4-1.3-8-2.3-11.9-.2-1-.6-2-1.1-2.9-.9-1.2-2.1-2.1-3.5-2.5-3.8-1.3-8.4-1.2-12.4-1.4-2.4-.2-4.9-.1-7.3-.5-2.1-.4-4.1-1.2-5.9-2.2-3.9-2-8.9-4-13.2-1.8-2.3,1.2-.3,4.7,2,3.5h0Z"/>
  <path class="cls-1" d="M293.8,46.7c0-1.6.2-3.2.5-4.8.5-1.5,1.3-2.9,2.5-4,1.3-1.3,2.4-2.7,3.4-4.2l1.6-2.7c.4-.8.9-1.5,1.5-2.1.8-.8.8-2,0-2.8-.8-.8-2-.8-2.8,0-1.6,1.4-2.5,3.5-3.5,5.3-.4.8-1,1.6-1.6,2.3-.7.7-1.3,1.4-2,2-2.9,3-3.4,7-3.5,10.9,0,2.6,3.9,2.6,4,0h0Z"/>
  <path class="cls-5" d="M293.3,214.7c0-2.4.2-4.8.4-7.3-14.1,3-28.3,7.4-49.3,15.1l-2.8.5c-.4.2-.8.1-.8-.3,0-.5.4-.8.7-1.1,9-7.1,19.4-13.7,28.3-19.7,1.2-.6,7.5-5.2,9.6-11.5,1.2-3.4,1.9-7,2.2-10.6.5-6.6.1-17.8-.6-29.9,0-.5-.1-1.3-.2-2.3l-2,1.9c-4.8,6.1-12.9,10.5-20.4,8.3-6.1-1.8-10.2-7.4-13.5-12.8-2.5-4.2-4.8-8.6-6.9-13.1-.7-.9-.5-2.1.4-2.7,0,0,.2-.1.3-.2l18.3-15.5c1.7,2.7,3.6,5.4,5.7,7.9,2.9-9.2,8.1-18.9,13.8-24.3,4.6-4.4,12.5-7.3,19.5-9.4,3.3-1,6-2.5,9.8-3.8.9-.5,1.9-1.1,2.8-1.7l1.8,2.1c-.6,3.6-1,6.8-1.3,9.8-.9,9.7.4,39.3.8,41.6v.5c0,0,.7-.9.7-.9,13-18.1,25.1-37.4,33.5-54,1.6,1.3,3.1,2.6,4.5,3.7.7.5,1.3,1.2,1.9,1.8,9,4.2,17.2,10.3,22.1,18.3,4.2,6.9,6.2,14.6,7.6,22.4.8,4.5,3.6,23.6,4.2,28.4.9,7.9,1.5,15.8,1.6,23.7,0,2.9-.7,5.8-1.9,8.5-1,2-2.4,3.8-4.2,5.1-1.6,1.2-3.2,2.3-5,3.2.3,2.8.6,5.8.8,8.9l-3.9,20.3c3.3,14.4-4.5,23.4-9.8,26.4-5.8,3.1-11.7,5.8-17.8,8.1-3.6,1.4-7.9,2.3-11.9,4.8-3,1.9-5.4,5.6-13.3,7.6-5.5-4.4-12-17.3-14.4-21-3.4-5-8.8-17.6-10.1-23.5-.9-4.6-1.2-9.2-1-13.8Z"/>
  <path class="cls-1" d="M377.5,205.8c-.1-3-.4-5.9-.8-8.9,0-.5-.2-1-.6-1.4-.4-.4-.9-.6-1.4-.6-1,0-2.1.9-2,2,.4,3,.6,5.9.8,8.9,0,1.1.9,2,2,2s2-.9,2-2Z"/>
  <path class="cls-1" d="M349.2,89c9,4.2,17.4,10.3,22.3,19.2,4.3,7.8,6,16.6,7.3,25.3,1.1,7,2.1,14,3.1,21,0-.3,0,.3,0,.4,0,.3,0,.6.1.9.1,1,.2,1.9.3,2.9.3,3,.6,5.9.8,8.9.2,3,.4,6.1.5,9.2.2,2.9,0,5.8-.8,8.7-.8,2.7-2.3,5.1-4.5,6.8-2.3,1.8-4.8,3.2-7.5,4.3-2.5,1-5.1,1.9-7.8,2.7-2.8.8-6,1.9-9,1.4-1.1-.3-2.1.4-2.5,1.4-.3,1.1.3,2.2,1.4,2.5,5.5.8,11.3-1.3,16.4-3.2,5-1.8,10.4-4.3,13.9-8.5,1.8-2.3,3-4.9,3.6-7.7.6-3.1.8-6.2.5-9.4-.2-6.4-.7-12.7-1.5-19.1-.8-7.1-2-14.1-3-21.1-1.3-8.7-2.7-17.4-6.3-25.5-2.4-5.5-5.9-10.5-10.4-14.6-4.6-4.1-9.7-7.4-15.3-10-2.3-1.1-4.3,2.4-2,3.5h0Z"/>
  <path class="cls-1" d="M307.5,80.8c-2.6,1.5-5.2,3.1-7.7,4.7-1.2.8-2.3,1.6-3.5,2.4-1.1.6-2.1,1.5-2.9,2.4-1.5,2-.5,4.3.3,6.3,1.2,2.9,2.6,5.7,3.9,8.5l.7-2.7c-1.8.8-3.5,1.8-5.2,2.8-1.4.9-3.3,2-3.8,3.7-.2,1.2,0,2.5.4,3.7.2,1.1.5,2.3.7,3.4,1.3,6.6,2.7,13.1,4.1,19.6.8,3.7,1.6,7.4,2.4,11.1.6,2.5,4.4,1.4,3.9-1.1-2.6-11.5-5-23.1-7.4-34.7,0-.3-.2-1.1-.2-1.1,0,.2.5-.3.6-.3.3-.2.6-.4.9-.7,1.8-1.2,3.6-2.2,5.6-3.1.9-.6,1.3-1.8.7-2.7-1.1-2.3-2.2-4.6-3.3-7-.4-.9-.8-1.8-1.1-2.8-.2-.6-.3-.6.3-1.1,4-3,8.1-5.6,12.5-8,2.2-1.3.2-4.8-2-3.5h0Z"/>
  <path class="cls-1" d="M366.3,179.9c.8.1,1.5.3,2.2.6h.2c0,.1.4.3.1.1-.3-.1,0,0,0,0,.1,0,.2,0,.3.1.3.2.7.3,1,.5.3.2.6.4.9.6.2.1.3.2.5.3-.5-.3,0,0,.1.1.6.5,1.2,1.1,1.7,1.7.8.8,2,.8,2.8,0,.8-.8.8-2,0-2.8-2.3-2.7-5.4-4.5-8.9-5.2-1.1-.3-2.2.3-2.5,1.4s.3,2.2,1.4,2.5h0Z"/>
  <path class="cls-1" d="M270.8,127.7c-4.6-4.5-8.7-9.6-12.1-15-.6-1-1.8-1.3-2.8-.7-.1,0-.2.2-.3.3l-15.6,13.3c-1.3.9-2.5,2-3.5,3.2-1.1,1.6-.6,3.2.2,4.8,1.3,2.9,2.8,5.7,4.3,8.5,2.7,4.8,5.6,9.9,9.7,13.6,3.9,3.7,9.3,5.4,14.7,4.6,5.9-.9,11.3-4.6,15-9.2.7-.8.7-2,0-2.8-.8-.8-2-.8-2.8,0-4,4.9-10.5,9.4-17.2,8.1-6.8-1.3-10.9-7.7-14.2-13.2-1.2-2.1-2.4-4.1-3.4-6.3-.5-1.1-1.1-2.1-1.6-3.2-.5-.9-1.4-2.2-1.3-3.3l-.3,1c.3-.8,1.3-1.4,2-1.9l2.5-2.1,4.8-4,9.7-8.2-3.1-.4c3.6,5.7,7.9,11,12.8,15.8,1.8,1.8,4.7-1,2.8-2.8h0Z"/>
  <path class="cls-1" d="M347.1,319.4c0-13.1,0-26.2.1-39.4,0-2.8,0-5.5,0-8.3,0-2.6-4-2.6-4,0,0,13.2,0,26.4-.1,39.6,0,2.7,0,5.4,0,8,0,2.6,4,2.6,4,0h0Z"/>
  <path class="cls-1" d="M330.2,276.5c0,11.7,0,23.4,0,35.1v7.5c0,2.6,4,2.6,4,0,0-11.6,0-23.3,0-34.9v-7.6c0-2.6-4-2.6-4,0h0Z"/>
  <path class="cls-1" d="M344.6,321.7c8.7,2.4,17,5.8,24.9,10.2,3.5,2,7,4.1,10.3,6.4,3.3,2.3,7,4.6,9.6,7.7.7.7,1.1,1.6,1.2,2.5,0,.1,0,.2,0,.4,0,0,.3-.4.1-.2-.2.2-.5.5-.7.7-1.3,1.1-2.9,1.9-4.7,2.1l1,.3c-6.6-4.2-13.2-8.4-20.2-11.9-7.3-3.7-14.9-6.6-22.7-8.8-2.5-.7-3.5,3.2-1.1,3.9,7.8,2.1,15.3,5.1,22.4,8.7,3.3,1.7,6.6,3.6,9.8,5.5,1.7,1,3.4,2.1,5.1,3.1.8.5,1.6,1,2.4,1.5.9.7,1.8,1.2,2.9,1.6,1.7.3,3.8-.7,5.2-1.5,1.2-.6,2.3-1.4,3.3-2.4,3-3.2-.2-7.6-2.7-9.8-5.8-5-12-9.3-18.7-12.9-8.3-4.6-17.2-8.3-26.3-10.9-2.5-.7-3.5,3.2-1.1,3.9h0Z"/>
  <path class="cls-1" d="M332.4,317c-4,.2-7.9.8-11.7,1.9-4.4,1.1-8.7,2.4-12.9,3.9-2.4.9-1.4,4.7,1.1,3.9,4.1-1.5,8.3-2.8,12.5-3.8,3.6-1,7.3-1.6,11.1-1.8,2.6,0,2.6-4.1,0-4h0Z"/>
  <path class="cls-1" d="M327.1,327.8c-6.4.7-12.6,2.4-18.4,5-.9.6-1.3,1.8-.7,2.7.6.9,1.8,1.2,2.7.7,0,0,.3-.1,0,0,.2,0,.3-.1.5-.2.3-.1.6-.2.8-.3.7-.3,1.4-.5,2.1-.7,1.5-.5,3-1,4.5-1.4,2.7-.8,5.5-1.4,8.4-1.7,1.1,0,2-.9,2-2,0-1.1-.9-2-2-2h0Z"/>
  <path class="cls-1" d="M325.7,328.4c-2.2,2.3-4.2,4.7-6.1,7.3-3.2,4-6.2,8.2-8.9,12.6-1.3,2.3-1,4.8,1.5,6,2.1,1,4.3,2.4,6.7,2.1,2.7-.3,4.3-3,6-4.8,1.9-2.1,3.9-4.1,5.8-6.2,3.9-4.1,8-8,12.4-11.6.8-.8.8-2,0-2.8-.8-.8-2-.8-2.8,0-7.1,5.8-13.4,12.4-19.5,19.1-.6.6-1.3,1.8-2.1,2.2-.6.3-1.5-.2-2.1-.4-1-.4-1.9-.8-2.9-1.3.1,0-.1.3.1,0,.4-.5.8-1.1,1-1.7,2.3-3.7,4.9-7.3,7.7-10.8,1.8-2.4,3.8-4.7,5.9-7,1.8-1.8-1-4.7-2.8-2.8h0Z"/>
  <path class="cls-1" d="M308.3,84c-.8,4.4-1.3,8.9-1.6,13.4-.1,3.5-.1,6.9-.1,10.4,0,7.4.3,14.8.7,22.2.1,2,.1,4,.4,6,0,1.1.9,2,2,2,1,0,2.1-.9,2-2-.2-1.6-.2-3.3-.3-5-.2-3.3-.3-6.6-.4-9.9-.3-7.4-.5-14.8-.3-22.2.2-4.7.7-9.3,1.5-14,.3-1.1-.4-2.1-1.4-2.5-1.1-.3-2.2.3-2.5,1.4h0Z"/>
  <path class="cls-1" d="M342.1,80.9c-7.4,14.4-15.8,28.3-24.9,41.6-2.8,4.1-5.6,8.2-8.5,12.2-.5,1-.2,2.2.7,2.7,1,.5,2.2.2,2.7-.7,9.8-13.6,18.9-27.8,27.3-42.4,2.1-3.8,4.2-7.6,6.1-11.5,1.2-2.3-2.3-4.3-3.5-2h0Z"/>
  <path class="cls-1" d="M264.5,122.3c2.3-7.3,5.7-14.7,10.7-20.7,2.2-2.6,4.8-4.8,7.8-6.4,3.4-1.8,6.9-3.2,10.5-4.3,2-.6,4-1.2,5.9-2,2.1-.9,4.2-1.8,6.4-2.6,1-.3,1.7-1.4,1.4-2.5-.3-1.1-1.4-1.7-2.5-1.4-3.9,1.4-7.6,3.1-11.5,4.3-3.9,1.2-7.7,2.7-11.4,4.5-3.3,1.6-6.2,3.8-8.6,6.5-2.7,3-4.9,6.4-6.8,9.9-2.3,4.3-4.3,8.8-5.7,13.5-.8,2.5,3.1,3.5,3.9,1.1h0Z"/>
  <path class="cls-1" d="M342.8,83.4c2.5,1.9,4.8,3.9,6.9,6.2,1.8,2.1,4,4.2,4.7,7l.9-2.3c-3.9,2.5-7.7,5.3-11.2,8.4-.6.6-.8,1.6-.3,2.4.9,1.7,2,3.3,2.9,5,0,.2.2.3.3.5.1.3,0,0,0,0,0,0,0,.1,0,.2v-1.1c.1,0-.4.8-.4.8-.6,1-1.4,1.8-2,2.8-1.4,2.2,2.1,4.2,3.5,2,.7-1.1,1.7-2.1,2.3-3.3.6-1,.6-2.2,0-3.3-.9-2-2.2-3.8-3.3-5.8l-.3,2.4c3.3-2.8,6.8-5.4,10.4-7.8.8-.5,1.1-1.4.9-2.3-.8-3.2-3.1-5.7-5.2-8.1-2.3-2.5-4.8-4.8-7.4-6.8-.8-.8-2-.8-2.8,0-.8.8-.8,2,0,2.8h0Z"/>
  <path class="cls-5" d="M333.4,185.7c.3,0,.6,0,.9,0-2-1.4-2.5-4.2-1-6.2.8-1,2.4-1.3,3.1-.7-.9-1.8-1.2-4.1,1-5.2,1.4-.7,2.5-.6,4.6,1.1-1.7-2.1-1-7.3,2.9-6.7,1.2.2,4.2,1.9,6,3.1.3-.9.6-1.7.6-1.7.6-1.3,1.2-2.7,1.9-4,.6-.1,1-.2,1-.2,1.7-.3,3.4,0,4.8,1,.9.8,1.5,2,1.5,4.4s0,3.7-.1,6.2c2.8,3.1,1.9,8.8.7,11.3-.9,1.8-1.5,3.8-2.4,5.7-1.9,4.8-4.8,7.2-9.4,9-1.9.5-3.8.5-5.7,0-2.7-.8-5.2-2.2-7.3-4.1-3.1-2.7-6.9-7.1-5.6-10.6.4-1.2,1.4-2.2,2.6-2.5Z"/>
  <path class="cls-1" d="M362.5,176.7c.1-1.7.1-3.4.1-5.2.1-1.7-.2-3.4-.8-5-1.4-2.9-5-3.9-8-3.2-1.1.3-1.7,1.4-1.4,2.5.3,1,1.4,1.7,2.5,1.4.4,0,0,0,0,0,0,0,.3,0,.4,0,.3,0,.6,0,.9,0,.5,0-.4,0,0,0,.2,0,.3,0,.5,0,.3,0,.6.2.9.3-.3-.1-.1,0,0,0h.1c.2.2.2.2,0,0,.2.1.3.3.4.4.3.3-.1-.2,0,0,0,.1.1.2.2.3s.1.2.2.3c0,.1-.1-.4,0,0,0,.3.2.5.2.8,0,.2,0,.5,0,.1,0,.2,0,.4,0,.6,0,.7,0,1.3,0,2,0,1.6,0,3.1-.1,4.7,0,1.1.9,2,2,2,1.1,0,2-.9,2-2h0Z"/>
  <path class="cls-5" d="M350.5,171.6c4-8.9,10.9-21.3,14.8-30.2.9-1.7,1.4-3.6,1.5-5.5-.2-2-1.1-3.9-2.6-5.2-2.7-2.6-18.8-17.2-26.9-24.5-.8-.7-1.8-1-2.8-.8-1.2.3-2.1,1.2-2.4,2.4-7.4,21.1-16.3,42.7-21,55.6-1,2.7-1.9,5.6-2.6,7.8-.7,1.8-.4,3.9.6,5.5,1.5,2.2,16.5,19,23,25.2"/>
  <path class="cls-1" d="M353.1,170.5c3.5-7.9,7.8-15.4,11.6-23.2.9-1.8,1.8-3.7,2.6-5.6,1.1-2,1.5-4.3,1.4-6.6-.4-3-2.2-5.1-4.3-7.1-3.9-3.6-7.8-7.2-11.7-10.7-4.6-4.2-9.2-8.5-13.9-12.6-1.5-1.4-3.6-1.9-5.5-1.2-2,.8-2.8,2.6-3.5,4.5-1.5,4.4-3.1,8.7-4.8,13.1-3.1,8.3-6.3,16.6-9.6,24.9-2.7,6.8-5.4,13.6-7.7,20.6-1.2,3.6-2.7,7.6-.3,11.1.9,1.3,2,2.5,3,3.7,3.7,4.3,7.5,8.5,11.4,12.7,2,2.1,4,4.3,6,6.4,1.9,1.9,4.2,5.1,7.2,4.3,1.4-.5,2.6-1.6,3.2-2.9,1.2-2.3-2.2-4.3-3.5-2-.2.4-.5.7-.7,1-.2.3-.4-.1,0,0-.3-.1-.5-.3-.8-.5-.8-.7-1.5-1.5-2.2-2.2-1.8-1.9-3.6-3.8-5.4-5.7-3.8-4-7.5-8.1-11.1-12.3-1.2-1.3-2.4-2.7-3.5-4.1-.1-.2-.6-.8-.2-.3-.2-.3-.4-.6-.6-.9-.7-1.5-.1-3.2.3-4.7,2-6.4,4.5-12.7,6.9-18.9,2.9-7.4,5.7-14.7,8.6-22.1,1.5-4,3-8,4.5-12,.7-2,1.5-4.1,2.2-6.1.3-1,.6-2,1-2.9.2-.5.5-1,1-1.1,1-.1,2.1,1.4,2.8,2l3,2.7c2.2,2,4.5,4,6.7,6.1,4,3.7,8.1,7.4,12.1,11.1,1.1,1,2.3,2,3.3,3.1,1.3,1.2,1.9,2.8,1.9,4.5-.4,1.9-1,3.7-2,5.3-3.3,7.2-7.2,14.2-10.7,21.3-.8,1.7-1.6,3.4-2.4,5.1-.5,1-.2,2.2.7,2.7,1,.5,2.2.2,2.7-.7h0Z"/>
  <path class="cls-1" d="M353,170.3c-1.6-1.1-3.2-2.1-5-3-1.7-.9-3.5-1.6-5.4-1-3.7,1.2-4.5,6.6-2.4,9.5l2.7-2.7c-2.3-1.8-5.2-2.4-7.7-.4-2.3,1.9-1.9,4.9-.7,7.2l2.7-2.7c-2.5-1.7-5.6.4-6.6,2.8-.9,2.6,0,5.5,2.1,7.2l1.9-3.3c-2.8-.6-5.3,1.4-6,4.1-.7,2.4.2,5,1.5,7,2.7,4.2,6.7,7.5,11.3,9.3,2,.8,4.1,1.1,6.2.9,2.2-.3,4.3-1,6.1-2.3,4.3-2.6,6.3-6.8,8.1-11.3,1-2.5,2.1-4.6,2.4-7.3.4-2.8-.2-5.6-1.7-8-1.5-2.1-4.9,0-3.5,2,1.8,2.6,1.5,6.4.3,9.1-1.6,3.5-2.6,7.7-5.4,10.4-2.1,2.2-5,3.4-8,3.4-3.3-.1-6.4-2.2-8.8-4.4-1.7-1.4-3.1-3.2-4.1-5.1-.4-.7-.5-1.5-.5-2.3,0-.5.6-1.7,1.2-1.6,1.8.4,3.6-2,1.9-3.3-.9-.6-1.4-1.6-1.3-2.6,0-.4.2-.7.4-1,.1-.1.3-.2.5-.2,0,0-.5-.3,0,0,1.8,1.2,3.5-1.1,2.7-2.7-.3-.7-.8-1.8,0-2.3,1-.7,2.1.3,2.9.9,1.6,1.2,3.9-1.2,2.7-2.7-.5-.7-.7-1.6-.5-2.5,0-.3.2-.7.4-1,.2-.2.3-.3.8-.3.4,0,.7.2,1.1.4.7.3,1.3.7,1.9,1,1.2.7,2.4,1.4,3.6,2.3,1,.5,2.2.2,2.7-.7.5-1,.2-2.2-.7-2.7h0Z"/>
  <path class="cls-1" d="M351.1,179.1c-1.2-.9-2.4-1.7-3.6-2.5-.2-.2-.5-.3-.7-.5-.1-.1-.3-.2-.4-.3,0,0-.1-.1-.2-.1-.2-.1.4.3.1.1-.6-.5-1.2-1-1.8-1.5-.8-.8-2-.8-2.8,0-.8.8-.8,2,0,2.8,2.3,2.1,4.9,3.7,7.4,5.6.5.3,1,.3,1.5.2.5-.1.9-.5,1.2-.9.3-.5.3-1,.2-1.5-.2-.5-.5-.9-.9-1.2h0Z"/>
  <path class="cls-1" d="M347,185.4c-.1-.1-.3-.2-.4-.3-.3-.2.5.4,0,0-.1-.1-.3-.2-.4-.3-.6-.5-1.2-1-1.7-1.4-1.3-1.1-2.6-2.3-3.9-3.4-.5-.5-1.1-1-1.6-1.6-.8-.8-2-.8-2.8,0-.8.8-.8,2,0,2.8,1,1.1,2.1,2.1,3.2,3.1,1.3,1.1,2.5,2.2,3.8,3.3.5.4,1.1.9,1.7,1.3,1,.5,2.2.2,2.7-.7.5-1,.2-2.2-.7-2.7Z"/>
  <path class="cls-1" d="M343.7,191.5c-.4-.3-.8-.5-1.2-.8-.2-.1-.4-.3-.5-.4-.2-.2,0,0,0,0,0,0-.2-.1-.3-.2-.6-.5-1.2-1-1.8-1.6-1.2-1.1-2.2-2.3-3.3-3.5-.8-.8-2-.8-2.8,0-.8.8-.8,2,0,2.8,1.1,1.2,2.2,2.5,3.4,3.6,1.4,1.3,2.9,2.5,4.5,3.5,1,.5,2.2.2,2.7-.7.5-1,.2-2.2-.7-2.7h0Z"/>
  <path class="cls-1" d="M241.8,221.7c-7.1,4.1-12.9,10.9-14,19.2-1.4,10.1-1.1,20.2-.7,30.3.8,20.1,1.7,40.3,5,60.1.4,2.4,1.2,4.6,3.2,6.1,2.1,1.3,4.4,2.1,6.8,2.3,5.2.9,10.5.5,15.4-1.3,2.4-.9,1.4-4.7-1.1-3.9-4,1.5-8.3,2-12.5,1.5-1.9-.2-3.8-.7-5.6-1.5-1.8-.8-2.1-2.5-2.4-4.3-1.5-9.2-2.4-18.4-3.1-27.7-.7-9.4-1.2-18.8-1.6-28.2-.4-9.5-.9-18.9,0-28.4.4-4.2.9-8.1,3.1-11.8,2.3-3.8,5.6-6.9,9.5-9.1,2.2-1.3.2-4.7-2-3.5h0Z"/>
  <path class="cls-1" d="M275.8,122.1c.9,8.2,2,16.3,2.9,24.4.8,8.3,1.2,16.7,1.2,25.1,0,3.8-.1,7.6-.6,11.3-.4,3.3-1.3,6.5-2.9,9.5-3.5,6.2-9.7,9.3-15.5,13.1-4.7,3.1-9.3,6.2-13.9,9.5-2.2,1.6-4.5,3.3-6.6,5-1.1.9-2.1,2.1-1.5,3.6.5,1.3,1.9,1.9,3.1,1.4,0,0,0,0,0,0,1-.3,1.7-1.4,1.4-2.5-.3-1.1-1.4-1.7-2.5-1.4h0s1,.3,1,.3h-.2c0-.1.7.6.7.6v-.2c-.1,0,.2,1,.2,1v-.3s-.2,1-.2,1c.5-.8,1.8-1.5,2.5-2,1-.7,2-1.5,2.9-2.2,2-1.5,4-2.9,6-4.3,3.9-2.7,7.8-5.3,11.7-7.9,5.6-3.7,11.2-7.2,14.4-13.4,3.2-6.2,3.6-13.8,3.7-20.7,0-8.4-.3-16.7-1-25.1-.9-8.6-2.1-17.2-3-25.9,0-1.1-.9-2-2-2-1.1,0-2,.9-2,2h0Z"/>
  <path class="cls-1" d="M263.5,247.2c-2.5,5.9-2.2,12.5-2.1,18.8,0,5,0,10.1,0,15.1,0,11.4,0,22.8.1,34.1,0,5.5,0,11,0,16.5,0,2.6,4,2.6,4,0-.1-21.2-.2-42.5-.3-63.7,0-6.6-.6-13.6,2-19.9.3-1.1-.3-2.2-1.4-2.5-1.1-.3-2.1.4-2.5,1.4h0Z"/>
  <path class="cls-1" d="M261.4,259.5c.2,12,.7,24,1.1,36,.5,12.6,1,25.1,1.5,37.7,0,2.6.1,5.1.3,7.7.2,3.5.7,7,3,9.7,2.2,2.5,5.8,3.4,9,3.7,3.8.2,7.6-.2,11.2-1.2,3.5-.8,7.8-1.9,10.6-4.4,1.4-1.3,1.5-3.1,1.7-4.9.2-1.9.3-3.8.5-5.7.6-8.2,1-16.4,1.3-24.6.3-8.2.4-16.5.5-24.7,0-2.1,0-4.1,0-6.2,0-1.9-.2-3.9,0-5.7.3-3.4,4-5.1,6.6-6.5,1.4-.7,2.8-1.4,4.3-2,1-.3,1.7-1.4,1.4-2.5-.3-1.1-1.4-1.7-2.5-1.4-6,2.5-13.8,5.6-13.8,13.3,0,7.9,0,15.8-.2,23.7-.2,8-.4,16.1-.8,24.1-.2,4-.5,7.9-.8,11.9-.1,1.8-.3,3.7-.5,5.5,0,.8,0,1.6-.3,2.4-.4.4-.8.7-1.4,1-3.5,1.8-7.3,3-11.1,3.4-3.2.7-6.6.6-9.8-.2-3.1-.9-4.4-3.3-4.9-6.3-.3-2.6-.4-5.3-.4-7.9-.4-12-.9-24-1.4-36-.5-12.1-.9-24.2-1.2-36.3,0-1.2,0-2.4,0-3.6,0-2.6-4-2.6-4,0h0Z"/>
  <path class="cls-1" d="M267.2,248.8c3.4-5.9,8.8-10.3,13.8-14.7,2-1.8,4.1-3.6,6.2-5.3,1.7-1.5,3.5-2.9,5.4-4.1,2.2-1.4.2-4.8-2-3.5-2.1,1.4-4.1,2.9-5.9,4.6-2.2,1.8-4.3,3.6-6.4,5.5-5.3,4.7-10.8,9.3-14.4,15.5-1.3,2.2,2.2,4.3,3.5,2h0Z"/>
  <path class="cls-1" d="M381.9,136.1c4.8,1.8,8.5,5.7,9.9,10.7,1.1,3.9.7,8.4.5,12.6-.8,15.7-2.3,31.3-4.1,46.9-.9,7.3-1.8,14.7-2.9,22-.9,6.4-2,13.1-4.7,19-2.2,5-5.9,9.3-10.6,12.2-5.1,3.1-10.9,5-16.5,7.2-3.6,1.4-7.2,2.7-10.8,4.1-3.6,1.3-7.2,2.8-10.8,3.9-6.3,1.8-12.8,2.9-19.4,2-1.2-.2-2.5-.4-3.7-.8-2.4-.8-3.5,3-1.1,3.9,2.9.9,6,1.3,9.1,1.3,3.3,0,6.7-.2,9.9-.9,7.9-1.7,15.4-4.8,22.9-7.6,6.5-2.4,13.1-4.7,19.3-7.8,5.2-2.4,9.5-6.2,12.7-11,3.8-5.7,5.5-12.5,6.7-19.2,1.3-7.3,2.2-14.7,3.1-22.1,2.1-16.7,3.7-33.5,4.7-50.3.3-4.7.8-9.8,0-14.5-1-5.4-4.2-10.2-8.8-13.3-1.4-.9-2.8-1.5-4.3-2-2.4-.8-3.5,3-1.1,3.9h0Z"/>
  <path class="cls-1" d="M341.7,126c1.6,1.4,3.2,2.7,4.9,4,.5.3,1,.3,1.5.2.5-.1.9-.5,1.2-.9.3-.5.3-1,.2-1.5l-.2-.5c-.2-.3-.4-.5-.7-.7l-.2-.2.4.3c-1.5-1.1-2.9-2.3-4.3-3.6-.4-.4-.9-.6-1.4-.6-.5,0-1,.2-1.4.6-.4.4-.6.9-.6,1.4,0,.5.2,1,.6,1.4h0Z"/>
  <path class="cls-1" d="M244.9,224.6c13-5,26.3-9.3,39.8-12.9,3.1-.8,6.3-1.6,9.5-2.2,2.5-.5,1.5-4.4-1.1-3.9-12.3,2.7-24.4,6.2-36.2,10.4-4.4,1.5-8.7,3.1-13.1,4.7-2.4.9-1.4,4.8,1.1,3.9h0Z"/>
  <path class="cls-1" d="M291.7,207.5c-.5,6.7-.8,13.5.4,20.2.8,4.8,2.7,9.3,4.6,13.8,1.7,4.2,3.8,8.2,6.2,12.1,2.3,3.6,4.3,7.4,6.6,11,1.4,2.2,2.8,4.3,4.4,6.3,1.3,1.6,3.4,4.7,5.7,4.1,4.9-1.1,8.7-3.9,12.5-7,2-1.5,4.3-2.6,6.7-3.4,3-1.1,6.1-2.1,9.1-3.3,5.2-2.1,10.7-4.3,15.5-7.3,3.7-2.4,6.7-5.8,8.5-9.8,2.6-5.8,3.2-12.4,1.7-18.6-.6-2.5-4.4-1.4-3.9,1.1,1.3,5.1.8,10.4-1.2,15.3-1.5,3.3-3.8,6.2-6.7,8.3-1.8,1.2-3.8,2.2-5.8,3.1-2.8,1.3-5.6,2.6-8.5,3.8-2.9,1.2-5.7,2.2-8.7,3.2-2.9.8-5.7,2.1-8.2,3.7-1.6,1.1-2.9,2.5-4.5,3.6-2.4,1.7-5.1,2.9-7.9,3.6l1.9.5c-3.3-2.7-5.7-6.6-7.9-10.2-2.1-3.3-3.9-6.8-6-10.1-2.3-3.5-4.2-7.3-5.8-11.2-1.8-3.9-3.2-8-4.3-12.2-1.5-6.7-1.1-13.8-.5-20.6.2-2.6-3.8-2.6-4,0h0Z"/>
  <path class="cls-5" d="M357.4,229.7c1.7,10.2,5.1,24.3,7.6,34.6.5,1.9,2.4,3.1,4.3,2.6,0,0,.1,0,.2,0,3.4-1.1,6.6-2.4,9.8-4,1.5-.8,2.2-2.4,1.9-4-2.7-11-4.9-22.2-6.8-33.4"/>
  <path class="cls-5" d="M389,220.8c3.9-2.4,5.9-5.6,4.9-11.5-.4-2.4-3.7-6.7-10.6-5.2-14.5,2.8-28.9,6.5-43,11-6.6,2.1-9,7.1-8.4,11,1,6.1,7.2,6.8,10.9,6.1,7.3-1.4,43-9.4,46.1-11.4Z"/>
  <path class="cls-1" d="M355.5,230.2c1,5.9,2.2,11.7,3.5,17.5.7,3,1.4,6.1,2.1,9.1.7,2.8,1.1,5.7,2,8.4.9,2.7,3.7,4.3,6.5,3.7,3.2-.8,6.2-2,9.2-3.6,1.2-.5,2.3-1.2,3.1-2.1,1-1.3,1.4-2.9,1.1-4.5-.6-3.4-1.6-6.7-2.3-10.1-1.7-7.8-3.3-15.7-4.6-23.6-.3-1.1-1.4-1.7-2.5-1.4-1.1.3-1.7,1.4-1.4,2.5,1.1,6.2,2.2,12.5,3.5,18.6.7,3.2,1.4,6.3,2.1,9.5.3,1.4.7,2.8,1,4.3.3,1.1.5,2-.6,2.6-2.4,1.4-5,2.5-7.7,3.3-.9.3-2.1,1-3,.5-.9-.4-.9-1.5-1.1-2.4-1.3-5.3-2.6-10.6-3.7-15.9-1.3-5.8-2.5-11.6-3.5-17.5-.3-1.1-1.4-1.7-2.5-1.4-1.1.3-1.7,1.4-1.4,2.5h0Z"/>
  <path class="cls-1" d="M379.5,202.8c-6.4,1.3-12.8,2.7-19.1,4.4-3.4.9-6.8,1.8-10.2,2.8-3.9,1.1-7.9,2.1-11.6,3.6-5.4,2.1-9.7,7.1-8.6,13.2,1.1,5.7,6.7,8.2,12,7.5,3.3-.4,6.6-1.3,9.9-2,4.7-1,9.4-2.1,14.1-3.2,4.7-1.1,9.5-2.2,14.2-3.5,3-.7,5.9-1.5,8.7-2.6,4.8-2.1,7.7-7.1,7.1-12.3,0-2.3-1.1-4.6-2.8-6.2-2.2-1.9-5-2.9-7.9-2.7-2,.2-4,.5-5.9,1-2.5.5-1.5,4.4,1.1,3.9,2.8-.6,5.9-1.6,8.6-.3,1.4.6,2.4,1.8,2.8,3.3.6,2.3.2,4.8-1,6.8-.6.8-1.3,1.5-2.2,2.1-.3.2-.6.4-.9.6,0,0-.1,0-.2,0-.4.3.4-.1.1,0-6.6,2.4-13.7,3.8-20.5,5.5-7.8,1.8-15.5,3.6-23.3,5.2-2.9.6-6.8,1.1-9-1.7-2.9-3.8.2-8.4,3.9-10.4,1.8-.8,3.8-1.5,5.7-2,2-.6,4-1.2,6-1.8,3.4-1,6.8-1.9,10.3-2.8,6.6-1.7,13.2-3.2,19.8-4.5,2.5-.5,1.5-4.4-1.1-3.9h0Z"/>
  <path class="cls-1" d="M104.3,305.7c-7.5-4.2-15.2-8.8-21.2-15.1-2.2-2.2-4-4.8-5.2-7.6-.8-2.4-1.4-5-1.7-7.5-.4-2.5-.8-5-1.1-7.5-.7-5.7-1-11.4-1.2-17.2-.1-2.6-4.1-2.6-4,0,.2,5.4.5,10.7,1.1,16.1.4,5.3,1.3,10.5,2.6,15.7,2.1,7.4,8.3,12.9,14.2,17.4,4.6,3.4,9.5,6.5,14.5,9.2,2.3,1.2,4.3-2.2,2-3.5h0Z"/>
  <path class="cls-1" d="M110.6,312.1c4.8-7.9,7.7-16.7,11.3-25.2.5-1,.2-2.2-.7-2.7-1-.5-2.2-.2-2.7.7-3.6,8.4-6.5,17.3-11.3,25.2-1.4,2.2,2.1,4.2,3.5,2Z"/>
  <path class="cls-1" d="M98.1,346.1c-12.9,4.3-26.1,7.8-39.8,7.8-7.8,0-15.6-1-23.2-3-6.7-1.8-13.9-4.5-18.2-10.3-4-5.4-3.9-12.3-3.9-18.7,0-2.6-4-2.6-4,0,0,6.3,0,12.9,3,18.5,3.5,6.5,10.4,10.6,17.2,12.9,15.6,5.3,32.7,5.7,48.8,2.5,7.2-1.5,14.2-3.5,21.1-5.9,2.4-.8,1.4-4.7-1.1-3.9h0Z"/>
  <path class="cls-1" d="M135.3,328.8c.9,5.5.4,11.1,0,16.6-.3,4.7-.8,9.4-1.2,14.1-1,10.3-2.3,20.7-3.7,31-.7,5.2-1.6,10.3-2.5,15.5l.9-1.2c-7.3,3.4-15.8,4.9-23.8,5.2-1.7,0-3.6-.1-5.3,0,.1,0-.5,0-.5,0l.4.4v-.3c0-.2,0-.4,0-.5,0-.5,0-.9,0-1.4,0-2.2,0-4.4-.1-6.6-.1-12.1,0-24.2,0-36.2,0-5.1.3-10.2.2-15.3,0-2.6-4.1-2.6-4,0,.1,3.8-.1,7.6-.1,11.4,0,4.4,0,8.8,0,13.1,0,10.1,0,20.2.1,30.3,0,1.6,0,3.2.1,4.7,0,1.5.3,3.1,1.8,4,1.3.7,3.2.6,4.7.6,7,0,13.9-1,20.6-2.9,1.7-.5,3.3-1,4.9-1.6,1.5-.6,3.7-1.1,4.2-2.9.7-3,1.1-6.1,1.5-9.1,1.1-7.1,2.1-14.1,2.9-21.2.9-7.2,1.6-14.4,2.3-21.6.6-6.8,1.4-13.8,1.3-20.7,0-2.1-.3-4.3-.6-6.4-.3-1.1-1.4-1.7-2.5-1.4-1.1.3-1.7,1.4-1.4,2.5h0Z"/>
  <path class="cls-1" d="M127.9,413.6c2.4,1.5,4.9,3,7.3,4.4,2.2,1.2,4.4,2.3,6.1,4.2,1.5,1.6,2.4,3.7,2.5,5.9,0,2.3-1.8,3.2-3.7,3.7-2.5.6-5.1,1-7.7,1.2-3.3.3-6.6.5-9.9.5-6.6.1-13.2-.6-19.7-2.1-1.3-.2-2.4-.8-3.4-1.6-.4-.7-.7-1.5-.7-2.3,0-3,.7-5.9,2.3-8.5,1.3-2.2-2.2-4.3-3.5-2-2.5,4.3-5,12.6-.1,16.3,2.7,2,6.3,2.4,9.6,2.9,4,.6,8,1,12.1,1.2,3.9.1,7.8,0,11.6-.2,3.3-.2,6.6-.6,9.8-1.3,2.9-.7,5.8-2.2,6.9-5.1.8-2.8.5-5.7-.9-8.2-1.6-2.8-4-5.2-6.9-6.7-3.3-1.8-6.5-3.7-9.7-5.7-2.2-1.4-4.2,2.1-2,3.5h0Z"/>
  <path class="cls-1" d="M121.5,284.3c-3.6-3.3-7.1-6.8-10.4-10.4-1.4-1.5-2.8-3.1-4-4.8-1.2-1.8-2.1-3.8-2.7-5.9-2-6.4-2.8-13.2-4-19.8-1.2-6.6-1.9-13.2-4.2-19.6-.9-2.9-2.2-5.7-3.8-8.3-1.7-2.4-3.7-4.5-5.9-6.3-4.6-3.7-9.9-6.4-15.5-8.1-4.9-1.4-9.9-2.2-15-2.3-4.9-.2-9.7,0-14.1,2.1-5,2.4-9.1,6.5-12.4,10.8-3.6,4.7-6.4,9.9-8.5,15.5-1.8,5-3.3,10.2-4.5,15.3-1.4,5.6-2.7,11.2-3.8,16.9-1.9,9.5-3.2,19.2-3.9,28.9-.4,5.1-.7,10.3-.9,15.5,0,2.2-.2,4.4-.2,6.6,0,2.5.4,4.6,2.4,6.3,2,1.7,4.3,2.9,6.9,3.5,3.2.9,6.5,1.7,9.8,2.4,6.7,1.5,13.6,2.4,20.5,2.8,6.7.4,13.5,0,20.1-1.1,5.3-1,10.6-2.4,15.6-4.3,2.6-.9,5.2-1.9,7.7-3.2,2.3-1.2.3-4.6-2-3.5-4.2,2-8.5,3.6-12.9,4.8-6.2,1.8-12.6,2.9-19,3.2-13.1.6-26.2-1.6-38.8-5.1-2.1-.6-4.5-1.4-5.8-3.2-1-1.3-.5-3.6-.5-5.1.1-4.8.4-9.6.7-14.3.5-9.1,1.5-18.1,3-27.1,1.9-10.7,4.3-21.3,7.3-31.7,3-10.2,7.8-20.5,16.2-27.4,3.3-2.8,7.4-4.5,11.8-4.7,5-.2,10,.1,14.8,1.1,4.9,1,9.7,2.8,14,5.3,2.5,1.4,4.7,3.2,6.7,5.2,1.9,1.9,3.5,4.2,4.6,6.7,2.6,5.7,3.7,11.8,4.7,17.9,1.1,6.5,2.2,13.1,3.5,19.5.6,3.2,1.5,6.3,2.7,9.3.7,1.6,1.6,3.2,2.7,4.5,3,3.6,6.1,7.1,9.5,10.4,1.5,1.5,3.1,3,4.6,4.4,1.9,1.7,4.7-1.1,2.8-2.8h0Z"/>
  <path class="cls-1" d="M96.9,407.6c-4.3,0-8.6,0-12.9,0-1.7,0-3.8.1-5-1.4-.8-1.2-1.2-2.7-1.2-4.2-.2-4.1.4-8.4.8-12.5.3-3.5.5-7,.6-10.5,0-2.6-3.9-2.6-4,0-.1,6.7-.9,13.3-1.3,20-.2,2.9-.1,6.2,1.4,8.8,2,3.2,5.5,3.7,9,3.7,4.2,0,8.5,0,12.7,0,2.6,0,2.6-4,0-4h0Z"/>
  <path class="cls-1" d="M79.1,409.6c-1.1,1.5-2.2,3-3.2,4.5-.6,1-.2,2.2.7,2.7s2.2.2,2.7-.7h0c1-1.5,2.1-3,3.2-4.5.3-.5.3-1,.2-1.5-.3-1.1-1.4-1.7-2.5-1.4,0,0,0,0,0,0l-.5.2c-.3.2-.5.4-.7.7h0Z"/>
  <path class="cls-1" d="M128.8,315c-.1,0-.3-.3,0,0,.1.2.3.3.4.5.5.5,1,1.1,1.5,1.7,1.2,1.3,2.4,2.6,3.7,3.9,1,1.2,2.3,2.1,3.8,2.8,2,.6,4.1,0,5.6-1.3,1.6-1.7,2.4-4.1,2.1-6.4-.3-2.8-.9-5.6-1.6-8.3-.7-2.8-1.6-5.6-2.7-8.3-1-2.5-2.2-4.9-4.5-6.5-2.2-1.6-5.1-2.2-7.7-2.7-3.5-.7-7-1.3-10.5-1.9-2.5-.5-3.6,3.4-1.1,3.9l7.9,1.5c2.3.3,4.6.8,6.8,1.5,1.9.6,3.5,1.9,4.4,3.7,1.1,2.2,2,4.5,2.6,6.9.7,2.5,1.3,5,1.8,7.5.3,1.7,1.1,3.9.2,5.6-.2.5-.5.9-1,1.1-.3,0-.5.1-.8,0-.2,0-.4,0-.6,0,.2,0,.5.3.2,0-.9-.7-1.8-1.4-2.8-2.4-1.2-1.2-2.3-2.4-3.4-3.7-.7-.9-1.5-1.7-2.5-2.4-2.2-1.4-4.2,2.1-2,3.5h0Z"/>
  <path class="cls-1" d="M111.4,309.7c2.3,1.3,4.8,2.5,7.3,3.3,1.3.4,2.7.7,4.1.8,3.7.7,7.6.9,11.4.5,1.1-.3,1.7-1.4,1.4-2.5-.3-1-1.4-1.7-2.5-1.4.4,0,0,0-.1,0-.2,0-.4,0-.5,0-.4,0-.8,0-1.2,0-.9,0-1.7,0-2.6,0-1.7-.1-3.4-.3-5-.5-1.3-.2-2.5-.4-3.7-.8-2.2-.8-4.4-1.8-6.5-3-2.3-1.3-4.3,2.2-2,3.5h0Z"/>
  <path class="cls-1" d="M46.8,201.8c.5-1.5,1-2.9,1.7-4.3.5-.9.6-1.1,1.7-1.1,1,0,1.9,0,2.8,0,4.1,0,8.2.6,12.2,1.7,6.2,1.5,12.8,4,16.4,9.7,1.4,2.2,4.8.2,3.5-2-4.4-6.9-12.5-10.1-20.2-11.8-4.7-1.1-9.4-1.6-14.2-1.4-1.2,0-2.4.2-3.4.6-.8.5-1.5,1.3-1.9,2.1-.9,1.8-1.7,3.7-2.3,5.7-.3,1.1.3,2.2,1.4,2.5,1.1.3,2.1-.3,2.5-1.4h0Z"/>
  <path class="cls-1" d="M11.4,339.2c-7.7,5.5-8.4,16.3-4.6,24.3,2,3.9,4.8,7.3,8.3,9.9,3.7,2.6,7.8,4.6,12.1,5.7,15.4,4.7,32.4,4.1,48,.9,4.3-.9,8.5-2,12.6-3.4,3.4-1.1,7-2.4,10-4.6.9-.6,1.2-1.8.7-2.7-.6-.9-1.8-1.3-2.7-.7-2.3,1.6-4.8,2.8-7.5,3.7-3.4,1.2-6.8,2.2-10.3,3-6.2,1.5-12.6,2.4-19,2.8-7.9.7-15.8.3-23.6-1.1-8.2-1.6-16.4-4.2-22-10.7-5.4-6.2-7.8-18.2,0-23.8.9-.6,1.2-1.8.7-2.7-.6-.9-1.8-1.3-2.7-.7h0Z"/>
  <path class="cls-1" d="M52.9,410.9c0-9.9,0-19.8,0-29.7,0-2.6-4-2.6-4,0,0,9.9,0,19.8,0,29.7,0,2.6,4,2.6,4,0Z"/>
  <path class="cls-1" d="M64.5,410.3c0-9.9,0-19.9,0-29.8,0-2.6-4-2.6-4,0,0,9.9,0,19.9,0,29.8,0,2.6,4,2.6,4,0Z"/>
  <path class="cls-1" d="M49.8,409.3c-15.3,4.4-29.7,11.7-42.2,21.6-2.9,2.2-6.7,5.3-6,9.4.5,2.9,4.1,4.7,6.6,5.5.8.3,1.6.5,2.4.5,1.1,0,2-.8,3-1.4,1.7-1.1,3.5-2.2,5.2-3.2,3.2-2,6.4-3.9,9.7-5.6,7.8-4.2,16.1-7.5,24.6-9.9,2.5-.7,1.4-4.5-1.1-3.9-7.7,2.1-15.2,5-22.4,8.6-6.9,3.5-13.4,7.6-19.9,11.7l1-.3c-1.6-.2-3.1-.9-4.3-1.9-.3-.2-.7-.5-1-.8-.3-.3.1.2.1.2,0,0,0-.2,0-.3,0-.4.1-.8.3-1.1.9-1.8,2.8-3.2,4.3-4.4,1.5-1.2,3.1-2.3,4.6-3.5,6.7-4.8,13.9-8.9,21.4-12.2,4.8-2,9.7-3.8,14.6-5.1,2.5-.7,1.4-4.6-1.1-3.9h0Z"/>
  <path class="cls-1" d="M62.7,412.4c3.6.9,7.1,2.1,10.4,3.7,3.9,1.8,7.8,3.7,11.5,5.9,2.2,1.3,4.2-2.1,2-3.5-3.8-2.2-7.8-4.3-11.8-6.1-3.5-1.7-7.2-3-11-3.9-2.5-.5-3.6,3.3-1.1,3.9h0Z"/>
  <path class="cls-1" d="M64.6,423.4c3,.7,5.9,1.8,8.6,3.2,2.8,1.3,5.6,2.8,8.2,4.5,1,.6,2.2.2,2.7-.7.6-1,.2-2.2-.7-2.7h0c-2.7-1.7-5.5-3.3-8.4-4.6-3-1.5-6.1-2.7-9.3-3.5-1.1-.3-2.1.3-2.5,1.4-.3,1.1.3,2.2,1.4,2.5h0Z"/>
  <path class="cls-1" d="M63.4,422.5c4.8,6.6,8.9,13.6,12.1,21.1.4.9.8,1.9,1.2,2.8.2.5.4,1,.6,1.5,0,0,0,0,0,.1-.2-.3.5,0,0-.2-.5,0-1,.1-1.5.3-.6.1-1.1.3-1.7.4-.6.2-1.2.2-1.8,0,.3.2-.3-.5-.3-.6l-.4-.6-1.1-1.6c-.7-1.2-1.5-2.3-2.3-3.5-1.4-2.1-2.8-4.2-4.2-6.4-2.8-4.2-5.6-8.4-8.7-12.4-.6-.9-1.8-1.2-2.7-.7-.9.6-1.3,1.8-.7,2.7,3.1,4.1,6,8.4,8.8,12.6,1.6,2.5,3.2,4.9,4.8,7.4.8,1.2,1.5,2.3,2.3,3.5.6,1.2,1.5,2.3,2.7,3.1,2.2,1.2,4.6.4,6.8-.1,1.2-.1,2.3-.6,3.1-1.4.8-1,1.1-2.3.8-3.5-.8-2.4-1.9-4.8-3-7.1-1-2.1-2-4.2-3.1-6.2-2.4-4.6-5.1-9-8.2-13.1-.6-.9-1.8-1.2-2.7-.7-.9.6-1.3,1.8-.7,2.7h0Z"/>
  <path class="cls-1" d="M235.4,335c-4.3,7.4-12.5,10.3-18.7,15.7-4.8,4.1-10.1,11.7-6.9,18.2,1.7,3.3,5.4,5.4,9,6.1,4.4.7,8.9,0,12.9-2.2,4-1.9,7.7-4.3,11.5-6.6,3-1.8,6-3.4,8.9-5.4,2.9-2,5.9-4.4,7.7-7.5,2-3.2,1.9-7.3,0-10.5-1.3-2.2-4.7-.2-3.5,2,1.3,2.1,1.3,4.7-.1,6.7-1.5,2.2-3.4,4-5.6,5.4-2.4,1.7-5,3.1-7.5,4.6-3.4,2-6.8,4.2-10.3,6.1-3.4,1.9-6.8,3.5-10.8,3.5-3,0-6.7-1-8.4-3.8-1.5-2.3-.6-5.3.6-7.6,1.4-2.6,3.4-4.9,5.7-6.8,3.2-2.7,6.9-4.5,10.2-7,3.5-2.4,6.4-5.5,8.6-9.1,1.3-2.2-2.2-4.2-3.5-2h0Z"/>
  <path class="cls-1" d="M268.4,350c-2.5,7.9-10.1,12.4-15.8,17.8-5.9,5.6-12.1,15.2-5.2,22.5,3.5,3.7,9.2,4.3,14,4.2,5.2-.1,10.3-1.7,14.6-4.7,1.8-1.4,3.5-3,5.1-4.6,1.4-1.3,2.9-2.6,4.4-3.7,3-2.4,6.1-4.6,8.9-7.2,2.8-2.7,5.3-6.1,5.8-10.1.6-4.9-2-9.3-4.9-12.9-.8-.8-2-.8-2.8,0-.8.8-.8,2,0,2.8,2.2,2.7,4.1,6.1,3.8,9.6-.2,2.5-2,5-3.9,7-2.5,2.4-5.2,4.7-8,6.7-2.8,2.2-5.5,4.6-8.1,7.1-3.3,3.2-7.6,5.2-12.1,5.8-2.3.3-4.6.3-6.8,0-2.1,0-4.2-.7-6-1.9-7-5.3,0-13.9,4.5-18.1,6.3-5.8,13.8-10.7,16.5-19.2.8-2.5-3.1-3.5-3.9-1.1h0Z"/>
  <path class="cls-1" d="M314.5,99.1c1-.7,2.1-1.4,3.1-2.2l-2.7-.7c1.2,2,2.5,4,3.9,5.9.6.9,1.8,1.3,2.7.7,3.4-2.2,6.8-4.4,10.2-6.7,2.1-1.4.1-4.9-2-3.5-3.4,2.2-6.8,4.4-10.2,6.7l2.7.7c-1.3-1.9-2.7-3.9-3.9-5.9-.6-.9-1.8-1.3-2.7-.7-1,.7-2,1.5-3.1,2.2-.9.6-1.2,1.8-.7,2.7.6.9,1.8,1.3,2.7.7h0Z"/>
</svg>