<?xml version="1.0" encoding="UTF-8"?>
<svg id="color" xmlns="http://www.w3.org/2000/svg" version="1.1" viewBox="0 0 269.5 340">
  <defs>
    <style>
      .cls-1 {
        fill: #282c5e;
      }

      .cls-1, .cls-2, .cls-3, .cls-4, .cls-5, .cls-6 {
        stroke-width: 0px;
      }

      .cls-2 {
        fill: #febe69;
      }

      .cls-3 {
        fill: none;
      }

      .cls-4 {
        fill: #211715;
      }

      .cls-5 {
        fill: #fff;
      }

      .cls-6 {
        fill: #645d5c;
      }
    </style>
  </defs>
  <path class="cls-5" d="M20.4,187.3c5.2,5.9,15.3,12.9,21.4,15.1,6.1,20.3,12.6,47.4,21.1,69.2,1.1,2.9,3,6.6,5.3,9.1,2.9,3.2,6.4,6.2,10.6,6.8,4.1.7,7.7,1.1,11.8-.3.9-.5,3.3-1.3,5.3-2.1,0,0,.1,0,.3-.1.2-1.5.3-2.8.4-3.6.8-14.5.7-29,.2-44-3.3-2-6.7-3.9-10.4-5.6-6.4-12.2-13.5-26.5-17.7-38.5-.9-3.2-2-7.8-1.9-10.6.1-3.3.2-4.9.3-8.2,0-2.4-.6-5.4-1.5-7.3-1-1.9-2.5-4.2-4.1-5.6-4.4-3.7-7.3-6.9-12-10-1.4-.9-3.1-1.2-4.7-1.1s-3.2,1.1-3.7,2.7c-.6,2,.7,4,2,5.7,1.7,2.3,2.2,2.9,3.9,5.2,0,0,.8,1.1,1.6,2.1-.2-.1-.5-.2-.5-.2-1.5-.8-8.2-3.7-9.5-4.8-5.7-4.8-10.2-9.3-15.8-13.7-1.4-1.1-2.9-1.9-4.6-1.7-1.6.1-2.7.7-3.7,2-1.4-2.6-5.3-1.6-6.3,1.6-1.1-.1-2.3.1-3.1.9-1.4,1.4-1.1,4.2-.7,5.1,1.2,2.7,2.7,4.2,4.7,6-1.7-2.3-4.7-1.6-5.8-.1-1.4,1.9-.3,5.1.3,5.9,5,7.5,10.5,13.9,16.9,20.1"/>
  <path class="cls-5" d="M203.3,81.2c1.4-1.3,3.3-1.8,4.9-1.8,3.5.1,5,2,5.6,3.1,1.9,3.3,1.8,9.4.5,13.2-.9,2.7-2.4,6.8-6,9.7-1.5,1.2-3.7,2-5.7,1.7,0,0-.2,0-.5,0-.7,2.2-1.5,4.3-2,5.4-1.5,4-9.5,17.8-19.7,23.2.2,2,.4,3.9.7,5.8.5,3.1.4,5.8,4.6,7.3.1,0,3.5,1.7,6.8,3.2-.2.1-.3.2-.3.2-5.5,5.2-15,9.7-26.4,10.7-1.2.1-2.3.9-2.8,2-.7,1.6-1.7,3.3-2.8,4.7-1-1.5-1.9-3.1-2.7-4.7-.5-1.1-1.6-1.8-2.9-1.9-10.4-.9-19.5-4.6-25.4-9.2,0,0-.5-.4-1.3-1,0,0,0,0-.1,0,3.9-1.8,8.3-3.8,8.4-3.9,4.2-1.5,4.1-4.3,4.6-7.3.3-1.8.5-3.4.7-5.1-5-2.2-9.5-5.9-13.7-11-5.2-6.2-8.1-12.8-9.7-18.4-2.2.6-4.6-.3-6.2-1.6-3.6-2.9-5.1-7-6-9.7-1.3-3.8-1.4-9.9.5-13.2.6-1.1,2.1-3,5.6-3.1,1.6,0,3.5.4,4.9,1.8,0,0-15.5-43.1,43.1-43.1s43.2,43.1,43.2,43.1Z"/>
  <path class="cls-4" d="M122.5,157.7c1.3-.5,2.6-1.1,3.8-1.7,2-.9,4-1.8,6-2.8,1.6-.7,3.1-1.5,4.7-2.2.2,0,.3-.1.5-.2.1,0,.4-.2-.2,0-.6.3,0,0,.2,0,.3-.1.7-.3,1-.4,1.4-.7,2.7-1.8,3.5-3.2.7-1.3,1-2.8,1.2-4.3.3-2.2.7-4.4.9-6.6.1-1.3-1.2-2.4-2.4-2.4s-2.3,1.1-2.4,2.4c-.2,1.7-.4,3.4-.7,5.1-.2,1.1-.3,2.2-.7,3.3-.1.3.2-.3,0,0,0,.1-.1.2-.2.4,0,0-.3.4-.1.2.2-.2,0,0,0,0-.4.3-.7.6-1.4.9-.5.2-1,.4-1.5.6-3.3,1.5-6.6,3.1-10,4.6-.9.4-1.7.8-2.6,1.2-.3.1-.6.2-.8.4-.6.3.5-.2,0,0-1.2.4-2,1.6-1.7,3,.3,1.2,1.7,2.1,3,1.7h0Z"/>
  <path class="cls-4" d="M178.1,136.1c.2,2.1.5,4.1.8,6.2.2,1.1.3,2.2.6,3.3.4,1.3,1.1,2.5,2.1,3.5.6.5,1.2,1,1.9,1.3.4.2.9.4,1.4.6.9.4-.5-.3-.2,0,2.9,1.5,6,2.8,9,4.3,1.4.7,2.8,1.3,4.2,1.9,1.2.5,2.6-.5,3-1.7.4-1.4-.5-2.4-1.7-3,1.2.5-.1,0-.4-.2-.6-.3-1.3-.6-1.9-.9-1.7-.8-3.5-1.6-5.2-2.5-1.3-.6-2.7-1.3-4-1.9-.4-.2-1.1-.5-1.4-.6-.3-.1-.5-.3-.8-.4,0,0-.5-.3-.2-.2.2.1,0,0-.1,0,0,0-.6-.7-.3-.3-.2-.2-.3-.5-.4-.7-.1-.2,0,.1,0,.1,0-.2-.1-.4-.2-.5,0-.2-.1-.5-.2-.8-.1-.6-.2-1.2-.3-1.8-.3-1.9-.6-3.7-.8-5.6-.1-1.3-1-2.4-2.4-2.4s-2.5,1.1-2.4,2.4h0Z"/>
  <path class="cls-6" d="M126.8,24.8c-2.2,1.8-6.2,5.1-6.2,5.1-9.4,6.8-12.5,15.5-13.2,33-.2,5.9.4,10.7,2.1,17.1.7-.3,1.6-.5,2.7-.6,1.6,0,3.5.4,4.9,1.8l4.1-1.1c.5-4.5,1.9-8.8,4.4-12.5,4.5-6.9,11.6-12.2,19.7-13.9l1.6-5c6-2.1,37.5,8.7,49.1,12.4,0,0,1.1.3,2.4.6.6,1.2,1.1,2.4,1.5,3.6.5,1.6.9,3.2,1,4.8.3,3.8.2,6.8.3,11.4l2.2-.4c1.4-1.3,3.3-1.8,4.9-1.8,1.6,0,2.8.5,3.6,1,2.9-10.6,3.3-19.9.2-32.1-1.7-6.6-6.7-17.4-16.3-25-9.2-7.3-20.7-11.7-35.3-12.3-12-.5-24.4,3.6-32.2,12.5,0,0-.6.5-1.5,1.2Z"/>
  <path class="cls-3" d="M127.7,23.7c8.9-10,20.8-12.7,32.5-12.7s23,3.5,32.8,10.8c2.2,1.6,6.5,5.6,9.3,9.6,6,5.9,10.8,18.7,10.4,31.4,0,5-.4,10.6-1.9,16.4"/>
  <path class="cls-3" d="M109.4,79.3c-1.5-6.1-2.1-10.7-1.9-16.4.7-17.5,4.8-25.4,13.2-33"/>
  <path class="cls-4" d="M130,25.3c11.9-13.5,32-14,48-8.7,7.8,2.5,15.1,6.9,20.7,12.9,5,5.3,8.8,11.9,10.8,18.9,2.8,10.1,2.9,20.4.3,30.6-.8,3,3.8,4.3,4.6,1.3,2.6-9.9,2.8-19.8.5-29.8-1.8-8-5.4-15.4-10.6-21.8-5.7-7-13.5-12.2-21.9-15.5-4.3-1.7-8.9-2.9-13.5-3.6-4.9-.7-9.9-1.1-14.8-.7-10.4.9-20.6,5.1-27.6,13.1-2,2.3,1.4,5.7,3.4,3.4h0Z"/>
  <path class="cls-4" d="M111.6,78.7c-1-4.2-1.8-8.4-1.9-12.7,0-4,.3-8,.7-12,.7-5.7,2.1-11.3,5.4-16,1.5-2.1,3.8-4.4,6-6,1-.8,1.6-2.1.9-3.3-.6-1-2.2-1.6-3.3-.9-5,3.7-8.8,8.3-11,14.1-2.7,7-3.3,14.9-3.5,22.3,0,5.3.8,10.6,2,15.7.7,3,5.4,1.7,4.6-1.3h0Z"/>
  <path class="cls-4" d="M200.6,103.2c-.6,3.1-1.9,6.2-2.9,8.9,0,0,.2-.4,0,0,0,.2-.2.4-.3.6-.2.4-.4.9-.6,1.3-.5,1-1.1,2-1.7,2.9-3.1,5.1-6.9,9.9-11.6,13.8-2.5,2.1-5.4,3.7-8.5,4.4-3,.7-1.7,5.3,1.3,4.6,6.6-1.5,12.1-6.3,16.4-11.4,3.5-4.1,6.9-8.8,9.1-13.7.2-.3.3-.7.5-1,0,0,.3-.7.1-.3-.1.3,0,0,0,0,.2-.3.3-.7.4-1.1.2-.4.3-.8.5-1.2.8-2.1,1.5-4.3,1.9-6.5.3-1.3-.4-2.6-1.7-3-1.2-.3-2.7.4-3,1.7h0Z"/>
  <path class="cls-4" d="M115,104.4c1.4,6.4,4,12.6,7.7,18,3.9,5.8,9,11.3,15.2,14.8,3.2,1.8,6.7,3,10.4,3.6,1.3.2,2.6-.3,3-1.7.3-1.1-.4-2.8-1.7-3-7.9-1.2-14.2-5.8-19.3-11.7-5.2-6.1-8.8-13.5-10.5-21.3-.7-3-5.3-1.7-4.6,1.3h0Z"/>
  <path class="cls-4" d="M152.1,117.9c2.7,1.4,5.5,2,8.6,2,3.1,0,6.2-.6,8.7-2.6,1-.8.9-2.6,0-3.4-1.1-1-2.3-.8-3.4,0,.7-.6.2-.2,0,0-.2.1-.3.2-.5.3,0,0-.2,0-.3.1-.2.1-.4,0,.1,0-.2,0-.5.2-.7.3-.7.2-1.3.4-2,.5.4,0,0,0-.1,0-.2,0-.4,0-.6,0-.5,0-1,0-1.4,0-.4,0-.9,0-1.3,0-.2,0-.4,0-.6,0,0,0-.8-.1-.2,0-.6-.1-1.3-.2-1.9-.4-.3,0-.5-.2-.8-.3-.6-.2.4.2-.1,0-.3-.2-.6-.3-1-.5-1.1-.6-2.7-.3-3.3.9-.6,1.1-.3,2.7.9,3.3h0Z"/>
  <path class="cls-4" d="M159.3,97.8c.4,1.4.7,2.8.9,4.3,0-.2,0-.4,0-.6,0,.2,0,.4,0,.6,0-.2,0-.4,0-.6,0,0,0,.2,0,.3,0-.2.2-.4.2-.6,0,0,0,.1,0,.2.1-.2.2-.3.4-.5,0,0,0,0-.1.1.2-.1.3-.2.5-.4-.1,0-.2.1-.3.2.2,0,.4-.2.6-.2-.2,0-.4.1-.6.2.2,0,.4,0,.6,0-.2,0-.4,0-.5,0,.2,0,.4,0,.6,0-.2,0-.4,0-.6-.1-.3-.1-.6-.1-1,0-.3,0-.6.1-.9.3-.5.3-1,.9-1.1,1.4-.1.6-.1,1.3.2,1.8.3.5.8,1,1.4,1.1.5,0,.9.2,1.4.2.8,0,1.5-.2,2.1-.5.8-.4,1.5-1.1,1.7-2.1.2-.8.1-1.4,0-2.2-.2-1.4-.6-2.7-.9-4.1-.2-.6-.6-1.1-1.1-1.4-.5-.3-1.3-.4-1.8-.2-1.2.4-2,1.6-1.7,3h0Z"/>
  <path class="cls-4" d="M136.9,85.6c-.7,2.3-.2,7.7,4.1,8.1,5.8,0,6.1-6.5,4.2-9.5-1.6-2.5-6.3-3.5-8.3,1.4Z"/>
  <path class="cls-4" d="M183.5,85.6c.7,2.3.2,7.7-4.1,8.1-5.8,0-6.1-6.5-4.2-9.5,1.6-2.5,6.3-3.5,8.3,1.4Z"/>
  <path class="cls-4" d="M205,82.9c1.1-1,2.7-1.3,4.1-1,.6.1,1.2.4,1.7.8-.2-.2.3.3.3.3.1.1.2.2.3.3-.2-.2-.2-.2,0,0,1.5,2.3,1.6,5.4,1.4,8.1-.2,2.7-1.2,5.4-2.4,7.8-1.6,3-4.1,6.1-7.7,5.6-1.3-.2-2.4,1.2-2.4,2.4s1.1,2.2,2.4,2.4c7.6,1,12.3-7.4,14.2-13.6,1.6-5.4,1.6-13.8-3.5-17.4-3.5-2.5-8.6-1.8-11.7,1-2.3,2.1,1.1,5.5,3.4,3.4h0Z"/>
  <path class="cls-4" d="M118.7,79.5c-2.9-2.6-7.2-3.2-10.8-1.5-2.5,1.2-4,3.7-4.7,6.4-1.6,6.2,0,13.4,3.5,18.7,2.4,3.7,6.3,7,11,6.4,1.3-.2,2.4-1,2.4-2.4s-1.1-2.6-2.4-2.4c-3.7.5-6.2-2.6-7.7-5.6-1.3-2.4-2.2-5.1-2.4-7.8-.2-2.6-.2-5.8,1.4-8.1.2-.2.2-.2,0,0,0-.1.2-.2.3-.3,0,0,.5-.5.3-.3.5-.4,1.1-.6,1.7-.8,1.5-.3,3,0,4.1,1,2.3,2.1,5.7-1.3,3.4-3.4h0Z"/>
  <path class="cls-4" d="M144.5,51.5c-6.5,1.4-12.4,5-17,9.8-5,5.3-8,11.6-8.8,18.9-.1,1.3,1.2,2.4,2.4,2.4s2.3-1.1,2.4-2.4c1.2-11.7,10.9-21.7,22.3-24.1,3-.6,1.7-5.3-1.3-4.6h0Z"/>
  <path class="cls-4" d="M196.5,58.9c-6.8-2.2-13.5-4.4-20.3-6.5-7.2-2.2-14.5-4.5-22-5.7-2.5-.4-5.6-1-8.1-.2-2.9,1-1.7,5.6,1.3,4.6.2,0,.3,0,.5-.1.6-.2-.5,0,0,0,.5,0,1,0,1.5,0,.6,0,1.1,0,1.7.1.2,0,.9.1.7,0-.2,0,.7.1.9.1,3.3.5,6.5,1.3,9.7,2.1,7.7,2,15.2,4.4,22.8,6.8,3.4,1.1,6.7,2.2,10.1,3.3,3,.9,4.2-3.7,1.3-4.6h0Z"/>
  <path class="cls-4" d="M192.1,57.6c3.2,3.1,5.2,6.8,6.1,11.1.8,4.2.4,8.7.5,13,0,3.1,4.9,3.1,4.8,0-.1-4.9.2-9.9-.8-14.7-1.1-4.9-3.7-9.3-7.3-12.8-2.2-2.2-5.6,1.2-3.4,3.4h0Z"/>
  <path class="cls-1" d="M228.3,324.4c-1.8-18.2-1.4-15.1-1.7-18.6l-1.7-22.5-1.4-29.2c0-4.2.1-8.4.2-12.7,10.3-1.7,29.7-5.6,38.8-9.7l-.3-1.2c-7.4-21-16.5-44-17.6-46.5-2.3-5.2-3.8-7.5-5.6-9.5-1.4-1.5-3.1-3-3.1-3-1.6-1.3-6.7-4.3-8.6-5.3-7.2-3.7-23.5-9.9-30.1-12.5,0,0-2.8-1.1-4.8-1.9-5.4,5.3-15.1,9.8-26.6,10.9-1.2.1-2.3.9-2.8,2-.7,1.6-1.7,3.3-2.8,4.7-1-1.5-1.9-3.1-2.7-4.7-.5-1.1-1.6-1.8-2.9-1.9-10.4-.9-19.5-4.6-25.4-9.2,0,0-.8-.6-1.9-1.4-9.4,3.2-23.4,8.6-34.1,13.7-5.1,2.1-13.6,10.6-17.7,19.8-1.2,2.7-3.4,8.2-5.1,12.4,4.3,10.9,10.4,23,15.9,33.6,3.6,1.7,7.1,3.6,10.4,5.6.6,15.1.6,29.5-.2,44-.7,5.7-3.2,30.9-5.2,51.7h137.8c-.3-2.8-.6-5.8-.9-8.8Z"/>
  <path class="cls-3" d="M142.4,327.6c9.7,0,20.9,0,32.1,0"/>
  <path class="cls-4" d="M91.9,194.3c1.5,20.7,2.8,41.4,2.9,62.1,0,4.8,0,9.5-.1,14.3-.1,4-.1,8-.6,12-.7,6.3-1.3,12.6-2,19-1,10.5-2.1,21-3.1,31.5-.1,1.3,1.2,2.4,2.4,2.4s2.3-1.1,2.4-2.4c1.6-16.4,3.1-32.7,4.9-49.1.9-8,.9-16.2.9-24.2,0-9.9-.3-19.8-.7-29.7-.6-12-1.4-24-2.2-36,0-1.3-1-2.4-2.4-2.4-1.2,0-2.5,1.1-2.4,2.4h0Z"/>
  <path class="cls-4" d="M223.3,295.2c.5,7,1.2,13.9,1.9,20.8.6,5.7,1.2,11.4,1.7,17.2.1,1.3,1,2.4,2.4,2.4s2.5-1.1,2.4-2.4c-1.1-11.9-2.7-23.7-3.4-35.6,0-.8-.1-1.6-.2-2.4,0-1.3-1-2.4-2.4-2.4s-2.5,1.1-2.4,2.4h0Z"/>
  <path class="cls-5" d="M213.5,193.9h-20.9c-.8,0-1.5.7-1.5,1.5v6.4c0,.8.7,1.5,1.5,1.5h20.9c.8,0,1.5-.7,1.5-1.5v-6.4c0-.8-.7-1.5-1.5-1.5Z"/>
  <path class="cls-4" d="M213.5,191.5h-17.6c-1.7,0-3.8-.4-5.3.6-1.2.8-1.8,2-1.8,3.4,0,1.6,0,3.2,0,4.8s.2,4.4,2.7,5.2c1,.3,2.2.2,3.2.2h14.2c1.6,0,3.4.1,5,0,2.1-.2,3.5-1.8,3.6-3.8,0-1.5,0-3.1,0-4.7s0-1.2,0-1.7c-.1-2.3-1.7-3.7-3.9-3.9-1.3-.1-2.4,1.2-2.4,2.4s1.1,2.3,2.4,2.4c-1,0-.9-1.6-.9-.3v4c0,.4-.2,1.2,0,1.6.1.3.1-.4.3-.5.2,0,.4-.2.7-.3h-20.5c0,0-.4,0-.5,0,.4-.4,1,.8.9.9,0,0,0-.2,0-.3.1-.5,0-1.2,0-1.7,0-1.3.1-2.7,0-4.1,0,0,0-.3,0-.3-.1-.1,4.1-3.7-.3.6-.7.7-.9.1-.2.3.7.1,1.6,0,2.4,0h18.1c3.1,0,3.1-4.8,0-4.8Z"/>
  <path class="cls-4" d="M72.8,198.9c1.8-4.6,3.5-9.3,5.8-13.6,2.4-4.8,5.8-9.1,9.7-12.8,1.5-1.4,3-2.7,4.8-3.7,2-1.2,4.3-2.1,6.4-3,5.2-2.3,10.5-4.5,15.8-6.5,5.2-2,10.5-3.9,15.7-5.7,2.9-1,1.7-5.6-1.3-4.6-10.6,3.5-21,7.5-31.2,12-2.4,1.1-4.9,2.1-7.3,3.3-1.9,1-3.6,2.3-5.3,3.7-4.2,3.6-7.9,8.1-10.7,13-3,5.2-5,11-7.2,16.6-.5,1.2.5,2.6,1.7,3,1.4.4,2.5-.5,3-1.7h0Z"/>
  <path class="cls-4" d="M98,235.5c-2.7-1.7-5.6-3.2-8.5-4.7-1.1-.6-2.7-.3-3.3.9-.6,1.1-.3,2.7.9,3.3,2.9,1.4,5.7,3,8.5,4.7,1.1.7,2.7.3,3.3-.9.6-1.2.3-2.6-.9-3.3h0Z"/>
  <path class="cls-4" d="M190.1,153.7c4.9,1.9,9.8,3.8,14.7,5.8,7.2,2.8,14.7,5.5,21.6,9.2,1.5.8,3.1,1.7,4.5,2.6.8.5,1.6,1,2.3,1.5.3.2.6.4.8.6.6.4,0,0,.3.2.7.6,1.4,1.2,2,1.9.4.4.8.8,1.2,1.3,0,.1.2.2.3.4,0,0,.4.6.2.3,1.1,1.4,1.9,3,2.7,4.6.6,1.1,1.1,2.3,1.7,3.5,0,0,0,.2.1.3.3.6-.2-.6,0,0,.4.9.8,1.8,1.1,2.8,1.3,3.3,2.6,6.5,3.9,9.8,4.3,11,8.4,22,12.3,33.1.4,1.2,1.6,2,3,1.7,1.2-.3,2.1-1.7,1.7-3-3.6-10.2-7.4-20.4-11.3-30.5-2.2-5.7-4.3-11.5-6.8-17-1.7-3.7-3.5-7.3-6.4-10.2-2.6-2.7-5.7-4.6-8.9-6.5-6.8-4-14.3-6.7-21.6-9.6-6.1-2.4-12.1-4.7-18.2-7.1-1.2-.5-2.6.5-3,1.7-.4,1.4.5,2.5,1.7,3h0Z"/>
  <path class="cls-2" d="M123.1,260.1c3.8-3.1,41.1-31.1,48.5-35.8,16,20.7,43.9,60.7,48.6,67.7-6.3,5.1-41.6,31.8-49.2,37.2-6.8-9.4-40.2-56.8-47.9-69.1"/>
  <path class="cls-4" d="M124.8,261.8c.3-.2.5-.4.8-.6.2-.1.4-.3.5-.4.2-.2.9-.7.3-.2,1.2-.9,2.4-1.9,3.6-2.8,3.5-2.6,6.9-5.2,10.4-7.9,7.9-5.9,15.8-11.8,23.8-17.6,2.8-2,5.6-4.1,8.5-6-1.1-.3-2.2-.6-3.3-.9,7.6,9.8,14.9,19.9,22.1,30,6.9,9.6,13.6,19.2,20.4,28.9,2,2.9,4.1,5.9,6.1,8.9.1-1,.2-1.9.4-2.9-.9.7-1.8,1.4-2.6,2.1-.6.5-1.2,1-1.8,1.4-.2.1-.3.2-.5.4.3-.3,0,0-.2.1-.4.3-.7.6-1.1.9-3.6,2.7-7.1,5.5-10.7,8.2-7.8,5.9-15.5,11.8-23.3,17.6-2.8,2.1-5.6,4.2-8.4,6.2,1.1.3,2.2.6,3.3.9-5.7-8-11.4-16-17-24.1-7.6-10.8-15.2-21.7-22.6-32.6-2.8-4.1-5.6-8.2-8.3-12.4-1.6-2.6-5.8-.2-4.1,2.4,5.6,8.9,11.7,17.5,17.7,26.2,7.4,10.7,14.9,21.4,22.4,32,2.6,3.6,5.2,7.3,7.8,10.9.7,1,2.1,1.7,3.3.9,6.2-4.4,12.2-9,18.2-13.5,7.8-5.9,15.6-11.8,23.3-17.7,2.7-2.1,5.5-4.2,8.2-6.4.8-.6.9-2.1.4-2.9-4.6-6.8-9.3-13.5-14-20.2-7.4-10.6-15-21.1-22.6-31.6-3.9-5.4-7.9-10.7-11.9-15.9-.8-1-2.1-1.6-3.3-.9-6.4,4.1-12.5,8.8-18.6,13.4-7.8,5.8-15.6,11.5-23.3,17.4-2.4,1.8-4.8,3.6-7.1,5.5-1,.8-.9,2.5,0,3.4,1,1,2.4.8,3.4,0h0Z"/>
  <path class="cls-5" d="M253.9,234.9c-9.8,2.9-22.5,5.3-30.2,6.6-.2,5.5-.3,10.8-.3,16.2-8.4,7.7-13.6,9.9-27,17.9l-11,4.6c-1.6.7-3.5.7-5.2.1-2.8-1-5.4-1.8-8.9-3.1-1.7-.4-4.3-.8-6-1-2.6-.3-4.6-.6-7.2-.7-3.5-.1-5.5-.3-6.9,1.2-.7.8-1.1,1.9-.9,3.3.5,4.8,9.1,7.2,13.2,9.8-3.9,1.9-7.8,3.5-11.4,4.1-1.8-.3-5.5-1.3-7.3-1.9-2-.7-4.6,1-5.3,2.4-1,2.1-.2,4.5,1.4,5.6.9.6,1.8,1.1,2.8,1.6-.7,2.5-.2,5.2.9,6.9,1.1,1.7,2.5,3.8,4.4,4.6,1.5,4.6,2.9,7.4,6.4,10.9,1.3,1.3,5.7,2.2,7,1.9,11.1-3.1,19.7-9.5,28.2-17.1,1.6-1.2,3.2-2.5,4.4-3,4.4-1.7,47.3-18.3,54.4-23.3,5.3-3.6,10.1-9.9,11.4-15.5,1-4.7,1-10.2-.6-18.8-1-5.4-1.5-6.9-3-12.2,0,0-.2-.7-.5-1.9-.9.3-1.8.6-2.8.9Z"/>
  <path class="cls-4" d="M162.4,287.8c-3.5,1.7-7,3.2-10.8,3.9h1.3c-2.4-.4-4.8-1.1-7.1-1.9-2.9-.9-6.2.5-7.9,3-1.8,2.6-1.2,6.4,1,8.6,2.3,2.3,6.1,3.5,9.2,4.1,3,.7,4.3-4,1.3-4.6-1.7-.4-3.4-.9-4.9-1.6-1.1-.6-2.5-1.1-2.8-2.4-.2-1.1.2-1.6,1.1-2.1,1-.6,1.6-.3,2.7,0,1.3.4,2.6.8,4,1.1.6.2,1.2.3,1.9.4,1,.2,1.8,0,2.8-.2,3.7-.9,7.3-2.5,10.8-4.1,1.2-.6,1.5-2.2.9-3.3-.7-1.2-2.1-1.4-3.3-.9h0Z"/>
  <path class="cls-4" d="M141.5,301c-.7,2.8-.5,5.9.9,8.5,1.2,2.2,3.1,4.6,5.4,5.7-.4-.5-.7-1-1.1-1.4,1.1,3.5,2.5,6.7,4.8,9.5,1,1.3,2.2,2.7,3.6,3.5,1.3.7,2.8,1.2,4.3,1.4,1.6.3,2.9.3,4.4-.2,2-.6,3.9-1.3,5.8-2.1,3.6-1.5,7-3.4,10.2-5.5,3.2-2.2,6.3-4.6,9.3-7.1,1.6-1.3,3-2.7,4.7-3.9.4-.3.8-.6,1.2-.8.2,0,.3-.2.5-.3,0,0,.7-.4.3-.2-.3.1.2,0,.3-.1,2.7-1,5.3-2.1,7.9-3.1,9.5-3.8,19.1-7.6,28.5-11.6,4.2-1.8,8.4-3.6,12.5-5.6,3.7-1.8,7.1-3.8,10.1-6.7,2.7-2.7,5.2-5.9,6.7-9.5,1.3-3,1.9-6.1,2.1-9.3.4-7.2-1.1-14.7-2.9-21.7-.4-1.7-.9-3.5-1.4-5.2-.8-3-5.5-1.7-4.6,1.3,2,7.2,3.9,14.5,4.2,22,.1,3,0,5.7-.7,8.5-.9,3.4-3,6.6-5.4,9.2-2.9,3.2-6.3,5.3-10.1,7.2-4.1,2-8.4,3.8-12.6,5.6-9.1,3.9-18.7,7.7-28.1,11.4-2.5,1-5.1,2-7.6,3-3.4,1.4-6.1,4.1-8.8,6.4-3,2.5-6,4.9-9.3,7-3.2,2.1-6.7,3.9-10.3,5.3-.9.3-1.8.7-2.8,1-.5.1-.9.3-1.4.4-.6.2.2.1-.4,0-1.2-.1-2.5-.3-3.8-.9,0,0-.4-.2-.5-.3-.2-.1,0,0,0,0-.2-.1-.3-.3-.4-.4-.6-.7-1.3-1.4-1.8-2.1-1-1.3-1.8-2.7-2.5-4.2-.8-1.7-.9-3.9-2.6-4.9-1.4-.9-2.4-2.3-3.3-3.7-.8-1.5-.9-3.3-.5-4.9.7-3-3.9-4.3-4.6-1.3h0Z"/>
  <path class="cls-4" d="M164.8,287.8c-2.8-1.7-5.9-2.8-8.8-4.5-1.1-.7-2.4-1.6-2.9-2.4-.4-.6-.4-.7-.4-1.2,0-.3,0-.6,0-.8.1-.3.4-.5.4-.5.3-.2.7-.3,1.2-.3,1.1,0,2.2,0,3.3,0,2.4,0,4.8.4,7.2.6,1.9.2,3.9.4,5.7.9,2.2.6,4.4,1.5,6.5,2.2,2.2.7,4.3,1.6,6.6,1.3,1.1-.1,2-.4,3-.8,2.2-.9,4.3-1.8,6.5-2.7,1.9-.8,3.9-1.5,5.7-2.6,3.6-2.1,7.2-4.1,10.7-6.2,6.7-4,12.8-8.6,18.4-14.1,2.2-2.2-1.2-5.6-3.4-3.4-5.1,5-10.4,9.1-16.5,12.7-3.6,2.1-7.3,4.2-10.9,6.3-1.1.7-1.3.9-2.4,1.3-1.1.4-2.1.9-3.2,1.3-2.2.9-4.3,1.8-6.5,2.7-1.1.5-2.2.8-3.4.5-2.1-.4-4.3-1.4-6.4-2.1-2.2-.7-4.3-1.4-6.6-1.8-2.3-.4-4.7-.6-7.1-.9-2.3-.2-4.7-.4-7.1-.3-1.9,0-3.8.5-5.1,1.9-1.7,1.9-2.1,4.7-1.1,7,.8,1.8,2.2,3.2,3.8,4.3,3.1,2.3,6.9,3.4,10.1,5.4,2.6,1.6,5-2.5,2.4-4.1h0Z"/>
  <path class="cls-4" d="M43.7,218c3.7,13.2,7.3,26.4,11.5,39.4,2,6.1,3.9,12.5,6.8,18.3,2.8,5.7,7.4,11,13.4,13.4,1.6.6,3.2.9,4.9,1.1,1.9.3,3.9.5,5.8.4,3.7-.2,6.9-1.8,10.4-3,1.2-.4,2-1.6,1.7-3-.3-1.2-1.7-2.1-3-1.7-2.7,1-5.4,2.4-8.2,2.8-2.8.4-6.1,0-8.8-.7-5.3-1.4-9.4-6.6-11.8-11.4-1.3-2.7-2.3-5.5-3.3-8.3-1.1-2.9-2.1-5.9-3-8.8-2-6.2-3.9-12.5-5.7-18.7-2-7-4-14-5.9-21.1-.8-3-5.5-1.7-4.6,1.3h0Z"/>
  <path class="cls-4" d="M43.2,200.4c-.4-.1-.8-.3-1.2-.4-.6-.2-.4-.1-.9-.4-.9-.4-1.9-.9-2.8-1.4-2-1.1-4-2.3-5.9-3.7-3.8-2.6-7.4-5.5-10.4-8.9-2.1-2.3-5.4,1.1-3.4,3.4,3.3,3.7,7.3,6.9,11.4,9.7,3.7,2.5,7.6,5,11.9,6.3,2.9,1,4.2-3.7,1.3-4.6h0Z"/>
  <path class="cls-4" d="M48.8,162.9c-1.2-1.6-2.4-3.2-3.6-4.8-.7-1-3-3.4-1.7-4.6,1.4-1.3,3.8-.3,5.2.6,1.9,1.3,3.6,2.8,5.4,4.3,3.4,3,7.2,5.8,9.3,9.9,1.9,3.8,1.2,8.5,1.1,12.6-.2,4.8.8,9.4,2.2,14,.9,2.9,5.5,1.7,4.6-1.3-.7-2.3-1.3-4.6-1.7-6.9-.4-2.4-.3-4.6-.3-7,0-2.5.3-5.1,0-7.6-.3-2.6-1.1-5.1-2.4-7.4-1.4-2.5-3.3-4.3-5.4-6.2-2.1-1.8-4.1-3.7-6.2-5.5-2.1-1.7-4.4-3.8-7.1-4.6-2.6-.8-5.6-.4-7.8,1.4-5.5,4.7,1.3,11.5,4.3,15.4.8,1,2.1,1.6,3.3.9,1-.6,1.6-2.2.9-3.3h0Z"/>
  <path class="cls-4" d="M49.1,163.9c-2.2-1.1-4.5-2.1-6.8-3.2-.6-.3-1.2-.6-1.7-.9-.2-.1-.4-.3-.6-.4-.2-.2-.2-.1.2.1-.1-.1-.2-.2-.4-.3-1.8-1.6-3.7-3.2-5.5-4.8-3.4-3.1-6.9-6.2-10.6-9-3.5-2.6-8.1-2.7-11.1.7,1.3.2,2.5.3,3.8.5-2.1-3.3-6.2-3.3-8.9-.8-2.3,2.1,1.1,5.5,3.4,3.4.3-.3.7-.5.9-.5.3,0,.3,0,.5.3.8,1.2,2.7,1.7,3.8.5,2.6-3,5.6.3,7.8,2.1,3.2,2.7,6.3,5.5,9.5,8.3,1.4,1.2,2.7,2.6,4.3,3.6.9.6,1.9,1.1,2.9,1.6,2.1,1,4.2,2,6.3,3,2.8,1.4,5.2-2.8,2.4-4.1h0Z"/>
  <path class="cls-4" d="M36.5,168.6c-.3-.2-.6-.4-.8-.6.4.3,0,0-.1-.1-.2-.2-.4-.3-.6-.5-.9-.7-1.7-1.4-2.6-2.1-2.1-1.7-4.2-3.5-6.3-5.2-3.8-3.2-7.5-6.4-11.3-9.6-1.6-1.3-3.1-2.6-5.1-3.2-1.9-.6-4-.4-5.7.7-1.6,1.1-2.3,2.9-2.5,4.8-.3,3.4,1.8,6.5,4.1,8.8,2,2,4.2,3.8,6.4,5.6,5.2,4.5,10.5,8.8,15.7,13.3,1,.8,2.4,1,3.4,0,.9-.9,1-2.5,0-3.4-4.3-3.7-8.7-7.3-13-11-1.8-1.5-3.6-3.1-5.4-4.7-2.2-2-5-4-6.1-6.9,0,0-.2-.9-.2-.7,0-.6-.1-1.2.2-1.7.4-.8,1.8-.4,2.5,0,.3.1.7.6,1.1.7.2,0-.5-.4-.3-.2.2.2.4.3.5.4.5.4,1.1.9,1.6,1.3,3.5,3,7.1,6,10.6,9,3.8,3.2,7.5,6.5,11.5,9.4,1,.8,2.7.2,3.3-.9.7-1.2.2-2.5-.9-3.3h0Z"/>
  <path class="cls-4" d="M7.9,157.8c-3.8-1.1-7.5,1.5-7.8,5.4-.3,3.4,1.7,6,3.5,8.6,4.5,6.2,9.5,11.9,15,17.3,2.2,2.2,5.6-1.2,3.4-3.4-4.3-4.2-8.5-8.7-12.1-13.5-.9-1.2-1.8-2.4-2.6-3.6-.6-.9-1.7-2.2-2-3-.4-1-.9-3.8,1.3-3.1,3,.9,4.2-3.7,1.3-4.6h0Z"/>
  <path class="cls-4" d="M30.5,183.4c0-.4.1-.7.2-1.1,0,0,.2-.5,0-.3,0,.2.1-.2.1-.3.3-.6.7-1.2,1.1-1.8.4-.6.6-.8,1.1-1.5.5-.6,1-1.2,1.6-1.8,2-2.3,4.2-4.5,6.4-6.7.9-.9.9-2.5,0-3.4-1-.9-2.4-.9-3.4,0-2.3,2.3-4.6,4.6-6.8,7.1-2.1,2.4-4.6,5.1-5.1,8.4-.2,1.2.3,2.6,1.7,3,1.2.3,2.7-.3,3-1.7h0Z"/>
  <path class="cls-4" d="M91.9,237.2c-7.5-14.4-15.4-28.8-20.8-44.1-.4-1.2-1.6-2-3-1.7-1.2.3-2.1,1.7-1.7,3,5.6,15.7,13.6,30.5,21.3,45.3,1.4,2.7,5.6.3,4.1-2.4h0Z"/>
  <path class="cls-4" d="M190.6,150.5c-4.2,3.9-9.6,6.5-15,8.1-3.4,1-6.9,1.4-10.4,2-3.9.6-4.5,4.6-6.6,7.3,1.3.2,2.5.3,3.8.5-1.9-2.9-3-7.1-7-7.7-3.6-.6-7.2-1-10.7-2-5.7-1.7-10.7-4.4-15.4-8-1-.8-2.7-.2-3.3.9-.7,1.2-.2,2.5.9,3.3,4.6,3.5,9.5,6.2,15,8,3.3,1.1,6.8,1.8,10.3,2.3,1,.1,2.7,0,3.4.9.5.7.8,1.6,1.2,2.4.5.9,1,1.7,1.5,2.5.8,1.2,2.8,1.8,3.8.5,1.1-1.4,2.1-2.9,2.9-4.6.2-.5.4-1.1.9-1.3.6-.3,1.6-.2,2.3-.3,3.5-.5,7-1.2,10.4-2.3,5.7-1.9,11.2-4.7,15.6-8.9,2.3-2.1-1.1-5.5-3.4-3.4h0Z"/>
  <path class="cls-4" d="M225.9,254.2c.1-15.3.9-30.5,1.9-45.7.3-4.7.6-9.4,1-14.1,0-1.3-1.2-2.4-2.4-2.4s-2.3,1.1-2.4,2.4c-1.1,15.7-2.2,31.4-2.6,47.1-.1,4.3-.2,8.5-.2,12.8,0,3.1,4.8,3.1,4.8,0h0Z"/>
  <path class="cls-4" d="M224.4,243.8c6.7-1.1,13.4-2.5,20-4,6.5-1.5,13.2-3.2,19.3-5.9,1.2-.5,1.5-2.3.9-3.3-.7-1.2-2.1-1.4-3.3-.9-2.3,1-5.5,2.1-8.3,2.9-3.4,1-6.8,1.8-10.3,2.6-6.5,1.5-13.1,2.8-19.7,3.9-1.3.2-2,1.8-1.7,3,.4,1.4,1.7,1.9,3,1.7h0Z"/>
</svg>