<?xml version="1.0" encoding="UTF-8"?>
<svg id="b" xmlns="http://www.w3.org/2000/svg" version="1.1" viewBox="0 0 281.3 280.3">
  <defs>
    <style>
      .cls-1 {
        fill: #211715;
      }

      .cls-1, .cls-2, .cls-3 {
        stroke-width: 0px;
      }

      .cls-2 {
        fill: #fff;
      }

      .cls-3 {
        fill: #95cbeb;
      }
    </style>
  </defs>
  <g id="d">
    <path class="cls-2" d="M2.1,118c0,14.9,0,97.7,0,112.6,0,1.4.8,2.7,2,3.5,11.1,6.4,64.8,37.4,75.9,43.8,1.2.7,2.8.7,4,0,64.7-37.3,129.3-74.7,194-112,1.2-.7,2-2,2-3.5,0-37.3,0-75.7,0-112.6,0-1.4-.8-2.7-2-3.5-11.1-6.4-64.8-37.4-75.9-43.8-1.2-.7-2.8-.7-4,0L4.1,114.5c-1.2.7-2,2-2,3.5Z"/>
  </g>
  <path class="cls-1" d="M163.5,233.1v-40.8c0-2.6-4-2.6-4,0v40.8c0,2.6,4,2.6,4,0h0Z"/>
  <path class="cls-3" d="M130.3,214.3c0-1.3,0-2.7,0-4.1,4.5-2.6,13.8-8,24-13.9v25.5c-5.9,3.4-14.8,8.5-24,13.9,0,0,0-10.2,0-21.4h0Z"/>
  <path class="cls-1" d="M132.3,235.7v-25.5c0-2.6-4-2.6-4,0v25.5c0,2.6,4,2.6,4,0h0Z"/>
  <path class="cls-3" d="M91.8,236.5c0-1.3,0-2.7,0-4.1,4.5-2.6,13.8-8,24-13.9v25.5c-5.9,3.4-14.8,8.5-24,13.9,0,0,0-10.2,0-21.4h0Z"/>
  <path class="cls-1" d="M117.8,244.1v-25.5c0-2.6-4-2.6-4,0v25.5c0,2.6,4,2.6,4,0h0Z"/>
  <path class="cls-1" d="M93.8,257.9v-25.5c0-2.6-4-2.6-4,0v25.5c0,2.6,4,2.6,4,0h0Z"/>
  <path class="cls-3" d="M231.5,155.9c0-1.4,0-2.7,0-4.1-4.5,2.6-13.8,8-24,13.9v25.5c5.9-3.4,14.8-8.5,24-13.9,0,0,0-10.2,0-21.4h0Z"/>
  <path class="cls-1" d="M233.5,177.3v-25.5c0-2.6-4-2.6-4,0v25.5c0,2.6,4,2.6,4,0h0Z"/>
  <path class="cls-3" d="M270,133.7c0-1.4,0-2.7,0-4.1-4.5,2.6-13.8,8-24,13.9v25.5c5.9-3.4,14.8-8.5,24-13.9,0,0,0-10.2,0-21.4h0Z"/>
  <path class="cls-1" d="M247.9,168.9v-25.5c0-2.6-4-2.6-4,0v25.5c0,2.6,4,2.6,4,0h0Z"/>
  <path class="cls-1" d="M272,155.1v-25.5c0-2.6-4-2.6-4,0v25.5c0,2.6,4,2.6,4,0h0Z"/>
  <path class="cls-3" d="M231.5,105.3c0-1.3,0-2.7,0-4.1-4.5,2.6-13.8,8-24,13.9v25.5c5.9-3.4,14.8-8.5,24-13.9,0,0,0-10.2,0-21.4h0Z"/>
  <path class="cls-1" d="M209.4,140.6v-25.5c0-2.6-4-2.6-4,0v25.5c0,2.6,4,2.6,4,0h0Z"/>
  <path class="cls-1" d="M233.5,126.7v-25.5c0-2.6-4-2.6-4,0v25.5c0,2.6,4,2.6,4,0h0Z"/>
  <path class="cls-3" d="M270,83c0-1.3,0-2.7,0-4.1-4.5,2.6-13.8,8-24,13.9v25.5c5.9-3.4,14.8-8.5,24-13.9,0,0,0-10.2,0-21.4h0Z"/>
  <path class="cls-1" d="M247.9,118.3v-25.5c0-2.6-4-2.6-4,0v25.5c0,2.6,4,2.6,4,0h0Z"/>
  <path class="cls-1" d="M272,104.4v-25.5c0-2.6-4-2.6-4,0v25.5c0,2.6,4,2.6,4,0h0Z"/>
  <path class="cls-1" d="M210.2,191.9c18.4-10.6,36.7-21.2,55.1-31.8l15.6-9c2.2-1.3.2-4.7-2-3.5-19.4,11.2-38.7,22.4-58.1,33.5l-12.6,7.3c-2.2,1.3-.2,4.7,2,3.5h0Z"/>
  <path class="cls-1" d="M82.9,239.9c11-6.3,21.9-12.7,32.9-19,13.5-7.8,27.1-15.6,40.6-23.4,14.5-8.4,29-16.7,43.5-25.1,13.9-8,27.9-16.1,41.8-24.1l35.6-20.5,3.7-2.2c2.2-1.3.2-4.7-2-3.5-11.5,6.6-23,13.3-34.4,19.9l-41.4,23.9c-14.5,8.4-29,16.7-43.5,25.1-13.7,7.9-27.4,15.8-41.1,23.7-11.4,6.6-22.7,13.1-34.1,19.7l-3.5,2c-2.2,1.3-.2,4.7,2,3.5h0Z"/>
  <path class="cls-3" d="M130.3,163.7c0-1.3,0-2.7,0-4.1,4.5-2.6,13.8-8,24-13.9v25.5c-5.9,3.4-14.8,8.5-24,13.9,0,0,0-10.2,0-21.4h0Z"/>
  <path class="cls-1" d="M156.4,171.2v-25.5c0-2.6-4-2.6-4,0v25.5c0,2.6,4,2.6,4,0h0Z"/>
  <path class="cls-1" d="M132.3,185.1v-25.5c0-2.6-4-2.6-4,0v25.5c0,2.6,4,2.6,4,0h0Z"/>
  <path class="cls-3" d="M168.9,141.4c0-1.3,0-2.7,0-4.1,4.5-2.6,13.8-8,24-13.9v25.5c-5.9,3.4-14.8,8.5-24,13.9,0,0,0-10.2,0-21.4h0Z"/>
  <path class="cls-1" d="M170.9,162.8v-25.5c0-2.6-4-2.6-4,0v25.5c0,2.6,4,2.6,4,0h0Z"/>
  <path class="cls-1" d="M194.9,148.9v-25.5c0-2.6-4-2.6-4,0v25.5c0,2.6,4,2.6,4,0h0Z"/>
  <path class="cls-3" d="M91.8,185.9c0-1.3,0-2.7,0-4.1,4.5-2.6,13.8-8,24-13.9v25.5c-5.9,3.4-14.8,8.5-24,13.9,0,0,0-10.2,0-21.4h0Z"/>
  <path class="cls-1" d="M117.8,193.4v-25.5c0-2.6-4-2.6-4,0v25.5c0,2.6,4,2.6,4,0h0Z"/>
  <path class="cls-1" d="M105.8,200.4v-25.5c0-2.6-4-2.6-4,0v25.5c0,2.6,4,2.6,4,0h0Z"/>
  <path class="cls-1" d="M144.4,178.1v-25.5c0-2.6-4-2.6-4,0v25.5c0,2.6,4,2.6,4,0h0Z"/>
  <path class="cls-1" d="M182.9,155.9v-25.5c0-2.6-4-2.6-4,0v25.5c0,2.6,4,2.6,4,0h0Z"/>
  <path class="cls-1" d="M221.4,133.6v-25.5c0-2.6-4-2.6-4,0v25.5c0,2.6,4,2.6,4,0h0Z"/>
  <path class="cls-1" d="M260,111.4v-25.5c0-2.6-4-2.6-4,0v25.5c0,2.6,4,2.6,4,0h0Z"/>
  <path class="cls-1" d="M105.8,251v-24.7c0-2.6-4-2.6-4,0v24.7c0,2.6,4,2.6,4,0h0Z"/>
  <path class="cls-1" d="M144.4,228.7v-24.7c0-2.6-4-2.6-4,0v24.7c0,2.6,4,2.6,4,0h0Z"/>
  <path class="cls-1" d="M221.4,184.2v-24.7c0-2.6-4-2.6-4,0v24.7c0,2.6,4,2.6,4,0h0Z"/>
  <path class="cls-1" d="M260,162v-24.7c0-2.6-4-2.6-4,0v24.7c0,2.6,4,2.6,4,0h0Z"/>
  <path class="cls-1" d="M93.8,207.3v-25.5c0-2.6-4-2.6-4,0v25.5c0,2.6,4,2.6,4,0h0Z"/>
  <path class="cls-1" d="M151.6,221.1c-18.4,10.6-36.7,21.2-55.1,31.8-5.2,3-10.4,6-15.6,9-2.2,1.3-.2,4.7,2,3.5,19.4-11.2,38.7-22.4,58.1-33.5l12.6-7.3c2.2-1.3.2-4.7-2-3.5h0Z"/>
  <path class="cls-1" d="M82.9,214.8c11.2-6.4,22.3-12.9,33.5-19.3,14.4-8.3,28.7-16.6,43.1-24.9,15.3-8.8,30.6-17.7,45.9-26.5,14-8.1,27.9-16.1,41.9-24.2,10.3-6,20.6-11.9,31-17.9l2.8-1.6c2.2-1.3.2-4.7-2-3.5-9.8,5.6-19.5,11.3-29.3,16.9-13.6,7.9-27.3,15.8-40.9,23.6l-45.7,26.4c-14.6,8.4-29.2,16.8-43.8,25.3l-34.9,20.1-3.4,2c-2.2,1.3-.2,4.7,2,3.5h0Z"/>
  <path class="cls-1" d="M82.9,189.3c9.3-5.4,18.6-10.8,27.9-16.1,14.5-8.4,28.9-16.7,43.4-25l48.9-28.3,44.6-25.7c10.1-5.8,20.2-11.7,30.4-17.5l2.2-1.3c2.2-1.3.2-4.7-2-3.5-9.3,5.4-18.6,10.8-27.9,16.1-14.5,8.3-28.9,16.7-43.4,25-16.3,9.4-32.6,18.8-48.9,28.3l-44.6,25.7-30.4,17.5-2.2,1.3c-2.2,1.3-.2,4.7,2,3.5h0Z"/>
  <path class="cls-1" d="M79.9,163.5v99.2c0,4.7,0,9.4,0,14,0,.1,0,.3,0,.4,0,2.6,4,2.6,4,0v-113.7c0-2.6-4-2.6-4,0h0Z"/>
  <g id="e">
    <path class="cls-1" d="M0,118v79.5c0,10.9-.1,21.9,0,32.8,0,2.3,1,4.2,3,5.5.7.5,1.5.9,2.3,1.3,2.1,1.2,4.2,2.4,6.3,3.6l18.3,10.6c13.2,7.6,26.4,15.3,39.6,22.9,2.2,1.3,4.4,2.5,6.6,3.8.8.5,1.6.9,2.4,1.4,2.3,1.3,4.5,1.2,6.8-.1,11.9-6.7,23.7-13.7,35.5-20.5,23.7-13.7,47.4-27.4,71.1-41,23.7-13.7,47.4-27.4,71.1-41,2.9-1.7,5.8-3.3,8.6-5s2.9-1.7,4.3-2.5c1.4-.8,3-1.5,4.2-2.7,2.1-2.1,1.7-5.2,1.7-7.9v-50.2c0-13.4,0-26.8,0-40.1v-14.7c0-1.6.2-3.3-.1-4.8-.6-3.2-3.5-4.4-5.9-5.9-12.1-7-24.1-13.9-36.2-20.9-11.6-6.7-23.3-13.4-34.9-20.1-1-.6-2-1.3-3.2-1.6-1.6-.4-3.2-.1-4.6.6-.3.1-.5.3-.8.4l-4.5,2.6-18.9,10.9c-9.5,5.5-19,11-28.5,16.5-11.3,6.5-22.6,13.1-34,19.6-11.8,6.8-23.5,13.6-35.3,20.4-10.8,6.2-21.5,12.4-32.3,18.6-8.3,4.8-16.7,9.6-25,14.4l-13.5,7.8c-2.3,1.3-4.1,2.9-4.2,5.9-.1,2.6,3.9,2.6,4,0,0-1.5,1.6-2.1,2.7-2.7l5.4-3.1c6.6-3.8,13.3-7.7,20-11.5,9.7-5.6,19.4-11.2,29-16.8,11.2-6.5,22.5-13,33.7-19.5,11.5-6.7,23.1-13.3,34.6-20,10.5-6,21-12.1,31.4-18.1,8.1-4.7,16.1-9.3,24.2-14l12.9-7.4c.3-.2.6-.4,1-.6,1.4-.7,2.5.2,3.7.9,4.7,2.7,9.4,5.4,14,8.1,13.5,7.8,26.9,15.5,40.4,23.3,5.3,3.1,10.6,6.1,15.9,9.2,1.4.8,4.7,2,4.9,3.8.2,1.4,0,3.1,0,4.5v14.7c0,26.3,0,52.7,0,79v9.7c0,1.6.2,3.3,0,4.8-.1,1.3-.9,1.7-2,2.3-5.8,3.4-11.7,6.7-17.5,10.1-11.7,6.7-23.4,13.5-35.1,20.2-23.3,13.4-46.6,26.9-69.9,40.3s-46.4,26.8-69.6,40.2c-1.1.6-1.8,1.1-3,.5-.4-.2-.7-.4-1.1-.6-.9-.5-1.7-1-2.6-1.5-2.3-1.3-4.6-2.6-6.8-3.9-6.2-3.6-12.5-7.2-18.7-10.8-12.8-7.4-25.6-14.8-38.5-22.2-2.1-1.2-4.1-2.4-6.2-3.6-.8-.4-1.8-.9-2.4-1.5-.7-.8-.5-1.9-.5-2.8v-111.1c0-2.6-4-2.6-4,0h0Z"/>
  </g>
  <g id="f">
    <path class="cls-1" d="M9.5,124.3c5.2,3,10.3,6,15.5,8.9l30.5,17.6c7.1,4.1,14.3,8.3,21.4,12.4.4.2.8.5,1.1.7,2.1,1.1,4.3,1,6.3-.2.5-.3,1-.6,1.5-.9,2.7-1.6,5.5-3.2,8.2-4.8,8.4-4.8,16.7-9.7,25.1-14.5,10.9-6.3,21.8-12.6,32.7-18.9,12-6.9,24-13.8,35.9-20.7l34.5-19.9,28.5-16.5c6-3.4,11.9-6.9,17.9-10.3.7-.4,1.5-.9,2.2-1.3,2.2-1.3.2-4.7-2-3.5-4.8,2.8-9.7,5.6-14.5,8.4-8.7,5-17.4,10-26.1,15.1-11.1,6.4-22.2,12.8-33.3,19.2-11.9,6.9-23.8,13.8-35.8,20.6-11.3,6.5-22.6,13-33.9,19.5-9.2,5.3-18.3,10.6-27.5,15.9-3.3,1.9-6.6,3.8-9.9,5.7-1.3.7-2.6,1.5-3.8,2.2-1.2.7-2.7,1.9-4.1,1.2-1.6-.8-3.2-1.8-4.8-2.8-3.8-2.2-7.5-4.3-11.3-6.5-10.1-5.8-20.2-11.7-30.3-17.5l-21.1-12.2-1.1-.6c-2.2-1.3-4.2,2.2-2,3.5h0Z"/>
  </g>
  <path class="cls-1" d="M204.1,209.6v-41.8c0-2.6-4-2.6-4,0v41.8c0,2.6,4,2.6,4,0h0Z"/>
  <path class="cls-2" d="M229.1,194.8v34.2l4.1,2.4c1.5.9,3.5.9,5,0l4.5-2.6v-41.8"/>
  <path class="cls-1" d="M227.1,194.8v32.5c0,1.5,0,2.8,1.3,3.6.8.5,1.6.9,2.4,1.4,2.2,1.3,4.5,2.3,7.1,1.3,1.7-.6,3.2-1.7,4.8-2.6.9-.5,1.7-.9,1.9-2,.3-1.7,0-3.6,0-5.3v-36.7c0-2.6-4-2.6-4,0v41.8l1-1.7-2.6,1.5c-.9.5-1.9,1.3-3,1.5-1.2.2-2.3-.5-3.3-1.1l-2.8-1.6,1,1.7v-34.2c0-2.6-4-2.6-4,0h0Z"/>
  <path class="cls-1" d="M156.4,237.2v-40.8c0-2.6-4-2.6-4,0v40.8c0,2.6,4,2.6,4,0h0Z"/>
  <path class="cls-2" d="M184.7,211.7v41.7l4.1,2.4c1.5.9,3.5.9,5,0l4.5-2.6v-41.8"/>
  <path class="cls-1" d="M182.7,211.7v38.9c0,1-.1,2.1,0,3.1.2,1.2,1.2,1.6,2.1,2.1,1.9,1.1,3.8,2.5,6.1,2.6,2.5.2,4.4-1.2,6.5-2.4.6-.4,1.3-.7,1.9-1.1,1.5-1,1-3.5,1-5.1v-38.4c0-2.6-4-2.6-4,0v41.8l1-1.7-2.6,1.5c-.9.5-1.9,1.3-3,1.5-1.2.2-2.3-.5-3.3-1.1l-2.8-1.6,1,1.7v-41.7c0-2.6-4-2.6-4,0h0Z"/>
  <g id="j">
    <path class="cls-2" d="M153.6,186l52.8-30.5c1.2-.7,2.8-.7,4,0,9.5,5.5,29.4,17,34,19.7.6.4,1,1,1,1.7v7.5c0,.7-.4,1.4-1,1.7-23.5,13.6-46.8,27-53.6,30.9-1.2.7-2.8.7-4,0-6.7-3.9-28.3-16.4-33.3-19.2-.6-.4-1-1-1-1.7v-8.3c0-.7.4-1.4,1-1.7h0Z"/>
  </g>
  <g id="k">
    <path class="cls-1" d="M234.4,178.8c-9.1,5.2-18.2,10.5-27.3,15.7l-15,8.6c-.8.5-1.9,1.4-2.9,1.5-.8.1-1.5-.4-2.2-.8l-3.1-1.8c-5.4-3.1-10.8-6.2-16.1-9.3-2.2-1.3-4.2,2.2-2,3.5,4.8,2.8,9.6,5.6,14.5,8.3,1.9,1.1,3.7,2.2,5.6,3.2,2.4,1.3,4.7.8,7-.5,10.7-6.2,21.5-12.4,32.2-18.6,3.8-2.2,7.6-4.4,11.3-6.5,2.2-1.3.2-4.7-2-3.5h0Z"/>
  </g>
  <g id="l">
    <path class="cls-1" d="M154.6,187.7c8.8-5.1,17.5-10.1,26.3-15.2l18.1-10.4c2.8-1.6,5.6-3.5,8.5-4.9,1.7-.8,3.8,1.1,5.3,1.9,2,1.2,4.1,2.3,6.1,3.5,4.5,2.6,9,5.2,13.5,7.8,3.4,1.9,6.7,3.9,10.1,5.8.3.2,1,.4,1.1.6.1.2,0,1,0,1.2v5.1c0,.2.1.9,0,1.1-.2.4-1.3.8-1.7,1-.9.5-1.7,1-2.6,1.5-3.3,1.9-6.5,3.8-9.8,5.7-6,3.5-12,6.9-18,10.4-4.6,2.7-9.3,5.4-13.9,8-1.7,1-3.4,1.9-5,2.9-1.3.8-2.9,2.2-4.4,1.4-1.4-.7-2.7-1.6-4-2.3-1.8-1-3.6-2.1-5.4-3.1-4.1-2.3-8.1-4.7-12.2-7-3.3-1.9-6.7-3.9-10-5.8-.4-.2-1.1-.5-1.4-.8-.3-.3-.2-.2-.2-.7v-4.9c0-.3-.2-2.7,0-2.8,2.1-1.5,0-4.9-2-3.5-1.8,1.3-2,3-2,5v5.4c0,2,.2,3.7,2.1,4.9,1.2.7,2.4,1.4,3.6,2.1,8.1,4.7,16.2,9.3,24.2,14,1.5.9,3.1,1.8,4.6,2.7,2.5,1.4,4.8,1.6,7.3.1,3.5-2,7-4,10.5-6.1,12-6.9,24.1-13.9,36.1-20.8,1.7-1,3.4-2,5.2-3,1.6-.9,3.1-1.8,3.3-3.9.1-1.4,0-2.8,0-4.2s.2-3.1-.1-4.5c-.5-2.1-2.4-2.9-4.1-3.8-8.5-4.9-17-9.8-25.5-14.8-2-1.1-3.9-2.3-5.9-3.4-2.1-1.2-4.3-1.4-6.5-.2-1.1.6-2.1,1.2-3.1,1.8l-16.3,9.4-32.7,18.9-.6.4c-2.2,1.3-.2,4.7,2,3.5h0Z"/>
  </g>
</svg>