<?xml version="1.0" encoding="UTF-8"?>
<svg id="_レイヤー_1" data-name="レイヤー 1" xmlns="http://www.w3.org/2000/svg" version="1.1" viewBox="0 0 351.7 302.5">
  <defs>
    <style>
      .cls-1 {
        fill: #febe69;
      }

      .cls-1, .cls-2, .cls-3, .cls-4 {
        stroke-width: 0px;
      }

      .cls-2 {
        fill: #211715;
      }

      .cls-3 {
        fill: #5199d1;
      }

      .cls-5 {
        fill: #7abee6;
        stroke: #000;
        stroke-width: 5px;
      }

      .cls-5, .cls-6 {
        stroke-miterlimit: 10;
      }

      .cls-6 {
        stroke: #211715;
        stroke-width: 6px;
      }

      .cls-6, .cls-4 {
        fill: #fff;
      }
    </style>
  </defs>
  <rect class="cls-4" x="216.8" y="156.9" width="101.7" height="134.6"/>
  <path class="cls-4" d="M292.9,261.8l1.1-13.2c0-.4,0-.7.2-1l17.4,10.1c-.2.3-.5.5-.8.7l-17.2,12c-.4.3-1,.2-1.3-.2-.1-.2-.2-.4-.2-.6l.7-7.7Z"/>
  <path class="cls-2" d="M318.5,154.1h-89.2c-4.1,0-8.2-.2-12.3,0h-.2c-1.5,0-2.8,1.3-2.8,2.8v118.1c0,5.4-.2,10.9,0,16.3v.2c0,1.5,1.3,2.8,2.8,2.8h89.2c4.1,0,8.2.2,12.3,0h.2c1.5,0,2.8-1.3,2.8-2.8v-118.1c0-5.4.2-10.9,0-16.3v-.2c0-3.6-5.6-3.6-5.6,0v129.2c0,1.7-.2,3.5,0,5.3,0,0,0,.2,0,.2l2.8-2.8h-97.6c-1.3,0-2.7-.1-4,0,0,0-.1,0-.2,0l2.8,2.8v-129.1c0-1.7.2-3.5,0-5.3v-.2l-2.8,2.8h89.2c4.1,0,8.2.2,12.3,0h.2c3.6,0,3.6-5.6,0-5.6Z"/>
  <path class="cls-2" d="M238.2,192.3h56.9c3.6,0,3.6-5.6,0-5.6h-1.6c-3.6,0-3.6,5.6,0,5.6h1.6c3.6,0,3.6-5.6,0-5.6h-56.9c-3.6,0-3.6,5.6,0,5.6Z"/>
  <path class="cls-2" d="M238.2,214.4h56.9c3.6,0,3.6-5.6,0-5.6h-1.6c-3.6,0-3.6,5.6,0,5.6h1.6c3.6,0,3.6-5.6,0-5.6h-56.9c-3.6,0-3.6,5.6,0,5.6Z"/>
  <path class="cls-3" d="M325.3,196.8c-1.3.2-2.5,1.1-3.2,2.2l-27.4,47.5c-.2.3-.3.7-.4,1l17.4,10c.3-.3.5-.6.7-.9l22.8-39.5,4.6-8c1.3-2.2.5-5-1.7-6.3l-9.6-5.5c-.9-.5-2.1-.7-3.1-.5Z"/>
  <path class="cls-2" d="M238.2,236.4h29.3c3.6,0,3.6-5.6,0-5.6h-1.6c-3.6,0-3.6,5.6,0,5.6h1.6c3.6,0,3.6-5.6,0-5.6h-29.3c-3.6,0-3.6,5.6,0,5.6Z"/>
  <path class="cls-2" d="M294.1,250.7l14.9,8.6c1.3.8,3.1.3,3.9-1s.3-3.1-1-3.9l-14.9-8.6c-1.3-.8-3.1-.3-3.9,1-.8,1.3-.3,3.1,1,3.9Z"/>
  <path class="cls-2" d="M292.5,266.6l.5-6.2,8.1,4.7-7.5,5.2c-.4.3-1,.2-1.3-.2-.1-.2-.2-.4-.2-.6l.2-2.8Z"/>
  <path class="cls-2" d="M301.9,262.2l-6.6-3.8c-.7-.4-1.4-.5-2.2-.3-1.5.4-2.4,2-2,3.5.2.7.7,1.3,1.3,1.7l6.6,3.8c.7.4,1.4.5,2.2.3,1.5-.4,2.4-2,2-3.5-.2-.7-.7-1.3-1.3-1.7h0Z"/>
  <path class="cls-2" d="M337.6,218.7c1.5-2.5,2.9-5,4.4-7.6,2.3-3.6,1.2-8.4-2.5-10.7-.2-.1-.4-.2-.6-.3-2.9-1.6-5.7-3.3-8.6-4.9-3.6-2.2-8.3-1.2-10.5,2.4,0,0,0,.1-.1.2-2.3,3.8-4.5,7.8-6.7,11.6l-11.7,20.2-8.3,14.4c-.9,1.5-1.5,3.2-1.7,5-.3,3-.5,5.9-.8,8.9l-.9,10.2c-.3,1.2-.1,2.4.5,3.5,2.6,4.2,7.3-.4,9.9-2.2l10-7c1.8-1.3,3.7-2.4,4.9-4.4.9-1.4,1.7-2.9,2.5-4.4l19.7-34.1.5-.8c1.8-3.2-3.1-6-4.9-2.8l-9.9,17.2-12.4,21.4c-.1.3-.3.5-.4.8-.8,1.2-2.4,2-3.6,2.8l-7.2,5-3.6,2.5c-1.1.9-2.4,1.8-3.7,2.5l1.4-.4h0l1.2.7h0c0,0,.4,1.5.4,1.5,0-1.1,0-2.1.2-3.1l.6-6.6.6-7.1c.1-1.4.1-2.8.4-4.2.4-1.3,1.1-2.6,1.9-3.7l5.3-9.2,14.3-24.8,5-8.6c.9-1.5,1.6-3.6,3.7-2.6,1.7.8,3.2,1.9,4.8,2.8,1.5.9,3.2,1.7,4.6,2.7,1.4,1,.9,2.1.2,3.4l-3.3,5.8-.8,1.3c-1.8,3.2,3.1,6,4.9,2.8Z"/>
  <path class="cls-4" d="M312,50c-9.6-8.6-23.3-14-39.4-14-8.7,0-17.2,1.6-25.2,5-2.3,1.1-3.1.8-3.7.7l-1.9-.5c-2.9-.9-5.9-1.6-8.9-2-2.6-.4-5.2-.6-7.8-.6-1.3,0-2.4,1.2-2.3,2.5,0,.3,0,.5.2.8,1.2,3.4,5.1,12.2,5.1,12.2.5.9.4,2-.3,2.7-3.2,3.7-7.5,9.6-8.4,10.9l-1.3,1.9c-.4.5-.9.9-1.5,1-1.1.2-2.1.5-3.2.7-.6,0-1.2.3-1.7.7-.6.4-.9,1.1-1,1.8-.9,9.6-1.7,19.4.5,28.8,0,.3.2.6.4.9.3.2.6.3.9.4,2.4.6,4.9,1,7.4,1.2.8,0,2.5.2,3.3,1.5h0c7.9,16.1,25.8,24.7,49.6,24.7,38.2,0,54.6-18.4,54.6-48.1,0-12.7-5.6-24.8-15.2-33.2Z"/>
  <path class="cls-2" d="M329.5,75.9c0,0,.8-.7.5-.4.3-.2.5-.4.8-.5.1,0,1-.4.4-.2.3,0,.5-.2.8-.2.1,0,.3,0,.4,0,.3,0,.3,0-.1,0,.3,0,.5,0,.8,0,.2,0,.3,0,.5,0-.3,0-.3,0,0,0,.1,0,.3,0,.4,0,.3,0,.2,0-.2-.1.2.1.4.3.6.3.2.2.2.1,0,0,.1,0,.2.2.3.3,0,0,.2.2.3.3-.2-.3-.2-.3,0,0-.1-.3-.1-.3,0,0,0,.3,0,.3,0-.1,0,.1,0,.3,0,.4,0-.4,0-.4,0-.1,0,.3,0,.2,0-.1-.2.2-.1.2,0,0-.2.2-.2.2,0,0-.3.1-.2.1.1,0-.5.1.6,0-.1,0-.2,0-.1,0,.2,0-.3,0-.2,0,.1,0-.1,0-.2-.1-.3-.2.3.2.3.2.1,0,.2.3.3.3.1,0,.1.3.1.3,0,0,0,.3,0,.3,0,0,0-.3,0-.3,0,0,0-.2,0-.3.1-.4-.1.3,0,.2,0,0,0-.1.2-.3.2-.4-.2.2-.2.2,0,0,0,0,.8-.7.3-.4.2-.2.5-.4.8-.5.3-.2,1-.8,1.3-.7-.4.1-.4.2-.1,0,.1,0,.2,0,.3-.1.2,0,.5-.1.7-.2.1,0,1-.3.3,0,.3,0,.6,0,.8,0,.7,0,1.3,0,2,0,1.4,0,2.6-1.2,2.6-2.6,0-1.4-1.2-2.6-2.6-2.6-2.7-.2-5.5.4-7.9,1.8-1.5.8-2.7,2-3.5,3.4-.9,1.8-1,3.9,0,5.7,1.4,2.3,4.4,3.1,6.8,1.7.8-.5,1.4-1.1,1.8-1.9,1.6-3.4-.6-6.9-3.8-8.1-3.5-1.3-7.2.3-9.8,2.6-1,1-1,2.7,0,3.7,1,1,2.7,1,3.7,0h0Z"/>
  <path class="cls-2" d="M244.5,127.4c.1,1,.6,2,1.4,2.7.4.5.8.9,1.3,1.3,1.1,1,2.4,1.7,3.8,2.1,2.6.7,5.3.6,7.8-.3,1.4-.4,2.2-1.8,1.8-3.2-.4-1.4-1.8-2.2-3.2-1.8-.4.1-.9.3-1.3.4h-.3c0,0-.6.2-.2.1.4,0,0,0,0,0-.1,0-.2,0-.4,0-.5,0-.9,0-1.4,0-.1,0-.2,0-.4,0,0,0-.5,0,0,0s0,0,0,0c-.1,0-.3,0-.4,0-.2,0-.4-.1-.7-.2s-.2,0-.3-.1c-.6-.2-1.3,0-1.5.7s0,1.3.7,1.5,1.3,0,1.5-.7c.2-.5,0-1.1-.5-1.4-.4-.3-.8-.4-1.2-.7-.3-.2,0,0,0,0,0,0-.2-.2-.3-.2-.2-.2-.4-.4-.6-.6-.2-.2-.3-.4-.5-.5-.2-.3.3.4,0,.1,0-.1-.2-.2-.2-.3l.4,1.3h0c0-1.5-1.2-2.6-2.6-2.6-1.4,0-2.6,1.2-2.6,2.6h0Z"/>
  <path class="cls-2" d="M292.2,132.4c3.1,1.2,6.5,1.3,9.7,0,2.9-1.2,5.1-3.6,6-6.7.4-1.4-.4-2.8-1.8-3.2-1.4-.4-2.8.5-3.2,1.8,0,.2-.1.3-.2.5,0,.3.2-.4,0,0-.1.3-.2.5-.4.8,0,.1-.2.3-.3.4-.2.3.3-.4,0,0-.2.2-.3.4-.5.6-.2.2-.4.3-.6.5-.2.2.4-.3,0,0,0,0-.2.1-.3.2-.2.2-.5.3-.7.4,0,0-.2,0-.3.2-.4.2.4-.1.1,0-.5.1-1,.3-1.5.4-.4,0,.5,0,.1,0-.2,0-.3,0-.5,0-.3,0-.6,0-.9,0s-.6,0-1,0c-.3,0-.2,0,0,0-.2,0-.4,0-.5,0-.7-.1-1.4-.4-2.1-.6-1.4-.4-2.8.4-3.2,1.8-.3,1.4.5,2.8,1.8,3.2h0Z"/>
  <path class="cls-2" d="M239,66.9c-2.7,0-4.6,2.4-4.6,5.3s1.8,5.4,4.6,5.4c2.9,0,4.6-2.1,4.6-5.4,0-2.9-1.9-5.3-4.6-5.3Z"/>
  <path class="cls-2" d="M313.9,48.2c-10.5-9.3-24-14.1-37.9-14.7-7.9-.4-15.8.6-23.4,2.9-1.6.5-3.1,1-4.6,1.7-.8.3-1.6.7-2.4,1-.3.1-.6.2-.9.3.6,0-.7-.2.2,0-2.2-.6-4.5-1.3-6.7-1.8-3.9-1-8-1.5-12-1.6-2,0-3.9.4-5.1,2.2-.9,1.4-1.1,3.2-.5,4.7.9,2.5,2,4.9,3,7.3.4,1,.8,2,1.3,3,.4.7.7,1.3.9,2,0,.3,0,0,0-.1-.3.5-.6.9-1.1,1.3-1.2,1.4-2.3,2.9-3.4,4.3-1.4,1.9-2.9,3.7-4.2,5.7-.3.4-.5.8-.8,1.2-.4.7-.5.6-1.4.8-1.8.4-3.8.6-5.2,1.9-1.7,1.5-1.8,3.6-1.9,5.7-.2,2.2-.4,4.5-.5,6.7-.3,4.1-.3,8.3,0,12.4.2,1.9.4,3.9.7,5.8.4,2.2.7,4.5,3,5.4,1.8.6,3.7,1,5.5,1.2.9.1,1.8.2,2.7.3.6,0,1.1,0,1.4.2.6.5,1.1,2.1,1.6,2.8.7,1.1,1.4,2.2,2.2,3.3,7.1,9.5,17.8,15.2,29.2,17.9,12.9,2.9,26.3,2.9,39.2,0,9.6-2.2,18.9-6.6,25.6-14,6.4-7.2,9.7-16.2,10.9-25.6.8-5.9.7-11.9-.3-17.8-1.3-6.7-4.1-13-8.1-18.5-2.1-2.8-4.4-5.4-7-7.8-2.5-2.2-6.2,1.4-3.7,3.7,5.5,4.8,9.6,10.9,12.1,17.7,2.1,6.3,2.8,13,2.1,19.6-.8,9.5-4,19-10.5,25.9-7.3,7.7-17.6,11.4-28.2,12.9-7,1-14,1.1-21,.5-6.6-.5-13.2-2-19.3-4.6-5.4-2.2-10.3-5.6-14.3-9.8-1.9-2.1-3.6-4.3-5-6.8-.8-1.4-1.4-2.9-2.9-3.8-1.5-.9-3.4-.8-5.1-1.1-.9-.1-1.8-.3-2.8-.5-.9,0-1.9-.3-2.7-.7l.9.9c-.6-.8-.7-3.1-.9-4.3-.2-1.6-.4-3.3-.4-4.9-.1-3.4-.1-6.9.1-10.3.1-1.7.2-3.4.4-5.2,0-.9.1-1.7.2-2.6,0-.5,0-.7.2-.8.7-.3,1.4-.5,2.1-.5.7-.1,1.5-.3,2.2-.5,1.5-.6,2.7-1.8,3.4-3.2,2.3-3.4,4.7-6.6,7.3-9.8.9-1.1,2.1-2.2,2.4-3.7.2-1.3,0-2.6-.6-3.7-.5-1.2-1.1-2.4-1.6-3.6-.8-1.9-1.6-3.7-2.3-5.5-.3-.8-.7-1.6-.9-2.4,0,0,0,0,0,0,0,.2-1.1,0,.3,0,.5,0,1,0,1.5,0,5.5.2,10.7,1.7,16,3.1,2.2.5,3.9-.2,5.9-1,2.8-1.2,5.6-2.1,8.6-2.8,6.2-1.5,12.6-2.1,18.9-1.7,12.3.7,24.5,4.9,33.8,13.2,2.5,2.2,6.2-1.5,3.7-3.7Z"/>
  <path class="cls-1" d="M257.7,26.9c-2.7,4.1-4.2,8.9-4.2,13.8,0,2.7.4,5.4,1.3,7.9,12.6-2.9,31.6-1.8,45.3,4.5,6.9-12,2.8-27.2-9.2-34.1-11.4-6.6-26-3.2-33.3,7.8h0Z"/>
  <path class="cls-2" d="M256.7,45.8c-2.8-12.1,4.8-24.1,16.8-26.8,12.1-2.8,24.1,4.8,26.8,16.8,1.1,4.8.6,9.9-1.5,14.4-.7,1.2-.3,2.8.9,3.6,1.2.7,2.8.3,3.6-.9,6.4-13.3,1.2-29.2-11.7-36.3-12.2-6.5-27.3-3-35.5,8.1-4.7,6.5-6.3,14.7-4.5,22.5.7,3.3,5.8,1.9,5-1.4h0Z"/>
  <path class="cls-2" d="M286.8,31h.2c0,0-.6-.2-.6-.2.6.3,1.3.6,1.8,1.1l-.5-.4c.6.5,1.2,1.1,1.7,1.7l-.4-.5c.6.8,1.1,1.6,1.5,2.5l-.3-.6c0,.1.1.3.2.4.2.6.6,1.2,1.2,1.6.6.3,1.3.4,2,.3.7-.2,1.2-.6,1.6-1.2.4-.6.5-1.3.3-2-.6-1.7-1.6-3.3-2.8-4.7-.6-.6-1.3-1.2-2-1.7-.7-.5-1.5-.9-2.3-1.2-.7-.2-1.4,0-2,.3-1.2.7-1.7,2.3-.9,3.6l.4.5c.3.3.7.6,1.1.7h0Z"/>
  <path class="cls-2" d="M306.6,53.8c-6.6-4-14-6.7-21.7-7.8-7.5-1.4-15.2-1.7-22.8-1-4.2.3-8.3,1.2-12.3,2.4-3.2,1.1-1.8,6.1,1.4,5,6.5-2,13.3-2.9,20.1-2.6,7.3.1,14.6,1.3,21.6,3.4,3.9,1.2,7.6,2.9,11,5,2.8,1.8,5.5-2.7,2.6-4.5,0,0,0,0,0,0Z"/>
  <path class="cls-4" d="M139.4,141.6h17.2c1.8,0,3.2,1.4,3.2,3.2v10c0,1.8-1.4,3.2-3.2,3.2h-17.2c-1.8,0-3.2-1.4-3.2-3.2v-10c0-1.8,1.4-3.2,3.2-3.2Z"/>
  <path class="cls-4" d="M139.4,207.7h17.2c1.8,0,3.2,1.4,3.2,3.2v10c0,1.8-1.4,3.2-3.2,3.2h-17.2c-1.8,0-3.2-1.4-3.2-3.2h0v-10c0-1.8,1.4-3.2,3.2-3.2h0Z"/>
  <path class="cls-4" d="M101.2,207.7h17.2c1.8,0,3.2,1.4,3.2,3.2v10c0,1.8-1.4,3.2-3.2,3.2h-17.2c-1.8,0-3.2-1.4-3.2-3.2v-10c0-1.8,1.4-3.2,3.2-3.2h0Z"/>
  <path class="cls-4" d="M63.1,207.7h17.2c1.8,0,3.2,1.4,3.2,3.2v10c0,1.8-1.4,3.2-3.2,3.2h-17.2c-1.8,0-3.2-1.4-3.2-3.2v-10c0-1.8,1.4-3.2,3.2-3.2t0,0Z"/>
  <path class="cls-4" d="M139.4,174.7h17.2c1.8,0,3.2,1.4,3.2,3.2v10c0,1.8-1.4,3.2-3.2,3.2h-17.2c-1.8,0-3.2-1.4-3.2-3.2v-10c0-1.8,1.4-3.2,3.2-3.2h0Z"/>
  <path class="cls-4" d="M101.2,174.7h17.2c1.8,0,3.2,1.4,3.2,3.2v10c0,1.8-1.4,3.2-3.2,3.2h-17.2c-1.8,0-3.2-1.4-3.2-3.2v-10c0-1.8,1.4-3.2,3.2-3.2h0Z"/>
  <path class="cls-4" d="M63.1,174.7h17.2c1.8,0,3.2,1.4,3.2,3.2v10c0,1.8-1.4,3.2-3.2,3.2h-17.2c-1.8,0-3.2-1.4-3.2-3.2v-10c0-1.8,1.4-3.2,3.2-3.2h0Z"/>
  <path class="cls-4" d="M101.2,141.6h17.2c1.8,0,3.2,1.4,3.2,3.2v10c0,1.8-1.4,3.2-3.2,3.2h-17.2c-1.8,0-3.2-1.4-3.2-3.2v-10c0-1.8,1.4-3.2,3.2-3.2h0Z"/>
  <rect class="cls-6" x="35.8" y="63.3" width="148.9" height="185.1" rx="6.3" ry="6.3"/>
  <path class="cls-4" d="M63.1,141.6h17.2c1.8,0,3.2,1.4,3.2,3.2h0v10c0,1.8-1.4,3.2-3.2,3.2h-17.2c-1.8,0-3.2-1.4-3.2-3.2h0v-10c0-1.8,1.4-3.2,3.2-3.2h0Z"/>
  <g>
    <rect class="cls-4" x="58.5" y="140.2" width="26.6" height="19.3" rx="3.8" ry="3.8"/>
    <path class="cls-2" d="M81.2,142.7c.7,0,1.3.6,1.3,1.3v11.7c0,.7-.6,1.3-1.3,1.3h-18.9c-.7,0-1.3-.6-1.3-1.3v-11.7c0-.7.6-1.3,1.3-1.3h18.9M81.2,137.7h-18.9c-3.5,0-6.3,2.8-6.3,6.3v11.7c0,3.5,2.8,6.3,6.3,6.3h18.9c3.5,0,6.3-2.8,6.3-6.3v-11.7c0-3.5-2.8-6.3-6.3-6.3h0Z"/>
  </g>
  <g>
    <rect class="cls-4" x="96.9" y="140.2" width="26.6" height="19.3" rx="3.8" ry="3.8"/>
    <path class="cls-2" d="M119.7,142.7c.7,0,1.3.6,1.3,1.3v11.7c0,.7-.6,1.3-1.3,1.3h-18.9c-.7,0-1.3-.6-1.3-1.3v-11.7c0-.7.6-1.3,1.3-1.3h18.9M119.7,137.7h-18.9c-3.5,0-6.3,2.8-6.3,6.3v11.7c0,3.5,2.8,6.3,6.3,6.3h18.9c3.5,0,6.3-2.8,6.3-6.3v-11.7c0-3.5-2.8-6.3-6.3-6.3h0Z"/>
  </g>
  <g>
    <rect class="cls-4" x="135.4" y="140.2" width="26.6" height="19.3" rx="3.8" ry="3.8"/>
    <path class="cls-2" d="M158.2,142.7c.7,0,1.3.6,1.3,1.3v11.7c0,.7-.6,1.3-1.3,1.3h-18.9c-.7,0-1.3-.6-1.3-1.3v-11.7c0-.7.6-1.3,1.3-1.3h18.9M158.2,137.7h-18.9c-3.5,0-6.3,2.8-6.3,6.3v11.7c0,3.5,2.8,6.3,6.3,6.3h18.9c3.5,0,6.3-2.8,6.3-6.3v-11.7c0-3.5-2.8-6.3-6.3-6.3h0Z"/>
  </g>
  <g>
    <rect class="cls-4" x="58" y="174.3" width="26.6" height="19.3" rx="3.8" ry="3.8"/>
    <path class="cls-2" d="M80.8,176.8c.7,0,1.3.6,1.3,1.3v11.7c0,.7-.6,1.3-1.3,1.3h-18.9c-.7,0-1.3-.6-1.3-1.3v-11.7c0-.7.6-1.3,1.3-1.3h18.9M80.8,171.8h-18.9c-3.5,0-6.3,2.8-6.3,6.3v11.7c0,3.5,2.8,6.3,6.3,6.3h18.9c3.5,0,6.3-2.8,6.3-6.3v-11.7c0-3.5-2.8-6.3-6.3-6.3h0Z"/>
  </g>
  <g>
    <rect class="cls-4" x="96.5" y="174.3" width="26.6" height="19.3" rx="3.8" ry="3.8"/>
    <path class="cls-2" d="M119.2,176.8c.7,0,1.3.6,1.3,1.3v11.7c0,.7-.6,1.3-1.3,1.3h-18.9c-.7,0-1.3-.6-1.3-1.3v-11.7c0-.7.6-1.3,1.3-1.3h18.9M119.2,171.8h-18.9c-3.5,0-6.3,2.8-6.3,6.3v11.7c0,3.5,2.8,6.3,6.3,6.3h18.9c3.5,0,6.3-2.8,6.3-6.3v-11.7c0-3.5-2.8-6.3-6.3-6.3h0Z"/>
  </g>
  <g>
    <rect class="cls-4" x="135" y="174.3" width="26.6" height="19.3" rx="3.8" ry="3.8"/>
    <path class="cls-2" d="M157.7,176.8c.7,0,1.3.6,1.3,1.3v11.7c0,.7-.6,1.3-1.3,1.3h-18.9c-.7,0-1.3-.6-1.3-1.3v-11.7c0-.7.6-1.3,1.3-1.3h18.9M157.7,171.8h-18.9c-3.5,0-6.3,2.8-6.3,6.3v11.7c0,3.5,2.8,6.3,6.3,6.3h18.9c3.5,0,6.3-2.8,6.3-6.3v-11.7c0-3.5-2.8-6.3-6.3-6.3h0Z"/>
  </g>
  <g>
    <rect class="cls-4" x="57.6" y="208.4" width="26.6" height="19.3" rx="3.8" ry="3.8"/>
    <path class="cls-2" d="M80.3,210.9c.7,0,1.3.6,1.3,1.3v11.7c0,.7-.6,1.3-1.3,1.3h-18.9c-.7,0-1.3-.6-1.3-1.3v-11.7c0-.7.6-1.3,1.3-1.3h18.9M80.3,205.9h-18.9c-3.5,0-6.3,2.8-6.3,6.3v11.7c0,3.5,2.8,6.3,6.3,6.3h18.9c3.5,0,6.3-2.8,6.3-6.3v-11.7c0-3.5-2.8-6.3-6.3-6.3h0Z"/>
  </g>
  <g>
    <rect class="cls-4" x="96.1" y="208.4" width="26.6" height="19.3" rx="3.8" ry="3.8"/>
    <path class="cls-2" d="M118.8,210.9c.7,0,1.3.6,1.3,1.3v11.7c0,.7-.6,1.3-1.3,1.3h-18.9c-.7,0-1.3-.6-1.3-1.3v-11.7c0-.7.6-1.3,1.3-1.3h18.9M118.8,205.9h-18.9c-3.5,0-6.3,2.8-6.3,6.3v11.7c0,3.5,2.8,6.3,6.3,6.3h18.9c3.5,0,6.3-2.8,6.3-6.3v-11.7c0-3.5-2.8-6.3-6.3-6.3h0Z"/>
  </g>
  <g>
    <rect class="cls-4" x="134.5" y="208.4" width="26.6" height="19.3" rx="3.8" ry="3.8"/>
    <path class="cls-2" d="M157.3,210.9c.7,0,1.3.6,1.3,1.3v11.7c0,.7-.6,1.3-1.3,1.3h-18.9c-.7,0-1.3-.6-1.3-1.3v-11.7c0-.7.6-1.3,1.3-1.3h18.9M157.3,205.9h-18.9c-3.5,0-6.3,2.8-6.3,6.3v11.7c0,3.5,2.8,6.3,6.3,6.3h18.9c3.5,0,6.3-2.8,6.3-6.3v-11.7c0-3.5-2.8-6.3-6.3-6.3h0Z"/>
  </g>
  <rect class="cls-5" x="56" y="86" width="108.5" height="33.8" rx="6.3" ry="6.3"/>
</svg>