<svg xmlns="http://www.w3.org/2000/svg" width="281.18" height="188.034" viewBox="0 0 281.18 188.034"><defs><style>.a{fill:#fff;}.b{fill:#a98a75;}.c{fill:#3d8dcc;}.d{fill:#211715;}</style></defs><path class="a" d="M178.257,11.511V5.188a2.671,2.671,0,0,0-2.672-2.671H20.659a2.671,2.671,0,0,0-2.672,2.671V185.634h160.27V11.511Z"/><path class="b" d="M17.987,125.984v59.65h43.3c0-16.357,0-42.764,0-60.124a2.665,2.665,0,0,0-2.673-2.662H17.987Z"/><rect class="c" x="103.827" y="51.122" width="53.665" height="24.315" rx="2.004"/><path class="d" d="M155.489,48.722H107.523c-2.151,0-4.316.086-5.544,2.272a6.186,6.186,0,0,0-.552,3.2V72.36a6.193,6.193,0,0,0,.552,3.2c1.248,2.221,3.422,2.272,5.594,2.272h44.988c.972,0,1.956.042,2.928,0a4.512,4.512,0,0,0,4.4-4.546c.026-.857,0-1.719,0-2.576,0-5.807.173-11.642,0-17.446a4.521,4.521,0,0,0-4.4-4.547,2.42,2.42,0,0,0-2.4,2.4,2.447,2.447,0,0,0,2.4,2.4c-.416-.033-.294-.528-.4-.253a3.256,3.256,0,0,0,0,.93V71.835c0,.181-.15,1.474,0,1.6-.382-.314.938-.33-.043-.4-.55-.037-1.116,0-1.667,0H107.331a5.2,5.2,0,0,0-1.336,0c-.032.01-.143-.023-.164,0,.363-.4.226.778.4.2a10.207,10.207,0,0,0,0-2.525V61.294c0-2.543.186-5.165,0-7.7-.067-.919-.022.143-.336-.07.182.123.877,0,1.089,0h48.509C158.577,53.522,158.582,48.722,155.489,48.722Z"/><path class="d" d="M20.387,185.629V6.513c0-.493-.182-1.426.275-1.6a8.043,8.043,0,0,1,2.293,0H171.337c1.27,0,2.583-.1,3.85,0,.3.022.534-.095.692.21a3.008,3.008,0,0,1-.022.755V106.038c0,3.089,4.8,3.094,4.8,0V10.827c0-1.749.015-3.5,0-5.25a5.257,5.257,0,0,0-5.363-5.46c-3.658-.05-7.32,0-10.977,0H28.655a68.575,68.575,0,0,0-8.65.063,5.139,5.139,0,0,0-4.418,5.111c-.009.3,0,.606,0,.908v179.43c0,3.088,4.8,3.093,4.8,0Z"/><path class="d" d="M31.909,21.364h132.42c3.089,0,3.094-4.8,0-4.8H31.909c-3.089,0-3.094,4.8,0,4.8Z"/><path class="d" d="M17.986,125.248H56.343a8.851,8.851,0,0,1,2.218,0c.674.2.322,2.473.322,3.121v38.57c0,6.125-.166,12.276,0,18.4,0,.1,0,.2,0,.3,0,3.088,4.8,3.094,4.8,0V129.477c0-1.818.31-4.124-.387-5.848-1.478-3.656-5.3-3.181-8.472-3.181h-12.8c-7.862,0-15.737-.135-23.6,0-.148,0-.3,0-.442,0-3.089,0-3.094,4.8,0,4.8Z"/><path class="d" d="M2.318,188.034H178.257c3.089,0,3.094-4.8,0-4.8H2.318c-3.088,0-3.093,4.8,0,4.8Z"/><path class="d" d="M271.231,111.644q.852.924,1.634,1.906l.191.243c.2.248-.28-.373-.09-.117.124.167.251.332.374.5q.4.535.772,1.086a39.561,39.561,0,0,1,2.622,4.427,2.417,2.417,0,0,0,3.283.861,2.458,2.458,0,0,0,.861-3.284,40.162,40.162,0,0,0-6.253-9.016,2.42,2.42,0,0,0-3.394,0,2.452,2.452,0,0,0,0,3.394Z"/><path class="d" d="M263.152,118.04a58.219,58.219,0,0,1,4.788,6.926,75.22,75.22,0,0,1,4.081,8.007,2.416,2.416,0,0,0,3.284.861,2.459,2.459,0,0,0,.861-3.283,69.12,69.12,0,0,0-9.62-15.9,2.415,2.415,0,0,0-3.394,0,2.455,2.455,0,0,0,0,3.394Z"/><path class="a" d="M247.544,154.9a9.414,9.414,0,0,0,7.768-6.931,21.016,21.016,0,0,0-.435-8.928,55.259,55.259,0,0,0-2.677-8.958,25.509,25.509,0,0,0-5.8-7.741c-3.815-3.454-5.759-4.289-10.152-6.268-6.954-2.371-11.227-2.77-18.652-2.833s-21.69,3.112-28.388,6.316c-7.5,3.584-12.313,8.823-19.475,16.917a7.2,7.2,0,0,1-2.952,2c-5.216,1.87-7.467,2.474-11.895,4.252a15.2,15.2,0,0,0-6.381,4.31c-2.848,3.575-2.416,8.643-1.765,13.193a16.737,16.737,0,0,0,.672,2.923c1.183,3.551,2.849,5.135,5.557,6.015a9.547,9.547,0,0,0,3.621.181l23.481-3.673Z"/><path class="c" d="M193.642,141.3c-3.155.566-6.228,1.1-8.816,1.524a2.325,2.325,0,0,1-2.235-3.683,27.473,27.473,0,0,1,3.509-3.972,43.5,43.5,0,0,1,12.527-8.063,33.161,33.161,0,0,1,6.735-2.253,2.315,2.315,0,0,1,2.784,2.308"/><path class="d" d="M248.182,157.216a11.968,11.968,0,0,0,9.834-11.738,37.084,37.084,0,0,0-1.736-10.745,28.269,28.269,0,0,0-4.7-10.226c-8.366-10.872-22.443-14.207-35.593-13.634a83.816,83.816,0,0,0-18.15,3.136c-5.634,1.532-11.08,3.588-15.827,7.056a58.85,58.85,0,0,0-7.361,6.479c-1.26,1.293-2.483,2.621-3.693,3.96a28.067,28.067,0,0,1-3.785,4.082c-1.355.988-3.248,1.363-4.816,1.9-1.388.475-2.779.941-4.161,1.433-3.314,1.181-6.71,2.368-9.493,4.579a13.049,13.049,0,0,0-4.737,9.188,28.547,28.547,0,0,0,1.006,10.7c.892,2.974,2.529,5.838,5.388,7.289a11.592,11.592,0,0,0,7.2.941c6.86-1.042,13.712-2.145,20.567-3.217q4.2-.657,8.387-1.331L207.7,163.68l24.65-3.936,15.086-2.408.75-.12a2.419,2.419,0,0,0,1.677-2.953,2.46,2.46,0,0,0-2.953-1.676L214.9,157.7q-17.617,2.813-35.235,5.626c-5.084.807-10.172,1.591-15.257,2.387-2.728.427-5.453.9-8.188,1.281-.079.01-.157.027-.236.037s-.15,0,.156-.028a8.818,8.818,0,0,1-1.35.031,5.277,5.277,0,0,1-3.165-1.263c-2-1.816-2.453-4.957-2.741-7.516-.334-2.977-.585-6.383,1.032-9.055,1.652-2.729,4.942-3.934,7.778-5,2.78-1.047,5.609-1.954,8.411-2.94A13.791,13.791,0,0,0,170.559,139a40.924,40.924,0,0,0,3.935-4.266c4.155-4.593,8.5-9.083,13.969-12.1,4.613-2.544,10.02-3.97,15.3-5.145,11.494-2.557,24.121-3.065,34.911,2.347,5.127,2.573,9.886,7.059,11.858,12.535a47.141,47.141,0,0,1,2.556,10.14,13.962,13.962,0,0,1-.091,4.821,8.118,8.118,0,0,1-.29.941c-.223.6.235-.441-.084.173-.141.273-.281.543-.441.805a7.527,7.527,0,0,1-5.277,3.336,2.42,2.42,0,0,0-1.676,2.952A2.455,2.455,0,0,0,248.182,157.216Z"/><path class="d" d="M193,138.984q-2.71.486-5.424.954-1.154.2-2.307.39c-.245.041-.494.077-.737.124-.594.115-.172-.1-.059.011.335.315-.038-.02.008-.042a.284.284,0,0,1,.052.247l0-.257a.234.234,0,0,1-.029.185l.157-.246a8.374,8.374,0,0,0,.594-.773,29.681,29.681,0,0,1,3.34-3.443,40.045,40.045,0,0,1,17.4-8.969c3.013-.674,1.738-5.3-1.276-4.628a43.651,43.651,0,0,0-21.761,12.381c-1.2,1.292-2.729,2.818-3.115,4.6a4.8,4.8,0,0,0,2.207,5.094c1.781,1.05,3.727.48,5.626.158q3.3-.558,6.6-1.154a2.42,2.42,0,0,0,1.676-2.952A2.453,2.453,0,0,0,193,138.984Z"/><path class="d" d="M232.759,142.376A12.455,12.455,0,0,0,222.278,156.9c1.238,7.514,7.322,11.827,14.622,10.624,7.582-1.248,11.672-7.286,10.443-14.752A12.444,12.444,0,0,0,232.759,142.376Z"/><path class="a" d="M234.143,150.776a4.133,4.133,0,0,0-3.478,4.818,4.064,4.064,0,0,0,4.852,3.525,4.021,4.021,0,0,0,3.465-4.9A4.13,4.13,0,0,0,234.143,150.776Z"/><path class="d" d="M171.381,151.977A12.453,12.453,0,0,0,160.9,166.5c1.237,7.514,7.321,11.826,14.622,10.624,7.581-1.249,11.672-7.287,10.442-14.752A12.443,12.443,0,0,0,171.381,151.977Z"/><path class="a" d="M172.765,160.377a4.133,4.133,0,0,0-3.478,4.818,4.064,4.064,0,0,0,4.852,3.525,4.021,4.021,0,0,0,3.465-4.9A4.129,4.129,0,0,0,172.765,160.377Z"/><path class="d" d="M127.54,143.836c5.766-2.253,8.14-8.456,7.912-14.3l-2.4,2.4c3.26.4,6.4.767,9.516-.554a13.979,13.979,0,0,0,6.055-5.5,2.4,2.4,0,1,0-4.145-2.423,8.9,8.9,0,0,1-3.884,3.581c-2.423.949-5.048.406-7.542.1a2.412,2.412,0,0,0-2.4,2.4,13.286,13.286,0,0,1-.926,5.883,8.982,8.982,0,0,1-1.492,2.365,5.736,5.736,0,0,1-1.97,1.426,2.471,2.471,0,0,0-1.676,2.952,2.416,2.416,0,0,0,2.952,1.676Z"/><path class="d" d="M127.2,161.535c.5.2-.5-.236-.027-.013.13.061.26.12.388.185q.341.169.666.366c.209.126.407.264.608.4.356.243-.423-.363-.081-.062.079.069.16.135.238.2.167.15.328.308.481.473.082.089.159.182.239.272.276.31-.33-.475-.083-.11a9.833,9.833,0,0,1,.653,1.112c.177.35-.168-.468-.079-.2.036.111.084.22.121.331q.105.309.183.626c.053.216.087.434.13.651.051.253-.065-.678-.023-.151.008.1.019.207.025.31a9.988,9.988,0,0,1-.012,1.416c-.01.133-.026.266-.037.4-.045.5.1-.6.013-.1-.05.277-.1.552-.157.827a2.4,2.4,0,0,0,4.629,1.276,12.082,12.082,0,0,0-.648-7.813,10.517,10.517,0,0,0-5.951-5.035,2.409,2.409,0,0,0-1.849.242,2.443,2.443,0,0,0-1.1,1.434,2.469,2.469,0,0,0,1.676,2.952Z"/><path class="d" d="M203.562,180.887l1.574.208a2.672,2.672,0,0,0,1.7-.7,2.678,2.678,0,0,0,.7-1.7l-.086-.638a2.387,2.387,0,0,0-.617-1.059l-.486-.376a2.384,2.384,0,0,0-1.211-.327l-1.574-.208a2.469,2.469,0,0,0-2.4,2.4l.086.638a2.4,2.4,0,0,0,.617,1.059l.486.376a2.384,2.384,0,0,0,1.211.327Z"/><path class="d" d="M216.886,185.784l.34.031a2.672,2.672,0,0,0,1.7-.7,2.672,2.672,0,0,0,.7-1.7l-.086-.638a2.387,2.387,0,0,0-.617-1.059l-.485-.375a2.382,2.382,0,0,0-1.212-.328l-.34-.031a2.465,2.465,0,0,0-2.4,2.4l.085.638a2.4,2.4,0,0,0,.617,1.059l.486.376a2.388,2.388,0,0,0,1.212.327Z"/><path class="d" d="M224.008,177.387c1.095.685,2.173,1.4,3.245,2.117a1.778,1.778,0,0,0,.893.285,2.462,2.462,0,0,0,2.391-1.146,2.422,2.422,0,0,0,.242-1.849l-.242-.573a2.4,2.4,0,0,0-.861-.861c-1.072-.72-2.15-1.432-3.245-2.117a1.777,1.777,0,0,0-.892-.285,2.463,2.463,0,0,0-2.392,1.146,2.422,2.422,0,0,0-.242,1.849,2.568,2.568,0,0,0,1.1,1.434Z"/></svg>