<?xml version="1.0" encoding="iso-8859-1"?>
<!-- Generator: Adobe Illustrator 28.5.0, SVG Export Plug-In . SVG Version: 9.03 Build 54727)  -->
<svg version="1.1" id="&#x30EC;&#x30A4;&#x30E4;&#x30FC;_1"
	 xmlns="http://www.w3.org/2000/svg" xmlns:xlink="http://www.w3.org/1999/xlink" x="0px" y="0px" viewBox="0 0 239.202 305.687"
	 style="enable-background:new 0 0 239.202 305.687;" xml:space="preserve">
<path style="fill:#A98A75;" d="M143.954,154.348c9.476-4.581,9.552-11.184,9.581-15.148c0.069-5.286-0.815-10.54-2.608-15.513
	c-2.232-6.842-6.353-20.729-6.222-45.425c0.457-5.198,0.57-10.42,0.34-15.633c-0.079-2.431-0.181-4.487-0.261-5.834
	c-0.9-16.1-10.314-34.564-22.345-41.667C107.885,3.906,94.89,1.578,82.011,2.638C63.736,4.143,49.242,11.69,39.75,23.629
	c-5.48,6.893-9.261,16.776-10.55,25.516c-1.219,10.132-0.701,20.397,1.532,30.355c2.115,19.3-3.244,39.8-1.556,55.593
	c0.51,4.93,3.04,10.82,9.81,15.45L143.954,154.348z"/>
<path style="fill:#FFFFFF;" d="M96.119,41.959c1.624,5.047,3.531,9.999,5.712,14.832c2.563,5.583,9.359,15.152,15.492,18.216
	c0,0,6.017,2.887,8.182,2.84c0.712-0.176,1.397-0.448,2.037-0.807c1.623-1.148,3.625-1.63,5.593-1.348
	c3.862,0.507,5.319,2.665,5.912,3.905c1.771,3.708,1.052,10.141-0.765,13.993c-1.533,3.75-4.15,6.957-7.515,9.212
	c-2.238,1.228-4.754,1.864-7.307,1.846c-0.286,0.622-0.489,1.066-0.489,1.066c-0.9,1.97-3.041,5.43-3.041,5.43
	c-2.511,3.972-5.431,7.67-8.711,11.035c0.522,2.676,1.044,5.352,1.567,8.027c0.299,1.881,0.796,3.724,1.484,5.5
	c2.017,4.7,11.585,9.857,15.847,12.727c-12.618,9.553-28.04,14.666-43.866,14.542c-6.187,0-12.472-0.786-18.237-3.367
	c-5.848-2.631-10.673-7.105-13.737-12.738l-0.107-0.195c3.364-1.221,6.813-2.478,9.116-3.527c2.739-0.989,6.157-2.788,6.449-5.9
	c-8.015-0.593-15.161-3.535-22.046-8.943c-8.725-6.855-12.682-17.859-14.272-30.083c-0.917-7.048-1.744-14.713-2.91-22.365
	l-0.06-0.4l1.7-1.2c0.708-0.5,1.824-1.222,2.747-1.892c8.455-6.095,17.5-13.584,25.868-20.771c0.191-0.164,0.479-0.143,0.643,0.048
	c0.103,0.119,0.137,0.283,0.09,0.433c-0.779,2.56-1.24,5.205-1.374,7.877c-0.053,1.137,0.826,2.102,1.963,2.154
	c0.242,0.011,0.484-0.02,0.716-0.093C75.835,58,87.921,50.892,96.012,41.674"/>
<path style="fill:#211715;" d="M125.773,20.568c7.581,6.932,12.536,16.668,15.058,26.534c1.146,4.935,1.75,9.98,1.8,15.046
	c0.1,2.839,0.145,5.682,0.1,8.523c-0.044,2.858-0.425,5.717-0.427,8.566c-0.086,10.277,0.784,20.539,2.6,30.655
	c0.6,3.193,1.335,6.357,2.205,9.491c0.892,3.189,2.047,6.3,2.851,9.516c0.767,3.065,1.163,6.211,1.18,9.371
	c0.006,0.859,0,1.722-0.037,2.58c-0.017,0.407-0.048,0.811-0.083,1.216c-0.012,0.141-0.029,0.282-0.047,0.422
	c0.068-0.545-0.042,0.232-0.062,0.339c-0.252,1.763-0.957,3.431-2.046,4.84c-1.663,1.982-3.757,3.558-6.121,4.609
	c-1.133,0.678-1.516,2.137-0.861,3.284c0.687,1.121,2.136,1.501,3.284,0.861c4.4-2.169,8.139-5.461,9.806-10.168
	c1.22-3.449,1.118-7.5,0.841-11.09c-0.6-7.777-3.771-15.014-5.465-22.577c-2.024-9.493-3.096-19.164-3.2-28.869
	c-0.127-6.095,0.48-12.156,0.369-18.261c0.039-5.48-0.402-10.953-1.318-16.356c-2.305-11.781-8.095-23.754-17.032-31.927
	c-2.276-2.081-5.679,1.3-3.394,3.4L125.773,20.568z"/>
<path style="fill:#211715;" d="M27.962,76.675c1.743,11.158,0.611,22.561-0.41,33.73c-0.484,5.294-0.984,10.6-1.091,15.914
	c-0.089,4.413-0.129,9.161,1.244,13.406c1.84,5.294,5.381,9.83,10.07,12.9c1.146,0.656,2.606,0.273,3.283-0.861
	c0.642-1.148,0.262-2.598-0.861-3.284c-3.644-2.396-6.405-5.917-7.864-10.026c-1.268-3.921-1.165-8.272-1.063-12.529
	c0.252-10.537,1.859-20.991,2.266-31.522c0.301-6.349-0.016-12.712-0.946-19c-0.36-1.272-1.675-2.019-2.952-1.676
	c-1.257,0.379-1.995,1.678-1.676,2.952L27.962,76.675z"/>
<path style="fill:#211715;" d="M66.349,117.213c0.2-0.116,0.411-0.219,0.618-0.326c0.248-0.129,0.1-0.048-0.07,0.019
	c0.146-0.058,0.293-0.116,0.442-0.17c0.499-0.18,1.008-0.33,1.525-0.45c0.3-0.072,0.607-0.135,0.913-0.189
	c0.138-0.024,0.277-0.043,0.415-0.068c-0.226,0.041-0.254,0.029-0.01,0c0.6-0.064,1.195-0.106,1.8-0.113
	c0.551-0.007,1.102,0.016,1.651,0.067c0.057,0.006,0.494,0.057,0.177,0.015s0.109,0.021,0.166,0.031
	c0.28,0.049,0.558,0.107,0.833,0.178c0.246,0.067,0.489,0.141,0.728,0.223c0.143,0.05,0.283,0.105,0.423,0.161
	c-0.243-0.1-0.048-0.02,0.08,0.038c0.791,0.356,1.581,0.711,2.384,1.041c1.274,0.346,2.59-0.399,2.948-1.67
	c0.311-1.273-0.424-2.567-1.676-2.953c0.292,0.12-0.129-0.057-0.227-0.1l-0.452-0.2c-0.331-0.15-0.662-0.3-1-0.442
	c-0.684-0.313-1.394-0.568-2.121-0.76c-1.354-0.313-2.743-0.453-4.132-0.414c-2.734-0.001-5.426,0.667-7.842,1.946
	c-1.145,0.669-1.53,2.139-0.861,3.284s2.139,1.53,3.284,0.861L66.349,117.213z"/>
<path style="fill:#211715;" d="M80.15,87.093c-0.726-2.487-0.145-8.176,4.553-8.591c6.2,0.129,6.427,7.02,4.293,10.227
	C87.248,91.355,82.207,92.383,80.15,87.093z"/>
<path style="fill:#211715;" d="M43.325,87.7c-0.668-2.5-0.144-8.2,4.157-8.611c5.677,0.138,5.9,7.052,3.946,10.265
	C49.831,91.99,45.216,93.014,43.325,87.7z"/>
<path style="fill:#211715;" d="M62.63,93.088c-0.785,1.38-1.525,2.786-2.192,4.226c-0.376,0.702-0.599,1.477-0.653,2.272
	c-0.015,1.004,0.433,1.959,1.215,2.589c0.585,0.53,1.292,0.906,2.058,1.094c0.506,0.1,1.01,0.113,1.517,0.177
	c0.637,0.003,1.249-0.249,1.7-0.7c0.937-0.937,0.937-2.457,0-3.394l-0.486-0.375c-0.367-0.216-0.785-0.329-1.211-0.328
	c-0.243-0.031-0.487-0.035-0.73-0.066l0.638,0.086c-0.185-0.029-0.367-0.077-0.542-0.143l0.574,0.242
	c-0.216-0.094-0.42-0.214-0.606-0.359l0.485,0.375c-0.121-0.097-0.235-0.203-0.341-0.317l0.376,0.486
	c-0.037-0.046-0.068-0.096-0.092-0.149l0.242,0.574c-0.032-0.08-0.055-0.163-0.069-0.248l0.086,0.638
	c-0.013-0.122-0.013-0.246,0.001-0.368l-0.085,0.638c0.044-0.225,0.111-0.445,0.2-0.656l-0.242,0.573
	c0.675-1.523,1.471-3,2.293-4.446c0.661-1.149,0.265-2.616-0.885-3.277c-1.137-0.654-2.589-0.273-3.259,0.855L62.63,93.088z"/>
<path style="fill:#211715;" d="M109.626,126.978c3.803-3.381,7.207-7.185,10.148-11.338c2.021-2.736,3.785-5.653,5.269-8.714
	c0.631-1.15,0.252-2.592-0.861-3.284c-1.146-0.658-2.608-0.275-3.283,0.861c-3.54,7.292-8.531,13.785-14.667,19.081
	c-0.945,0.929-0.957,2.449-0.028,3.394s2.449,0.957,3.394,0.028C109.607,126.997,109.617,126.987,109.626,126.978z"/>
<path style="fill:#211715;" d="M119.141,9.825c-8.721-5.882-18.887-9.263-29.394-9.773C80.091-0.321,70.462,1.32,61.474,4.869
	c-8.271,3.225-15.676,8.336-21.626,14.925c-6.587,7.675-10.967,16.995-12.672,26.964c-2,11.011-1.234,22.9,1.328,33.751
	c0.71,3,5.34,1.733,4.629-1.276c-2.201-9.303-2.792-18.914-1.749-28.416c1.006-9.246,4.482-18.051,10.063-25.491
	C52.1,11.743,69.224,5.176,86.154,4.821c10.886-0.161,21.557,3.034,30.564,9.149C119.308,15.67,121.718,11.516,119.141,9.825z"/>
<path style="fill:#211715;" d="M96.711,128.831c-12.024,5.816-26.315,8.785-38.924,2.927c-5.761-2.676-11.143-6.611-14.695-11.94
	c-3.572-5.358-5.514-11.577-6.676-17.865c-1.633-8.831-2.25-17.859-3.594-26.739c-0.36-1.272-1.676-2.02-2.953-1.677
	c-1.257,0.38-1.995,1.679-1.676,2.953c1.266,8.363,1.952,16.817,3.32,25.163c1.123,6.856,3.15,13.743,6.847,19.677
	c7.556,12.126,22.186,18.956,36.271,18.388c8.633-0.348,16.773-3,24.5-6.743c1.134-0.677,1.516-2.137,0.861-3.283
	c-0.687-1.121-2.136-1.501-3.284-0.861L96.711,128.831z"/>
<path style="fill:#211715;" d="M128.754,79.112c2.287-1.568,5.349-1.374,7.42,0.47c0.084,0.083,0.163,0.17,0.238,0.261
	c-0.026-0.029-0.195-0.268-0.039-0.054c0.134,0.185,0.258,0.377,0.37,0.576c0.209,0.373,0.372,0.77,0.484,1.183
	c0.385,1.444,0.526,2.942,0.416,4.432c-0.259,5.563-3.22,11.783-8.088,14.75c-1.091,0.629-2.283,1.061-3.524,1.276
	c-1.559,0.423-3.21,0.368-4.737-0.159c-1.15-0.625-2.588-0.248-3.283,0.861c-0.659,1.146-0.275,2.609,0.861,3.284
	c3.9,1.713,8.32,1.134,12.124-0.6c3.492-1.595,6.281-4.895,8.132-8.178c1.915-3.32,3.044-7.034,3.3-10.858
	c0.22-3.485-0.293-7.425-2.772-10.078c-3.582-3.511-9.124-4.055-13.32-1.307c-1.116,0.69-1.494,2.134-0.861,3.283
	c0.676,1.135,2.138,1.519,3.284,0.861L128.754,79.112z"/>
<path style="fill:#211715;" d="M93.805,42.6c1.228,3.878,2.664,7.691,4.233,11.444c1.129,2.843,2.481,5.592,4.042,8.223
	c3.453,5.6,8.049,11.742,14.032,14.815c2.743,1.409,5.174-2.731,2.422-4.144c-2.584-1.453-4.881-3.365-6.779-5.642
	c-2.138-2.397-4.049-4.989-5.707-7.74c-3.4-5.591-5.649-12.024-7.615-18.232C97.504,38.389,92.868,39.643,93.805,42.6z"/>
<path style="fill:#211715;" d="M94.315,39.977C87.006,48.241,77.278,54.2,67,58.05c-1.196,0.448-2.402,0.869-3.619,1.263
	c-0.417,0.09-0.825,0.219-1.219,0.385c-0.013,0.052,0.128,0.03,0.234,0.079c-0.093-0.043,0.048,0.213,0.126,0.17
	c0.086-0.446,0.119-0.901,0.1-1.355c0.133-1.411,0.37-2.811,0.71-4.187c0.378-1.538,1.081-3.154-0.242-4.477
	c-1.37-1.37-3.086-0.818-4.382,0.268c-1.322,1.108-2.623,2.243-3.94,3.358c-2.422,2.048-4.861,4.076-7.317,6.085
	c-5.366,4.377-10.842,8.576-16.519,12.54c-1.115,0.691-1.494,2.135-0.861,3.284c0.677,1.135,2.138,1.518,3.284,0.861
	c4.973-3.473,9.8-7.114,14.54-10.906c2.413-1.933,4.804-3.891,7.174-5.872c1.216-1.014,2.428-2.033,3.635-3.057
	c0.6-0.508,1.2-1.017,1.8-1.528c0.509-0.532,1.078-1.004,1.696-1.406l-1.212,0.327l0.225,0.021L60,53.575l0.186,0.123l-0.861-0.861
	l0.108,0.2l-0.327-1.211c-0.161,0.807-0.375,1.603-0.641,2.382c-0.209,1.009-0.36,2.027-0.49,3.049c-0.254,2-0.6,4.163,0.9,5.779
	c1.341,1.381,3.383,1.815,5.17,1.1c1.826-0.577,3.632-1.214,5.419-1.913c6.943-2.647,13.479-6.257,19.417-10.723
	c3.198-2.417,6.154-5.138,8.828-8.124c2.04-2.307-1.342-5.714-3.394-3.394C94.315,39.982,94.315,39.977,94.315,39.977z"/>
<path style="fill:#211715;" d="M109.146,124.055c0.714,3.659,1.172,7.511,2.347,11.058c0.863,2.492,2.384,4.705,4.4,6.405
	c3.96,3.54,8.649,6.063,13.037,9c2.573,1.725,4.978-2.432,2.422-4.145c-3.952-2.648-8.221-4.9-11.821-8.038
	c-1.659-1.236-2.897-2.954-3.544-4.92c-0.917-3.507-1.657-7.058-2.215-10.64c-0.363-1.27-1.676-2.015-2.952-1.676
	c-1.261,0.374-2.001,1.678-1.676,2.952L109.146,124.055z"/>
<path style="fill:#211715;" d="M47.574,151.7c4.588-1.871,9.315-3.377,13.917-5.213c4.4-1.756,9.931-3.609,10.645-9.252
	c-0.007-1.323-1.077-2.393-2.4-2.4c-1.312,0.032-2.368,1.088-2.4,2.4c-0.172,0.618-0.533,1.167-1.032,1.57
	c-0.694,0.602-1.473,1.097-2.313,1.468c-1.741,0.844-3.4,1.452-5.247,2.159c-4.135,1.583-8.346,2.967-12.446,4.639
	c-1.251,0.386-1.985,1.68-1.676,2.952C44.981,151.296,46.297,152.043,47.574,151.7L47.574,151.7z"/>
<path style="fill:#211715;" d="M85.529,71.657c2.067,1.859,4.693,2.977,7.465,3.179c1.325,0.003,2.403-1.069,2.406-2.394
	c0.002-0.64-0.253-1.254-0.706-1.706c-0.465-0.428-1.068-0.676-1.7-0.7c-0.173-0.013-0.346-0.031-0.518-0.053l0.638,0.086
	c-0.846-0.12-1.673-0.346-2.462-0.674l0.574,0.242c-0.816-0.341-1.584-0.787-2.285-1.325l0.486,0.375
	c-0.173-0.136-0.34-0.277-0.5-0.424c-0.459-0.439-1.066-0.688-1.7-0.7c-0.636,0.003-1.246,0.254-1.7,0.7
	c-0.937,0.937-0.937,2.457,0,3.394L85.529,71.657z"/>
<path style="fill:#211715;" d="M101,84.655c-0.178,2.113-0.223,4.235-0.135,6.354c0.1,1.878,0.15,4.169,1.291,5.761
	c1.432,1.855,3.824,2.691,6.1,2.13c2.256-0.458,3.63-2.3,4.426-4.312c0.348-1.277-0.401-2.596-1.676-2.952
	c-1.273-0.313-2.569,0.422-2.953,1.676c0.251-0.636-0.122,0.224-0.221,0.388c-0.041,0.07-0.085,0.139-0.132,0.206
	c-0.123,0.172-0.125,0.178-0.008,0.018c0.279-0.187-0.067,0.038-0.138,0.119c-0.315,0.356,0.395-0.2-0.032,0.03
	c-0.068,0.036-0.5,0.258-0.17,0.113s-0.128,0.028-0.207,0.048s-0.165,0.039-0.248,0.053c-0.183,0.032-0.111,0.022,0.216-0.032
	c-0.171-0.013-0.342-0.013-0.513,0c-0.45,0,0.318,0.1,0.045,0.007c-0.133-0.043-0.275-0.073-0.41-0.11
	c-0.2-0.075-0.212-0.077-0.025-0.005s0.178,0.069-0.014-0.028l-0.141-0.087c0.237,0.2,0.29,0.24,0.157,0.123
	c-0.064-0.053-0.124-0.111-0.18-0.172c0.186,0.267,0.231,0.326,0.135,0.178c-0.032-0.081-0.206-0.254-0.188-0.348
	c0.12,0.292,0.151,0.352,0.091,0.181c-0.028-0.082-0.054-0.165-0.076-0.249c-0.078-0.278-0.126-0.561-0.18-0.845
	c-0.1-0.509,0.053,0.543,0-0.067c-0.022-0.23-0.048-0.459-0.068-0.69c-0.073-0.829-0.112-1.661-0.126-2.493
	c-0.026-1.669,0.06-3.336,0.181-5c-0.007-1.323-1.077-2.393-2.4-2.4c-1.313,0.03-2.37,1.087-2.4,2.4L101,84.655z"/>
<path style="fill:#F8B8B4;" d="M144.194,303.2c21.65,0.053,38.4,0.095,41.065,0.1c-0.813-17.8-2.581-61.124-4.437-77.432
	c-2.248-19.75-2.957-40.782-15.25-57.431c-8.464-11.463-20.365-15.622-32.776-22.141c-13.04,10.914-29.541,16.829-46.545,16.685
	c-6.187,0-12.472-0.786-18.237-3.367c-6.163-2.775-11.181-7.589-14.208-13.633c-17.887,4.873-26.477,8.535-33,16.208
	c-5.485,6.452-8.954,16.745-11.7,25.359l-0.793,2.67C1.7,212.49-0.2,235.875,7.048,255.375
	c4.262,11.461,13.283,17.029,24.516,19.238c0.992,0.195,1.993,0.337,3,0.427c0.181,8.755,0.161,18.766,0,27.937
	C53.342,302.977,106.288,303.1,144.194,303.2z"/>
<path style="fill:#211715;" d="M52.2,148.08c2.728,4.937,6.703,9.071,11.528,11.992c5.428,3.259,11.722,4.7,17.983,5.147
	c11.759,0.772,23.535-1.238,34.372-5.867c6.283-2.704,12.16-6.267,17.463-10.588c0.929-0.941,0.929-2.453,0-3.394
	c-0.95-0.907-2.444-0.907-3.394,0c-8.565,6.87-18.649,11.59-29.411,13.767c-5.216,1.058-10.533,1.535-15.854,1.424
	c-5.688-0.111-11.57-0.954-16.711-3.523c-5.008-2.504-9.134-6.474-11.831-11.381C54.845,142.957,50.697,145.375,52.2,148.08
	L52.2,148.08z"/>
<path style="fill:#211715;" d="M140.189,215.94c0.7,9.568,0.788,19.2,0.953,28.785c0.213,12.32,0.338,24.634-0.1,36.951
	c-0.192,5.351-0.444,10.7-0.831,16.043c0.011,1.321,1.079,2.389,2.4,2.4c1.315-0.025,2.375-1.085,2.4-2.4
	c1.637-22.546,1.266-45.2,0.6-67.783c-0.138-4.666-0.276-9.339-0.617-14c-0.031-1.312-1.088-2.369-2.4-2.4
	c-1.321,0.01-2.39,1.079-2.4,2.4L140.189,215.94z"/>
<path style="fill:#211715;" d="M32.165,275.037c0.187,9.318,0,18.624,0,27.94c0.018,1.318,1.082,2.382,2.4,2.4
	c8.477,0,16.955,0.01,25.432,0.031c12.058,0.021,24.115,0.045,36.172,0.074c12.862,0.029,25.724,0.059,38.585,0.09l32.217,0.077
	c5.843,0.014,11.686,0.027,17.531,0.038h0.733c3.088,0,3.093-4.8,0-4.8c-5.04,0-10.079-0.019-15.119-0.031l-30.855-0.073
	l-38.273-0.09c-12.305-0.028-24.609-0.054-36.914-0.078c-9.075-0.016-18.15-0.028-27.225-0.037h-2.284l2.4,2.4
	c0-9.316,0.187-18.622,0-27.94c-0.062-3.084-4.862-3.095-4.8,0C32.165,275.038,32.165,275.037,32.165,275.037z"/>
<path style="fill:#211715;" d="M138.729,151.958c5.486,2.706,11.016,5.426,15.974,9.044c5,3.713,9.161,8.438,12.212,13.867
	c6.354,11.036,8.518,23.847,9.94,36.335c1.1,9.674,2.121,19.358,2.79,29.073c0.719,10.45,1.259,20.912,1.768,31.374
	c0.506,10.392,0.953,20.786,1.425,31.179c0.139,3.077,4.94,3.094,4.8,0c-0.911-20.045-1.711-40.1-3.03-60.125
	c-0.63-9.575-1.613-19.1-2.638-28.639c-1.407-13.11-3.267-26.415-9.174-38.367c-3.152-6.588-7.705-12.409-13.339-17.056
	c-5.576-4.473-11.925-7.682-18.306-10.829c-1.149-0.635-2.594-0.256-3.283,0.861C137.211,149.821,137.594,151.282,138.729,151.958
	L138.729,151.958z"/>
<path style="fill:#FFFFFF;" d="M146.25,169.018c1.25-0.556,1.494-0.358,3.824-0.637c2.791-0.333,3.325-1.525,3.666-2.75
	c0.53-1.9,0.334-3.916-3-5.25l0.07-0.722c1.238-0.152,2.349-0.837,3.041-1.875c1.059-1.576,0.27-3.911-1.254-5.043
	c-1.47-0.904-3.196-1.299-4.912-1.124h-2.035c1.04-1.31,0.816-1.852,0.463-4.164c-0.401-2.331-2.306-4.11-4.659-4.352
	c-2.035-0.105-5.177-0.121-8.085,0c0.121-0.573,0.205-0.975,0.205-0.975c0.888-3.333-0.352-5.464-1.723-6.555
	c-1.661-1.323-4.055-1.889-8.722,0.666c-6.167,3.378-15.488,10.292-16.676,11.892c-1.679,2.261-2.3,5.637-2.631,8.433
	c-0.177,2.642-0.565,5.266-1.16,7.846c-0.524,2.556-1.907,4.855-3.919,6.516c-1.47,1.63-8.61,8.4-12.25,11.5l-5.652,4.813
	c8.638,8.575,13.092,13.472,20.98,21.389l0.727-1.035c3.842-5.472,10.813-14.664,15.83-19.345c6.363-1.233,11.72-5.277,16.847-9.211
	c1.795-1.253,3.412-2.744,4.807-4.431c1.343-1.784,2.848-3.867,4.826-4.9C145.453,169.4,145.892,169.178,146.25,169.018z"/>
<path style="fill:#211715;" d="M88.19,184.128c2.376-2.028,4.665-4.16,6.938-6.3c1.8-1.693,3.652-3.369,5.312-5.2
	c0.945-0.93,0.957-2.449,0.028-3.394s-2.449-0.957-3.394-0.028c-0.009,0.009-0.019,0.019-0.028,0.028
	c-1.66,1.83-3.515,3.506-5.312,5.2c-2.273,2.141-4.562,4.273-6.938,6.3c-0.932,0.94-0.932,2.454,0,3.394
	C85.747,185.032,87.239,185.032,88.19,184.128z"/>
<path style="fill:#211715;" d="M104.621,208.809c4.361-6.496,9.3-12.584,14.756-18.192c2.206-2.17-1.189-5.564-3.394-3.394
	c-5.833,5.74-10.81,12.483-15.507,19.163c-0.657,1.146-0.274,2.607,0.861,3.284C102.485,210.31,103.934,209.93,104.621,208.809z"/>
<path style="fill:#211715;" d="M149.529,162.454c0.614,0.215,1.186,0.535,1.69,0.946c0.134,0.093,0.234,0.226,0.287,0.38
	c-0.165-0.328,0.114,0.664,0.052,0.179c0.066,0.514,0.045,0.394-0.132,1.034c-0.049,0.195-0.111,0.387-0.184,0.575
	c0.211-0.5-0.227,0.242-0.083,0.074c0.028-0.033-0.089,0.036-0.145,0.055c-0.168,0.058-0.359,0.136-0.593,0.194
	c-0.675,0.139-1.361,0.223-2.05,0.252c-1.19,0.071-2.357,0.36-3.443,0.853c-1.498,0.663-2.859,1.598-4.015,2.759
	c-1.212,1.237-2.125,2.712-3.271,4c-2.376,2.669-5.576,4.793-8.494,6.824c-3.275,2.45-6.993,4.242-10.949,5.277
	c-3.01,0.688-1.736,5.317,1.276,4.628c4.087-1.039,7.946-2.826,11.382-5.27c1.734-1.172,3.405-2.435,5.067-3.707
	c1.774-1.251,3.436-2.655,4.967-4.195c1.305-1.422,2.294-3.093,3.693-4.437c0.953-0.913,2.123-1.569,3.4-1.906
	c-0.514,0.127,0.047,0,0.268-0.017c0.34-0.029,0.681-0.052,1.021-0.084c1.041-0.056,2.071-0.239,3.067-0.544
	c1.59-0.519,2.86-1.729,3.455-3.293c1.461-3.728-0.216-7.181-3.842-8.722c-1.151-0.623-2.587-0.246-3.284,0.861
	C148.009,160.316,148.393,161.779,149.529,162.454L149.529,162.454z"/>
<path style="fill:#211715;" d="M127.909,146.069c0.351-0.087,0.7-0.149,1.06-0.214c0.632-0.115-0.281,0.021,0.251-0.038
	c0.217-0.025,0.434-0.051,0.652-0.073c0.981-0.1,1.965-0.165,2.95-0.213c2.206-0.108,4.415-0.14,6.626-0.095
	c0.474,0.01,0.949,0.022,1.423,0.041c0.194,0.008,0.388,0.019,0.583,0.027c0.474,0.018-0.369-0.165,0.138,0.039
	c0.616,0.205,1.172,0.558,1.618,1.029c0.24,0.286,0.407,0.627,0.487,0.992c0.127,0.566,0.223,1.138,0.288,1.714
	c-0.063-0.446,0.013,0.21,0.016,0.248c0.032,0.341,0.12,0.431,0.053,0.068c0.047,0.255-0.2,0.432,0.02,0.071
	c-0.141,0.242-0.295,0.476-0.462,0.7c-0.66,1.146-0.276,2.609,0.861,3.284c1.149,0.636,2.595,0.257,3.284-0.861
	c0.762-0.985,1.129-2.219,1.029-3.461c-0.053-1.582-0.416-3.139-1.068-4.581c-1.361-2.463-3.933-4.012-6.747-4.064
	c-2.449-0.1-4.908-0.082-7.357,0.015c-2.346,0.013-4.685,0.262-6.981,0.744c-3,0.744-1.727,5.374,1.276,4.629V146.069z"/>
<path style="fill:#211715;" d="M135.888,142.769c0.732-2.446,0.4-5.087-0.913-7.276c-1.03-1.57-2.6-2.709-4.413-3.2
	c-4.458-1.107-8.9,1.9-12.483,4.168c-3.736,2.356-7.336,4.921-10.784,7.681c-0.92,0.681-1.771,1.451-2.539,2.3
	c-1.57,2.118-2.574,4.601-2.917,7.215c-0.94,5.229-0.254,11.87-4.793,15.58c-0.928,0.941-0.928,2.453,0,3.394
	c0.949,0.908,2.445,0.908,3.394,0c3.819-3.121,4.911-8.07,5.431-12.744c0.169-2.256,0.494-4.497,0.974-6.707
	c0.23-1.007,0.592-1.979,1.075-2.891c0.183-0.421,0.463-0.793,0.819-1.083c2.315-2.093,4.792-3.999,7.409-5.7
	c1.671-1.163,3.366-2.292,5.095-3.364c1.649-1.136,3.419-2.086,5.277-2.832c0.822-0.343,1.712-0.491,2.6-0.431
	c-0.4-0.037,0.457,0.127,0.584,0.169c0.352,0.116-0.313-0.165,0,0c0.15,0.08,0.3,0.164,0.442,0.252
	c-0.012-0.007,0.5,0.377,0.259,0.179c-0.215-0.18,0.252,0.258,0.292,0.3c0.239,0.257,0.427,0.556,0.556,0.882
	c0.285,0.923,0.285,1.91,0,2.833c-0.726,3,3.9,4.282,4.629,1.276L135.888,142.769z"/>
<path style="fill:#211715;" d="M132.556,154.74c3.545-0.263,7.094-0.431,10.645-0.564c1.7-0.064,3.417-0.18,5.121-0.168
	c1.067-0.101,2.135,0.183,3.012,0.8c0.304,0.281,0.507,0.654,0.578,1.061c0.09,0.24,0.038,0.51-0.133,0.7
	c-0.444,0.6-1.092,0.687-2.019,0.847c-0.195,0.034-0.39,0.06-0.585,0.09c-0.27,0.041,0.144-0.019,0.161-0.021
	c-0.1,0.013-0.207,0.027-0.311,0.039c-0.544,0.067-1.089,0.129-1.634,0.186c-1.2,0.127-2.405,0.239-3.608,0.35
	c-2.673,0.247-5.35,0.463-8.015,0.778c-1.309,0.039-2.361,1.091-2.4,2.4c0.008,1.322,1.078,2.392,2.4,2.4
	c2.811-0.332,5.635-0.556,8.454-0.818c2.475-0.141,4.939-0.436,7.377-0.884c3.819-0.848,6.175-4.584,4.6-8.313
	c-1.616-3.82-5.612-4.51-9.33-4.381c-4.773,0.165-9.545,0.341-14.309,0.694c-1.312,0.031-2.369,1.088-2.4,2.4
	c0.011,1.321,1.079,2.389,2.4,2.4L132.556,154.74z"/>
<path style="fill:#211715;" d="M52.384,143.874c-9.754,2.686-20.164,5.5-28.279,11.828c-8.557,6.669-12.626,17.047-15.961,27.037
	c-4.28,12.321-6.942,25.145-7.918,38.152c-0.789,12.591,0.354,26.129,5.6,37.755c4.35,9.652,13.3,15.561,23.386,17.913
	c5.893,1.396,12.049,1.229,17.857-0.486c5.984-1.879,11.603-4.767,16.614-8.539C74.2,259.893,83.019,250.07,91.03,239.9
	c3.981-5.053,7.789-10.239,11.512-15.484c0.897-1.267,1.79-2.533,2.68-3.8c0.924-1.159,1.755-2.388,2.488-3.676
	c0.687-1.389,0.817-2.987,0.366-4.469c-0.633-1.511-1.629-2.841-2.9-3.874c-4.187-4.171-8.3-8.418-12.407-12.664
	c-2.039-2.106-4.087-4.203-6.145-6.29c-1.05-1.062-2.104-2.12-3.161-3.174c-1.276-1.271-2.472-2.581-4.309-2.973
	c-3.675-0.783-6.182,2.082-8.767,4.191c-2.787,2.275-5.583,4.543-8.387,6.803c-5.589,4.519-11.185,9.031-16.732,13.6
	c-2.793,2.301-5.57,4.619-8.333,6.956c-0.926,0.942-0.926,2.452,0,3.394c0.949,0.91,2.446,0.91,3.395,0
	c10.494-8.885,21.261-17.44,31.925-26.119c1.272-1.036,2.543-2.074,3.812-3.113c0.768-0.63,1.546-1.488,2.542-0.8
	c1.116,0.938,2.15,1.969,3.091,3.082c1.049,1.052,2.093,2.108,3.134,3.169c3.657,3.725,7.264,7.5,10.913,11.231
	c2.112,2.161,4.239,4.307,6.38,6.438c0.555,0.552,1.566,1.2,1.415,2.119c-0.164,0.502-0.432,0.963-0.788,1.353l-1.433,2.049
	c-3.41,4.867-6.86,9.708-10.442,14.452c-7.279,9.637-15.169,18.947-24.328,26.859c-8.411,7.266-18.958,14-30.5,13.573
	c-8.955-0.333-18.635-4.624-23.706-12.209c-2.989-4.472-4.528-9.792-5.68-15c-1.261-5.87-1.881-11.86-1.851-17.864
	c-0.018-12.624,2.343-25.112,5.923-37.183c1.474-5.164,3.231-10.244,5.263-15.215c1.82-4.751,4.493-9.129,7.887-12.919
	c5.579-5.823,13.443-8.888,21.235-11.346c2.827-0.892,5.679-1.707,8.537-2.494C56.633,147.684,55.37,143.052,52.384,143.874
	L52.384,143.874z"/>
<path style="fill:#F2635F;" d="M188.731,136.423c7.818-3.5,15.5-7.294,23.322-10.773l-3.525-1.434c0.849,4.016,1.336,8.1,2.1,12.131
	c0.31,1.627,2.248,2.062,3.525,1.434c7.972-3.914,15.905-7.9,23.873-11.826c1.145-0.669,1.53-2.139,0.861-3.284
	s-2.139-1.53-3.284-0.861l0,0c-7.967,3.922-15.9,7.912-23.872,11.827l3.525,1.434c-0.767-4.031-1.254-8.115-2.1-12.131
	c-0.351-1.659-2.21-2.019-3.525-1.434c-7.826,3.479-15.5,7.276-23.322,10.773c-1.137,0.675-1.52,2.137-0.861,3.283
	C186.136,136.681,187.583,137.06,188.731,136.423L188.731,136.423z"/>
<path style="fill:#F2635F;" d="M170.958,125.97c3.459-4.454,6.621-9.135,9.822-13.775c1.7-2.468,3.4-4.937,5.122-7.39
	c0.754-1.073,1.514-2.142,2.281-3.205c0.363-0.501,0.729-1.001,1.1-1.5l0.436-0.581l0.279-0.367
	c-0.15,0.193-0.142,0.184,0.024-0.029h-3.394c2.636,3.146,4.984,6.523,7.555,9.722c1.058,1.316,2.962,0.63,3.769-0.486
	c5.608-7.751,11.537-15.265,17.138-23.023c0.658-1.146,0.274-2.608-0.862-3.283c-1.148-0.639-2.596-0.259-3.283,0.861
	c-5.6,7.757-11.529,15.271-17.138,23.022l3.77-0.485c-2.571-3.2-4.918-6.575-7.555-9.723c-0.937-0.937-2.457-0.937-3.394,0
	c-3.386,4.341-6.462,8.921-9.585,13.451c-1.718,2.492-3.435,4.986-5.175,7.462c-0.777,1.105-1.561,2.205-2.35,3.3
	c-0.379,0.523-0.762,1.044-1.147,1.563c-0.153,0.205-0.307,0.409-0.46,0.614c-0.049,0.065-0.609,0.794-0.345,0.454
	c-0.895,0.954-0.895,2.44,0,3.394c0.941,0.929,2.453,0.929,3.394,0L170.958,125.97z"/>
</svg>
