<?xml version="1.0" encoding="UTF-8"?>
<svg id="_レイヤー_1" data-name="レイヤー 1" xmlns="http://www.w3.org/2000/svg" version="1.1" viewBox="0 0 293 116.2">
  <defs>
    <style>
      .cls-1, .cls-2 {
        stroke: #13bf02;
        stroke-miterlimit: 10;
        stroke-width: 3px;
      }

      .cls-1, .cls-3 {
        fill: #fff;
      }

      .cls-4 {
        fill: #ee7e46;
      }

      .cls-4, .cls-5, .cls-6, .cls-3 {
        stroke-width: 0px;
      }

      .cls-5 {
        fill: #c9151d;
      }

      .cls-6 {
        fill: #423232;
      }

      .cls-2 {
        fill: #13bf02;
      }
    </style>
  </defs>
  <g id="_制作レイヤー" data-name="制作レイヤー">
    <rect class="cls-2" x="1" y="1" width="291" height="56"/>
    <rect class="cls-1" x="1" y="59.5" width="291" height="56"/>
    <g>
      <g>
        <path class="cls-3" d="M96.4,41.4c-.3-.3-.8-.4-1.1-.2l-1.8,1c-.2.1-.4.4-.5.6,0,.3,0,.5.2.7.5.6,1,1.3,1.6,2.2-2.5.2-3,.2-5.5.3,1.1-2.2,2.1-4.5,2.9-6.9,0-.3,0-.5,0-.8-.1-.2-.4-.4-.6-.4l-2-.4c-.5,0-.9.2-1,.6-.9,2.9-2.3,6.2-3.1,8-.7,0-1.2,0-1.5,0-.3,0-.5.1-.7.3-.2.2-.3.5-.2.7l.2,1.9c0,.5.5.8.9.8h.2c4.6-.2,9-.4,12.2-.8.1.3.3.5.4.8.1.3.5.5.8.5s.2,0,.4,0l2.2-.9c.2-.1.4-.3.5-.5,0-.2,0-.5,0-.7-1.3-2.6-2.6-4.7-4.4-6.7"/>
        <path class="cls-3" d="M96.5,32.3c-.2-.4-.6-.6-1.1-.5l-1.8.5c-.3,0-.5.2-.6.5-.1.2-.1.5,0,.7.8,2.1,2.5,5.1,5.3,7.7.2.1.4.2.6.2s0,0,0,0c.3,0,.5-.1.6-.3l1.4-1.7c.3-.4.3-1-.1-1.3-2.1-1.7-3.7-4.1-4.4-5.8"/>
        <path class="cls-3" d="M84.3,41.4s0,0,.1,0c.2,0,.4,0,.6-.2,2.4-2.1,4.2-4.7,5.4-7.8,0-.2,0-.5,0-.7-.1-.2-.3-.4-.6-.5l-1.9-.5c-.4-.1-.9.1-1.1.5-1,2.2-2.5,4.2-4.4,5.6-.4.3-.5.8-.2,1.2l1.4,1.9c.2.2.4.3.6.4"/>
        <path class="cls-3" d="M139.6,32.7h-15.7c-.5,0-.9.4-.9.9v1.9c0,.5.4.9.9.9h11.9c-.6,1.3-1.4,2.4-3,3.4,0-.3,0-.6,0-1,0-.2,0-.5-.2-.6-.2-.2-.4-.3-.6-.3h-2.1s0,0,0,0c-.5,0-.9.4-.9.8,0,3.6-1,6.4-5.1,8.3-.3.1-.4.3-.5.6,0,.3,0,.5.2.7l1.3,1.6c.2.2.4.3.7.3s.3,0,.4,0c5.7-2.8,6.4-6.7,6.7-9l1.4,1.4c.3.3.7.3,1.1.1,3.1-2,4.6-4.9,5.3-8.9,0-.3,0-.5-.2-.7-.2-.2-.4-.3-.7-.3"/>
        <path class="cls-3" d="M157,35h-6.1c0-1.1.1-1.3.2-2.1,0-.2,0-.4-.2-.6-.2-.2-.4-.2-.6-.3h-2.2s0,0,0,0c-.5,0-1,.4-1,1,0,.7,0,1,0,2h-4.5c-.5,0-1,.4-1,1v1.7c0,.5.4,1,1,1h4.1c-.3,1.6-1,5.4-5.2,8-.2.2-.4.4-.5.7,0,.3,0,.6.2.8l1.3,1.5c.3.4.9.4,1.3.1,5.4-3.7,6.4-9.3,6.7-11.1h3.6v1.2c0,1.8-.2,4.6-.4,5.3-.2.9-.3,1.1-1.5,1.1s-1,0-1.6-.1c-.3,0-.6,0-.8.3-.2.2-.3.5-.3.8v1.9c.1.5.5.9,1,.9.7,0,1.5.1,2.3.1,1.3,0,3.4,0,4.3-2.3.8-2.1.9-7.8.9-9.4v-2.5c0-.5-.4-1-1-1"/>
        <path class="cls-3" d="M175.9,34.3h-5.7v-1.6c0-.4-.4-.8-.8-.8h-2.3c-.4,0-.8.4-.8.8v1.6h-5.4c-.4,0-.8.4-.8.8v6.5c0,.4.4.8.8.8h2.2c.4,0,.8-.4.8-.8v-3.6h8.7c-.1,4.8-3.4,7.9-9.6,8.5-.3,0-.5.2-.6.4-.1.2-.2.5,0,.7l.7,2.1c.1.3.4.5.8.5s0,0,0,0c8.7-.9,12.9-5.9,12.9-14.4v-.6c0-.4-.4-.8-.8-.8"/>
        <path class="cls-3" d="M184.2,39.3c.1,0,.3.1.4.1s.1,0,.2,0c.2,0,.4-.2.5-.4l1.2-2.1c.1-.2.1-.4,0-.6,0-.2-.2-.4-.4-.5-1.8-1.1-3.5-1.8-5.7-2.5-.4-.1-.8,0-1,.4l-1,1.9c-.1.2-.1.4,0,.7,0,.2.3.4.5.5,2,.7,3.5,1.5,5.1,2.5"/>
        <path class="cls-3" d="M195.5,35.9l-2-1.4c-.2-.1-.5-.2-.7,0-.2,0-.4.3-.5.5-1,3.4-2.5,6.1-4.3,7.7-2,1.7-4.9,2.8-8.7,3.2-.2,0-.4.1-.6.3-.1.2-.2.4-.1.6l.6,2.6c0,.4.4.6.8.6s0,0,.1,0c7.3-1.1,12.8-3.8,15.8-13.3.1-.3,0-.7-.3-.9"/>
        <path class="cls-3" d="M210.5,40.5c-1.9-1.1-4.7-2.5-9-3.8v-3.9c0-.4-.4-.8-.8-.8h-2.6c-.4,0-.8.4-.8.8v16.5c.1.4.5.8.9.8h2.6c.4,0,.8-.4.8-.8v-8.5c2.2.9,4.4,2.1,6.8,3.6.2.1.4.2.7.1.2,0,.4-.2.5-.4l1.3-2.6c.2-.4,0-.9-.3-1.1"/>
        <path class="cls-3" d="M116.8,32.1l2-.8c.2,0,.3,0,.5,0,.3.2.5.5,1.5,1.9.2.2,0,.6-.2.7l-2.1.9c-.2,0-.5,0-.6-.2-.3-.5-.8-1.3-1.3-1.9-.2-.2,0-.6.2-.7"/>
        <path class="cls-3" d="M117.9,50.7c-1,0-2-.6-2.5-1.2-2.8-3.1-3.1-8.6-3.2-11.7h-9.2c-.4,0-.7-.3-.7-.7v-1.9c0-.4.3-.7.7-.7h9c0-.5,0-1.4,0-1.9,0-.2,0-.4.2-.5.1-.1.3-.2.5-.2h2.1c.4,0,.7.3.7.7v1.9h4.7c.4,0,.7.3.7.7v1.9c0,.4-.3.7-.7.7h-4.6c.1,1.8.4,5.1,1.4,7.5.3.7.6,1,.9,1.1.3,0,.9-.4,1.4-1.1.1-.2.4-.3.6-.2.3,0,.5.2.6.5,0,0,.6.9,1,1.6.4.7-.2,1.4-.4,1.7-.8.9-2.4,1.8-3.2,1.8M112.2,37.6h0s0,0,0,0ZM103.2,50.2c-.2,0-.3,0-.5-.2-.2-.1-.2-.3-.3-.5l-.2-2.1c0-.2,0-.4.2-.5s.3-.2.5-.3c.4,0,.8,0,1.2-.1.5,0,.9,0,1.3-.1v-3.9h-1.9c-.4,0-.7-.3-.7-.7v-1.9c0-.4.3-.7.7-.7h7.3c.4,0,.7.3.7.7v1.9c0,.4-.3.7-.7.7h-1.9v3.6c.7,0,1.2-.1,1.6-.2.4,0,.7,0,1-.1.2,0,.4,0,.6.2.2.1.3.3.3.6v1.8c0,.4-.2.7-.6.7-1.9.4-8.3,1-8.5,1.1,0,0,0,0,0,0"/>
      </g>
      <g>
        <path class="cls-3" d="M138.5,7.3h-2.7c-.4,0-.7.3-.7.7v16.6c0,.4.3.7.7.7h2.7c.4,0,.7-.3.7-.7V8c0-.4-.3-.7-.7-.7"/>
        <path class="cls-3" d="M156.9,7.3h-2.7c-.4,0-.7.3-.7.7v9.9l-7.6-10.3s0,0,0,0c0,0,0,0,0,0,0,0,0,0,0,0,0,0,0,0,0,0,0,0,0,0,0,0,0,0,0,0,0,0,0,0,0,0,0,0,0,0,0,0,0,0,0,0,0,0,0,0,0,0,0,0,0,0,0,0,0,0,0,0,0,0,0,0,0,0,0,0,0,0,0,0,0,0,0,0,0,0,0,0,0,0,0,0,0,0,0,0,0,0,0,0,0,0,0,0,0,0,0,0,0,0h-2.7c-.4,0-.7.3-.7.7v16.6c0,.4.3.7.7.7h2.7c.4,0,.7-.3.7-.7v-9.9l7.6,10.3c0,0,.1.1.2.2,0,0,0,0,0,0,0,0,0,0,0,0,0,0,0,0,0,0,0,0,0,0,0,0,0,0,0,0,0,0,0,0,0,0,0,0,0,0,0,0,0,0,0,0,0,0,0,0,0,0,.1,0,.2,0h2.7c.4,0,.7-.3.7-.7V8c0-.4-.3-.7-.7-.7"/>
        <path class="cls-3" d="M132,21.2h-7.3v-13.2c0-.4-.3-.7-.7-.7h-2.7c-.4,0-.7.3-.7.7v16.6c0,.2,0,.4.2.5,0,0,0,0,0,0,0,0,0,0,0,0,.1.1.3.2.5.2h10.7c.4,0,.7-.3.7-.7v-2.7c0-.4-.3-.7-.7-.7"/>
        <path class="cls-3" d="M171.7,7.3h-10.7c-.2,0-.4,0-.5.2,0,0,0,0,0,0,0,0,0,0,0,0-.1.1-.2.3-.2.5h0v16.6h0c0,.2,0,.4.2.5,0,0,0,0,0,0,0,0,0,0,0,0,.1.1.3.2.5.2h10.7c.4,0,.7-.3.7-.7v-2.7c0-.4-.3-.7-.7-.7h-7.3v-2.8h7.3c.4,0,.7-.3.7-.7v-2.7c0-.4-.3-.7-.7-.7h-7.3v-2.8h7.3c.4,0,.7-.3.7-.7v-2.7c0-.4-.3-.7-.7-.7"/>
      </g>
    </g>
  </g>
  <g id="_レイヤー_1-2" data-name="レイヤー 1">
    <g>
      <g>
        <path class="cls-5" d="M52.5,79.3c.7.7,1.7,1.1,2.7,1.1s2-.4,2.7-1.1c.2-.2.2-.6,0-.8-.2-.2-.6-.2-.8,0-.5.5-1.2.8-1.9.8s-1.4-.3-1.9-.8c-.2-.2-.6-.2-.8,0-.2.2-.2.6,0,.8Z"/>
        <path class="cls-5" d="M53.8,76c0,.2-.1.5-.3.6-.2.2-.4.2-.6.2s0,0,0,0c-.5,0-.9-.5-.9-1,0-.5.5-.9,1-.9.5,0,.9.5.9,1Z"/>
        <path class="cls-5" d="M58.6,76c0,.5-.4.9-.9,1,0,0,0,0,0,0-.2,0-.5,0-.6-.2-.2-.2-.3-.4-.3-.6,0-.5.4-.9.9-1,.2,0,.5,0,.7.2.2.2.3.4.3.6Z"/>
        <path class="cls-4" d="M37.2,79.3c-.7.7-1.7,1.1-2.7,1.1s-2-.4-2.7-1.1c-.2-.2-.2-.6,0-.8.2-.2.6-.2.8,0,.5.5,1.2.8,1.9.8s1.4-.3,1.9-.8c.2-.2.6-.2.8,0,.2.2.2.6,0,.8Z"/>
        <path class="cls-4" d="M35.9,76c0,.2.1.5.3.6.2.2.4.2.6.2s0,0,0,0c.5,0,.9-.5.9-1,0-.5-.5-.9-1-.9-.5,0-.9.5-.9,1Z"/>
        <path class="cls-4" d="M31.2,76c0,.5.4.9.9,1,0,0,0,0,0,0,.2,0,.5,0,.6-.2.2-.2.3-.4.3-.6,0-.5-.4-.9-.9-1-.2,0-.5,0-.7.2-.2.2-.3.4-.3.6Z"/>
        <path class="cls-4" d="M65.9,75.5c0,.5-.4.9-.9,1,0,0,0,0,0,0-.2,0-.5,0-.6-.2-.2-.2-.3-.4-.3-.6,0-.5.4-.9.9-1,.2,0,.5,0,.7.2.2.2.3.4.3.6Z"/>
        <path class="cls-4" d="M64.8,72.8c0,.6-.5,1.2-1.1,1.2,0,0,0,0,0,0-.3,0-.6-.1-.8-.3-.2-.2-.4-.5-.4-.8,0-.6.5-1.2,1.1-1.2.3,0,.6,0,.8.3.2.2.4.5.4.8Z"/>
        <path class="cls-4" d="M62.5,70.2c0,.7-.5,1.3-1.2,1.4,0,0,0,0,0,0-.3,0-.6-.1-.9-.3-.3-.2-.4-.6-.4-.9,0-.7.5-1.3,1.2-1.4.3,0,.7.1.9.3.3.2.4.6.4.9Z"/>
        <path class="cls-5" d="M23.9,75.5c0,.5.4.9.9,1,0,0,0,0,0,0,.2,0,.5,0,.6-.2.2-.2.3-.4.3-.6,0-.5-.4-.9-.9-1-.2,0-.5,0-.7.2-.2.2-.3.4-.3.6Z"/>
        <path class="cls-5" d="M24.9,72.8c0,.6.5,1.2,1.1,1.2,0,0,0,0,0,0,.3,0,.6-.1.8-.3.2-.2.4-.5.4-.8,0-.6-.5-1.2-1.1-1.2-.3,0-.6,0-.8.3-.2.2-.4.5-.4.8Z"/>
        <path class="cls-5" d="M27.3,70.2c0,.7.5,1.3,1.2,1.4,0,0,0,0,0,0,.3,0,.6-.1.9-.3.3-.2.4-.6.4-.9,0-.7-.5-1.3-1.2-1.4-.3,0-.7.1-.9.3-.3.2-.4.6-.4.9Z"/>
        <path class="cls-4" d="M50.8,81.5c-1.2-2.1-2.7-4-4.3-5.6-.5-.5-1.1-1-1.6-1.5h0c-3-2.5-6.4-3.9-9.4-3.9-1.6,0-3.1.4-4.4,1.1-5.9,3.4-6.5,13.2-1.4,22,3.5,6,8.8,10,13.6,10.8,0,0,0,0,0,0,.2,0,.5,0,.7,0,0,0,.1,0,.2,0,.2,0,.5,0,.7,0h0c.8,0,1.7-.1,2.6-.3.7-.2,1.3-.5,1.9-.8,1.8-1,3.1-2.7,3.9-4.7,1.8-4.6,1-11.2-2.5-17.3ZM52,94.4c-.2,3.4-1.5,6-3.7,7.3-.4.2-.9.4-1.3.6-.6.2-1.3.3-2,.3h0c-.2,0-.5,0-.7,0h0c-.2,0-.4,0-.6,0,0,0,0,0,0,0-1.8-.3-3.7-1.1-5.5-2.4-.5-.4-1-.7-1.5-1.2-1.9-1.6-3.7-3.7-5-6.2-1.1-2-2-4-2.5-6.1-.5-2-.7-3.9-.6-5.7.2-3.4,1.5-6,3.7-7.3,1-.6,2.1-.9,3.3-.9,2.2,0,4.6.9,7,2.5.3.2.6.4.9.6.6.4,1.1.9,1.6,1.4h0c1.5,1.5,2.9,3.3,4,5.2,1.1,2,2,4,2.5,6.1.5,2,.7,3.9.6,5.7Z"/>
        <path class="cls-5" d="M58.8,71.7c-1.3-.8-2.8-1.1-4.4-1.1-2.9,0-6.1,1.3-9.1,3.6.6.5,1.1,1,1.6,1.5.2-.1.3-.2.5-.3,2.3-1.6,4.8-2.5,7-2.5s2.4.3,3.3.9c2.2,1.3,3.5,3.8,3.7,7.3.1,1.8,0,3.7-.6,5.7-.5,2.1-1.4,4.1-2.5,6.1-1.2,2.1-2.6,3.9-4.3,5.5-.6,2-1.7,3.7-3.1,4.9,3.4-1.8,6.7-5,9.2-9.2,5.1-8.8,4.4-18.6-1.4-22ZM40.8,82.6c1.1-1.8,2.3-3.5,3.7-4.9-.5-.5-1.1-1-1.6-1.4-1.5,1.5-2.8,3.2-3.9,5.2-3.3,5.7-4.2,11.8-2.8,16.4.7.6,1.4,1.2,2.1,1.7.7.5,1.4.9,2.1,1.2-1.5-1.4-2.4-3.6-2.6-6.4-.1-1.8,0-3.7.6-5.7.5-2.1,1.4-4.1,2.5-6.1Z"/>
      </g>
      <g>
        <path class="cls-6" d="M75.8,87.5c-.3.3-.7.5-1.1.5s-.8-.2-1.1-.5-.5-.8-.5-1.2v-11.4c0-.5.2-.9.5-1.3s.7-.5,1.2-.5.9.2,1.2.5c.3.4.5.8.5,1.3v2.9s0,0,0,0c0,0,0,0,0,0,1.4-2.3,3.4-3.8,5.9-4.5.2,0,.2-.2.2-.4v-.5c0-.6.2-1,.5-1.4.4-.4.8-.6,1.3-.6s.9.2,1.3.6c.4.4.5.9.5,1.4v.3c0,.2,0,.3.3.3,2.1.3,3.8,1,4.9,2.3,1.1,1.3,1.7,3,1.7,5.2s-.6,4.1-1.8,5.4c-1.2,1.3-3,2-5.3,2.2-.2,0-.3,0-.3.3-.6,1.7-1.7,3-3.5,3.9-.4.2-.9.2-1.4,0-.5-.2-.8-.5-1.1-1-.2-.4-.2-.9-.1-1.3.1-.4.4-.8.8-1,.5-.3.9-.7,1.2-1.1,0,0,0-.1,0-.2s0-.1,0-.1c-.9-.3-1.8-.8-2.5-1.5-.4-.3-.6-.7-.6-1.2s0-1,.4-1.4c.3-.4.6-.6,1-.6.4,0,.8,0,1.2.3.4.3.8.5,1.3.8,0,0,.1,0,.2,0,0,0,0-.1,0-.2v-6.6c0,0,0-.1,0-.2,0,0-.1,0-.2,0-1.6.6-2.9,1.7-4,3.3-1.1,1.6-1.7,3.6-2,6,0,.5-.2.9-.6,1.3ZM89.3,80.5c0-2.1-1-3.4-2.9-3.8,0,0-.1,0-.2,0,0,0,0,.1,0,.2v7.1c0,.2,0,.3.2.2,1.9-.4,2.9-1.7,2.9-3.8Z"/>
        <path class="cls-6" d="M96.8,82.3c-.4.1-.9,0-1.2-.3-.4-.3-.6-.6-.7-1.1s0-.9.2-1.4c.2-.4.6-.7,1-.8,3.5-.9,6.5-1.3,9-1.3s4.2.5,5.4,1.5c1.2,1,1.8,2.4,1.8,4.1s-.9,4.4-2.8,5.9-4.8,2.5-8.6,3c-.5,0-.9,0-1.2-.4-.4-.3-.6-.7-.7-1.2,0-.5,0-.9.3-1.3.3-.4.6-.6,1.1-.7,5.5-.8,8.3-2.5,8.3-5.1s-.3-1.3-.9-1.7-1.5-.5-2.8-.5c-1.9,0-4.6.4-8.1,1.2ZM99.6,71.1c2.8.3,5.3.5,7.7.6.5,0,.9.2,1.2.6s.5.8.5,1.3-.2.9-.5,1.3c-.3.4-.7.5-1.2.5-2.6,0-5.3-.3-8.1-.7-.4,0-.8-.3-1.1-.7-.3-.4-.4-.8-.3-1.3,0-.5.3-.9.6-1.2.4-.3.8-.4,1.2-.4Z"/>
        <path class="cls-6" d="M118.6,91.6c-1.4,0-2.6-.5-3.4-1.4-.9-.9-1.3-2.1-1.3-3.7s.5-3.2,1.4-4.5c.9-1.3,2.2-2.3,3.9-3,.2,0,.2-.2.2-.4v-2c0-.2,0-.3-.3-.3h-2.7c-.4,0-.7-.2-1-.5-.3-.3-.4-.7-.4-1.1s.1-.8.4-1.1c.3-.3.6-.5,1-.5h2.7c.2,0,.3,0,.3-.3v-.6c0-.5.2-.9.5-1.3.3-.4.7-.5,1.2-.5s.9.2,1.2.5c.3.4.5.8.5,1.3v.6c0,.2,0,.3.3.3h7.7c.4,0,.7.2,1,.5.3.3.4.7.4,1.1s-.1.8-.4,1.1c-.3.3-.6.5-1,.5h-7.7c-.2,0-.3,0-.3.3v1.2c0,0,0,.2,0,.2,0,0,.1,0,.2,0,.8,0,1.4-.1,1.9-.1,2.7,0,4.8.6,6.2,1.9,1.4,1.3,2.2,3,2.2,5.3s-.4,3.1-1.3,4.4-2.1,2.2-3.7,2.8c-.4.2-.8.1-1.3-.1-.4-.2-.7-.6-.8-1.1-.1-.5,0-.9.1-1.3.2-.4.5-.8.9-1,.8-.4,1.4-1,1.9-1.6.5-.7.7-1.3.7-2.1,0-1-.3-1.9-.9-2.5-.1-.1-.2-.1-.3,0-1.1,2.8-2.5,5-4.3,6.6-1.8,1.5-3.7,2.3-5.7,2.3ZM119.2,83c-1.2.9-1.8,1.9-1.8,3.1s.1,1.2.4,1.5c.3.4.7.5,1.2.5s0,0,0,0,0,0,0,0c.2,0,.3-.1.3-.3v-4.7c0,0,0-.1,0-.1,0,0-.1,0-.1,0ZM124.9,81.4c-.6,0-1.2,0-1.9.1-.2,0-.3.1-.3.3v3.8c0,0,0,0,0,.1s0,0,.1,0c1-1.1,1.8-2.5,2.5-4.1,0,0,0-.1,0-.2,0,0,0,0-.1,0h-.3Z"/>
        <path class="cls-6" d="M140.9,92.1c-1.4,0-2.6-1-3.8-3s-1.7-4.4-1.7-7.2.2-4.7.7-7.1c.1-.6.4-1,.8-1.3.4-.3.9-.4,1.4-.4.5,0,.8.3,1.1.8.3.4.4.9.3,1.4-.5,2.4-.7,4.6-.7,6.6s.2,3.1.7,4.3c.5,1.2.9,1.8,1.4,1.8s.6-.3,1.1-.9c.5-.6.9-1.5,1.4-2.6.2-.5.5-.8,1-1s.9-.2,1.3,0c.4.2.8.5,1,1,.2.5.2.9,0,1.4-.8,2-1.7,3.5-2.8,4.6-1.1,1.1-2.1,1.6-3.2,1.6ZM150.7,87.3c-.2-4.1-.9-8-2.1-11.7-.2-.5-.1-1,0-1.4.2-.5.5-.8,1-.9.5-.2,1-.1,1.4.1.5.2.8.6,1,1.1,1.4,3.8,2.2,8.1,2.4,12.8,0,.6-.2,1.1-.5,1.4-.4.4-.8.6-1.3.6s-1-.2-1.3-.6c-.4-.4-.6-.9-.6-1.4Z"/>
      </g>
      <g>
        <path class="cls-6" d="M157.9,77.3v-.2c-.2-1.1,0-2,.9-3,.5-.6.8-1.1,1.1-1.5.5-.8,1.2-1.2,2.1-1.2s1.6.4,2.2,1.1c.3.3.5.6.8.9.3.4.5.8.6,1.3,0,.5,0,.9-.2,1.4,0,.1-.1.3-.1.4v.2c0,.4-.2.8-.5,1.1-.3.3-.7.5-1.1.5s-.2,0-.2.2v1c0,.1,0,.2.2.2h.4c.4,0,.7.1,1,.4s.4.6.4,1-.1.7-.4,1-.6.4-1,.4h-.4c-.2,0-.2,0-.2.2v4.7c0,.2,0,.2.2.2,0,0,0,0,.1,0,0,0,.1,0,.1,0,.3,0,.6,0,.9.2s.4.5.4.8-.1.8-.4,1.1c-.2.3-.5.5-.9.6-1.6.4-3,.7-4.3,1-.4,0-.7,0-1-.2s-.5-.5-.6-.9c0-.4,0-.7.3-1,.2-.3.5-.5.9-.6.3,0,.6,0,1-.2.2,0,.2-.1.2-.3v-5.2c0-.2,0-.2-.3-.2h-.7c-.4,0-.7-.1-1-.4s-.4-.6-.4-1,.1-.7.4-1,.6-.4,1-.4h.7c.2,0,.3,0,.3-.2v-1.1c0,0,0-.1-.1-.1h-.3c-.2,0-.3,0-.5-.2s-.2-.3-.2-.5,0,0,0,0c0,0,0,0,0,0,0,0,0,0,0,0-.2.2-.5.3-.8.2-.3-.1-.5-.3-.6-.7ZM159.4,87.5c-.2,0-.5,0-.7-.1s-.3-.3-.3-.6c0-.7-.2-1.4-.3-2.3,0-.2,0-.5.2-.7.1-.2.3-.3.6-.4.2,0,.5,0,.7.1.2.1.3.3.4.6.1.9.2,1.6.3,2.2,0,.2,0,.5-.2.7-.1.2-.3.3-.6.4ZM161,75.5s0,0,0,.1,0,0,.1,0h2c0,0,.1,0,.1,0,0,0,0,0,0-.1-.3-.5-.7-1-1-1.6,0,0,0,0-.1,0s-.1,0-.1,0c-.4.7-.7,1.2-.9,1.6ZM164.7,83.3c.2,0,.4.1.6.3.1.2.2.4.2.6,0,.6-.1,1.2-.2,1.9,0,.2-.1.4-.3.5-.2.1-.4.2-.6.1-.2,0-.4-.2-.5-.3-.1-.2-.2-.4-.1-.6.1-1.1.2-1.7.2-1.8,0-.2.1-.4.3-.5s.3-.2.6-.2ZM170.9,88.8c.8-.5,1.5-1.1,2.1-1.8,0,0,0,0,0-.1,0,0,0,0-.1,0h-1.2c-.1,0-.2,0-.2.2,0,.3-.1.6-.4.8-.2.2-.5.3-.9.3s-.6-.1-.9-.3-.4-.5-.4-.8v-5c0-.5.2-1,.6-1.4s.8-.6,1.4-.6h1.9c.1,0,.2,0,.2-.2s0-.1,0-.2c0,0,0-.2,0-.2,0-.2,0-.2-.3-.2h-3.8c0,0-.1,0-.2,0,0,0,0,.1,0,.2v1.8c0,4.3-.2,7.5-.7,9.3-.1.4-.3.6-.7.8-.4.2-.7.1-1.1,0-.4-.2-.6-.5-.8-.9-.2-.4-.2-.8-.1-1.2.4-1.7.6-5.2.6-10.5v-3.9c0-.5.2-1,.6-1.4.4-.4.8-.6,1.4-.6h4.8c.2,0,.2,0,.2-.3s0-.1,0-.2c0,0,0-.2,0-.2,0-.4.1-.7.4-.9s.6-.4,1-.4.7.1,1,.4c.3.3.4.6.4.9s0,.1,0,.2c0,.1,0,.2,0,.2,0,.2,0,.2.2.2h.3c.1,0,.2,0,.2-.2v-.5c-.2-.3-.2-.6,0-.8.1-.3.4-.4.6-.5.3,0,.6,0,.8,0,.3.1.4.3.5.6.2.5.3,1,.4,1.3,0,0,0,0,0,0,.3,0,.4.1.4.4v.9c0,.4-.1.7-.4,1s-.6.4-1,.4h-1.9c-.2,0-.2,0-.2.3,0,1.9.2,3.6.3,5,0,0,0,0,0,0s0,0,0,0c.1-.6.3-1.3.5-2.2,0-.3.3-.6.6-.7.3-.2.6-.2.9,0,.4.2.6.4.8.8.2.4.2.7.2,1.1-.5,2.3-1.2,4.4-2.2,6.2,0,.2-.1.3,0,.5.2,1,.4,1.5.5,1.5s.2-.6.2-1.9c0-.3.1-.5.4-.6.2-.1.5-.2.7,0,.3.1.6.4.7.6s.3.6.2,1c-.1,1.6-.4,2.7-.8,3.5-.4.8-.8,1.2-1.3,1.2-1,0-1.8-.9-2.5-2.6,0,0,0,0-.1-.1,0,0-.1,0-.1,0-.6.7-1.3,1.4-2.1,1.9-.3.2-.7.3-1.1.2-.4,0-.7-.3-.9-.6-.2-.3-.3-.7-.2-1,0-.4.3-.6.6-.9ZM172.7,76.6c.2,0,.2,0,.2-.2s0-.1,0-.2,0-.2,0-.2c0-.1,0-.2-.3-.2h-3.6c-.2,0-.3,0-.3.2v.4c0,.2,0,.2.3.2h3.7ZM171.6,84.3v-1.6c0,0,0-.1,0-.2s-.1,0-.2,0h0c0,0-.1,0-.2,0s0,.1,0,.2v1.6c0,.2,0,.2.3.2h0c.2,0,.3,0,.3-.2ZM173.2,80.9v5.6s0,0,0,0c0,0,0,0,.1,0,0,0,0-.1.2-.2.1-.1.2-.2.2-.3,0-.1,0-.3,0-.5-.2-1.2-.4-2.8-.6-4.7h0Z"/>
        <path class="cls-6" d="M182.9,81.9c-.4,0-.8,0-1.2-.3s-.6-.6-.7-1c-.1-.4,0-.7.2-1.1.2-.3.5-.5.9-.6,2.9-.4,5.2-.9,6.9-1.5,1.7-.6,3.2-1.3,4.4-2.2,0,0,0,0,0-.1,0,0,0,0,0,0h-5.2c-.2,0-.3,0-.5.2-1,.8-2,1.4-3.1,2-.4.2-.9.3-1.4.2-.5,0-.9-.3-1.2-.7-.3-.3-.4-.6-.3-1,0-.4.3-.7.6-.9,1.7-.9,3.1-1.8,4.2-2.8,1-.9,2-1.2,3.2-1.1h.7c.3.1.5.3.6.5.1.2,0,.5,0,.7,0,0,0,0,0,0s0,0,0,0h6.2c.4,0,.7.1,1,.4.3.3.4.6.4,1,0,.9-.3,1.7-1,2.3,0,0-.4.3-.9.7-.2.1-.2.2,0,.3.9.7,2.1,1.3,3.7,1.9.4.2.7.4.9.8.2.4.2.7,0,1.1-.1.4-.4.7-.8.9-.4.2-.8.2-1.2,0-2.2-.8-4-1.8-5.5-3.1-.1-.1-.3-.1-.4,0-2.7,1.3-6.1,2.4-10.5,3.1ZM181.5,90.4c-.2-.4-.2-.8,0-1.2s.5-.7.9-.8c2.5-.6,4.3-1.4,5.3-2.2,1-.8,1.5-1.9,1.5-3.3v-.9c0-.5.2-.9.5-1.3.4-.4.8-.5,1.3-.5s.9.2,1.3.5c.4.4.5.8.5,1.3v.9c0,1.3.5,2.4,1.5,3.2,1,.8,2.8,1.6,5.3,2.2.4.1.7.4.9.8s.2.8,0,1.2c-.2.5-.5.8-1,1-.5.2-.9.3-1.4.1-3-.9-5.2-2.3-6.9-4.2-.1-.1-.2-.1-.3,0-1.7,2-4.1,3.4-7.2,4.3-.5.1-.9,0-1.4-.1-.4-.2-.8-.6-1-1.1ZM185.9,85.5c-.2.4-.6.7-1.1.8-.5.1-.9.1-1.4,0-.4-.1-.6-.4-.8-.8s0-.8.1-1.1c.3-.5.6-.9.8-1.4.2-.4.5-.7.9-.9.4-.2.8-.3,1.3-.2.4.1.8.4.9.8.2.4.2.8,0,1.2-.2.5-.5,1.1-.9,1.7ZM198.3,85.6c-.3.4-.7.7-1.2.8s-1,.1-1.4,0c-.4-.1-.6-.4-.7-.8-.1-.4,0-.8.2-1.1.3-.3.5-.7.7-1.1.3-.4.6-.7,1.1-.9.5-.2.9-.2,1.4,0,.4.1.7.4.9.8s.2.8,0,1.2c-.2.3-.5.8-.9,1.3Z"/>
        <path class="cls-6" d="M204.4,78c-.4,0-.8-.1-1-.4-.3-.3-.4-.6-.4-1s.1-.8.4-1.1.6-.4,1-.4h.1c.1,0,.2,0,.2-.2v-1.8c0-.5.2-.9.5-1.2.3-.3.7-.5,1.2-.5s.9.2,1.2.5.5.7.5,1.2v1.7c0,.2,0,.2.2.2h.2c.4,0,.8.1,1,.4.3.3.4.6.4,1.1s-.1.7-.4,1c-.3.3-.6.4-1,.4h-.2c-.2,0-.2,0-.2.2v2.7c0,.1,0,.2.2.1.3,0,.6,0,.9,0,.3.1.5.4.6.7,0,.2.2.2.3.1.1,0,.3,0,.5,0h2.1c.2,0,.3,0,.4-.2,0,0,0,0,0-.1,0,0,0,0,0-.1.2-.3.4-.5.8-.8,0,0,0,0,0-.1s0,0,0,0h-3.4c-.4,0-.7-.1-1-.4-.3-.3-.4-.6-.4-.9s.1-.7.4-1,.6-.4,1-.4h1.6c.2,0,.2,0,.1-.2,0,0-.1-.2-.2-.5,0-.2-.2-.4-.2-.5-.1-.3-.2-.5-.2-.8,0-.2,0-.2-.2-.2h-.3c-.4,0-.7-.1-1-.4-.3-.3-.4-.6-.4-1s.1-.7.4-1,.6-.4,1-.4h3.7c.1,0,.2,0,.2-.2,0-.4.1-.8.4-1.1.3-.3.6-.4,1.1-.4h.6c.4,0,.8.1,1.1.4.3.3.4.6.4,1.1s0,.2.2.2h3.7c.4,0,.7.1,1,.4.3.3.4.6.4,1s-.1.7-.4,1c-.3.3-.6.4-1,.4h-.4c0,0-.1,0-.1,0,0,0,0,.1,0,.2,0,.3,0,.6,0,.9l-.4.9c0,0,0,.1,0,.2,0,0,0,0,.1,0h1.4c.4,0,.7.1,1,.4s.4.6.4,1-.1.7-.4.9c-.3.3-.6.4-1,.4h-6s0,0-.1,0c0,0,0,0,0,.1.2.3.2.7,0,1,0,.1,0,.2.1.2h5.9c.4,0,.7.1,1,.4.3.3.4.6.4,1s-.1.7-.4,1-.6.4-1,.4h-.5c-.2,0-.3,0-.3.2-.4.9-.9,1.7-1.5,2.4,0,.1,0,.2,0,.3.6.3,1.3.6,2.1,1,.4.2.6.5.7.9.1.4,0,.8-.2,1.2-.2.4-.5.6-.9.7s-.8,0-1.2-.1c-1.1-.6-2.1-1.1-3.1-1.6-.2,0-.3,0-.5,0-1.8.9-4.1,1.6-7.1,2-.4,0-.8,0-1.1-.3s-.5-.6-.7-.9c0-.4,0-.7.2-1,.2-.3.5-.5.9-.5,1.6-.2,3-.4,4.1-.8,0,0,0,0,0,0s0,0,0,0c-.4-.2-.9-.3-1.4-.5,0,0-.1,0-.2,0-.2.2-.5.3-.7.3s-.5,0-.7-.2l-.5-.3c-.3-.2-.5-.5-.6-.9,0-.4,0-.7.3-1,.1-.1.3-.3.5-.6,0,0,0,0,0,0s0,0,0,0c0,0,0,0,0,0h-.2c-.5,0-.9-.2-1.2-.7,0-.1-.2-.2-.3,0-.2.1-.3.2-.5.2,0,0,0,0,0,0,0,0,0,0,0,0-.2,0-.2.1-.2.3v3.4c0,.7,0,1.2,0,1.6,0,.4,0,.8-.2,1.1,0,.3-.2.6-.3.7-.1.1-.3.3-.6.4s-.5.2-.8.2c-.3,0-.7,0-1.2,0h-.4c-.4,0-.8-.2-1-.5-.3-.3-.4-.6-.5-1,0-.4.1-.7.4-.9.3-.3.6-.4,1-.4h0c.1,0,.2,0,.2-.1,0,0,0-.4,0-.8v-2.9c0-.1,0-.2-.2-.2-.4,0-.7,0-1-.2-.3-.2-.5-.5-.5-.9v-.2c0-.4,0-.8.4-1.2s.6-.6,1.1-.7c.2,0,.2-.1.2-.2v-3.5c0-.1,0-.2-.2-.2h-.1ZM218.3,84.7h-3.1c-.2,0-.3,0-.4.2,0,0,0,0,0,.1,0,0,0,0-.1.1,0,0,0,0,0,.2s0,0,.1.1c.5.1,1.4.4,2.4.8.2,0,.3,0,.4-.1.3-.3.7-.7.9-1.1,0,0,0,0,0-.2,0,0,0,0-.1,0ZM218.5,75.6h-3.6c0,0-.1,0-.1,0,0,0,0,.1,0,.2.2.4.4,1,.8,1.8,0,.2.2.2.4.2h1.5c.2,0,.3,0,.4-.2.3-.6.6-1.2.9-1.8,0,0,0-.1,0-.2,0,0,0,0-.1,0Z"/>
        <path class="cls-6" d="M227.6,82.7c-.5,0-.9-.2-1.2-.5-.3-.3-.5-.8-.5-1.2v-1.8c0-.4.2-.8.5-1.1.3-.3.7-.5,1.1-.5s.2,0,.2-.2v-4c0-.5.2-1,.6-1.4.4-.4.8-.6,1.4-.6h13c.5,0,1,.2,1.4.6.4.4.6.8.6,1.4v4c0,.1,0,.2.2.2.4,0,.8.2,1.1.5.3.3.5.7.5,1.1v1.8c0,.5-.2.9-.5,1.2s-.7.5-1.2.5c-.2,0-.2,0-.2.2v5.3c0,.9,0,1.6,0,2,0,.4-.2.8-.5,1s-.7.4-1.1.5c-.4,0-1.1,0-2.1,0s-1.4,0-2.2,0c-.4,0-.7-.2-.9-.4-.3-.3-.4-.6-.4-.9,0-.3.1-.6.3-.9.2-.3.5-.4.9-.4.8,0,1.4,0,1.8,0s.5,0,.5,0c0,0,0-.2,0-.5h0c0-.2,0-.3-.3-.3h-8.8c-.2,0-.3,0-.3.2v1.4c0,.5-.2.9-.5,1.3-.4.4-.8.5-1.3.5s-.9-.2-1.3-.5c-.4-.4-.5-.8-.5-1.3v-7.1c0-.2,0-.2-.3-.2ZM229.7,79.7c-.2,0-.2,0-.2.2v.3c0,.2,0,.2.2.2h0s0,0,0,0h12.9c.2,0,.2,0,.2-.2v-.3c0-.2,0-.2-.2-.2h-13ZM231.2,74.3v3c0,.2,0,.3.2.3h1.5c.2,0,.2,0,.2-.3v-.6c0-.5.2-1,.6-1.4.4-.4.8-.6,1.4-.6h5.8c.2,0,.2,0,.2-.3v-.2c0-.2,0-.2-.2-.2h-9.4c-.2,0-.2,0-.2.2ZM240.8,83.3v-.3c0,0,0-.1,0-.2,0,0-.1,0-.2,0h-8.8c0,0-.1,0-.2,0,0,0,0,.1,0,.2v.3c0,0,0,.1,0,.2,0,0,.1,0,.2,0h8.8c0,0,.1,0,.2,0,0,0,0-.1,0-.2ZM240.8,86.2v-.4c0-.2,0-.2-.3-.2h-8.8c-.2,0-.3,0-.3.2v.4c0,.2,0,.2.3.2h8.8c.2,0,.3,0,.3-.2ZM241.1,76.9c0-.2,0-.2-.2-.2h-4.1c-.2,0-.2,0-.2.2v.4c0,.2,0,.3.2.3h4.1c.2,0,.2,0,.2-.3v-.4Z"/>
        <path class="cls-6" d="M251.5,91.4c-.3.3-.7.5-1.1.5s-.8-.2-1.1-.5-.5-.7-.5-1.1v-16.6c0-.5.2-1,.6-1.4.4-.4.8-.6,1.4-.6h4.8c.4,0,.7.1.9.4.3.3.4.6.4.9s0,.1,0,.1.1,0,.2,0c.3-.1.5-.2.8-.2h1.9c.2,0,.2,0,.2-.2,0-.5.2-.9.5-1.3.4-.3.8-.5,1.3-.5h0c.5,0,.9.2,1.3.5.3.3.5.8.5,1.3s0,.2.2.2h3c.5,0,1,.2,1.4.6.4.4.6.8.6,1.4v2c0,.5-.2.9-.5,1.2s-.7.5-1.2.5-.3,0-.3.2c0,.3-.3.5-.5.7-.2.2-.5.3-.8.3h-6.5c-.3,0-.6,0-.8-.3-.2-.2-.4-.4-.5-.7,0-.2-.2-.2-.3-.2-.4,0-.7-.2-1-.5-.3-.3-.4-.6-.4-1,0,0,0,0,0,0s0,0,0,0c-.3.7-.6,1.4-1,2.3,0,.1,0,.3,0,.4.3.5.6,1,.8,1.5,0,0,0,0,.1,0s.1,0,.2,0c.2-.2.5-.3.8-.3h10.6c.4,0,.7.1,1,.4.3.3.4.6.4,1s-.1.7-.4,1c-.3.3-.6.4-1,.4h-1.9c-.2,0-.2,0-.2.2v4c0,.2,0,.4,0,.4,0,0,.2,0,.5,0s.3,0,.3,0c0,0,.1,0,.2-.2s.1-.3.1-.5c0-.2,0-.6,0-1.1,0-.4.2-.7.4-.9.3-.2.6-.3.9-.3.4,0,.7.2.9.5.2.3.4.6.3,1,0,.6,0,1.1,0,1.4,0,.4,0,.7-.2,1.1,0,.3-.1.6-.2.8,0,.2-.2.4-.3.5s-.3.3-.4.3c-.1,0-.3.1-.6.2-.3,0-.6,0-.8,0h-1.1c-1.1,0-1.9,0-2.3-.2s-.8-.3-.9-.6c-.2-.3-.2-.7-.2-1.4v-5.2c0-.2,0-.2-.2-.2h-.3c-.2,0-.3,0-.3.2,0,1.6-.5,2.9-1.1,4-.7,1.1-1.7,2.1-3.1,2.9-.4.2-.8.3-1.3.2-.4-.1-.8-.4-1-.8-.2-.4-.3-.7-.2-1.2.1-.4.4-.7.7-.9.9-.5,1.6-1.1,2-1.8.4-.7.7-1.5.8-2.4,0-.1,0-.2-.2-.2h-1.1c0,0-.2,0-.3,0,0,0-.1,0-.2,0,0,0,0,0,0,.1h0c0,1.2-.2,2-.6,2.6-.4.6-1,.9-1.7,1.1-.4,0-.7,0-1.1-.3-.3-.3-.5-.6-.6-1v-.5c-.2-.4,0-.7.5-1,.3-.1.4-.6.4-1.5s0-1.1-.3-1.6c-.2-.5-.5-1-.9-1.6,0,0,0,0-.1,0,0,0,0,0,0,0v9.8c0,.4-.2.8-.5,1.1ZM251.9,74.7v3.9s0,0,0,0c0,0,0,0,0,0,.6-1.2,1.2-2.5,1.6-4,0,0,0-.1,0-.2,0,0,0,0-.2,0h-1.3c-.2,0-.2,0-.2.3ZM259,76.2v.7c0,.2,0,.2.3.2h5.9c.2,0,.3,0,.3-.2v-.7c0-.2,0-.2-.3-.2h-5.9c-.2,0-.3,0-.3.2Z"/>
      </g>
      <g>
        <path class="cls-6" d="M75.4,101l-2.1-3.6c0-.2,0-.3,0-.5s.3-.2.5-.2h.3c.3,0,.5,0,.8.2.2.1.4.3.5.5l1.1,2.3s0,0,0,0,0,0,0,0l1.1-2.3c.1-.2.3-.4.5-.5.2-.1.5-.2.8-.2h.2c.2,0,.4,0,.5.2.1.2.1.3,0,.5l-2.1,3.6c0,0,0,.2,0,.2v1.8c0,.2,0,.4-.3.6-.2.2-.4.2-.7.2h0c-.3,0-.5,0-.7-.2-.2-.2-.3-.4-.3-.6v-1.8c0,0,0-.1,0-.2Z"/>
        <path class="cls-6" d="M82.4,103.9c-.6,0-1.1-.2-1.4-.5-.3-.3-.4-.9-.4-1.6v-2.3c0-.2,0-.4.3-.5s.4-.2.6-.2.4,0,.6.2c.2.1.2.3.2.5v2.2c0,.4,0,.6.2.8.1.1.3.2.6.2s.5,0,.7-.3c.2-.2.3-.4.3-.6v-2.3c0-.2,0-.4.3-.6.2-.2.4-.2.6-.2s.5,0,.6.2c.2.2.3.3.3.6v3.5c0,.2,0,.4-.2.5-.2.1-.4.2-.6.2h-.2c-.2,0-.3,0-.5-.2-.1-.1-.2-.2-.2-.4h0c0,0,0,0,0,0h0c-.5.5-1,.7-1.7.7Z"/>
        <path class="cls-6" d="M88.7,103.9c-.5,0-.9-.1-1.2-.4-.3-.3-.5-.7-.5-1.1,0-1.2,1-1.8,3-1.8h.4c0,0,.1,0,.1-.1h0c0-.3,0-.4-.2-.6-.1-.1-.4-.2-.7-.2s-.9,0-1.6.2c-.2,0-.3,0-.4,0-.1,0-.2-.2-.2-.3s0-.3.2-.5c.1-.1.3-.2.4-.2.6-.1,1.2-.2,1.7-.2,1,0,1.6.2,2,.5.4.3.6.8.6,1.5v2.5c0,.2,0,.4-.2.5s-.4.2-.6.2h-.2c-.2,0-.4,0-.5-.2-.1-.1-.2-.3-.2-.4h0c0,0,0,0,0,0,0,0,0,0,0,0-.5.5-1.1.8-1.8.8ZM90,101.5c-.9,0-1.3.2-1.3.7s0,.3.2.4c.1.1.3.2.5.2.4,0,.6,0,.9-.3.2-.2.3-.5.3-.8h0c0-.2,0-.2-.1-.2h-.4Z"/>
        <path class="cls-6" d="M94.6,97.8c-.2,0-.4,0-.5-.2-.1-.1-.2-.3-.2-.4s0-.3.2-.4.3-.2.5-.2h.4c.2,0,.4,0,.5.2s.2.3.2.4,0,.3-.2.4-.3.2-.5.2h-.4ZM95.5,103.6c-.2.2-.4.2-.7.2s-.5,0-.7-.2c-.2-.2-.3-.4-.3-.6v-3.4c0-.2,0-.4.3-.6.2-.2.4-.2.7-.2s.5,0,.7.2c.2.2.3.4.3.6v3.4c0,.2,0,.4-.3.6Z"/>
        <path class="cls-6" d="M100.8,103.8c-.2,0-.4,0-.5-.2-.1-.2-.2-.3,0-.5l2-5.5c0-.2.2-.4.5-.6s.5-.2.8-.2h.1c.3,0,.5,0,.8.2s.4.3.5.6l2,5.5c0,.2,0,.4,0,.5-.1.2-.3.2-.5.2h-.1c-.3,0-.5,0-.7-.2s-.4-.3-.4-.6l-.2-.6c0,0,0-.1-.2-.1h-2.1c0,0-.1,0-.2.1l-.2.6c0,.2-.2.4-.4.6-.2.1-.5.2-.7.2h0ZM103.5,98.2l-.8,2.8s0,0,0,0,0,0,0,0h1.4s0,0,0,0c0,0,0,0,0,0l-.8-2.8s0,0,0,0c0,0,0,0,0,0Z"/>
        <path class="cls-6" d="M110.3,103.9c-.9,0-1.7-.2-2.2-.7-.5-.4-.8-1.1-.8-2s.2-1.5.7-2c.5-.5,1.2-.7,2.1-.7s.7,0,1.1,0c.2,0,.4.1.5.2.1.1.2.3.2.5s0,.3-.2.4c-.1,0-.3.1-.5.1-.3,0-.6,0-.9,0s-.7.1-.9.3-.3.6-.3,1.1.1.9.3,1.1c.2.2.6.3,1,.3s.6,0,.8,0c.2,0,.3,0,.5,0,.1,0,.2.2.2.4s0,.3-.2.5c-.1.1-.3.2-.5.2-.4,0-.8,0-1.1,0Z"/>
        <path class="cls-6" d="M115.3,103.9c-.6,0-1.1-.2-1.4-.5-.3-.3-.4-.9-.4-1.6v-2.3c0-.2,0-.4.3-.5s.4-.2.6-.2.4,0,.6.2c.2.1.2.3.2.5v2.2c0,.4,0,.6.2.8.1.1.3.2.6.2s.5,0,.7-.3c.2-.2.3-.4.3-.6v-2.3c0-.2,0-.4.3-.6.2-.2.4-.2.6-.2s.5,0,.6.2c.2.2.3.3.3.6v3.5c0,.2,0,.4-.2.5-.2.1-.4.2-.6.2h-.2c-.2,0-.3,0-.5-.2-.1-.1-.2-.2-.2-.4h0c0,0,0,0,0,0h0c-.5.5-1,.7-1.7.7Z"/>
        <path class="cls-6" d="M121.7,105.7c-.2.2-.4.2-.6.2s-.5,0-.6-.2c-.2-.2-.3-.3-.3-.6v-5.7c0-.2,0-.4.2-.5.2-.1.4-.2.6-.2h.2c.2,0,.3,0,.5.2.1.1.2.2.2.4h0c0,0,0,0,0,0h0c.5-.5,1-.7,1.7-.7s1.2.2,1.6.7c.4.5.6,1.1.6,1.9s-.2,1.5-.6,1.9c-.4.5-1,.7-1.6.7s-1.1-.2-1.6-.6c0,0,0,0,0,0s0,0,0,0v1.8c0,.2,0,.4-.3.6ZM121.9,100.7v1.2c0,.2.1.4.3.6.2.2.5.3.8.3s.6-.1.8-.4c.2-.2.3-.6.3-1.1,0-1-.4-1.5-1.1-1.5s-.5,0-.8.3-.3.4-.3.6Z"/>
        <path class="cls-6" d="M128.7,103.9c-.6,0-1.1-.2-1.4-.5-.3-.3-.4-.9-.4-1.6v-2.3c0-.2,0-.4.3-.5s.4-.2.6-.2.4,0,.6.2c.2.1.2.3.2.5v2.2c0,.4,0,.6.2.8.1.1.3.2.6.2s.5,0,.7-.3c.2-.2.3-.4.3-.6v-2.3c0-.2,0-.4.3-.6.2-.2.4-.2.6-.2s.5,0,.6.2c.2.2.3.3.3.6v3.5c0,.2,0,.4-.2.5-.2.1-.4.2-.6.2h-.2c-.2,0-.3,0-.5-.2-.1-.1-.2-.2-.2-.4h0c0,0,0,0,0,0h0c-.5.5-1,.7-1.7.7Z"/>
        <path class="cls-6" d="M135.1,103.6c-.2.2-.4.2-.6.2s-.5,0-.6-.2c-.2-.2-.3-.3-.3-.6v-3.5c0-.2,0-.4.2-.5.2-.1.4-.2.6-.2h.2c.2,0,.3,0,.4.2.1.1.2.2.2.4h0c0,0,0,0,0,0h0c.5-.5,1-.7,1.7-.7s1.1.2,1.4.5c.3.3.4.9.4,1.7v2.2c0,.2,0,.4-.2.5-.2.1-.4.2-.6.2s-.4,0-.6-.2c-.2-.1-.3-.3-.3-.5v-2.1c0-.4,0-.7-.2-.8s-.3-.2-.6-.2-.5,0-.7.3c-.2.2-.3.4-.3.6v2.3c0,.2,0,.4-.3.6Z"/>
        <path class="cls-6" d="M142.9,103.9c-.9,0-1.7-.2-2.2-.7-.5-.4-.8-1.1-.8-2s.2-1.5.7-2c.5-.5,1.2-.7,2.1-.7s.7,0,1.1,0c.2,0,.4.1.5.2s.2.3.2.5,0,.3-.2.4c-.1,0-.3.1-.5.1-.3,0-.6,0-.9,0s-.7.1-.9.3-.3.6-.3,1.1.1.9.3,1.1c.2.2.6.3,1,.3s.6,0,.8,0c.2,0,.3,0,.5,0,.1,0,.2.2.2.4s0,.3-.2.5c-.1.1-.3.2-.5.2-.4,0-.8,0-1.1,0Z"/>
        <path class="cls-6" d="M146.4,100.1c-.2,0-.3,0-.4-.2-.1-.1-.2-.2-.2-.4s0-.3.2-.4c.1-.1.3-.2.4-.2h.4c0,0,.1,0,.1-.1v-1c0-.2,0-.4.3-.6.2-.2.4-.2.6-.2s.5,0,.6.2.3.3.3.6v1c0,0,0,.1.1.1h1.1c.2,0,.3,0,.4.2.1.1.2.2.2.4s0,.3-.2.4-.3.2-.4.2h-1.1c0,0-.1,0-.1.1v1.6c0,.4,0,.7.1.8,0,.1.3.2.6.2s.2,0,.3,0c.2,0,.3,0,.4.1.1,0,.2.2.2.4s0,.3-.2.5-.3.2-.5.2c-.3,0-.6,0-.8,0-.7,0-1.3-.1-1.6-.4s-.5-.8-.5-1.5v-1.8c0,0,0-.1-.1-.1h-.4Z"/>
        <path class="cls-6" d="M153.7,103.9c-.6,0-1.1-.2-1.4-.5-.3-.3-.4-.9-.4-1.6v-2.3c0-.2,0-.4.3-.5s.4-.2.6-.2.4,0,.6.2c.2.1.2.3.2.5v2.2c0,.4,0,.6.2.8.1.1.3.2.6.2s.5,0,.7-.3c.2-.2.3-.4.3-.6v-2.3c0-.2,0-.4.3-.6.2-.2.4-.2.6-.2s.5,0,.6.2c.2.2.3.3.3.6v3.5c0,.2,0,.4-.2.5-.2.1-.4.2-.6.2h-.2c-.2,0-.3,0-.5-.2-.1-.1-.2-.2-.2-.4h0c0,0,0,0,0,0h0c-.5.5-1,.7-1.7.7Z"/>
        <path class="cls-6" d="M160.2,103.6c-.2.2-.4.2-.6.2s-.5,0-.6-.2c-.2-.2-.3-.3-.3-.6v-3.5c0-.2,0-.4.3-.6s.4-.2.6-.2.5,0,.6.2.3.3.3.6v.2s0,0,0,0c0,0,0,0,0,0,.4-.5,1-.8,1.9-.9.2,0,.3,0,.5.1.1.1.2.3.2.4s0,.3-.2.4c-.1.1-.3.2-.5.2-.6,0-1,.2-1.3.5-.3.3-.5.7-.5,1.2v1.3c0,.2,0,.4-.3.6Z"/>
        <path class="cls-6" d="M166.9,103.9c-1,0-1.8-.2-2.3-.7s-.8-1.1-.8-2,.2-1.5.7-2c.5-.5,1.2-.7,2.1-.7,1.6,0,2.5.7,2.6,2.2,0,.2,0,.4-.3.6-.2.2-.4.2-.7.2h-2.6s0,0,0,0c0,0,0,0,0,0,0,.4.2.6.5.7.2.1.6.2,1.1.2s.7,0,1.1-.1c.2,0,.3,0,.4,0s.2.2.2.3,0,.3-.2.4-.3.2-.4.2c-.4,0-.9.1-1.3.1ZM166.6,99.7c-.3,0-.6,0-.7.2-.2.1-.3.4-.3.7,0,0,0,0,0,0,0,0,0,0,0,0h1.8c0,0,.1,0,.1-.1,0-.7-.4-1-1-1Z"/>
        <path class="cls-6" d="M179.6,103c-.7.6-1.6,1-2.7,1s-2.1-.3-2.7-1c-.7-.6-1-1.5-1-2.7s.3-2,1-2.7c.7-.6,1.6-1,2.7-1s2.1.3,2.7,1c.7.6,1,1.5,1,2.7s-.3,2-1,2.7ZM178.7,100.3c0-1.5-.6-2.3-1.8-2.3s-1.8.8-1.8,2.3.6,2.3,1.8,2.3,1.8-.8,1.8-2.3Z"/>
        <path class="cls-6" d="M183.2,103.6c-.2.2-.4.2-.6.2s-.5,0-.6-.2c-.2-.2-.3-.3-.3-.6v-3.5c0-.2,0-.4.3-.6s.4-.2.6-.2.5,0,.6.2c.2.2.3.3.3.6v.2s0,0,0,0c0,0,0,0,0,0,.4-.5,1-.8,1.9-.9.2,0,.3,0,.5.1.1.1.2.3.2.4s0,.3-.2.4c-.1.1-.3.2-.5.2-.6,0-1,.2-1.3.5-.3.3-.5.7-.5,1.2v1.3c0,.2,0,.4-.3.6Z"/>
        <path class="cls-6" d="M187.6,100.1c-.2,0-.3,0-.4-.2-.1-.1-.2-.2-.2-.4s0-.3.2-.4c.1-.1.3-.2.4-.2h.4c0,0,.1,0,.1-.1v-1c0-.2,0-.4.3-.6s.4-.2.6-.2.5,0,.6.2.3.3.3.6v1c0,0,0,.1.1.1h1.1c.2,0,.3,0,.4.2.1.1.2.2.2.4s0,.3-.2.4c-.1.1-.3.2-.4.2h-1.1c0,0-.1,0-.1.1v1.6c0,.4,0,.7.1.8,0,.1.3.2.6.2s.2,0,.3,0c.2,0,.3,0,.4.1.1,0,.2.2.2.4s0,.3-.2.5c-.1.1-.3.2-.5.2-.3,0-.6,0-.8,0-.7,0-1.3-.1-1.6-.4s-.5-.8-.5-1.5v-1.8c0,0,0-.1-.1-.1h-.4Z"/>
        <path class="cls-6" d="M194.7,103.6c-.2.2-.4.2-.6.2s-.5,0-.6-.2c-.2-.2-.3-.3-.3-.6v-5.7c0-.2,0-.4.3-.6.2-.2.4-.2.6-.2s.5,0,.6.2c.2.2.3.3.3.6v2s0,0,0,0,0,0,0,0c.5-.4,1.1-.6,1.6-.6s1.2.2,1.4.5c.3.3.4.9.4,1.8v2.1c0,.2,0,.4-.3.5s-.4.2-.6.2-.4,0-.6-.2-.3-.3-.3-.5v-1.9c0-.5,0-.9-.2-1-.1-.2-.3-.3-.6-.3s-.5,0-.7.3c-.2.2-.3.4-.3.6v2.2c0,.2,0,.4-.3.6Z"/>
        <path class="cls-6" d="M204.5,103.2c-.5.5-1.2.7-2.1.7s-1.6-.2-2.1-.7c-.5-.5-.8-1.1-.8-1.9s.3-1.5.8-1.9c.5-.5,1.2-.7,2.1-.7s1.6.2,2.1.7c.5.5.8,1.1.8,1.9s-.3,1.5-.8,1.9ZM203.2,100.1c-.2-.2-.5-.4-.8-.4s-.6.1-.8.4-.3.6-.3,1.2,0,.9.3,1.2.5.4.8.4.6-.1.8-.4c.2-.2.3-.6.3-1.2,0-.5,0-.9-.3-1.2Z"/>
        <path class="cls-6" d="M207.8,105.7c-.2.2-.4.2-.6.2s-.5,0-.6-.2c-.2-.2-.3-.3-.3-.6v-5.7c0-.2,0-.4.2-.5.2-.1.4-.2.6-.2h.2c.2,0,.3,0,.5.2.1.1.2.2.2.4h0c0,0,0,0,0,0h0c.5-.5,1-.7,1.7-.7s1.2.2,1.6.7c.4.5.6,1.1.6,1.9s-.2,1.5-.6,1.9c-.4.5-1,.7-1.6.7s-1.1-.2-1.6-.6c0,0,0,0,0,0s0,0,0,0v1.8c0,.2,0,.4-.3.6ZM208,100.7v1.2c0,.2.1.4.3.6.2.2.5.3.8.3s.6-.1.8-.4c.2-.2.3-.6.3-1.1,0-1-.4-1.5-1.1-1.5s-.5,0-.8.3-.3.4-.3.6Z"/>
        <path class="cls-6" d="M215.8,103.9c-1,0-1.8-.2-2.3-.7-.5-.4-.8-1.1-.8-2s.2-1.5.7-2c.5-.5,1.2-.7,2.1-.7,1.6,0,2.5.7,2.6,2.2,0,.2,0,.4-.3.6-.2.2-.4.2-.7.2h-2.6s0,0,0,0c0,0,0,0,0,0,0,.4.2.6.5.7s.6.2,1.1.2.7,0,1.1-.1c.2,0,.3,0,.4,0s.2.2.2.3,0,.3-.2.4-.3.2-.4.2c-.4,0-.9.1-1.3.1ZM215.5,99.7c-.3,0-.6,0-.7.2-.2.1-.3.4-.3.7,0,0,0,0,0,0,0,0,0,0,0,0h1.8c0,0,.1,0,.1-.1,0-.7-.4-1-1-1Z"/>
        <path class="cls-6" d="M221.1,103.9c-.7,0-1.2-.2-1.6-.7-.4-.5-.6-1.1-.6-1.9s.2-1.5.6-1.9c.4-.5.9-.7,1.6-.7s1.1.2,1.6.6c0,0,0,0,0,0s0,0,0,0v-1.9c0-.2,0-.4.3-.6.2-.2.4-.2.6-.2s.5,0,.6.2c.2.2.3.3.3.6v5.8c0,.2,0,.4-.2.5s-.4.2-.6.2h-.2c-.2,0-.3,0-.5-.2-.1-.1-.2-.2-.2-.4h0c0,0,0,0,0,0h0c-.5.5-1,.7-1.7.7ZM221.7,99.8c-.7,0-1.1.5-1.1,1.5s0,.9.3,1.1c.2.2.5.4.8.4s.5,0,.8-.3c.2-.2.3-.4.3-.6v-1.2c0-.2-.1-.4-.3-.6-.2-.2-.5-.3-.8-.3Z"/>
        <path class="cls-6" d="M227.1,97.8c-.2,0-.4,0-.5-.2-.1-.1-.2-.3-.2-.4s0-.3.2-.4c.1-.1.3-.2.5-.2h.4c.2,0,.4,0,.5.2.1.1.2.3.2.4s0,.3-.2.4c-.1.1-.3.2-.5.2h-.4ZM227.9,103.6c-.2.2-.4.2-.7.2s-.5,0-.7-.2c-.2-.2-.3-.4-.3-.6v-3.4c0-.2,0-.4.3-.6.2-.2.4-.2.7-.2s.5,0,.7.2c.2.2.3.4.3.6v3.4c0,.2,0,.4-.3.6Z"/>
        <path class="cls-6" d="M232.5,103.9c-.9,0-1.7-.2-2.2-.7-.5-.4-.8-1.1-.8-2s.2-1.5.7-2c.5-.5,1.2-.7,2.1-.7s.7,0,1.1,0c.2,0,.4.1.5.2s.2.3.2.5,0,.3-.2.4c-.1,0-.3.1-.5.1-.3,0-.6,0-.9,0s-.7.1-.9.3-.3.6-.3,1.1.1.9.3,1.1c.2.2.6.3,1,.3s.6,0,.8,0c.2,0,.3,0,.5,0,.1,0,.2.2.2.4s0,.3-.2.5c-.1.1-.3.2-.5.2-.4,0-.8,0-1.1,0Z"/>
        <path class="cls-6" d="M242.3,103.9c-1.2,0-2.1-.3-2.8-.9-.7-.6-1-1.5-1-2.7s.3-2.1,1-2.7c.7-.6,1.6-1,2.8-1s.9,0,1.3,0c.2,0,.4.1.6.3s.2.4.2.6,0,.3-.2.4c-.2.1-.3.1-.5,0-.3,0-.7-.1-1.1-.1-.7,0-1.2.2-1.5.6-.4.4-.6,1-.6,1.7s.2,1.3.6,1.7c.4.4.9.6,1.6.6s.8,0,1.1-.1c.2,0,.4,0,.5,0,.2.1.2.2.2.4s0,.4-.2.5-.3.3-.6.3c-.4,0-.9,0-1.3,0Z"/>
        <path class="cls-6" d="M247.8,103.6c-.2.2-.4.2-.7.2s-.5,0-.7-.2c-.2-.2-.3-.4-.3-.6v-5.6c0-.2,0-.4.3-.6.2-.2.4-.2.7-.2s.5,0,.7.2c.2.2.3.4.3.6v5.6c0,.2,0,.4-.3.6Z"/>
        <path class="cls-6" d="M250.8,97.8c-.2,0-.4,0-.5-.2-.1-.1-.2-.3-.2-.4s0-.3.2-.4c.1-.1.3-.2.5-.2h.4c.2,0,.4,0,.5.2.1.1.2.3.2.4s0,.3-.2.4c-.1.1-.3.2-.5.2h-.4ZM251.6,103.6c-.2.2-.4.2-.7.2s-.5,0-.7-.2-.3-.4-.3-.6v-3.4c0-.2,0-.4.3-.6s.4-.2.7-.2.5,0,.7.2.3.4.3.6v3.4c0,.2,0,.4-.3.6Z"/>
        <path class="cls-6" d="M255.1,103.6c-.2.2-.4.2-.6.2s-.5,0-.6-.2c-.2-.2-.3-.3-.3-.6v-3.5c0-.2,0-.4.2-.5.2-.1.4-.2.6-.2h.2c.2,0,.3,0,.4.2.1.1.2.2.2.4h0c0,0,0,0,0,0h0c.5-.5,1-.7,1.7-.7s1.1.2,1.4.5c.3.3.4.9.4,1.7v2.2c0,.2,0,.4-.2.5-.2.1-.4.2-.6.2s-.4,0-.6-.2c-.2-.1-.3-.3-.3-.5v-2.1c0-.4,0-.7-.2-.8-.1-.1-.3-.2-.6-.2s-.5,0-.7.3c-.2.2-.3.4-.3.6v2.3c0,.2,0,.4-.3.6Z"/>
        <path class="cls-6" d="M261.3,97.8c-.2,0-.4,0-.5-.2-.1-.1-.2-.3-.2-.4s0-.3.2-.4c.1-.1.3-.2.5-.2h.4c.2,0,.4,0,.5.2.1.1.2.3.2.4s0,.3-.2.4c-.1.1-.3.2-.5.2h-.4ZM262.2,103.6c-.2.2-.4.2-.7.2s-.5,0-.7-.2-.3-.4-.3-.6v-3.4c0-.2,0-.4.3-.6s.4-.2.7-.2.5,0,.7.2.3.4.3.6v3.4c0,.2,0,.4-.3.6Z"/>
        <path class="cls-6" d="M266.8,103.9c-.9,0-1.7-.2-2.2-.7-.5-.4-.8-1.1-.8-2s.2-1.5.7-2c.5-.5,1.2-.7,2.1-.7s.7,0,1.1,0c.2,0,.4.1.5.2.1.1.2.3.2.5s0,.3-.2.4c-.1,0-.3.1-.5.1-.3,0-.6,0-.9,0s-.7.1-.9.3-.3.6-.3,1.1.1.9.3,1.1c.2.2.6.3,1,.3s.6,0,.8,0c.2,0,.3,0,.5,0,.1,0,.2.2.2.4s0,.3-.2.5c-.1.1-.3.2-.5.2-.4,0-.8,0-1.1,0Z"/>
      </g>
    </g>
  </g>
</svg>