<?xml version="1.0" encoding="iso-8859-1"?>
<!-- Generator: Adobe Illustrator 28.5.0, SVG Export Plug-In . SVG Version: 9.03 Build 54727)  -->
<svg version="1.1" xmlns="http://www.w3.org/2000/svg" xmlns:xlink="http://www.w3.org/1999/xlink" x="0px" y="0px"
	 viewBox="0 0 191.879 595.597" style="enable-background:new 0 0 191.879 595.597;" xml:space="preserve">
<g id="&#x30EC;&#x30A4;&#x30E4;&#x30FC;_1">
	<g>
		<g>
			<path style="fill:#FFFFFF;" d="M55.252,266.476c-1.075-0.038-1.988-0.381-2.74-1.031c-0.753-0.651-1.107-1.44-1.063-2.37
				c0-0.966,0.387-1.774,1.16-2.425c0.773-0.65,1.697-0.957,2.772-0.92c3.524,0.037,6.2-0.446,8.027-1.45
				c1.827-1.004,2.74-2.528,2.74-4.572c0-1.97-0.999-3.476-2.998-4.517c-1.999-1.041-4.847-1.562-8.543-1.562
				c-1.462,0-2.859,0.056-4.191,0.167c-1.333,0.111-2.622,0.26-3.868,0.446v7.026c0,3.829-1.011,6.645-3.031,8.448
				c-2.021,1.802-4.943,2.704-8.769,2.704c-3.095,0-5.674-0.688-7.737-2.063c-2.063-1.375-3.095-3.569-3.095-6.58
				c0-3.085,1.343-5.855,4.029-8.308c2.687-2.454,6.352-4.368,10.994-5.743v-8.308c-1.849,0.149-3.644,0.26-5.384,0.334
				c-1.741,0.075-3.364,0.13-4.868,0.167c-1.075,0-1.999-0.315-2.772-0.948c-0.774-0.632-1.161-1.412-1.161-2.342
				c0-0.929,0.376-1.709,1.129-2.342c0.751-0.632,1.665-0.948,2.74-0.948c1.504-0.037,3.137-0.092,4.9-0.167
				c1.762-0.074,3.567-0.167,5.416-0.279v-6.858c0-0.966,0.364-1.775,1.096-2.426c0.73-0.65,1.633-0.976,2.708-0.976
				c1.074,0,1.977,0.326,2.708,0.976c0.73,0.651,1.097,1.459,1.097,2.426v6.301c0.988-0.074,1.912-0.167,2.772-0.279
				c0.859-0.111,1.697-0.204,2.515-0.279c1.073-0.148,2.041,0.019,2.901,0.502c0.859,0.483,1.375,1.19,1.547,2.119
				c0.172,0.93-0.064,1.729-0.709,2.397c-0.645,0.669-1.505,1.079-2.579,1.227c-0.902,0.149-1.902,0.279-2.998,0.39
				c-1.096,0.112-2.247,0.242-3.449,0.39v7.36c2.579-0.334,5.308-0.502,8.188-0.502c3.954,0,7.371,0.484,10.252,1.45
				c2.879,0.967,5.104,2.351,6.674,4.154c1.568,1.804,2.353,3.95,2.353,6.44c0,4.126-1.655,7.323-4.964,9.59
				C65.74,265.565,61.141,266.625,55.252,266.476z M34.748,260.064c1.29,0,2.311-0.315,3.062-0.948
				c0.752-0.631,1.129-1.914,1.129-3.847v-5.019c-2.321,0.93-4.117,2.036-5.384,3.318c-1.269,1.283-1.902,2.612-1.902,3.987
				C31.653,259.228,32.685,260.064,34.748,260.064z M69.309,239.377c-0.688-0.446-1.526-0.938-2.515-1.478
				c-0.989-0.538-1.979-1.059-2.967-1.561c-0.989-0.502-1.849-0.901-2.579-1.199c-0.945-0.409-1.623-1.041-2.03-1.896
				c-0.409-0.854-0.398-1.691,0.032-2.509c0.516-0.892,1.278-1.468,2.289-1.729c1.009-0.259,1.987-0.186,2.934,0.223
				c0.902,0.372,1.934,0.855,3.095,1.45c1.16,0.595,2.31,1.199,3.449,1.812c1.139,0.614,2.073,1.163,2.805,1.645
				c0.859,0.521,1.354,1.227,1.483,2.119c0.129,0.892-0.107,1.71-0.709,2.453c-0.646,0.707-1.474,1.125-2.482,1.255
				C71.103,240.093,70.168,239.898,69.309,239.377z"/>
			<path style="fill:#FFFFFF;" d="M25.27,324.745c-0.989,0-1.837-0.298-2.547-0.892c-0.709-0.595-1.063-1.357-1.063-2.286v-39.032
				c0-3.047,0.806-5.194,2.418-6.44c1.611-1.245,4.288-1.868,8.027-1.868h4.256c3.781,0,6.479,0.623,8.092,1.868
				c1.611,1.246,2.418,3.393,2.418,6.44v2.9c0,2.044-0.354,3.634-1.064,4.767c-0.709,1.134-1.827,1.924-3.353,2.37
				c-1.526,0.446-3.558,0.669-6.093,0.669h-7.415v28.326c0,0.929-0.354,1.691-1.064,2.286
				C27.172,324.447,26.302,324.745,25.27,324.745z M28.945,288.279h6.705c1.505,0,2.547-0.158,3.128-0.474
				c0.58-0.315,0.912-0.994,0.999-2.035H28.945V288.279z M29.01,281.587h10.703c-0.087-0.966-0.409-1.607-0.967-1.924
				c-0.56-0.315-1.591-0.474-3.096-0.474h-2.579c-1.462,0-2.482,0.158-3.062,0.474C29.429,279.98,29.095,280.621,29.01,281.587z
				 M48.869,315.489c-3.139,0-5.589-0.307-7.351-0.92c-1.764-0.613-3.01-1.58-3.74-2.899c-0.731-1.319-1.096-3.02-1.096-5.102
				c0-2.119,0.364-3.828,1.096-5.13c0.73-1.3,1.977-2.249,3.74-2.843c1.762-0.594,4.212-0.893,7.351-0.893
				c3.137,0,5.577,0.298,7.317,0.893c1.741,0.595,2.977,1.543,3.708,2.843c0.73,1.302,1.096,3.011,1.096,5.13
				c0,2.083-0.365,3.783-1.096,5.102c-0.731,1.32-1.967,2.286-3.708,2.899C54.446,315.182,52.006,315.489,48.869,315.489z
				 M48.869,310.192c1.891,0,3.169-0.241,3.836-0.725c0.666-0.483,0.999-1.45,0.999-2.9c0-1.412-0.333-2.36-0.999-2.844
				c-0.667-0.482-1.945-0.725-3.836-0.725c-1.935,0-3.235,0.242-3.901,0.725c-0.667,0.484-0.999,1.432-0.999,2.844
				c0,1.45,0.332,2.417,0.999,2.9C45.634,309.95,46.935,310.192,48.869,310.192z M66.665,324.41c-1.248,0-2.225-0.289-2.935-0.864
				c-0.709-0.577-1.106-1.348-1.192-2.314c-0.129-0.892,0.129-1.673,0.773-2.342c0.646-0.669,1.504-1.059,2.579-1.171
				c1.634-0.186,2.633-0.464,2.998-0.836c0.365-0.371,0.549-1.078,0.549-2.119v-21.523h-7.673c-2.494,0-4.514-0.223-6.062-0.669
				c-1.547-0.446-2.676-1.236-3.385-2.37c-0.709-1.133-1.063-2.723-1.063-4.767v-2.844c0-3.085,0.815-5.242,2.449-6.468
				s4.32-1.84,8.061-1.84h4.513c3.74,0,6.426,0.613,8.061,1.84c1.633,1.227,2.45,3.383,2.45,6.468v33.734
				c0,2.863-0.796,4.925-2.386,6.189C72.812,323.778,70.233,324.41,66.665,324.41z M58.411,281.587h11.026
				c-0.129-0.966-0.474-1.607-1.032-1.924c-0.559-0.315-1.591-0.474-3.095-0.474h-2.772c-1.462,0-2.493,0.158-3.095,0.474
				C58.841,279.98,58.497,280.621,58.411,281.587z M62.538,288.279h6.899v-2.509H58.411c0.086,1.041,0.419,1.72,1,2.035
				C59.991,288.121,61.033,288.279,62.538,288.279z"/>
			<path style="fill:#FFFFFF;" d="M38.617,371.149c-1.979,0.075-3.869-0.315-5.675-1.171c-1.805-0.854-3.396-2.23-4.771-4.126
				c-1.16-1.673-2.149-3.792-2.966-6.356c-0.816-2.565-1.397-5.344-1.74-8.336c-0.345-2.992-0.431-5.976-0.259-8.95
				c0.086-0.929,0.505-1.7,1.258-2.313c0.752-0.613,1.665-0.883,2.74-0.809c1.074,0.037,1.967,0.4,2.676,1.087
				c0.709,0.688,1.021,1.497,0.935,2.426c-0.172,2.603-0.15,5.14,0.065,7.611c0.214,2.473,0.622,4.722,1.225,6.747
				c0.602,2.026,1.354,3.708,2.257,5.046c0.988,1.524,2.234,2.286,3.739,2.286c1.848-0.036,3.396-1.709,4.643-5.019
				c0.344-0.854,0.988-1.496,1.935-1.924c0.945-0.427,1.935-0.492,2.966-0.194c0.988,0.26,1.719,0.809,2.192,1.645
				c0.473,0.836,0.537,1.683,0.193,2.537c-1.204,3.271-2.815,5.697-4.836,7.276C43.173,370.192,40.981,371.037,38.617,371.149z
				 M73.757,361.335c-1.031,0.334-2.03,0.298-2.998-0.111c-0.967-0.409-1.644-1.041-2.031-1.896
				c-0.645-1.374-1.515-2.769-2.611-4.182c-1.096-1.412-2.321-2.75-3.675-4.015c-1.354-1.264-2.74-2.322-4.159-3.178
				c-0.86-0.521-1.397-1.245-1.611-2.175c-0.216-0.929,0.021-1.766,0.709-2.51c0.688-0.743,1.536-1.151,2.547-1.227
				c1.01-0.074,1.967,0.167,2.869,0.725c1.806,1.079,3.578,2.398,5.319,3.959c1.741,1.562,3.32,3.234,4.739,5.019
				s2.472,3.532,3.159,5.241c0.344,0.855,0.301,1.72-0.129,2.593C75.455,360.452,74.745,361.038,73.757,361.335z"/>
			<path style="fill:#FFFFFF;" d="M24.238,409.277c-1.075,0.595-2.171,0.836-3.288,0.725c-1.119-0.111-1.999-0.595-2.644-1.45
				c-0.646-0.854-0.796-1.719-0.452-2.593c0.344-0.873,0.988-1.552,1.935-2.035c2.579-1.301,5.244-2.853,7.995-4.655
				s5.384-3.671,7.898-5.604c2.515-1.933,4.675-3.735,6.48-5.408c2.321-2.193,4.588-3.29,6.803-3.29c2.213,0,4.588,1.06,7.124,3.179
				c1.848,1.561,3.987,3.216,6.416,4.962c2.428,1.748,5.007,3.457,7.737,5.13c2.729,1.673,5.47,3.179,8.221,4.517
				c0.945,0.483,1.58,1.209,1.902,2.175c0.322,0.967,0.161,1.878-0.483,2.732c-0.688,0.93-1.612,1.469-2.772,1.617
				c-1.161,0.148-2.301-0.093-3.418-0.726c-2.622-1.486-5.33-3.141-8.124-4.962c-2.795-1.821-5.459-3.699-7.995-5.632
				c-2.537-1.933-4.771-3.772-6.706-5.521c-0.603-0.594-1.183-0.9-1.74-0.92c-0.56-0.019-1.161,0.271-1.806,0.864
				c-1.806,1.71-3.869,3.494-6.189,5.353c-2.321,1.859-4.729,3.662-7.222,5.409c0.387-0.148,0.88-0.224,1.482-0.224h27.339
				c1.074,0,1.923,0.299,2.547,0.893c0.623,0.595,0.935,1.32,0.935,2.175c0,0.818-0.312,1.524-0.935,2.119
				c-0.624,0.595-1.473,0.892-2.547,0.892H35.393c-1.074,0-1.924-0.297-2.547-0.892s-0.935-1.301-0.935-2.119
				c0-0.743,0.215-1.356,0.645-1.84c-1.418,0.93-2.827,1.831-4.223,2.704C26.936,407.725,25.57,408.533,24.238,409.277z
				 M44.291,435.093c-3.482,0-6.266-0.335-8.351-1.004s-3.578-1.784-4.48-3.346c-0.903-1.562-1.354-3.68-1.354-6.356
				c0-2.713,0.451-4.842,1.354-6.385c0.902-1.542,2.396-2.648,4.48-3.317s4.868-1.004,8.351-1.004h9.607
				c3.523,0,6.318,0.335,8.382,1.004s3.557,1.775,4.481,3.317c0.924,1.543,1.386,3.672,1.386,6.385c0,2.677-0.462,4.795-1.386,6.356
				c-0.925,1.562-2.418,2.677-4.481,3.346s-4.858,1.004-8.382,1.004H44.291z M44.356,429.126h9.543c2.406,0,4.051-0.307,4.932-0.92
				s1.322-1.886,1.322-3.819c0-1.933-0.441-3.215-1.322-3.848c-0.881-0.632-2.525-0.947-4.932-0.947h-9.543
				c-2.408,0-4.052,0.315-4.933,0.947c-0.882,0.633-1.322,1.915-1.322,3.848c0,1.934,0.44,3.206,1.322,3.819
				C40.304,428.82,41.947,429.126,44.356,429.126z"/>
			<path style="fill:#FFFFFF;" d="M39.326,491.522c-1.032,0-1.913-0.315-2.644-0.947c-0.731-0.633-1.097-1.395-1.097-2.286v-14.386
				c-1.203,0.967-2.439,1.971-3.707,3.011c-1.269,1.041-2.525,2.082-3.772,3.122c-0.773,0.633-1.688,0.948-2.74,0.948
				c-1.054,0-1.945-0.315-2.676-0.948c-0.688-0.669-1.021-1.468-0.999-2.397c0.021-0.929,0.419-1.691,1.192-2.286
				c2.021-1.635,4.095-3.28,6.223-4.935c2.128-1.653,4.287-3.225,6.479-4.712v-7.36c-0.731,0.112-1.676,0.279-2.837,0.502
				c-1.16,0.224-2.3,0.446-3.417,0.669c-1.118,0.224-1.999,0.391-2.644,0.502c-1.032,0.187-1.999,0.038-2.901-0.445
				c-0.903-0.483-1.462-1.172-1.677-2.063c-0.216-0.929-0.043-1.784,0.516-2.565c0.559-0.78,1.354-1.263,2.386-1.449
				c0.344-0.074,0.968-0.176,1.87-0.307c0.902-0.13,1.912-0.288,3.03-0.474c1.117-0.186,2.192-0.354,3.224-0.502
				c1.032-0.148,1.848-0.279,2.45-0.391v-8.029c0-0.893,0.365-1.653,1.097-2.286c0.73-0.632,1.611-0.948,2.644-0.948
				c1.031,0,1.912,0.316,2.644,0.948c0.73,0.633,1.096,1.394,1.096,2.286v8.029c1.29,0.372,2.364,1.078,3.225,2.119
				c0.558,0.706,0.827,1.543,0.806,2.509c-0.022,0.967-0.27,2.026-0.741,3.179c2.062-0.929,4.126-1.654,6.189-2.175
				s4.083-0.781,6.061-0.781c5.502,0,9.726,1.219,12.67,3.652c2.944,2.436,4.417,5.679,4.417,9.73c0,2.564-0.699,5-2.096,7.305
				c-1.397,2.305-3.707,4.293-6.931,5.966c-3.225,1.673-7.544,2.863-12.961,3.568c-1.074,0.149-2.03-0.046-2.869-0.585
				c-0.838-0.539-1.365-1.273-1.579-2.203c-0.173-0.929,0.064-1.756,0.709-2.48c0.645-0.726,1.483-1.162,2.515-1.311
				c5.717-0.781,9.736-2.035,12.058-3.764s3.481-3.894,3.481-6.496c0-2.193-0.796-3.894-2.386-5.103
				c-1.591-1.207-3.977-1.812-7.157-1.812c-2.622,0-5.201,0.493-7.737,1.478c-2.536,0.985-5.094,2.296-7.673,3.931v19.739
				c0,0.892-0.365,1.653-1.096,2.286C41.238,491.206,40.358,491.522,39.326,491.522z"/>
			<path style="fill:#FFFFFF;" d="M66.277,542.934c-5.89,0.558-11.016,0.595-15.378,0.112c-4.363-0.483-7.92-1.785-10.671-3.903
				c-1.849-1.486-3.224-3.299-4.126-5.437c-0.903-2.138-1.354-4.786-1.354-7.946v-5.13c-2.063,0.224-4.02,0.456-5.867,0.697
				c-1.849,0.242-3.568,0.493-5.158,0.753c-1.032,0.148-1.978-0.037-2.837-0.558c-0.86-0.521-1.377-1.227-1.548-2.119
				c-0.172-0.892,0.032-1.709,0.612-2.453c0.58-0.743,1.387-1.189,2.418-1.338c1.763-0.224,3.686-0.455,5.771-0.697
				c2.085-0.241,4.288-0.474,6.609-0.697v-9.312c0-0.929,0.376-1.719,1.128-2.37c0.752-0.649,1.666-0.976,2.741-0.976
				c1.073,0,1.977,0.326,2.708,0.976c0.73,0.651,1.096,1.441,1.096,2.37v8.643c2.234-0.186,4.502-0.353,6.803-0.502
				c2.299-0.148,4.566-0.297,6.802-0.446c0.215-1.598,0.376-3.141,0.484-4.628c0.106-1.486,0.182-2.88,0.226-4.182
				c0.042-0.929,0.439-1.709,1.192-2.342c0.752-0.632,1.665-0.929,2.74-0.893c1.074,0.038,1.988,0.382,2.74,1.032
				s1.106,1.44,1.064,2.369c-0.044,1.265-0.119,2.593-0.226,3.987c-0.108,1.394-0.248,2.815-0.42,4.266
				c1.892-0.112,3.74-0.195,5.546-0.251c1.805-0.056,3.523-0.103,5.158-0.14c1.073,0,1.977,0.326,2.708,0.976
				c0.73,0.651,1.096,1.422,1.096,2.314c0,0.892-0.365,1.664-1.096,2.313c-0.731,0.651-1.635,0.976-2.708,0.976
				c-3.568-0.073-7.395-0.018-11.478,0.168c-0.301,1.821-0.635,3.597-0.999,5.325c-0.366,1.729-0.742,3.299-1.129,4.711
				c-0.258,0.893-0.838,1.571-1.74,2.035c-0.903,0.466-1.87,0.605-2.902,0.419c-1.074-0.224-1.881-0.726-2.417-1.506
				c-0.538-0.78-0.699-1.617-0.484-2.509c0.344-1.228,0.666-2.528,0.968-3.903c0.3-1.375,0.558-2.769,0.773-4.183
				c-2.106,0.112-4.224,0.251-6.351,0.419c-2.128,0.167-4.246,0.344-6.352,0.529v5.854c0,2.083,0.258,3.812,0.773,5.186
				c0.517,1.376,1.29,2.473,2.321,3.29c1.634,1.265,3.998,2.035,7.093,2.314c3.095,0.278,7.393,0.177,12.896-0.307
				c1.074-0.112,2.031,0.13,2.869,0.725c0.839,0.595,1.3,1.357,1.387,2.286c0.129,0.93-0.141,1.756-0.807,2.481
				C68.287,542.46,67.396,542.861,66.277,542.934z"/>
		</g>
	</g>
	<g>
		<g>
			<path style="fill:#FFFFFF;" d="M113.672,249.389c-0.816-0.669-1.204-1.478-1.16-2.426c0.042-0.948,0.493-1.774,1.354-2.481
				c1.634-1.338,3.321-2.936,5.062-4.795c1.741-1.858,3.363-3.782,4.868-5.771c1.504-1.988,2.687-3.801,3.547-5.437
				c0.472-0.929,1.225-1.524,2.257-1.785c1.031-0.259,2.02-0.186,2.966,0.223c0.988,0.446,1.644,1.087,1.966,1.924
				c0.323,0.836,0.247,1.682-0.226,2.537c-1.16,2.156-2.536,4.303-4.126,6.44c-1.591,2.138-3.268,4.164-5.029,6.078
				c-1.764,1.915-3.504,3.634-5.223,5.158c-0.86,0.707-1.881,1.135-3.063,1.283C115.681,250.486,114.617,250.17,113.672,249.389z
				 M166.286,269.853c-0.946,0.558-2.01,0.743-3.191,0.558c-1.183-0.187-2.074-0.688-2.676-1.505
				c-0.431-0.558-0.893-1.153-1.387-1.784c-0.494-0.632-1.043-1.301-1.645-2.007c-1.934,0.223-4.181,0.465-6.737,0.725
				c-2.559,0.261-5.255,0.53-8.092,0.809c-2.838,0.279-5.643,0.558-8.415,0.836s-5.374,0.53-7.802,0.753
				c-2.429,0.223-4.481,0.408-6.157,0.557c-1.333,0.112-2.408-0.111-3.224-0.669c-0.817-0.558-1.29-1.356-1.419-2.397
				c-0.087-0.892,0.215-1.673,0.902-2.342c0.688-0.669,1.634-1.041,2.837-1.115c0.859-0.074,1.795-0.14,2.806-0.195
				c1.009-0.056,2.116-0.12,3.32-0.195c0.859-1.45,1.826-3.131,2.901-5.046c1.074-1.914,2.16-3.903,3.256-5.966
				c1.097-2.063,2.117-4.023,3.062-5.883c0.945-1.858,1.719-3.457,2.321-4.795c0.43-0.929,1.139-1.579,2.128-1.951
				c0.988-0.371,2.021-0.391,3.095-0.056c1.074,0.335,1.838,0.939,2.289,1.812c0.452,0.874,0.462,1.756,0.032,2.648
				c-0.816,1.599-1.805,3.476-2.966,5.632c-1.16,2.156-2.386,4.368-3.675,6.635c-1.29,2.268-2.515,4.368-3.676,6.301
				c3.225-0.26,6.458-0.53,9.704-0.809c3.245-0.279,6.179-0.53,8.802-0.753c-0.989-1.115-1.967-2.183-2.935-3.206
				c-0.967-1.022-1.837-1.904-2.611-2.648c-0.688-0.632-1.01-1.394-0.967-2.286c0.042-0.892,0.451-1.617,1.225-2.175
				c0.816-0.594,1.741-0.873,2.773-0.836c1.031,0.037,1.912,0.372,2.644,1.003c1.031,0.93,2.191,2.035,3.481,3.318
				c1.29,1.282,2.601,2.64,3.934,4.07c1.331,1.431,2.6,2.816,3.804,4.154c1.203,1.338,2.257,2.547,3.159,3.625
				c0.688,0.855,0.956,1.775,0.807,2.76C167.844,268.412,167.275,269.22,166.286,269.853z M166.222,248.832
				c-2.279-1.524-4.472-3.207-6.577-5.046c-2.106-1.84-4.009-3.764-5.706-5.771c-1.698-2.007-3.149-3.977-4.353-5.911
				c-0.516-0.854-0.978-1.496-1.386-1.923c-0.409-0.427-0.925-0.706-1.548-0.836c-0.623-0.13-1.515-0.195-2.676-0.195h-4.578
				c-0.945,0-1.763-0.307-2.45-0.92s-1.031-1.329-1.031-2.147c0-0.854,0.344-1.58,1.031-2.174c0.688-0.594,1.505-0.893,2.45-0.893
				h4.578c2.407,0,4.32,0.167,5.738,0.502c1.419,0.334,2.611,0.93,3.579,1.784c0.967,0.856,1.944,2.063,2.934,3.625
				c1.633,2.491,3.782,5.01,6.448,7.556c2.664,2.546,5.609,4.786,8.833,6.719c0.988,0.558,1.58,1.338,1.773,2.342
				c0.193,1.004-0.076,1.915-0.807,2.732c-0.773,0.818-1.763,1.273-2.966,1.366C168.306,249.733,167.21,249.464,166.222,248.832z"/>
			<path style="fill:#FFFFFF;" d="M156.55,323.437c-2.708-2.788-5.201-6.616-7.479-11.487c-2.278-4.869-3.977-11.002-5.094-18.4
				h-27.08c-1.075,0-1.946-0.307-2.612-0.92s-0.999-1.366-0.999-2.258c0-0.854,0.333-1.589,0.999-2.203s1.537-0.92,2.612-0.92
				h26.307c-0.087-1.263-0.161-2.565-0.226-3.903c-0.064-1.338-0.141-2.694-0.226-4.07c0-1.04,0.375-1.868,1.128-2.481
				c0.752-0.614,1.665-0.92,2.74-0.92c1.074,0,1.988,0.289,2.74,0.864c0.752,0.577,1.129,1.404,1.129,2.481
				c-0.044,1.375-0.032,2.732,0.032,4.07c0.064,1.338,0.139,2.658,0.226,3.959h17.86c1.117,0,1.999,0.307,2.644,0.92
				s0.967,1.348,0.967,2.203c0,0.892-0.322,1.645-0.967,2.258s-1.526,0.92-2.644,0.92h-17.087
				c0.945,5.948,2.375,11.068,4.288,15.362c1.912,4.293,4.051,7.5,6.415,9.618c0.646,0.595,1.193,0.846,1.645,0.753
				c0.451-0.092,0.87-0.474,1.257-1.143c0.215-0.409,0.473-0.882,0.774-1.422c0.3-0.539,0.537-0.994,0.709-1.366
				c0.43-0.854,1.106-1.422,2.031-1.701c0.924-0.279,1.858-0.251,2.805,0.084c0.988,0.372,1.665,0.939,2.031,1.701
				c0.364,0.762,0.396,1.533,0.097,2.314c-0.302,0.78-0.635,1.524-1,2.23c-0.365,0.707-0.784,1.487-1.257,2.342
				c-1.161,2.081-2.579,3.485-4.256,4.209c-1.676,0.725-3.428,0.818-5.255,0.279S158.227,325.146,156.55,323.437z M118.186,325.555
				c-1.204,0.148-2.192-0.028-2.966-0.53s-1.269-1.236-1.483-2.203c-0.172-0.966,0.054-1.756,0.678-2.37
				c0.622-0.613,1.515-0.994,2.676-1.143c0.3-0.037,1.267-0.167,2.901-0.39c1.633-0.223,3.567-0.483,5.803-0.781v-12.044h-7.737
				c-1.075,0-1.924-0.297-2.547-0.892c-0.624-0.594-0.935-1.301-0.935-2.119c0-0.854,0.311-1.57,0.935-2.146
				c0.623-0.576,1.472-0.864,2.547-0.864h22.438c1.074,0,1.912,0.289,2.515,0.864c0.602,0.577,0.902,1.292,0.902,2.146
				c0,0.818-0.301,1.525-0.902,2.119c-0.603,0.595-1.44,0.892-2.515,0.892h-6.706v10.929c2.278-0.297,4.288-0.576,6.029-0.836
				c1.74-0.259,2.825-0.409,3.256-0.446c1.117-0.186,2.031-0.074,2.74,0.334c0.709,0.409,1.149,1.06,1.321,1.952
				c0.215,0.892,0.075,1.645-0.419,2.258c-0.494,0.613-1.236,1.013-2.225,1.199c-0.387,0.075-1.247,0.214-2.579,0.418
				c-1.333,0.205-2.944,0.456-4.836,0.753c-1.892,0.298-3.868,0.604-5.932,0.92c-2.063,0.315-4.029,0.622-5.899,0.92
				c-1.87,0.297-3.439,0.539-4.707,0.725C119.271,325.406,118.485,325.518,118.186,325.555z M164.61,286.468
				c-0.773,0.558-1.666,0.8-2.676,0.725c-1.011-0.074-1.881-0.427-2.611-1.06c-0.301-0.297-0.731-0.678-1.289-1.143
				c-0.56-0.464-1.118-0.92-1.677-1.366c-0.56-0.446-1.011-0.799-1.354-1.059c-0.688-0.521-1.021-1.189-0.999-2.007
				c0.021-0.817,0.376-1.524,1.064-2.119c0.687-0.631,1.492-0.984,2.417-1.059c0.924-0.074,1.773,0.186,2.547,0.78
				c0.388,0.261,0.903,0.642,1.548,1.143c0.645,0.502,1.278,0.995,1.902,1.478c0.622,0.484,1.085,0.874,1.386,1.171
				c0.73,0.632,1.064,1.385,1,2.258C165.803,285.084,165.384,285.837,164.61,286.468z"/>
			<path style="fill:#FFFFFF;" d="M132.758,378.75c-2.536,0-3.804-1.097-3.804-3.29v-32.452c0-2.192,1.225-3.289,3.675-3.289
				c2.493,0,3.74,1.097,3.74,3.289v29.775h19.729c2.536,0,3.805,0.985,3.805,2.955c0,2.008-1.269,3.012-3.805,3.012H132.758z"/>
			<path style="fill:#FFFFFF;" d="M142.72,434.509c-2.45,0-3.675-1.096-3.675-3.289v-32.452c0-2.193,1.225-3.29,3.675-3.29
				c2.493,0,3.74,1.097,3.74,3.29v32.452C146.46,433.413,145.213,434.509,142.72,434.509z"/>
			<path style="fill:#FFFFFF;" d="M128.341,490.269c-2.45,0-3.675-1.097-3.675-3.29v-32.452c0-2.192,1.225-3.289,3.675-3.289h0.839
				c1.934,0,3.459,0.725,4.577,2.174l19.602,25.538v-24.423c0-1.077,0.333-1.896,0.999-2.453s1.602-0.836,2.806-0.836
				c2.492,0,3.739,1.097,3.739,3.289v32.452c0,2.193-1.183,3.29-3.546,3.29h-0.646c-1.978,0-3.504-0.726-4.577-2.175l-20.053-26.318
				v25.203C132.081,489.172,130.834,490.269,128.341,490.269z"/>
			<path style="fill:#FFFFFF;" d="M132.242,546.028c-2.536,0-3.804-1.096-3.804-3.289v-32.452c0-2.193,1.268-3.29,3.804-3.29h22.567
				c2.536,0,3.805,1.004,3.805,3.011c0,1.971-1.269,2.955-3.805,2.955h-18.956v10.148h16.957c2.536,0,3.805,1.004,3.805,3.011
				c0,2.008-1.269,3.012-3.805,3.012h-16.957v10.929h19.665c2.536,0,3.805,0.985,3.805,2.955c0,2.007-1.269,3.011-3.805,3.011
				H132.242z"/>
			<path style="fill:#FFFFFF;" d="M164.996,594.969c-2.106-1.339-4.438-2.891-6.995-4.656c-2.559-1.765-5.138-3.615-7.737-5.548
				c-2.602-1.933-5.041-3.828-7.318-5.688c-1.591-1.301-2.913-2.165-3.966-2.593c-1.054-0.427-2.128-0.455-3.224-0.084
				c-1.097,0.372-2.525,1.153-4.288,2.342c-2.063,1.376-4.062,2.677-5.996,3.903s-3.783,2.323-5.545,3.29
				c-0.903,0.483-1.881,0.623-2.934,0.418c-1.055-0.204-1.882-0.697-2.482-1.478c-0.56-0.78-0.742-1.636-0.549-2.564
				c0.193-0.93,0.742-1.636,1.645-2.119c1.633-0.854,3.503-1.904,5.609-3.15c2.105-1.245,4.147-2.5,6.126-3.764
				c2.621-1.71,5.007-2.844,7.156-3.401s4.277-0.492,6.384,0.195c2.105,0.688,4.385,2.017,6.835,3.986
				c2.148,1.748,4.556,3.568,7.221,5.465c2.665,1.896,5.298,3.699,7.899,5.408c2.6,1.71,4.889,3.179,6.866,4.405
				c0.859,0.521,1.375,1.264,1.548,2.23c0.171,0.967-0.064,1.821-0.709,2.564c-0.646,0.744-1.516,1.209-2.611,1.395
				C166.834,595.713,165.856,595.527,164.996,594.969z"/>
		</g>
	</g>
</g>
<g id="LINE_LOGO">
	<g>
		<path style="fill:#06C755;" d="M148.622,0H43.257C19.367,0,0,19.367,0,43.257v105.365c0,23.89,19.367,43.257,43.257,43.257
			h105.365c23.89,0,43.257-19.367,43.257-43.257V43.257C191.879,19.367,172.512,0,148.622,0z"/>
		<path style="fill:#FFFFFF;" d="M159.893,86.9c0-28.626-28.698-51.915-63.973-51.915c-35.272,0-63.973,23.289-63.973,51.915
			c0,25.663,22.759,47.155,53.501,51.218c2.083,0.45,4.919,1.374,5.636,3.155c0.645,1.617,0.422,4.151,0.207,5.784
			c0,0-0.751,4.514-0.913,5.477c-0.279,1.616-1.286,6.325,5.541,3.449c6.828-2.877,36.841-21.694,50.263-37.141h-0.003
			C155.451,108.674,159.893,98.356,159.893,86.9z"/>
		<path style="fill:#06C755;" d="M138.611,103.429h-17.949h-0.024c-0.675,0-1.221-0.547-1.221-1.221v-0.02v-0.002V74.317v-0.002
			v-0.026c0-0.675,0.547-1.221,1.221-1.221h0.024h17.949c0.672,0,1.222,0.55,1.222,1.221v4.537c0,0.675-0.547,1.222-1.222,1.222
			h-12.215v4.711h12.215c0.672,0,1.222,0.55,1.222,1.222v4.537c0,0.675-0.547,1.222-1.222,1.222h-12.215v4.711h12.215
			c0.672,0,1.222,0.55,1.222,1.221v4.537C139.832,102.882,139.285,103.429,138.611,103.429z"/>
		<path style="fill:#06C755;" d="M72.128,103.429c0.674,0,1.221-0.547,1.221-1.221v-4.537c0-0.672-0.55-1.221-1.221-1.221H59.913
			V74.288c0-0.672-0.55-1.221-1.221-1.221h-4.537c-0.675,0-1.221,0.547-1.221,1.221v27.898v0.002v0.02
			c0,0.675,0.547,1.221,1.221,1.221h0.024H72.128z"/>
		<path style="fill:#06C755;" d="M82.948,73.067h-4.537c-0.674,0-1.221,0.547-1.221,1.221v27.919c0,0.674,0.547,1.221,1.221,1.221
			h4.537c0.675,0,1.221-0.547,1.221-1.221V74.288C84.169,73.614,83.622,73.067,82.948,73.067z"/>
		<path style="fill:#06C755;" d="M113.833,73.067h-4.537c-0.675,0-1.221,0.547-1.221,1.221v16.583L95.301,73.62
			c-0.03-0.044-0.063-0.086-0.098-0.126c-0.002-0.003-0.005-0.006-0.008-0.009c-0.024-0.026-0.048-0.052-0.074-0.076
			c-0.008-0.007-0.015-0.014-0.023-0.021c-0.022-0.019-0.044-0.038-0.066-0.056c-0.011-0.008-0.022-0.016-0.033-0.025
			c-0.021-0.015-0.042-0.03-0.064-0.044c-0.012-0.008-0.025-0.015-0.037-0.023c-0.022-0.013-0.044-0.026-0.067-0.037
			c-0.013-0.007-0.026-0.013-0.039-0.019c-0.023-0.011-0.047-0.021-0.071-0.031c-0.013-0.005-0.027-0.01-0.04-0.015
			c-0.025-0.008-0.049-0.017-0.074-0.024c-0.014-0.004-0.029-0.008-0.043-0.011c-0.024-0.006-0.048-0.011-0.073-0.016
			c-0.017-0.003-0.035-0.006-0.052-0.008c-0.022-0.003-0.044-0.006-0.066-0.008c-0.022-0.002-0.043-0.003-0.065-0.003
			c-0.014-0.001-0.028-0.002-0.042-0.002h-4.512c-0.674,0-1.221,0.547-1.221,1.221v27.919c0,0.674,0.547,1.221,1.221,1.221h4.537
			c0.675,0,1.221-0.547,1.221-1.221V85.63l12.79,17.272c0.088,0.125,0.196,0.226,0.315,0.308c0.005,0.003,0.009,0.007,0.014,0.01
			c0.025,0.017,0.051,0.032,0.077,0.047c0.012,0.007,0.023,0.013,0.036,0.02c0.019,0.01,0.039,0.02,0.059,0.029
			c0.02,0.009,0.04,0.018,0.06,0.026c0.013,0.005,0.026,0.01,0.039,0.014c0.028,0.01,0.055,0.019,0.084,0.027
			c0.006,0.002,0.012,0.003,0.017,0.005c0.102,0.027,0.209,0.043,0.319,0.043h4.512c0.674,0,1.221-0.547,1.221-1.221V74.288
			C115.055,73.614,114.508,73.067,113.833,73.067z"/>
	</g>
</g>
</svg>
