<?xml version="1.0" encoding="iso-8859-1"?>
<!-- Generator: Adobe Illustrator 28.5.0, SVG Export Plug-In . SVG Version: 9.03 Build 54727)  -->
<svg version="1.1" xmlns="http://www.w3.org/2000/svg" xmlns:xlink="http://www.w3.org/1999/xlink" x="0px" y="0px"
	 viewBox="0 0 862.919 118.627" style="enable-background:new 0 0 862.919 118.627;" xml:space="preserve">
<g id="&#x30EC;&#x30A4;&#x30E4;&#x30FC;_1">
	<g>
		<path style="fill:#FFFFFF;" d="M153.039,91.91c-3.65,0-5.474-1.824-5.474-5.475V32.437c0-3.648,1.763-5.474,5.289-5.474
			c3.587,0,5.381,1.825,5.381,5.474v49.546h28.392c3.649,0,5.474,1.64,5.474,4.918c0,3.34-1.825,5.01-5.474,5.01H153.039z"/>
		<path style="fill:#FFFFFF;" d="M205.738,91.91c-3.525,0-5.289-1.824-5.289-5.475V32.437c0-3.648,1.763-5.474,5.289-5.474
			c3.587,0,5.381,1.825,5.381,5.474v53.999C211.12,90.086,209.325,91.91,205.738,91.91z"/>
		<path style="fill:#FFFFFF;" d="M229.582,91.91c-3.525,0-5.289-1.824-5.289-5.475V32.437c0-3.648,1.763-5.474,5.289-5.474h1.206
			c2.784,0,4.979,1.206,6.588,3.618l28.206,42.494V32.437c0-1.793,0.479-3.154,1.438-4.082c0.958-0.928,2.304-1.392,4.036-1.392
			c3.586,0,5.381,1.825,5.381,5.474v53.999c0,3.65-1.702,5.475-5.103,5.475h-0.928c-2.846,0-5.042-1.206-6.587-3.618l-28.855-43.793
			v41.937C234.963,90.086,233.169,91.91,229.582,91.91z"/>
		<path style="fill:#FFFFFF;" d="M294.992,91.91c-3.65,0-5.474-1.824-5.474-5.475V32.437c0-3.648,1.824-5.474,5.474-5.474h32.474
			c3.649,0,5.474,1.67,5.474,5.01c0,3.279-1.825,4.918-5.474,4.918h-27.278v16.886h24.402c3.649,0,5.474,1.671,5.474,5.011
			s-1.825,5.01-5.474,5.01h-24.402v18.186h28.298c3.649,0,5.475,1.64,5.475,4.918c0,3.34-1.825,5.01-5.475,5.01H294.992z"/>
	</g>
	<path style="fill:#FFFFFF;" d="M380.015,89.618c-4.719-0.681-8.618-2.049-11.696-4.109c-3.08-2.059-5.369-4.548-6.868-7.468
		c-1.5-2.918-2.25-5.958-2.25-9.117c0-3.199,0.62-6.188,1.859-8.968c1.239-2.778,3.039-5.188,5.399-7.228
		c-2.399,0.36-4.959,0.771-7.678,1.229c-2.72,0.46-5.349,0.921-7.888,1.38c-2.54,0.46-4.769,0.869-6.688,1.229
		c-1,0.16-1.889-0.06-2.669-0.66c-0.78-0.6-1.25-1.379-1.41-2.339c-0.16-0.999,0.05-1.89,0.63-2.669
		c0.579-0.78,1.369-1.25,2.369-1.41c1.279-0.199,2.918-0.47,4.918-0.81c1.999-0.339,4.238-0.709,6.718-1.109
		c2.479-0.399,5.018-0.819,7.618-1.26c2.599-0.439,5.148-0.87,7.647-1.29s4.788-0.81,6.868-1.169c2.079-0.36,3.779-0.66,5.099-0.9
		c0.919-0.159,1.789,0.041,2.609,0.6c0.819,0.561,1.309,1.301,1.47,2.22c0.199,0.96,0.049,1.859-0.45,2.699
		c-0.501,0.84-1.229,1.34-2.189,1.5c-2.8,0.44-5.259,1.289-7.378,2.549c-2.12,1.26-3.909,2.78-5.368,4.559
		c-1.46,1.78-2.56,3.659-3.299,5.639c-0.741,1.979-1.11,3.929-1.11,5.848c0,3.88,1.32,7.009,3.959,9.388
		c2.64,2.38,6.238,3.89,10.797,4.528c0.96,0.16,1.739,0.641,2.34,1.439c0.6,0.801,0.818,1.68,0.659,2.64
		c-0.12,1-0.58,1.8-1.379,2.399C381.854,89.558,380.975,89.777,380.015,89.618z M387.633,65.085c-0.521,0.44-1.15,0.62-1.89,0.54
		c-0.74-0.08-1.33-0.42-1.77-1.02c-0.44-0.56-1-1.27-1.68-2.13c-0.681-0.859-1.3-1.609-1.859-2.249c-0.36-0.439-0.53-0.97-0.51-1.59
		c0.02-0.619,0.289-1.149,0.81-1.59c0.479-0.439,1.029-0.649,1.649-0.63c0.62,0.021,1.189,0.251,1.71,0.69
		c0.6,0.52,1.289,1.199,2.069,2.039c0.779,0.84,1.429,1.6,1.949,2.279c0.439,0.561,0.609,1.2,0.51,1.92
		C388.522,64.065,388.192,64.646,387.633,65.085z M393.391,59.927c-0.521,0.52-1.15,0.76-1.89,0.72c-0.74-0.04-1.35-0.34-1.829-0.9
		c-0.479-0.56-1.09-1.238-1.829-2.039c-0.741-0.8-1.41-1.5-2.01-2.1c-0.4-0.399-0.61-0.919-0.63-1.56
		c-0.021-0.639,0.21-1.199,0.689-1.68c0.439-0.439,0.979-0.669,1.62-0.689c0.639-0.02,1.219,0.171,1.739,0.57
		c0.639,0.44,1.38,1.05,2.22,1.829c0.839,0.779,1.538,1.51,2.099,2.189c0.48,0.521,0.699,1.13,0.66,1.829
		C394.19,58.797,393.91,59.407,393.391,59.927z"/>
	<g>
		<path style="fill:#FFFFFF;" d="M441.453,92.199c-1.312-0.053-2.427-0.538-3.344-1.455c-0.918-0.918-1.351-2.032-1.298-3.343
			c0-1.363,0.473-2.504,1.416-3.422c0.944-0.917,2.071-1.35,3.383-1.298c4.299,0.053,7.563-0.63,9.793-2.046
			c2.229-1.416,3.344-3.565,3.344-6.45c0-2.778-1.22-4.902-3.658-6.371c-2.438-1.468-5.913-2.203-10.423-2.203
			c-1.783,0-3.488,0.079-5.112,0.236c-1.626,0.157-3.199,0.367-4.72,0.629v9.912c0,5.401-1.233,9.374-3.697,11.917
			c-2.466,2.543-6.031,3.815-10.698,3.815c-3.775,0-6.922-0.972-9.439-2.911c-2.517-1.939-3.775-5.034-3.775-9.282
			c0-4.352,1.639-8.259,4.916-11.72c3.277-3.462,7.748-6.162,13.412-8.103V48.385c-2.256,0.21-4.444,0.367-6.568,0.472
			c-2.124,0.106-4.104,0.185-5.938,0.236c-1.312,0-2.439-0.445-3.383-1.337c-0.944-0.892-1.416-1.992-1.416-3.304
			c0-1.311,0.458-2.412,1.377-3.304c0.917-0.892,2.031-1.338,3.343-1.338c1.835-0.052,3.827-0.13,5.979-0.235
			c2.149-0.104,4.352-0.236,6.607-0.394v-9.676c0-1.362,0.444-2.503,1.337-3.422c0.892-0.917,1.992-1.376,3.304-1.376
			c1.311,0,2.412,0.459,3.304,1.376c0.892,0.919,1.338,2.06,1.338,3.422v8.889c1.205-0.104,2.332-0.235,3.382-0.393
			c1.049-0.157,2.071-0.288,3.068-0.394c1.31-0.209,2.49,0.027,3.539,0.708c1.049,0.682,1.678,1.679,1.889,2.989
			c0.209,1.312-0.079,2.438-0.865,3.382c-0.787,0.944-1.837,1.521-3.146,1.73c-1.102,0.211-2.321,0.394-3.658,0.551
			s-2.741,0.342-4.208,0.551v10.384c3.146-0.473,6.476-0.708,9.989-0.708c4.824,0,8.993,0.682,12.508,2.045
			c3.513,1.364,6.227,3.317,8.142,5.86c1.913,2.544,2.871,5.572,2.871,9.085c0,5.821-2.02,10.332-6.058,13.53
			S448.637,92.408,441.453,92.199z M416.439,83.153c1.573,0,2.818-0.445,3.736-1.337c0.917-0.892,1.377-2.701,1.377-5.428v-7.08
			c-2.832,1.312-5.022,2.871-6.568,4.681c-1.548,1.81-2.32,3.685-2.32,5.624C412.663,81.973,413.922,83.153,416.439,83.153z
			 M458.602,53.969c-0.84-0.629-1.862-1.323-3.068-2.084c-1.207-0.76-2.412-1.495-3.618-2.203c-1.207-0.708-2.256-1.271-3.146-1.691
			c-1.154-0.576-1.98-1.467-2.478-2.674c-0.499-1.206-0.486-2.386,0.039-3.54c0.629-1.259,1.56-2.071,2.792-2.438
			c1.231-0.366,2.426-0.262,3.579,0.314c1.102,0.525,2.36,1.207,3.776,2.045c1.416,0.84,2.818,1.691,4.208,2.557
			c1.389,0.865,2.529,1.64,3.422,2.32c1.049,0.735,1.652,1.731,1.81,2.989c0.157,1.259-0.132,2.413-0.865,3.462
			c-0.787,0.996-1.797,1.586-3.029,1.77C460.79,54.98,459.649,54.705,458.602,53.969z"/>
		<path style="fill:#FFFFFF;" d="M483.536,95.739c-1.207,0-2.241-0.421-3.106-1.259c-0.865-0.84-1.298-1.915-1.298-3.226V36.192
			c0-4.3,0.983-7.328,2.949-9.085c1.967-1.757,5.231-2.636,9.794-2.636h5.191c4.614,0,7.905,0.879,9.872,2.636
			s2.949,4.785,2.949,9.085v4.091c0,2.884-0.433,5.126-1.298,6.726s-2.229,2.713-4.09,3.343c-1.862,0.629-4.34,0.943-7.434,0.943
			h-9.046v39.96c0,1.311-0.433,2.386-1.298,3.226C485.857,95.318,484.795,95.739,483.536,95.739z M488.021,44.295h8.181
			c1.835,0,3.107-0.223,3.814-0.669c0.708-0.445,1.114-1.402,1.22-2.871h-13.215V44.295z M488.099,34.855h13.058
			c-0.105-1.363-0.499-2.268-1.18-2.714c-0.682-0.445-1.94-0.669-3.775-0.669h-3.146c-1.783,0-3.028,0.224-3.736,0.669
			C488.61,32.588,488.203,33.492,488.099,34.855z M512.326,82.681c-3.828,0-6.817-0.433-8.967-1.298
			c-2.151-0.865-3.672-2.229-4.562-4.091c-0.893-1.861-1.337-4.26-1.337-7.197c0-2.989,0.444-5.4,1.337-7.237
			c0.891-1.835,2.411-3.172,4.562-4.012c2.149-0.838,5.139-1.259,8.967-1.259c3.828,0,6.805,0.421,8.929,1.259
			c2.124,0.84,3.631,2.177,4.522,4.012c0.892,1.837,1.338,4.248,1.338,7.237c0,2.938-0.446,5.336-1.338,7.197
			c-0.892,1.862-2.398,3.226-4.522,4.091S516.154,82.681,512.326,82.681z M512.326,75.208c2.308,0,3.867-0.34,4.681-1.022
			c0.812-0.681,1.22-2.045,1.22-4.09c0-1.992-0.407-3.33-1.22-4.012c-0.813-0.682-2.373-1.022-4.681-1.022
			c-2.359,0-3.946,0.341-4.759,1.022c-0.813,0.682-1.219,2.02-1.219,4.012c0,2.045,0.405,3.409,1.219,4.09
			C508.38,74.868,509.967,75.208,512.326,75.208z M534.037,95.266c-1.521,0-2.714-0.406-3.579-1.219
			c-0.865-0.813-1.351-1.901-1.455-3.265c-0.157-1.259,0.157-2.359,0.943-3.304c0.787-0.943,1.836-1.494,3.146-1.651
			c1.993-0.263,3.212-0.655,3.658-1.181c0.445-0.523,0.669-1.521,0.669-2.989V51.295h-9.361c-3.042,0-5.506-0.314-7.394-0.943
			c-1.889-0.63-3.265-1.743-4.13-3.343s-1.298-3.842-1.298-6.726v-4.012c0-4.353,0.995-7.395,2.989-9.125
			c1.992-1.73,5.27-2.596,9.832-2.596h5.507c4.562,0,7.839,0.865,9.832,2.596s2.989,4.772,2.989,9.125v47.59
			c0,4.039-0.971,6.948-2.91,8.731C541.536,94.375,538.39,95.266,534.037,95.266z M523.969,34.855h13.451
			c-0.157-1.363-0.578-2.268-1.259-2.714c-0.683-0.445-1.94-0.669-3.775-0.669h-3.383c-1.783,0-3.042,0.224-3.775,0.669
			C524.492,32.588,524.073,33.492,523.969,34.855z M529.003,44.295h8.417v-3.54h-13.451c0.104,1.469,0.511,2.426,1.219,2.871
			C525.896,44.072,527.167,44.295,529.003,44.295z"/>
		<path style="fill:#FFFFFF;" d="M578.481,82.681c-2.412,0.105-4.72-0.445-6.922-1.652c-2.203-1.206-4.144-3.146-5.821-5.821
			c-1.416-2.359-2.623-5.349-3.618-8.967c-0.997-3.618-1.705-7.538-2.124-11.76c-0.42-4.221-0.524-8.43-0.314-12.625
			c0.104-1.311,0.615-2.399,1.534-3.265c0.916-0.865,2.031-1.245,3.343-1.141c1.311,0.053,2.399,0.563,3.265,1.533
			c0.865,0.972,1.245,2.112,1.141,3.422c-0.211,3.672-0.185,7.251,0.078,10.737c0.262,3.488,0.76,6.661,1.495,9.519
			c0.733,2.858,1.651,5.23,2.753,7.119c1.206,2.15,2.726,3.225,4.562,3.225c2.254-0.052,4.142-2.411,5.663-7.079
			c0.419-1.206,1.206-2.11,2.36-2.714c1.152-0.603,2.359-0.694,3.618-0.275c1.206,0.367,2.097,1.141,2.675,2.32
			c0.576,1.18,0.655,2.373,0.235,3.579c-1.469,4.615-3.435,8.037-5.899,10.266C584.038,81.332,581.364,82.524,578.481,82.681z
			 M621.351,68.837c-1.258,0.472-2.478,0.42-3.657-0.157c-1.18-0.576-2.006-1.468-2.478-2.675c-0.787-1.939-1.849-3.906-3.187-5.899
			c-1.337-1.992-2.831-3.88-4.483-5.664c-1.651-1.782-3.343-3.276-5.073-4.483c-1.05-0.733-1.705-1.756-1.967-3.067
			c-0.263-1.311,0.025-2.49,0.865-3.54c0.838-1.049,1.874-1.625,3.107-1.73c1.231-0.104,2.398,0.236,3.5,1.022
			c2.202,1.521,4.366,3.383,6.489,5.585c2.124,2.202,4.052,4.562,5.782,7.079c1.73,2.518,3.015,4.983,3.854,7.395
			c0.419,1.207,0.366,2.427-0.157,3.658C623.422,67.592,622.557,68.418,621.351,68.837z"/>
		<path style="fill:#FFFFFF;" d="M639.601,57.667c-1.312,0.84-2.649,1.18-4.012,1.022c-1.364-0.157-2.438-0.838-3.226-2.045
			c-0.786-1.206-0.971-2.425-0.551-3.658c0.419-1.231,1.206-2.188,2.36-2.871c3.146-1.835,6.397-4.023,9.754-6.568
			c3.355-2.543,6.568-5.178,9.636-7.905c3.068-2.726,5.703-5.271,7.905-7.63c2.832-3.094,5.598-4.642,8.299-4.642
			c2.7,0,5.598,1.495,8.692,4.484c2.254,2.202,4.863,4.536,7.827,7.001c2.962,2.465,6.108,4.877,9.439,7.236
			c3.329,2.36,6.672,4.483,10.029,6.372c1.152,0.682,1.927,1.704,2.32,3.067c0.394,1.364,0.196,2.648-0.59,3.854
			c-0.84,1.312-1.967,2.072-3.383,2.281c-1.416,0.21-2.806-0.13-4.169-1.022c-3.199-2.097-6.503-4.431-9.911-7.001
			c-3.41-2.569-6.661-5.218-9.754-7.945c-3.096-2.726-5.821-5.321-8.182-7.787c-0.734-0.838-1.442-1.271-2.123-1.298
			c-0.683-0.025-1.416,0.381-2.203,1.22c-2.202,2.412-4.72,4.93-7.551,7.551c-2.832,2.623-5.77,5.166-8.811,7.631
			c0.472-0.209,1.074-0.315,1.81-0.315h33.353c1.31,0,2.346,0.421,3.106,1.259c0.76,0.84,1.141,1.862,1.141,3.068
			c0,1.153-0.381,2.15-1.141,2.988c-0.761,0.84-1.797,1.259-3.106,1.259h-33.353c-1.312,0-2.348-0.419-3.107-1.259
			c-0.761-0.838-1.141-1.835-1.141-2.988c0-1.049,0.262-1.914,0.786-2.597c-1.73,1.312-3.448,2.584-5.152,3.815
			C642.891,55.477,641.225,56.618,639.601,57.667z M664.064,94.087c-4.247,0-7.644-0.472-10.187-1.416
			c-2.544-0.943-4.365-2.517-5.467-4.72c-1.102-2.202-1.651-5.191-1.651-8.967c0-3.827,0.55-6.83,1.651-9.007
			c1.102-2.176,2.923-3.736,5.467-4.681c2.543-0.943,5.939-1.416,10.187-1.416h11.721c4.3,0,7.709,0.473,10.227,1.416
			c2.517,0.944,4.338,2.505,5.467,4.681c1.127,2.177,1.691,5.18,1.691,9.007c0,3.775-0.564,6.765-1.691,8.967
			c-1.129,2.203-2.95,3.776-5.467,4.72c-2.518,0.944-5.927,1.416-10.227,1.416H664.064z M664.143,85.67h11.642
			c2.937,0,4.942-0.433,6.018-1.298c1.074-0.865,1.613-2.66,1.613-5.388c0-2.727-0.539-4.535-1.613-5.428
			c-1.075-0.892-3.081-1.337-6.018-1.337h-11.642c-2.938,0-4.943,0.445-6.018,1.337c-1.075,0.893-1.612,2.701-1.612,5.428
			c0,2.728,0.537,4.522,1.612,5.388C659.199,85.237,661.205,85.67,664.143,85.67z"/>
		<path style="fill:#FFFFFF;" d="M736.668,95.031c-1.259,0-2.334-0.446-3.225-1.337c-0.893-0.893-1.338-1.967-1.338-3.226V70.174
			c-1.469,1.364-2.977,2.78-4.522,4.248c-1.548,1.469-3.082,2.938-4.602,4.405c-0.944,0.892-2.06,1.337-3.344,1.337
			c-1.285,0-2.373-0.445-3.265-1.337c-0.839-0.944-1.246-2.071-1.219-3.383c0.025-1.311,0.511-2.386,1.455-3.225
			c2.465-2.308,4.995-4.628,7.591-6.962c2.596-2.333,5.231-4.549,7.905-6.646V48.227c-0.892,0.157-2.045,0.394-3.461,0.708
			s-2.806,0.629-4.169,0.944c-1.364,0.314-2.438,0.55-3.226,0.707c-1.258,0.264-2.438,0.054-3.539-0.629
			c-1.102-0.681-1.783-1.651-2.046-2.91c-0.263-1.311-0.053-2.518,0.63-3.618c0.681-1.102,1.651-1.782,2.91-2.046
			c0.419-0.104,1.18-0.248,2.281-0.433c1.102-0.183,2.333-0.405,3.697-0.668c1.363-0.263,2.675-0.498,3.933-0.708
			c1.259-0.209,2.255-0.394,2.989-0.551V27.697c0-1.259,0.445-2.333,1.338-3.226c0.891-0.891,1.966-1.337,3.225-1.337
			s2.333,0.446,3.226,1.337c0.891,0.893,1.337,1.967,1.337,3.226v11.327c1.573,0.524,2.884,1.521,3.933,2.989
			c0.682,0.996,1.01,2.177,0.983,3.539c-0.026,1.364-0.328,2.859-0.904,4.484c2.518-1.311,5.034-2.333,7.552-3.068
			c2.517-0.733,4.981-1.101,7.394-1.101c6.713,0,11.864,1.718,15.457,5.152c3.592,3.435,5.389,8.011,5.389,13.726
			c0,3.619-0.854,7.054-2.557,10.305c-1.705,3.253-4.522,6.058-8.456,8.417c-3.933,2.36-9.203,4.039-15.811,5.034
			c-1.312,0.21-2.479-0.064-3.501-0.826c-1.022-0.759-1.665-1.795-1.927-3.106c-0.21-1.311,0.078-2.479,0.865-3.501
			c0.786-1.022,1.809-1.638,3.067-1.849c6.974-1.101,11.878-2.871,14.71-5.31s4.248-5.492,4.248-9.164
			c0-3.093-0.972-5.492-2.911-7.197c-1.94-1.703-4.851-2.557-8.731-2.557c-3.199,0-6.346,0.696-9.439,2.085
			c-3.095,1.39-6.214,3.238-9.36,5.546v27.846c0,1.259-0.446,2.333-1.337,3.226C739.001,94.585,737.927,95.031,736.668,95.031z"/>
		<path style="fill:#FFFFFF;" d="M848.21,88.974c-7.186,0.786-13.439,0.838-18.761,0.157c-5.323-0.682-9.663-2.518-13.019-5.507
			c-2.256-2.097-3.934-4.653-5.034-7.669c-1.102-3.016-1.652-6.752-1.652-11.21V57.51c-2.517,0.314-4.904,0.643-7.158,0.983
			c-2.255,0.342-4.354,0.695-6.293,1.062c-1.259,0.21-2.412-0.052-3.461-0.786c-1.05-0.734-1.679-1.73-1.888-2.989
			c-0.21-1.259,0.039-2.412,0.747-3.461s1.691-1.678,2.95-1.889c2.149-0.314,4.496-0.642,7.04-0.982
			c2.543-0.341,5.23-0.669,8.062-0.983V35.327c0-1.311,0.459-2.425,1.377-3.343c0.917-0.917,2.031-1.377,3.343-1.377
			c1.311,0,2.411,0.46,3.304,1.377c0.892,0.918,1.338,2.032,1.338,3.343v12.192c2.726-0.262,5.492-0.498,8.298-0.708
			c2.806-0.209,5.572-0.419,8.299-0.629c0.262-2.255,0.459-4.431,0.591-6.529c0.13-2.097,0.222-4.063,0.274-5.899
			c0.052-1.311,0.537-2.411,1.456-3.304c0.917-0.892,2.031-1.311,3.343-1.259c1.311,0.053,2.425,0.538,3.343,1.455
			c0.917,0.918,1.35,2.033,1.298,3.344c-0.053,1.783-0.145,3.657-0.275,5.624s-0.302,3.973-0.511,6.018
			c2.307-0.157,4.562-0.275,6.765-0.354c2.202-0.078,4.3-0.144,6.293-0.196c1.311,0,2.411,0.46,3.304,1.377
			c0.892,0.918,1.337,2.006,1.337,3.264c0,1.259-0.445,2.348-1.337,3.265c-0.893,0.918-1.993,1.377-3.304,1.377
			c-4.354-0.104-9.021-0.026-14.002,0.236c-0.367,2.569-0.774,5.073-1.219,7.512c-0.446,2.438-0.905,4.654-1.377,6.646
			c-0.314,1.259-1.022,2.217-2.124,2.871c-1.101,0.657-2.281,0.854-3.539,0.591c-1.312-0.315-2.295-1.023-2.95-2.124
			c-0.656-1.102-0.853-2.281-0.59-3.54c0.419-1.73,0.812-3.565,1.18-5.506c0.366-1.939,0.681-3.906,0.944-5.9
			c-2.57,0.157-5.152,0.354-7.748,0.59c-2.597,0.236-5.18,0.486-7.748,0.748v8.259c0,2.938,0.314,5.376,0.943,7.315
			c0.63,1.941,1.573,3.488,2.832,4.642c1.992,1.783,4.877,2.871,8.652,3.265c3.776,0.393,9.02,0.249,15.732-0.433
			c1.311-0.157,2.478,0.184,3.501,1.022c1.022,0.839,1.585,1.915,1.69,3.225c0.158,1.312-0.171,2.479-0.982,3.501
			C850.66,88.305,849.573,88.87,848.21,88.974z"/>
	</g>
</g>
<g id="LINE_LOGO">
	<g>
		<path style="fill:#06C755;" d="M91.884,0H26.743C11.973,0,0,11.973,0,26.743v65.141c0,14.77,11.973,26.743,26.743,26.743h65.141
			c14.77,0,26.743-11.973,26.743-26.743V26.743C118.627,11.973,106.654,0,91.884,0z"/>
		<path style="fill:#FFFFFF;" d="M98.852,53.725c0-17.697-17.742-32.096-39.551-32.096c-21.807,0-39.55,14.398-39.55,32.096
			c0,15.866,14.07,29.153,33.077,31.665c1.288,0.278,3.041,0.849,3.484,1.95c0.399,0.999,0.261,2.566,0.128,3.576
			c0,0-0.464,2.791-0.565,3.386c-0.172,0.999-0.795,3.911,3.426,2.132c4.222-1.779,22.777-13.412,31.075-22.962h-0.002
			C96.106,67.186,98.852,60.808,98.852,53.725z"/>
		<path style="fill:#06C755;" d="M85.695,63.944H74.598h-0.015c-0.417,0-0.755-0.338-0.755-0.755v-0.012v-0.001v-17.23v-0.001
			v-0.016c0-0.417,0.338-0.755,0.755-0.755h0.015h11.097c0.415,0,0.755,0.34,0.755,0.755v2.805c0,0.417-0.338,0.755-0.755,0.755
			h-7.552v2.913h7.552c0.415,0,0.755,0.34,0.755,0.755v2.805c0,0.417-0.338,0.755-0.755,0.755h-7.552v2.913h7.552
			c0.415,0,0.755,0.34,0.755,0.755v2.805C86.45,63.606,86.112,63.944,85.695,63.944z"/>
		<path style="fill:#06C755;" d="M44.592,63.944c0.417,0,0.755-0.338,0.755-0.755v-2.805c0-0.415-0.34-0.755-0.755-0.755h-7.552
			V45.928c0-0.415-0.34-0.755-0.755-0.755h-2.805c-0.417,0-0.755,0.338-0.755,0.755v17.247v0.001v0.012
			c0,0.417,0.338,0.755,0.755,0.755h0.015H44.592z"/>
		<path style="fill:#06C755;" d="M51.282,45.173h-2.805c-0.417,0-0.755,0.338-0.755,0.755v17.261c0,0.417,0.338,0.755,0.755,0.755
			h2.805c0.417,0,0.755-0.338,0.755-0.755V45.928C52.037,45.511,51.699,45.173,51.282,45.173z"/>
		<path style="fill:#06C755;" d="M70.376,45.173h-2.805c-0.417,0-0.755,0.338-0.755,0.755V56.18l-7.897-10.665
			c-0.018-0.027-0.039-0.053-0.061-0.078c-0.001-0.002-0.003-0.004-0.005-0.005c-0.015-0.016-0.03-0.032-0.045-0.047
			c-0.005-0.004-0.009-0.009-0.014-0.013c-0.013-0.012-0.027-0.024-0.041-0.035c-0.007-0.005-0.014-0.01-0.021-0.015
			c-0.013-0.009-0.026-0.019-0.04-0.027c-0.008-0.005-0.015-0.009-0.023-0.014c-0.014-0.008-0.027-0.016-0.042-0.023
			c-0.008-0.004-0.016-0.008-0.024-0.012c-0.014-0.007-0.029-0.013-0.044-0.019c-0.008-0.003-0.016-0.006-0.025-0.009
			c-0.015-0.005-0.03-0.01-0.046-0.015c-0.009-0.003-0.018-0.005-0.027-0.007c-0.015-0.004-0.03-0.007-0.045-0.01
			c-0.011-0.002-0.021-0.003-0.032-0.005c-0.014-0.002-0.027-0.004-0.041-0.005c-0.013-0.001-0.027-0.002-0.04-0.002
			c-0.009,0-0.017-0.001-0.026-0.001h-2.789c-0.417,0-0.755,0.338-0.755,0.755v17.261c0,0.417,0.338,0.755,0.755,0.755h2.805
			c0.417,0,0.755-0.338,0.755-0.755V52.94l7.907,10.679c0.054,0.077,0.121,0.14,0.195,0.19c0.003,0.002,0.006,0.004,0.009,0.006
			c0.015,0.01,0.031,0.02,0.047,0.029c0.007,0.004,0.014,0.008,0.022,0.012c0.012,0.006,0.024,0.012,0.037,0.018
			c0.012,0.006,0.024,0.011,0.037,0.016c0.008,0.003,0.016,0.006,0.024,0.009c0.017,0.006,0.034,0.012,0.052,0.017
			c0.004,0.001,0.007,0.002,0.011,0.003c0.063,0.017,0.129,0.026,0.197,0.026h2.79c0.417,0,0.755-0.338,0.755-0.755V45.928
			C71.132,45.511,70.793,45.173,70.376,45.173z"/>
	</g>
</g>
</svg>
