<?xml version="1.0" encoding="UTF-8"?>
<svg id="_レイヤー_2" data-name="レイヤー 2" xmlns="http://www.w3.org/2000/svg" viewBox="0 0 49.05 64.74">
  <defs>
    <style>
      .cls-1 {
        fill: #ec6627;
        stroke: #040000;
        stroke-linejoin: round;
        stroke-width: 2px;
      }

      .cls-2 {
        fill: #040000;
      }

      .cls-2, .cls-3 {
        stroke-width: 0px;
      }

      .cls-3 {
        fill: #fff;
      }
    </style>
  </defs>
  <g id="_レイヤー_1-2" data-name="レイヤー 1">
    <path class="cls-1" d="M24.53,1C11.53,1,1,11.53,1,24.53s23.53,39.21,23.53,39.21c0,0,23.53-26.23,23.53-39.21S37.52,1,24.53,1ZM24.53,36.29c-6.5,0-11.76-5.28-11.76-11.76s5.27-11.76,11.76-11.76,11.76,5.27,11.76,11.76-5.27,11.76-11.76,11.76Z"/>
    <g>
      <path class="cls-3" d="M36.29,24.53c0,6.49-5.27,11.76-11.76,11.76s-11.76-5.28-11.76-11.76,5.27-11.76,11.76-11.76,11.76,5.27,11.76,11.76Z"/>
      <path class="cls-2" d="M24.53,37.29c-7.04,0-12.76-5.73-12.76-12.76s5.73-12.76,12.76-12.76,12.76,5.73,12.76,12.76-5.73,12.76-12.76,12.76ZM24.53,13.76c-5.94,0-10.76,4.83-10.76,10.76s4.83,10.76,10.76,10.76,10.76-4.83,10.76-10.76-4.83-10.76-10.76-10.76Z"/>
    </g>
  </g>
</svg>