<?xml version="1.0" encoding="UTF-8"?>
<svg id="_レイヤー_1" data-name="レイヤー 1" xmlns="http://www.w3.org/2000/svg" version="1.1" viewBox="0 0 476.2 476.2">
  <defs>
    <style>
      .cls-1 {
        fill: none;
      }

      .cls-1, .cls-2, .cls-3, .cls-4 {
        stroke: #201614;
        stroke-linecap: round;
        stroke-linejoin: round;
        stroke-width: 8px;
      }

      .cls-2, .cls-5 {
        fill: #fff;
      }

      .cls-6 {
        fill: #201614;
      }

      .cls-6, .cls-7, .cls-8, .cls-9, .cls-5 {
        stroke-width: 0px;
      }

      .cls-7 {
        fill: #37bef0;
      }

      .cls-3, .cls-8 {
        fill: #b6f777;
      }

      .cls-4 {
        fill: #f4d1bd;
      }

      .cls-9 {
        fill: #ea5532;
      }
    </style>
  </defs>
  <path class="cls-4" d="M171,98.1s-27.1,41.3-25.9,57.4c2,27.7,38,72.6,38,72.6l48.6-28.7s-20.5-27-20.5-33.7,30.8-38.7,30.8-38.7c2.3-4.5-71-28.9-71-28.9Z"/>
  <path class="cls-4" d="M301.4,109.4s-13.5,38.3-7.9,52.9c5.6,14.6,37.1,58.5,37.1,58.5l45-19.1s-15.8-24.8-15.8-40.5,12.4-49.5,12.4-49.5l-70.9-2.2Z"/>
  <path class="cls-3" d="M275.7,369.4c1.1-3.4-102.8-149.3-100.6-152.7,2.3-3.4,50.2-30.8,50.2-30.8,0,0,28.5,27.4,39.2,49.5,13.2,27.3,14.4,59.5,36.4,90.2,11.6,16.3,20.9,34.7,20.9,34.7l-46.2,9Z"/>
  <path class="cls-3" d="M325.8,218.6s39.4,76.6,47.3,94.6c7.9,18,20.3,61.9,20.3,61.9l42.8-4.5s-13.4-28.6-17.9-55.6c-4.5-27-8-63.7-17-79.5-9-15.8-22.5-33.8-22.5-33.8l-52.9,16.9Z"/>
  <path class="cls-2" d="M292,355.1c7.6-6.4,19.6-14,22.1-19.7,0,0,17,15.5,21.1,27.3,4.1,11.5,7.4,26.6,7.4,26.6,0,0-35.5,9.3-54.9,25.5-19.4,16.2-33.7,19.4-52.1,23-18.3,3.6-37.3,4.4-39.3-10-2.9-21.1,17.4-25.7,26.6-32.5,11-8.1,36.3-18.2,36-35.1,0,0,19.4,6.5,33-5Z"/>
  <path class="cls-3" d="M262.1,431s34-10.4,49.1-14.7c15.1-4.3,34.9-15.9,34.9-15.9l-3.5-11.2s-26.8,6.1-43,17.6c-16.2,11.5-28.9,21.7-37.5,24.2Z"/>
  <path class="cls-2" d="M408.1,359.7c7.6-6.4,19.6-14,22.1-19.7,0,0,17,15.5,21.1,27.2,4.1,11.5,7.4,26.6,7.4,26.6,0,0-35.5,9.3-54.9,25.5-19.4,16.2-33.7,19.4-52.1,23-18.3,3.6-37.3,4.4-39.3-10-2.9-21.1,17.4-25.7,26.6-32.5,11-8.1,36.3-18.2,36-35.1,0,0,19.4,6.5,33-5Z"/>
  <path class="cls-3" d="M378.2,435.7s34-10.4,49.1-14.7c15.1-4.3,34.9-15.9,34.9-15.9l-3.5-11.2s-26.8,6.1-43,17.6c-16.2,11.5-28.9,21.7-37.5,24.2Z"/>
  <polygon class="cls-5" points="186.2 228.2 233.4 199.9 235.4 202.1 187.7 230.6 186.2 228.2"/>
  <polygon class="cls-5" points="189.4 233.3 237.4 204.4 239.2 206.4 190.8 235.4 189.4 233.3"/>
  <polygon class="cls-5" points="336.3 230.1 382.3 213.5 384.2 216.3 337.4 232.4 336.3 230.1"/>
  <polygon class="cls-5" points="338.9 235.4 386.1 219.1 387.7 221.4 340 237.6 338.9 235.4"/>
  <path class="cls-8" d="M213.6-1.8l-75.2,119.1,85.7,40.6c10.7,5.1,23.5,1,29.4-9.2l65-113.5L338.6-1.8s-125,0-125,0Z"/>
  <path class="cls-1" d="M213.6-1.8l-75.2,119.1,90.3,42.7c8.1,3.9,17.9.8,22.4-7l67.5-117.9L338.6-1.8"/>
  <path class="cls-7" d="M293.3-1.5c-3.3,41.5-8.9,118.4-11.2,149.3-.5,7.1,5.3,12.9,12.4,12.4l89.8-6.4c4.9-.3,8.9-4,9.7-8.8,4.4-27.3,18.5-114.2,22.3-130.2,1-4.3,2.7-10.1,4.6-16.3h-127.5Z"/>
  <path class="cls-3" d="M293.3-1.5c-3.2,39.6-8.4,111.4-10.9,144.7-.7,9.5,7.2,17.4,16.6,16.7l82.7-5.8c6.4-.4,11.6-5.2,12.6-11.5,4.8-29.7,18.2-112.1,21.9-127.7,1-4.3,2.7-10.3,4.6-16.5"/>
  <polygon class="cls-5" points="389.1 -1.8 360.6 151.5 365.8 151.2 394.8 -1.8 389.1 -1.8"/>
  <polygon class="cls-5" points="398.8 -1.8 371 150.8 376.6 150.4 404.1 -1.8 398.8 -1.8"/>
  <g>
    <path class="cls-2" d="M166.2,68.8c16,40.7-4.1,86.6-44.8,102.6-40.7,16-86.6-4.1-102.6-44.8C2.9,85.9,23,39.9,63.7,24c40.7-16,86.6,4.1,102.6,44.8Z"/>
    <polygon class="cls-6" points="87.7 126.3 67 101.1 84.6 73.5 116.2 81.8 118.2 114.4 87.7 126.3"/>
    <path class="cls-6" d="M92,18.6l4.3,5.2-17.6,27.5-31.6-8.2-.6-9.8s10.1-6.8,20.7-10.5c11.4-4,24.8-4.2,24.8-4.2Z"/>
    <path class="cls-6" d="M17.1,73.8l6.3-2.5,20.7,25.3-17.6,27.5-9.5-2.5s-3.3-11.7-3.6-23c-.3-12.1,3.7-24.9,3.7-24.9Z"/>
    <path class="cls-6" d="M46.5,162l-.4-6.7,30.4-11.9,20.7,25.2-5.3,8.3s-12.1-.4-23-3.7c-11.6-3.4-22.5-11.2-22.5-11.2Z"/>
    <path class="cls-6" d="M139.5,161.3l-6.5-1.7-1.9-32.6,30.4-11.9,6.2,7.6s-4.2,11.4-10.6,20.7c-6.8,9.9-17.6,17.9-17.6,17.9Z"/>
    <path class="cls-6" d="M167.6,72.7l-3.6,5.7-31.6-8.2-1.9-32.6,9.1-3.6s9.6,7.5,16.4,16.5c7.3,9.6,11.6,22.3,11.6,22.3Z"/>
  </g>
  <path class="cls-9" d="M123.1,378.8s11.6-16.1,33.8-15.6c22.2.4,50.5,24.4,50.5,24.4,0,0-23-31.6-5.3-46.4,17.6-14.8,50.2-9.8,50.2-9.8,0,0-51.8-15-41.1-40.5,10.7-25.5,16.7-44.7,16.7-44.7,0,0-28.5,44.9-49.3,35.7-20.8-9.2-23.6-33.7-23.6-33.7,0,0,0,42-19.1,43.9-19,1.9-57.6,12.1-57.6,12.1,0,0,49.2,2.3,55.9,22.8,6.7,20.5-11,51.7-11,51.7Z"/>
  <path class="cls-5" d="M476.2,476.2H0V0h476.2v476.2ZM484.9-8.7H-8.7v493.6h493.6V-8.7Z"/>
</svg>