<?xml version="1.0" encoding="UTF-8"?>
<svg id="_レイヤー_1" data-name=" レイヤー 1" xmlns="http://www.w3.org/2000/svg" version="1.1" viewBox="0 0 1198.3 188.9">
  <defs>
    <style>
      .cls-1 {
        fill: #ee7e46;
      }

      .cls-1, .cls-2, .cls-3, .cls-4 {
        stroke-width: 0px;
      }

      .cls-2 {
        fill: #c9151d;
      }

      .cls-3 {
        fill: #423232;
      }

      .cls-4 {
        fill: #fff;
      }
    </style>
  </defs>
  <g id="_レイヤー_3" data-name=" レイヤー 3">
    <g id="_レイヤー_1-2" data-name=" レイヤー 1-2">
      <g>
        <path class="cls-1" d="M171.3,59.2c-3.5,3.5-8.2,5.5-13.3,5.5s-9.7-1.9-13.3-5.5c-1.1-1.1-1.1-2.9,0-4s2.9-1.1,4,0c2.5,2.5,5.8,3.8,9.3,3.8s6.8-1.4,9.3-3.8c1.1-1.1,2.9-1.1,4,0s1.1,2.9,0,4h0Z"/>
        <path class="cls-1" d="M151.2,43.7c0,1.2-.6,2.3-1.5,3.1-.8.8-1.9,1.2-3,1.2h-.2c-2.5,0-4.4-2.2-4.3-4.7.1-2.5,2.3-4.4,4.7-4.2,2.5,0,4.4,2.2,4.2,4.7h.1Z"/>
        <path class="cls-2" d="M71,59.2c-3.6,3.5-8.3,5.5-13.3,5.5s-9.7-1.9-13.3-5.5-1.1-2.9,0-4,2.9-1.1,4,0c2.5,2.5,5.8,3.8,9.3,3.8s6.8-1.4,9.3-3.8c1.1-1.1,2.9-1.1,4,0s1.1,2.9,0,4Z"/>
        <path class="cls-2" d="M73.6,43.3c0,2.5-1.8,4.6-4.3,4.7h-.2c-1.1,0-2.2-.4-3-1.2-.9-.8-1.4-1.9-1.5-3.1,0-2.5,1.8-4.6,4.2-4.7,2.5,0,4.6,1.8,4.7,4.2h.1Z"/>
        <path class="cls-2" d="M204.1,26.9c.2,1,.2,2-.1,3-.6,1.8-2.1,3.3-4.1,3.7h-1.4c-1,0-2-.3-2.8-.8-1.3-.8-2.1-2-2.5-3.5-.1-.6-.2-1.1-.1-1.7.1-2,1.4-3.9,3.4-4.7.3,0,.6-.2.9-.3,1.4-.3,2.9,0,4.2.7,1.3.8,2.1,2,2.5,3.5h0Z"/>
        <path class="cls-1" d="M106.2,51.6c-.7.7-1.4,1.5-2.1,2.2-5.8,6.3-11.1,13.5-15.7,21.4-5.5,9.5-9.6,19.5-12.2,29.6-2.4,9.6-3.4,18.8-2.8,27.5.6,9.7,3.1,18,7.2,24.4,1.6,2.5,3.4,4.7,5.4,6.6-3.4-1.7-6.7-3.7-10-6-3.5-2.5-6.9-5.2-10.1-8.2-.6-1.9-1.1-3.8-1.4-5.8-4.4-21.2.4-48.2,15-73.3,4.9-8.6,10.7-16.3,16.8-23,.7-.8,1.4-1.5,2.2-2.3,2.7,2.1,5.3,4.4,7.8,6.9h-.1Z"/>
        <path class="cls-4" d="M212.2,33.4c-.7-.6-1.4-1.1-2.2-1.5.5-1.4.7-2.8.6-4.4-.1-3.2-1.5-6.1-3.9-8.3-2-1.8-4.6-2.9-7.2-3v-1c-.2-3.4-1.6-6.5-4.2-8.8-2.3-2.1-5.4-3.3-8.5-3.3h-.6c-7,.4-12.4,6.3-12.1,13.3h0c-6.3-2.9-13.3-4.4-20.7-4.4-14.8,0-30.7,6-45.5,17.1-14.8-11.2-30.9-17.3-45.8-17.3s-14.2,1.5-20.5,4.4c0-3.3-1-6.5-3.3-8.9-2.3-2.5-5.4-4-8.8-4.1h-.6c-3.1,0-6.2,1.1-8.6,3.3-2.5,2.3-4,5.4-4.1,8.8v1c-2.7.2-5.2,1.2-7.2,3.1-2.4,2.2-3.8,5.1-3.9,8.2,0,1.5,0,3,.6,4.4-.8.4-1.6.9-2.3,1.6-2,1.8-3.2,4.5-3.4,7.3-.1,2.9.9,5.7,2.8,7.8,1.9,2.2,4.6,3.4,7.5,3.6h.5c1.3,0,2.5-.2,3.7-.6-5.8,23-1.1,52.8,14.8,80.3,15.1,26.3,37.9,44.4,60.9,51.3,1.2.4,2.4.8,3.6,1.2h.2c4.7,1.2,9.3,1.8,13.7,1.8h.4c1.3,0,2.6,0,3.9-.1h.8c1-.2,2.1-.3,3.4-.5h.4c25.9-4.2,52.6-23.9,69.7-53.4,15.9-27.6,20.6-57.5,14.7-80.6,1.2.5,2.5.7,3.9.7h.7c5.9-.4,10.4-5.5,10.1-11.4-.1-2.9-1.4-5.6-3.6-7.5h.1ZM186.5,9.5c1.7,0,3.3.5,4.6,1.6s2,2.7,2.1,4.4c0,.8,0,1.5-.3,2.2-.6,2-2.3,3.7-4.4,4.2-.4,0-.9.2-1.4.2h-.3c-1.6,0-3.1-.6-4.2-1.7-1.2-1.1-2-2.7-2.1-4.4-.2-3.5,2.5-6.5,6-6.6h0ZM24.8,11.1c1.2-1.1,2.9-1.7,4.5-1.6,3.5.2,6.2,3.1,6,6.6,0,1.7-.8,3.2-2.1,4.4-1.2,1.1-2.7,1.7-4.2,1.7s-.2,0-.3,0c-.5,0-.9,0-1.4-.2h0c-2.1-.6-3.7-2.2-4.4-4.2-.2-.7-.3-1.4-.3-2.2,0-1.7.8-3.2,2.1-4.4h0ZM13.9,44.8c-.8.8-1.9,1.2-3,1.2s-.1,0-.2,0c-2.5,0-4.4-2.2-4.3-4.7,0-1.2.6-2.3,1.5-3.1.5-.4,1-.7,1.6-.9.5-.2,1.1-.2,1.6-.2,1.8,0,3.3,1.3,3.9,2.9.2.6.3,1.2.3,1.8,0,1.2-.6,2.3-1.5,3.1h0ZM16.9,33.7c-2,0-3.7-1.3-4.6-2.9-.5-.8-.7-1.8-.7-2.9s.7-2.8,1.8-3.9c1.1-1,2.5-1.5,4-1.4.3,0,.6,0,.9,0,2,.5,3.7,2,4.2,4.1.1.5.2,1.1.2,1.7,0,1.5-.7,2.8-1.8,3.8-.7.7-1.6,1.1-2.6,1.3-.4,0-.7,0-1.1,0s-.2,0-.3,0h0ZM120.4,180.4c-4.2,1-8.4,1.6-12.5,1.6h-.3c-1.2,0-2.3,0-3.5-.1h-.7c-1.1-.1-2.2-.2-3.3-.4h-.2c-10.3-1.7-21.1-6.3-31.2-13.5-13-9.1-25.1-22.3-34.5-38.6-22.6-39.2-21.8-82.8.7-102.1h0c1.1-1,2.3-1.9,3.6-2.8h0c.8-.5,1.6-1.1,2.5-1.5,6.5-3.7,13.7-5.5,21.4-5.5,13.4,0,27.8,5.5,41.3,15.3,1.5,1.1,2.9,2.2,4.3,3.3h0c2.7,2.2,5.3,4.5,7.8,7.1,1.3,1.3,2.6,2.7,3.9,4.1,6.2,6.7,11.9,14.4,16.8,22.9,14.5,25.2,19.4,52.2,15,73.4-.7,3.6-1.7,6.9-3,10.1-3.9,9.9-10.1,17.8-18.8,22.9-2.9,1.7-6,3-9.2,3.9h0ZM167.4,55.3c1.1-1.1,2.9-1.1,4,0s1.1,2.9,0,4c-3.5,3.5-8.2,5.5-13.3,5.5s-9.7-1.9-13.3-5.5c-1.1-1.1-1.1-2.9,0-4s2.9-1.1,4,0c2.5,2.5,5.8,3.8,9.3,3.8s6.8-1.4,9.3-3.8h0ZM165,43.7c-.1-2.5,1.8-4.6,4.2-4.7h.9c.9,0,1.7.5,2.4,1.1.8.7,1.3,1.7,1.4,2.8v.3c.1,2.5-1.8,4.6-4.3,4.7h-.2c-1.1,0-2.2-.4-3-1.2-.9-.8-1.4-1.9-1.5-3.1h.1ZM149.7,46.8c-.8.8-1.9,1.2-3,1.2h-.2c-2.5,0-4.4-2.2-4.3-4.7.1-2.5,2.3-4.4,4.7-4.2,2.5,0,4.4,2.2,4.2,4.7,0,1.2-.6,2.3-1.5,3.1h.1ZM181.8,129.2c-9.6,16.6-21.9,29.9-35.1,39h0c-3.1,2.1-6.2,4-9.3,5.7,6.8-5.9,11.8-13.8,14.8-23.5,1.5-1.4,2.9-2.9,4.3-4.4,6.1-6.4,11.6-13.9,16.3-22,5.5-9.6,9.6-19.5,12.2-29.6,2.4-9.6,3.4-18.8,2.8-27.5-1.1-16.5-7.5-28.9-18-35-4.7-2.7-10.1-4.1-16.1-4.1-10.4,0-22.2,4.3-33.4,12.1,0,0-.2,0-.2.2-.8.5-1.5,1.1-2.3,1.7-2.6-2.5-5.2-4.9-7.9-7.1.8-.7,1.7-1.3,2.5-1.9,13.5-9.9,27.9-15.3,41.3-15.3s14.9,1.8,21.4,5.5c.8.5,1.6,1,2.4,1.5,1.4.9,2.6,1.9,3.8,2.9q.8.7,0,0c22.4,19.4,23.1,62.9.6,101.9h-.1ZM198.7,33.7c-.4,0-.8,0-1.1,0-1-.2-1.9-.7-2.6-1.3-1.1-1-1.8-2.4-1.8-3.8s0-1.1.2-1.7c.5-2,2.1-3.6,4.1-4,.3,0,.6,0,.9,0,1.5,0,2.9.4,4,1.4s1.8,2.4,1.8,3.9-.2,2-.7,2.9c-.9,1.7-2.6,2.8-4.6,2.9h-.3.1ZM205.2,45.9h-.2c-1.1,0-2.2-.4-3-1.2-.9-.8-1.4-1.9-1.5-3.1,0-.7,0-1.3.3-1.8.6-1.6,2.1-2.8,3.9-2.9.6,0,1.1,0,1.6.2.6.2,1.1.5,1.6.9.9.8,1.4,1.9,1.5,3.1.1,2.5-1.8,4.6-4.3,4.7h0Z"/>
        <path class="cls-2" d="M209.4,41.3c.1,2.5-1.8,4.6-4.3,4.7h-.2c-1.1,0-2.2-.4-3-1.2-.9-.8-1.4-1.9-1.5-3.1,0-.7,0-1.3.3-1.8.6-1.6,2.1-2.8,3.9-2.9.6,0,1.1,0,1.6.2.6.2,1.1.5,1.6.9.9.8,1.4,1.9,1.5,3.1h0Z"/>
        <path class="cls-1" d="M15.3,41.7c0,1.2-.6,2.3-1.5,3.1-.8.8-1.9,1.2-3,1.2s-.1,0-.2,0c-2.5,0-4.4-2.2-4.3-4.7,0-1.2.6-2.3,1.5-3.1.5-.4,1-.7,1.6-.9.5-.2,1.1-.2,1.6-.2,1.8,0,3.3,1.3,3.9,2.9.2.6.3,1.2.3,1.8h0Z"/>
        <path class="cls-1" d="M22.7,28.4c0,1.5-.7,2.8-1.8,3.8-.7.7-1.6,1.1-2.6,1.3-.4,0-.7,0-1.1,0s-.2,0-.3,0c-2,0-3.7-1.3-4.6-2.9-.5-.8-.7-1.8-.7-2.9s.7-2.8,1.8-3.9c1.1-1,2.5-1.5,4-1.4.3,0,.6,0,.9,0,2,.5,3.7,2,4.2,4.1.1.5.2,1.1.2,1.7h0Z"/>
        <path class="cls-1" d="M35.3,16.1c0,1.7-.8,3.2-2.1,4.4-1.2,1.1-2.7,1.7-4.2,1.7s-.2,0-.3,0c-.5,0-.9,0-1.4-.2h0c-2.1-.6-3.7-2.2-4.4-4.2-.2-.7-.3-1.4-.3-2.2,0-1.7.8-3.2,2.1-4.4,1.2-1.1,2.9-1.7,4.6-1.6,3.5.2,6.2,3.1,6,6.6h0Z"/>
        <path class="cls-2" d="M136.4,70.1c-4.9-8.6-10.6-16.2-16.8-22.9-1.3-1.4-2.6-2.8-3.9-4.1-2.5-2.5-5.1-4.9-7.8-7h0c-1.4-1.2-2.8-2.3-4.3-3.3-13.5-9.9-28-15.4-41.3-15.3-7.6,0-14.9,1.8-21.4,5.5-.8.5-1.7,1-2.5,1.5h0c-1.3.8-2.5,1.8-3.6,2.7h0c-22.5,19.3-23.4,62.9-.7,102.1,9.4,16.3,21.6,29.5,34.5,38.6,10.2,7.1,20.9,11.8,31.2,13.5h.2c1.1.2,2.2.3,3.3.4h.7c1.2.1,2.3.1,3.5.1h.3c4.1,0,8.3-.6,12.5-1.6,3.2-.9,6.3-2.2,9.2-3.9,8.7-5,15-13,18.8-22.9,1.2-3.2,2.3-6.6,3-10.1,4.4-21.2-.4-48.2-15-73.4h.1ZM142.4,132.4c-.6,9.8-3.1,18.1-7.3,24.6-2.9,4.4-6.5,8-10.8,10.5-2,1.2-4.2,2.1-6.4,2.8-3,.9-6.3,1.4-9.7,1.4h-.3c-1.1,0-2.3-.1-3.5-.2h0c-1,0-2-.2-3-.4h-.2c-8.6-1.5-17.7-5.5-26.5-11.6-2.5-1.7-4.9-3.6-7.2-5.6-2.9-2.4-5.6-5.1-8.3-7.9-6-6.4-11.4-13.7-16.1-21.8-5.5-9.5-9.6-19.5-12.2-29.6-2.4-9.6-3.4-18.8-2.8-27.5,1.1-16.5,7.5-29,18-35,4.7-2.7,10.2-4.1,16.1-4.1,10.4,0,22.3,4.3,33.5,12.1,0,0,0,0,.2,0,1.4,1,2.8,2,4.1,3.1,2.7,2.1,5.3,4.4,7.8,6.9h0c1.3,1.3,2.6,2.6,3.9,4,5.8,6.3,11.1,13.5,15.6,21.3,5.5,9.6,9.6,19.5,12.2,29.6,2.4,9.6,3.4,18.8,2.8,27.5h0l.2-.2Z"/>
        <path class="cls-4" d="M139.6,104.9c-2.5-10.1-6.6-20-12.2-29.6-4.5-7.9-9.8-15.1-15.6-21.3-1.3-1.4-2.6-2.7-3.9-4h0c-2.5-2.5-5.2-4.8-7.8-6.9-1.4-1.1-2.8-2.1-4.1-3.1,0,0,0,0-.2,0-11.2-7.8-23.1-12.1-33.5-12.1s-11.4,1.4-16.1,4.1c-10.5,6.1-17,18.5-18,35-.6,8.7.4,17.9,2.8,27.5,2.6,10.1,6.7,20.1,12.2,29.6,4.7,8.1,10.1,15.4,16.1,21.8,2.7,2.8,5.4,5.5,8.3,7.9,2.3,2,4.7,3.9,7.2,5.6,8.8,6.1,17.9,10.1,26.5,11.6h.2c1,.2,1.9.3,3,.4h0c1.2.1,2.4.2,3.5.2h.3c3.4,0,6.7-.5,9.7-1.4,2.3-.7,4.4-1.6,6.4-2.8,4.3-2.5,7.9-6,10.8-10.5,4.1-6.4,6.6-14.8,7.3-24.6.6-8.7-.4-17.9-2.8-27.5h0l-.2.2ZM68.9,39c2.5,0,4.6,1.8,4.7,4.2,0,2.5-1.8,4.6-4.3,4.7h-.2c-1.1,0-2.2-.4-3-1.2-.9-.8-1.4-1.9-1.5-3.1,0-2.5,1.8-4.6,4.2-4.7h.1ZM41.8,43.3c0-.3,0-.5,0-.8.2-.9.7-1.7,1.4-2.3.5-.5,1.2-.8,1.9-1,.4,0,.9-.2,1.3-.2,2.5,0,4.4,2.2,4.2,4.7,0,1.2-.6,2.3-1.5,3.1-.8.8-1.9,1.2-3,1.2h-.2c-2.5,0-4.4-2.2-4.3-4.7h0ZM57.7,64.7c-5,0-9.7-1.9-13.3-5.5s-1.1-2.9,0-4,2.9-1.1,4,0c2.5,2.5,5.8,3.8,9.3,3.8s6.8-1.4,9.3-3.8c1.1-1.1,2.9-1.1,4,0s1.1,2.9,0,4c-3.6,3.5-8.3,5.5-13.3,5.5ZM104.1,53.9c-5.8,6.3-11.1,13.5-15.7,21.4-5.5,9.5-9.6,19.5-12.2,29.6-2.4,9.6-3.4,18.8-2.8,27.5.6,9.7,3.1,18,7.2,24.4,1.6,2.5,3.4,4.7,5.4,6.6-3.4-1.7-6.7-3.7-10-6-3.5-2.5-6.9-5.2-10.1-8.2-.6-1.9-1.1-3.8-1.4-5.8-4.4-21.2.4-48.2,15-73.3,4.9-8.6,10.7-16.3,16.8-23,.7-.8,1.4-1.5,2.2-2.3,2.7,2.1,5.3,4.4,7.8,6.9-.7.7-1.4,1.5-2.1,2.2h-.1Z"/>
        <path class="cls-2" d="M50.8,43.7c0,1.2-.6,2.3-1.5,3.1-.8.8-1.9,1.2-3,1.2h-.2c-2.5,0-4.4-2.2-4.3-4.7,0-.3,0-.5,0-.8.2-.9.7-1.7,1.4-2.3.5-.5,1.2-.8,1.9-1,.4,0,.9-.2,1.3-.2,2.5,0,4.4,2.2,4.2,4.7h0Z"/>
        <path class="cls-1" d="M181.8,129.2c-9.6,16.6-21.9,29.9-35.1,39h0c-3.1,2.1-6.2,4-9.3,5.7,6.8-5.9,11.8-13.8,14.8-23.5,1.5-1.4,2.9-2.9,4.3-4.4,6.1-6.4,11.6-13.9,16.3-22,5.5-9.6,9.6-19.5,12.2-29.6,2.4-9.6,3.4-18.8,2.8-27.5-1.1-16.5-7.5-28.9-18-35-4.7-2.7-10.1-4.1-16.1-4.1-10.4,0-22.2,4.3-33.4,12.1,0,0-.2,0-.2.2-.8.5-1.5,1.1-2.3,1.7-2.6-2.5-5.2-4.9-7.9-7.1.8-.7,1.7-1.3,2.5-1.9,13.5-9.9,27.9-15.3,41.3-15.3s14.9,1.8,21.4,5.5c.8.5,1.6,1,2.4,1.5,1.4.9,2.6,1.9,3.8,2.9q.8.7,0,0c22.4,19.4,23.1,62.9.6,101.9h-.1Z"/>
        <g>
          <path class="cls-4" d="M284.3,129c-1.8,0-3.6-.4-5.4-1.1-3.6-1.5-6.5-4.1-8.4-7.7-1.8-3.7-2.1-7.6-.9-11.3,1-3.1,2.8-5.7,5.3-7.7-2.2-1.3-4.3-2.8-6.2-4.5-1-.8-1.8-1.7-2.5-2.7-.5,3.6-1.9,6.6-4.3,9.2-2.8,2.9-6.3,4.4-10.1,4.4s-7.5-1.6-10.2-4.6c-2.6-2.8-3.9-6.4-3.9-10.3v-55.3c0-4,1.4-7.6,3.9-10.5,2.8-3.1,6.4-4.8,10.4-4.8s7.6,1.6,10.4,4.6c2.1,2.2,3.4,4.9,3.9,7.9,5.1-4.4,10.9-7.8,17.5-10,.2-3.8,1.7-7.2,4.2-9.9,2.9-3.2,6.7-4.9,10.9-4.9s8,1.7,10.9,4.9c2.1,2.3,3.5,5.1,4,8.2,9.9,1.9,17.8,6,23.5,12.4,6.4,7.3,9.7,17.2,9.7,29.6s-3.5,23.1-10.5,30.4c-6.4,6.7-15.4,10.8-26.8,12.2-3.6,8.6-9.9,15.2-18.8,19.8-2.1,1.1-4.3,1.6-6.4,1.6h-.2ZM313.9,73.6c1.6-2,2.4-4.7,2.4-8.5s-.7-6.6-2.4-8.6v17.2h0ZM277.8,69.8c2,0,4,.4,5.9,1.3v-13.2c-3.3,2.4-6.2,5.6-8.9,9.6-.7,1-1.3,2.1-1.9,3.1,1-.4,2.1-.6,3.2-.8h1.7,0Z"/>
          <path class="cls-3" d="M257.3,98.9c-1.6,1.6-3.4,2.4-5.5,2.4s-4-.8-5.5-2.5-2.3-3.7-2.3-6v-55.3c0-2.4.8-4.5,2.3-6.3s3.4-2.6,5.6-2.6,4.1.9,5.7,2.6c1.6,1.7,2.4,3.8,2.4,6.2v14q0,.2.1.2c.1,0,.2,0,.2-.2,6.9-11.2,16.4-18.4,28.5-21.6.7-.2,1.1-.7,1.1-1.7v-2.2c0-2.7.9-5,2.5-6.8,1.7-1.9,3.8-2.8,6.2-2.8s4.5.9,6.2,2.8,2.5,4.1,2.5,6.8v1.2c0,.9.4,1.4,1.2,1.6,10.4,1.2,18.2,4.9,23.6,11s8.1,14.5,8.1,25.3-2.9,19.9-8.8,26c-5.8,6.1-14.3,9.7-25.5,10.5-.9,0-1.4.4-1.7,1.3-2.8,8.3-8.4,14.6-16.7,18.9-2.1,1.1-4.3,1.1-6.5.2s-3.9-2.5-5.1-4.8c-1-2.1-1.2-4.2-.5-6.4.7-2.2,2-3.8,3.8-5.1,2.4-1.5,4.4-3.3,5.8-5.2.1-.2.2-.6.2-.9s-.1-.6-.4-.7c-4.5-1.6-8.6-4-12.2-7.1-1.8-1.5-2.7-3.4-2.9-6-.1-2.5.5-4.8,1.9-6.7,1.3-1.8,2.9-2.8,5-3s4,.3,5.6,1.6c1.7,1.4,3.8,2.6,6.3,3.8.3.2.6,0,.8,0,.3-.2.4-.5.4-.8v-31.7c0-.3-.1-.6-.3-.8s-.5-.3-.8-.2c-7.8,2.8-14.2,8.2-19.5,16.1-5.2,7.9-8.4,17.5-9.5,28.8-.2,2.4-1.1,4.5-2.7,6.1h.4ZM322.6,65c0-10.2-4.7-16.4-14-18.4-.3,0-.5,0-.8.2s-.3.6-.3,1v34.4c0,.9.4,1.3,1.1,1.1,9.3-2,14-8.1,14-18.3h0Z"/>
          <path class="cls-4" d="M377,127c-3.3,0-6.4-1.2-9-3.4-3-2.5-4.9-5.9-5.4-9.9-.6-3.8.2-7.5,2.3-10.7,2.3-3.4,5.5-5.6,9.5-6.2,15.9-2.4,34.7-7.4,34.7-18.3s-.6-2.2-1.1-2.5c-1.1-.6-3.8-1.7-10.2-1.7s-21.2,1.9-37.5,5.7c-1.1.2-2.1.4-3.2.4-2.8,0-5.5-.9-7.9-2.6-3.2-2.2-5.3-5.4-6.2-9.3-.9-3.9-.3-7.7,1.7-11.2s5.1-5.9,8.9-6.9c10.6-2.6,20.4-4.4,29.3-5.5-4.3-.4-8.7-.9-13.1-1.5-3.9-.4-7.2-2.5-9.6-5.9-2.2-3.2-3.1-6.9-2.6-10.8.5-3.9,2.3-7.3,5.2-9.8,2.6-2.2,5.7-3.4,9-3.4s1.1,0,1.6,0c13.2,1.5,25.5,2.5,36.5,2.8,4,.1,7.5,1.8,10.2,4.7,2.7,2.9,4.1,6.5,4.1,10.5s-1.4,7.6-4,10.5c-1.5,1.7-3.3,2.9-5.2,3.6,5.5,1.5,10.2,3.7,14,6.9,7.3,6.1,11,14.4,11,24.8s-5.4,24.8-16.1,33.4c-10.2,8.2-24.8,13.4-44.6,15.9-.6,0-1.3.1-2,.1h0l-.3.3Z"/>
          <path class="cls-3" d="M358.7,73.9c-2.1.5-4.2,0-6-1.2s-3.1-3.1-3.6-5.5-.2-4.6,1-6.6,2.8-3.4,5-4c16.9-4.1,31.4-6.2,43.6-6.2s20.2,2.4,26,7.2,8.7,11.5,8.7,19.9-4.6,21.1-13.8,28.5c-9.2,7.4-23,12.2-41.5,14.6-2.2.3-4.2-.3-6-1.8s-2.9-3.5-3.3-6c-.4-2.3,0-4.4,1.3-6.3s3-3,5.1-3.3c26.8-4,40.1-12.2,40.1-24.6s-1.4-6.3-4.3-8-7.4-2.5-13.4-2.5c-9.2,0-22.1,1.9-38.9,5.8h0ZM372.5,20.1c13.4,1.5,25.7,2.5,37,2.8,2.2,0,4.1,1,5.7,2.7s2.4,3.8,2.4,6.2-.8,4.5-2.3,6.2-3.4,2.5-5.6,2.4c-12.6-.4-25.6-1.5-39.1-3.2-2.1-.2-3.9-1.3-5.2-3.2s-1.9-4-1.5-6.4c.3-2.4,1.3-4.3,3-5.7,1.7-1.5,3.6-2.1,5.8-1.8h-.2Z"/>
          <path class="cls-4" d="M508.2,129.4c-2.4,0-4.6-.6-6.8-1.9-3.4-2-5.8-5.2-6.9-9.2-.4-1.5-.6-3-.5-4.5-9.4,7.5-19.4,11.3-29.8,11.3s-15.8-2.9-21.2-8.6c-5.3-5.6-8-13.1-8-22.3s2.6-17.9,7.8-25.3c4.6-6.6,11-11.8,18.9-15.6v-2.1h-8c-3.7,0-7.1-1.5-9.8-4.5-2.5-2.8-3.8-6.2-3.8-9.8s1.3-7.1,3.9-9.8c2.7-2.8,6-4.3,9.7-4.3h8.2c.5-3.1,1.8-5.9,4-8.3,2.8-3,6.4-4.6,10.4-4.6s7.6,1.6,10.4,4.7c2.1,2.3,3.4,5.1,3.9,8.2h32.3c3.7,0,7,1.5,9.7,4.3,2.5,2.7,3.9,6.1,3.9,9.8s-1.3,7.1-3.8,9.8c-2.7,2.9-6,4.5-9.8,4.5h-3.6c3.6,1.7,6.8,3.7,9.7,6.2,8.4,7.4,12.6,17.6,12.6,30.2s-2.5,17.7-7.6,24.9c-5,7.1-12,12.5-20.8,15.9-1.6.6-3.2.9-4.8.9h-.2Z"/>
          <path class="cls-3" d="M464.2,118.8c-6.9,0-12.4-2.2-16.6-6.6s-6.3-10.4-6.3-17.9,2.2-15.3,6.6-21.7c4.4-6.3,10.8-11.2,19-14.6.7-.2,1.1-.8,1.1-1.8v-9.9c0-.9-.4-1.3-1.2-1.3h-13.2c-1.9,0-3.6-.8-5-2.4-1.4-1.6-2.2-3.4-2.2-5.5s.7-3.9,2.2-5.5,3.1-2.3,5-2.3h13.2c.8,0,1.2-.4,1.2-1.3v-2.7c0-2.4.8-4.5,2.4-6.3s3.5-2.6,5.8-2.6,4.1.9,5.7,2.6,2.4,3.8,2.4,6.3v2.7c0,.9.4,1.3,1.2,1.3h37.2c1.9,0,3.6.8,5,2.3s2.2,3.4,2.2,5.5-.7,4-2.2,5.5-3.1,2.4-5,2.4h-37.2c-.8,0-1.2.5-1.2,1.3v6c0,.4.1.7.4,1s.5.3.8.2c3.8-.3,6.9-.5,9.1-.5,13,0,23,3.1,30,9.3,7,6.2,10.5,14.7,10.5,25.4s-2.2,15.1-6.4,21.2-10.3,10.6-18,13.6c-2.1.8-4.1.6-6.1-.6-2-1.2-3.3-3-4-5.4-.6-2.2-.4-4.3.6-6.4s2.5-3.6,4.5-4.7c3.8-2,6.9-4.6,9.1-7.8,2.2-3.2,3.3-6.5,3.3-10,0-5-1.4-9.1-4.3-12.2-.6-.7-1.1-.5-1.4.4-5.2,13.7-12.2,24.2-20.9,31.7-8.7,7.5-17.8,11.2-27.3,11.2h0ZM466.9,77.2c-5.8,4.1-8.6,9.1-8.6,15s.7,5.6,2,7.4c1.4,1.8,3.3,2.6,5.7,2.6s.2,0,.4,0h.4c.8,0,1.2-.5,1.2-1.5v-22.8c0-.3-.1-.6-.4-.7s-.5,0-.7,0h0ZM494.6,69.7c-2.9,0-5.9.2-9.1.6-.8.2-1.2.7-1.2,1.6v18.5c0,.2.1.4.3.5.2,0,.4,0,.5,0,4.7-5.4,8.6-12,11.9-19.9,0-.3,0-.6-.1-.8s-.4-.4-.7-.4h-1.7.1Z"/>
          <path class="cls-4" d="M572.1,127.6c-9,0-17-5.9-23.7-17.4-6.1-10.4-9.2-23.2-9.2-38.1s1.2-23.6,3.7-35.4c.8-4.2,3-7.7,6.5-10.2,2.9-2.1,6-3.1,9.4-3.1s1.4,0,2.1,0c4.3.6,7.7,2.9,10,6.7,2.1,3.4,2.8,7.3,2.1,11.4-2.2,11.3-3.2,21.5-3.2,30.6s1,13.6,2.9,18.6c.4,1.1.8,1.9,1.1,2.6,1.8-2.5,3.8-6.2,5.9-11,1.7-3.8,4.4-6.5,7.9-8.1,1.9-.9,3.9-1.3,5.9-1.3s3.5.3,5.2,1c3.8,1.6,6.6,4.4,8.2,8.2,1.6,3.9,1.6,7.9,0,11.7-4.1,10.1-9.2,18.3-15,24.1-6.5,6.4-13.1,9.7-19.7,9.7h-.1ZM628.3,114.4c-4.3,0-8.1-1.7-11.1-4.9-2.7-3-4.2-6.7-4.5-10.9-.9-19.3-4.2-37.7-9.9-54.7-1.3-3.8-1.2-7.8.5-11.5,1.7-3.9,4.7-6.6,8.6-7.9,1.7-.5,3.3-.8,4.9-.8,2.4,0,4.7.5,6.9,1.6,3.7,1.8,6.4,4.9,7.8,8.8,6.9,18.9,10.9,40.4,11.8,63.8,0,4.4-1.3,8.4-4,11.5-2.9,3.3-6.7,5-11.1,5h0Z"/>
          <path class="cls-3" d="M572.1,121.2c-6.6,0-12.7-4.8-18.2-14.3-5.6-9.5-8.4-21.1-8.4-34.8s1.2-22.7,3.5-34.1c.5-2.7,1.8-4.8,4-6.3,2.1-1.5,4.5-2.2,7-1.8,2.3.3,4.1,1.5,5.4,3.7,1.3,2.1,1.7,4.4,1.3,6.9-2.2,11.6-3.3,22.2-3.3,31.7s1.1,15.2,3.4,20.9,4.5,8.6,6.7,8.6,3.1-1.4,5.3-4.3,4.5-7.1,6.8-12.5c1-2.3,2.6-3.9,4.7-4.8,2.1-.9,4.1-1,6.2-.2,2.1.9,3.7,2.5,4.7,4.8s1,4.5,0,6.7c-3.8,9.5-8.4,16.9-13.7,22.1-5.3,5.2-10.4,7.9-15.2,7.9h0l-.2-.2ZM619.1,98.2c-.9-19.9-4.3-38.7-10.2-56.4-.8-2.4-.7-4.7.3-6.9s2.6-3.7,4.8-4.5c2.4-.7,4.8-.5,7,.5s3.8,2.9,4.7,5.3c6.7,18.4,10.5,39,11.4,61.9,0,2.8-.7,5.1-2.4,7s-3.8,2.9-6.3,2.9-4.6-.9-6.4-2.9c-1.7-1.9-2.7-4.2-2.8-7h0Z"/>
        </g>
        <path class="cls-2" d="M193.1,15.5c0,.8,0,1.5-.3,2.2-.6,2-2.3,3.7-4.4,4.2-.4,0-.9.2-1.4.2h-.3c-1.6,0-3.1-.6-4.2-1.7-1.2-1.1-2-2.7-2.1-4.4-.2-3.5,2.5-6.5,6-6.6,1.7,0,3.3.5,4.6,1.6s2,2.7,2.1,4.4h0Z"/>
        <g>
          <path class="cls-4" d="M748.2,126.3c-5.6,0-10.4-3.1-14.3-9.4-1.8,1.6-3.6,3.1-5.6,4.5l-.3.2c-2.3,1.5-4.7,2.2-7.3,2.2s-1.9-.1-2.8-.3c-3.4-.7-6.3-2.7-8.4-5.7-.3-.4-.5-.8-.8-1.3-1.2,3.2-3.5,5.6-6.6,7-1.6.7-3.3,1.1-5,1.1s-3.8-.5-5.6-1.4-4-2.7-5.4-4.6c-.3.1-.7.2-1,.3-8,2.1-15.2,3.7-21.5,4.8-.8.1-1.6.2-2.3.2-2.7,0-5.2-.8-7.5-2.4-3-2.1-4.8-5.1-5.4-8.7-.6-3.5.3-6.9,2.5-9.8.4-.5.8-1,1.3-1.5-1.2-1.4-1.9-3.2-2.1-5.1-.4-3.3-.9-6.8-1.5-10.7-.4-3,.3-5.7,2-7.9.3-.4.6-.8.9-1.1-1.9-2.3-2.9-5.1-2.9-8.1s1.3-6.8,3.8-9.3c.3-.3.6-.6,1-.9-3.1-1.4-5.2-4.2-5.9-7.7l-.2-1.2c-1.1-6.6.8-13.4,5.8-19.3,1.9-2.4,3.5-4.6,4.7-6.5,3.5-5.7,8.8-8.7,15.5-8.7s11.5,2.7,15.7,7.8c.8,1,1.7,2,2.5,3,2.9-2.5,6.4-3.9,10.3-3.9h18.3c.5-2.3,1.7-4.4,3.5-6.2,2.5-2.4,5.6-3.7,9.1-3.7s5.1.7,7.2,2.1c1.1-.9,2.4-1.6,3.9-2.1,1.3-.4,2.5-.5,3.6-.5,1.8,0,3.6.4,5.3,1.3,2.8,1.4,4.8,3.8,5.7,6.8.4,1.3.8,2.6,1.1,3.7,2.1,1.5,3.4,4,3.4,6.9v4.6c0,3.6-1.3,6.8-3.8,9.3s-3.2,2.6-5.1,3.2c2.7,1.3,5,3.6,6.4,6.5,1.5,3,2,6.3,1.3,9.4-1.5,7.1-3.5,13.7-5.9,19.9h.2c2.7,1.2,4.9,3.1,6.5,5.7,1.5,2.5,2.3,5.3,2.1,8.2-.7,8.7-2.1,15-4.3,19.5-3.8,7.6-8.7,9.2-12.2,9.2h0v.6Z"/>
          <path class="cls-3" d="M653.8,49.9v-.9c-1-5.1.5-9.9,4.2-14.4,2.2-2.7,3.9-5.1,5.2-7.2,2.3-3.8,5.7-5.7,10-5.7s7.8,1.8,10.7,5.5c1.2,1.5,2.5,3,3.7,4.4,1.6,1.8,2.6,3.9,3,6.2s0,4.5-1,6.6c-.4.7-.5,1.4-.5,2.1v1c0,2.1-.8,3.9-2.2,5.4s-3.2,2.2-5.3,2.2-1,.3-1,1v5c0,.7.4,1.1,1.1,1.1h1.8c1.8,0,3.4.7,4.7,2s2,2.9,2,4.8-.6,3.4-1.9,4.7-2.8,2-4.8,2h-1.8c-.7,0-1.1.4-1.1,1.1v22.6c0,.7.4,1,1.1.9,0,0,.4,0,.7-.2.3,0,.6,0,.7,0,1.6-.4,3,0,4.4,1s2,2.3,2,3.9-.6,3.7-1.7,5.2-2.6,2.5-4.4,3c-7.7,2-14.7,3.6-20.8,4.7-1.8.3-3.5,0-5-1.1s-2.4-2.5-2.7-4.4c-.3-1.8,0-3.5,1.3-5s2.6-2.4,4.5-2.8c1.2,0,2.8-.4,4.7-.9.8-.2,1.2-.6,1.2-1.4v-25.3c0-.8-.4-1.2-1.3-1.2h-3.5c-1.8,0-3.4-.7-4.7-2s-2-2.9-2-4.7.7-3.5,2-4.8,2.9-2,4.7-2h3.5c.9,0,1.3-.4,1.3-1.2v-5.3c0-.4-.2-.6-.7-.6h-1.4c-.9,0-1.6-.3-2.3-1s-1-1.4-1-2.3,0-.2-.2,0c0,0,0,.2-.2.3-.2,0-.2.2-.2.3-1.1,1.2-2.4,1.5-3.9.9s-2.4-1.6-2.7-3.2h-.2ZM661.3,99.2c-1.2.2-2.2,0-3.2-.6s-1.5-1.5-1.6-2.7c-.4-3.3-.9-6.9-1.5-10.9-.2-1.2,0-2.2.8-3.2s1.6-1.6,2.8-1.8c1.2-.3,2.2,0,3.2.6.9.7,1.5,1.6,1.7,2.7.7,4.1,1.2,7.8,1.5,10.8,0,1.2,0,2.2-.8,3.2s-1.7,1.6-2.9,1.9h0ZM669.1,41.1c-.2.2-.2.4,0,.7,0,.2.3.3.6.3h9.6c.3,0,.5,0,.6-.3s0-.4,0-.7c-1.7-2.2-3.3-4.7-5-7.6,0-.2-.3-.3-.5-.3s-.5,0-.7.3c-1.9,3.5-3.4,6-4.5,7.6h0ZM687.1,78.8c1.1,0,2,.6,2.7,1.4.7.9,1,1.9.8,2.9-.2,3.1-.5,6-1,8.9,0,1-.5,1.8-1.4,2.4s-1.8.8-2.8.7c-1.1-.2-2-.7-2.6-1.6-.6-.8-.9-1.8-.7-2.9.7-5.5,1-8.4,1-8.6,0-1,.6-1.8,1.4-2.5s1.7-.9,2.7-.8h-.1ZM716.8,105.2c3.8-2.5,7.2-5.3,10.2-8.6.2,0,.2-.3,0-.6,0-.2-.3-.3-.5-.3h-5.7c-.5,0-.8.3-.8.9,0,1.6-.6,3-1.7,4.1s-2.5,1.7-4.2,1.7-3.1-.6-4.2-1.7-1.7-2.5-1.7-4.1v-24c0-2.5.9-4.7,2.7-6.6s4-2.7,6.5-2.7h9.2c.7,0,1.1-.4,1.1-1.2v-2c0-.8-.5-1.2-1.4-1.2h-18.3c-.3,0-.6,0-.9.4-.3.3-.4.6-.4.9v8.6c0,21-1.2,36-3.6,45.2-.5,1.8-1.6,3.1-3.4,3.9s-3.5.7-5.2-.2c-1.8-.9-3.1-2.3-3.9-4.1-.8-1.8-1-3.7-.5-5.8,1.8-8.3,2.7-25.2,2.7-50.7v-19c0-2.5.9-4.7,2.7-6.5s4-2.7,6.5-2.7h23.2c.8,0,1.2-.4,1.2-1.3v-2c0-1.8.6-3.3,1.9-4.6s2.8-1.8,4.6-1.8,3.4.6,4.6,1.8c1.3,1.2,1.9,2.8,1.9,4.6s0,.6,0,1.1v1.1c0,.8.4,1.2,1.1,1.2h1.6c.7,0,.9-.4.8-1.1l-.7-2.3c-.4-1.5-.3-2.8.4-4.1s1.7-2.1,3.1-2.6c1.5-.4,2.8-.3,4.1.3,1.3.7,2.1,1.7,2.6,3,.8,2.5,1.4,4.6,1.8,6.4,0,.2,0,.2.3.2,1.4,0,2.1.7,2.1,2.1v4.6c0,1.9-.7,3.5-2,4.8s-2.9,2-4.7,2h-9.1c-.8,0-1.2.4-1.2,1.3.4,9.2.8,17.2,1.3,24q0,.2.2.2t.3-.2c.7-2.7,1.5-6.2,2.4-10.5.4-1.6,1.3-2.8,2.7-3.6s2.8-.8,4.3,0c1.7.8,3,2.1,3.9,3.8.9,1.7,1.1,3.5.8,5.3-2.4,11.2-5.9,21.1-10.6,29.8-.4.8-.5,1.6-.3,2.4,1,4.7,1.8,7.1,2.4,7.1s.9-3,1.2-8.9c0-1.3.7-2.3,1.8-3s2.3-.8,3.5-.3c1.5.7,2.7,1.7,3.6,3.1s1.3,3,1.2,4.6c-.6,7.6-1.8,13.2-3.7,17-1.8,3.7-4,5.6-6.5,5.6-4.7,0-8.7-4.2-12.1-12.8,0-.3-.2-.4-.5-.5-.3,0-.5,0-.7.3-3,3.4-6.5,6.5-10.4,9.4-1.7,1.1-3.4,1.4-5.3,1-1.8-.4-3.4-1.4-4.5-3.1-1-1.5-1.3-3.2-.9-4.9s1.4-3.1,3-4.2h.1ZM725.5,46.7c.8,0,1.2-.4,1.2-1.2v-2.2c0-.7-.4-1.1-1.3-1.1h-17.5c-.9,0-1.3.4-1.3,1.2v2.1c0,.8.4,1.2,1.3,1.2h17.7-.1ZM720.4,83.5v-7.5c0-.3,0-.6-.4-.9s-.6-.4-.9-.4h-.3c-.3,0-.6.2-.9.4s-.4.6-.4.9v7.5c0,.8.4,1.2,1.3,1.2h.3c.9,0,1.3-.4,1.3-1.2h0ZM728,67.1v27.1c0,.2,0,.3.3.4.2,0,.3,0,.5-.2s.5-.6,1-1.2.9-1.1,1.1-1.4c.4-.5.5-1.2.3-2.2-1.1-5.9-2.1-13.4-3.1-22.6h0q0,0,0,0Z"/>
          <path class="cls-4" d="M776.8,125.4c-2.5,0-4.9-.6-7.1-1.8-3.4-1.8-6-4.5-7.6-8.1-1.7-3.6-1.6-7.5.2-11.2,1.8-3.6,4.8-6.1,8.7-7,.3,0,.5,0,.8-.2-1.7-1.5-3-3.4-3.7-5.7-1.2-3.8-.7-7.5,1.4-10.8.5-.8,1-1.7,1.5-2.5-1.8-.3-3.6-1-5.2-2.1-3.1-2-5.3-4.9-6.3-8.4-1-3.6-.5-7.2,1.6-10.4,1.4-2.1,3.2-3.7,5.3-4.7-.2-.2-.3-.3-.5-.5-2.8-3.1-3.8-6.8-3.1-10.6s3-6.8,6.4-8.6c7.6-4,14.1-8.3,19.3-12.8,5.2-4.6,11.1-6.9,17.4-6.9s2,0,3,.2l3.3.5c3.5.4,6.3,2.5,7.7,5.8h23.7c3.6,0,6.8,1.3,9.2,3.8,2.5,2.5,3.8,5.6,3.8,9.1,0,5.9-2.1,11-6.1,15,3,1.6,6.4,3.2,10.3,4.7,3.5,1.5,6,3.9,7.5,7,1.6,3.3,1.8,6.9.6,10.4-1.2,3.4-3.5,6.1-6.8,7.8-.6.3-1.2.6-1.8.8.5,2.9,0,5.9-1.5,8.7-1.1,1.9-2.6,4.1-4.7,6.8-.5.8-1.2,1.5-1.9,2.2,1.5.4,3.2.9,5,1.4,3.8,1,6.8,3.4,8.6,7,1.8,3.7,1.9,7.5.2,11.2-1.6,3.5-4.2,6.2-7.7,7.9-2.3,1.2-4.7,1.8-7.1,1.8s-2.8-.2-4.2-.6c-13.2-3.9-24.1-9.9-32.4-18.1-8.8,8.3-20.1,14.4-33.7,18.2-1.4.4-2.8.6-4.2.6h0ZM827.6,65.6c1.2,2.2,1.8,4.7,1.8,7.3v4.1c0,.9,0,1.7.2,2.5.8-1.2,1.7-2.4,2.4-3.8,1.1-1.8,2.4-3.3,3.9-4.6-3-1.7-5.8-3.6-8.4-5.6h0Z"/>
          <path class="cls-3" d="M774.8,71.9c-2,.3-3.9,0-5.7-1.2s-3-2.7-3.5-4.8c-.5-1.8-.2-3.6.8-5.2s2.5-2.6,4.4-2.9c14-2.1,25.1-4.5,33.4-7.3,8.3-2.8,15.5-6.3,21.4-10.5.3-.2.3-.4,0-.7,0,0-.2,0-.3,0h-25.3c-.7,0-1.5.2-2.2.8-4.7,3.6-9.7,6.9-15.1,9.8-2.1,1.1-4.3,1.4-6.5,1s-4.2-1.5-5.9-3.2c-1.3-1.5-1.8-3.1-1.4-5,.4-1.9,1.4-3.3,3.1-4.1,8.1-4.3,15-8.8,20.5-13.6,4.7-4.2,9.9-5.9,15.5-5.2l3.2.4c1.3.2,2.2.8,2.7,2s.4,2.3-.4,3.3c-.2.2-.2.3,0,.4,0,.2.2.2.3.2h29.8c1.9,0,3.5.6,4.8,1.9,1.3,1.3,1.9,2.8,1.9,4.6,0,4.6-1.6,8.3-4.9,11.1-.4.4-1.9,1.6-4.5,3.6-.7.6-.8,1.1,0,1.5,4.4,3.3,10.4,6.5,17.8,9.4,1.9.8,3.3,2.1,4.1,3.9.9,1.8,1,3.6.3,5.5s-1.9,3.3-3.7,4.2c-1.8.9-3.7,1.1-5.6.4-10.5-3.6-19.3-8.7-26.4-15.2-.6-.5-1.2-.6-2-.2-12.9,6.5-29.7,11.5-50.5,14.9h0v.3ZM767.9,112.9c-.9-1.9-.8-3.8,0-5.7s2.4-3.2,4.5-3.7c12.2-3.1,20.7-6.6,25.5-10.7s7.2-9.3,7.2-15.7v-4.1c0-2.5.9-4.6,2.6-6.3,1.7-1.7,3.8-2.6,6.3-2.6s4.6.9,6.3,2.6,2.6,3.8,2.6,6.3v4.1c0,6.3,2.4,11.5,7.2,15.6s13.3,7.7,25.5,10.8c2,.5,3.5,1.7,4.5,3.7s1,3.8,0,5.7c-1,2.2-2.6,3.8-4.8,5-2.2,1.1-4.4,1.4-6.7.7-14.3-4.1-25.3-10.9-33.2-20.3-.7-.6-1.2-.7-1.6-.2-8.4,9.6-20,16.5-34.8,20.6-2.3.6-4.6.4-6.7-.7s-3.7-2.8-4.8-5.1h.2ZM789.5,89.5c-1.2,2-2.9,3.3-5.1,4-2.3.7-4.5.6-6.7-.2-1.8-.7-3-1.9-3.7-3.9s-.4-3.7.7-5.4c1.5-2.3,2.7-4.6,3.8-6.8,1-2,2.5-3.6,4.5-4.6s4-1.3,6.2-.8c2.1.6,3.6,1.8,4.6,3.7s1,3.7,0,5.6c-1.1,2.4-2.6,5.2-4.5,8.3h.1ZM849.1,90c-1.4,2-3.3,3.2-5.7,3.9-2.4.6-4.7.5-7-.4-1.8-.7-3-1.9-3.5-3.8s-.2-3.6,1-5.2,2.4-3.4,3.6-5.4c1.2-2,2.9-3.6,5.1-4.5,2.2-1,4.4-1.1,6.5-.4s3.6,2,4.5,3.9.8,3.9-.3,5.8c-1,1.6-2.4,3.7-4.3,6.2h.1Z"/>
          <path class="cls-4" d="M879.3,127.3h-.2c-3.4-.3-6.6-1.7-9-4.1-2.6-2.5-4-5.8-4.2-9.3,0-3.6,1.2-6.9,3.7-9.4,1.2-1.2,2.7-2.1,4.2-2.7v-8.1c-1.2-.4-2.2-1-3.2-1.8-2.8-2.2-4.5-5.3-4.8-8.9v-1.1c-.2-3.6.9-7,3.1-9.9,1.4-1.7,3-3.1,4.9-4.1v-9.1c-1.7-.6-3.3-1.6-4.6-3-2.6-2.6-4-5.8-4-9.5s1.3-6.9,3.9-9.5c1.4-1.4,3-2.5,4.7-3.2v-4c0-3.9,1.5-7.5,4.2-10.2,2.8-2.8,6.3-4.2,10.2-4.2s7.5,1.5,10.2,4.2c1.6,1.6,2.7,3.4,3.4,5.4,2.5-2.2,5.5-3.4,8.8-3.4h13.5c.7-1.6,1.6-3,2.9-4.2,2.6-2.6,5.9-3.9,9.6-3.9h2.8c3.7,0,7,1.3,9.6,3.9,1.3,1.3,2.3,2.7,3,4.3h13.6c3.6,0,6.8,1.3,9.4,3.9,2.5,2.5,3.9,5.8,3.9,9.4s-1.3,6.8-3.9,9.4c-1,1-2.2,1.9-3.5,2.5,2.1.6,4,1.7,5.7,3.3,2.5,2.5,3.8,5.6,3.8,9.1s-1.3,6.7-3.8,9.2c-.3.3-.6.5-.8.8.3.3.6.6.9.9,2.5,2.5,3.8,5.7,3.8,9.2s-1.3,6.7-3.8,9.2c-2.4,2.4-5.4,3.7-8.8,3.8-.8,1.6-1.7,3.1-2.6,4.6,1.4.7,2.8,1.3,4.3,2.1,3.6,1.8,5.9,4.8,6.8,8.5.9,3.6.4,7.2-1.4,10.4-1.8,3.2-4.7,5.5-8.4,6.5-1.2.3-2.5.5-3.7.5-2.4,0-4.7-.6-6.8-1.8-4.3-2.4-8.7-4.6-13-6.7-8.9,4.3-20.5,7.4-34.7,9.2-.6,0-1.3.1-2,.1-2.8,0-5.6-.9-7.9-2.6,0,0-.3-.2-.4-.3-1.2,1.3-2.7,2.3-4.7,3.2-1.9.8-3.9,1.3-6,1.5-1.6.1-3.7.2-6.3.2h-2.2l-.2-.3Z"/>
          <path class="cls-3" d="M878.7,53.3c-2,0-3.6-.7-5-2s-2.1-3-2.1-5,.7-3.7,2.1-5.1,3.1-2.1,5-2.1h.5c.7,0,1-.3,1-1v-8.5c0-2.2.8-4.2,2.3-5.7,1.6-1.6,3.5-2.3,5.7-2.3s4.2.8,5.7,2.3c1.6,1.6,2.3,3.5,2.3,5.7v8.4c0,.7.4,1.1,1.1,1.1h1.1c2,0,3.6.7,5,2.1,1.4,1.4,2.1,3.1,2.1,5.1s-.7,3.6-2.1,5-3,2-5,2h-1.1c-.7,0-1.1.4-1.1,1.1v13.2c0,.6.3.8.9.7,1.5-.4,3-.3,4.3.4,1.3.7,2.3,1.8,2.8,3.2.3.7.8.9,1.4.7.7-.2,1.4-.3,2.2-.3h10.4c.8,0,1.4-.3,1.8-1,0,0,.2-.3.3-.6s.2-.4.3-.6c.8-1.3,2-2.6,3.7-3.9.3,0,.3-.4,0-.7h-.2c0,0-16.6,0-16.6,0-1.8,0-3.4-.6-4.6-1.8-1.3-1.2-1.9-2.8-1.9-4.6s.6-3.4,1.9-4.6c1.3-1.3,2.8-1.9,4.6-1.9h7.8c.7,0,.9-.4.7-1.1-.2-.4-.6-1.1-1-2.2s-.9-2-1.2-2.6c-.6-1.4-.8-2.7-.8-3.8s-.3-1.2-1-1.2h-1.4c-1.9,0-3.5-.7-4.9-2s-2.1-3-2.1-4.8.7-3.5,2.1-4.8c1.4-1.3,3-2,4.9-2h17.8c.7,0,1-.3,1-1,0-2,.7-3.8,2.1-5.1s3.1-2.1,5.1-2.1h2.8c2,0,3.8.7,5.2,2.1s2.1,3.1,2.1,5.1.3,1,1,1h17.9c1.9,0,3.5.7,4.8,2s2,3,2,4.8-.7,3.5-2,4.8-3,2-4.8,2h-2c-.3,0-.5,0-.7.4-.2.3-.2.5-.2.8.4,1.5.2,2.9-.4,4.3l-2,4.2c-.2.3-.2.6,0,.8,0,.3.4.4.7.4h7c1.8,0,3.4.6,4.6,1.9s1.9,2.8,1.9,4.6-.6,3.3-1.9,4.6c-1.3,1.2-2.8,1.8-4.6,1.8h-28.9c-.2,0-.4,0-.5.3s0,.4,0,.7c1,1.7,1.1,3.3.2,4.9-.3.6,0,.9.5.9h28.5c1.9,0,3.5.7,4.8,2s2,2.9,2,4.8-.7,3.4-2,4.7-2.9,2-4.8,2h-2.4c-.7,0-1.3.4-1.6,1.1-2,4.4-4.4,8.2-7.1,11.4-.4.7-.4,1.1.2,1.3,3,1.4,6.4,3,10.2,4.9,1.8.9,3,2.4,3.5,4.4s.2,3.8-.8,5.6-2.5,3-4.6,3.6-4,.3-5.8-.7c-5.1-2.8-10.1-5.3-15.1-7.8-.7-.4-1.5-.4-2.2,0-8.5,4.4-20,7.6-34.4,9.5-2,.3-3.8-.1-5.3-1.3-1.6-1.2-2.7-2.7-3.2-4.6-.4-1.7,0-3.4.9-4.8,1-1.5,2.5-2.3,4.3-2.5,7.9-.9,14.5-2.1,19.9-3.7.2,0,.3-.2.3-.4s0-.3-.2-.4c-2.1-.8-4.3-1.5-6.5-2.2-.4-.2-.7,0-1,.2-1,.9-2.2,1.4-3.5,1.5s-2.5,0-3.6-.9l-2.4-1.5c-1.6-.9-2.5-2.3-2.7-4.2-.2-1.9.3-3.5,1.5-4.8.6-.6,1.4-1.5,2.4-2.8,0,0,0-.3.2-.4s0-.2,0-.3-.2-.2-.3-.2h-.8c-2.5,0-4.5-1.1-5.8-3.3-.4-.7-.8-.8-1.4-.4-.8.5-1.6.9-2.4,1.1,0,0-.3,0-.4,0-.2,0-.3,0-.4,0-.7.2-1.1.7-1.1,1.4v16.6c0,3.3,0,6,0,7.9,0,1.9-.3,3.7-.8,5.4-.4,1.7-.9,2.9-1.5,3.6-.5.7-1.4,1.3-2.7,1.9s-2.6.9-4,1-3.4.2-5.8.2h-2c-2-.1-3.7-.9-5.1-2.3-1.4-1.4-2.2-3.1-2.2-5s.5-3.3,1.8-4.6c1.3-1.2,2.8-1.8,4.6-1.7h0c.7,0,1.1-.2,1.2-.6s.2-1.7.2-3.9v-14.2c0-.7-.3-.9-.9-.8-1.8.4-3.4,0-4.8-1.1-1.4-1.1-2.2-2.5-2.3-4.4v-.8c-.2-2.1.5-4,1.8-5.7s3.1-2.8,5.2-3.2c.7,0,1.1-.6,1.1-1.2v-17.1c0-.7-.3-1.1-1-1.1h-.5l.2-.3ZM946.1,85.6h-15.2c-.9,0-1.5.3-2,1,0,.2-.2.3-.4.6-.2.3-.4.5-.5.6-.2.2-.2.5,0,.8s.2.5.5.6c2.6.7,6.5,2,11.8,3.7.7.2,1.4,0,2-.6,1.7-1.7,3.2-3.5,4.5-5.5,0-.2.2-.5,0-.8s-.3-.4-.6-.4h0ZM947.1,41.5h-17.6c-.3,0-.5,0-.7.4,0,.3,0,.5,0,.8.9,1.9,2.1,4.7,3.7,8.5.4.8.9,1.2,1.7,1.2h7.4c.9,0,1.5-.4,1.8-1.1,1.5-2.7,2.9-5.6,4.2-8.7,0-.3,0-.5,0-.8-.2-.2-.4-.3-.7-.3h.3Z"/>
          <path class="cls-4" d="M1000.9,126.3c-4.2,0-7.9-1.5-10.8-4.4s-4.4-6.6-4.4-10.8v-30.1c-2-.8-3.7-2-5.2-3.7-2.6-2.8-4-6.3-4-10.2v-8.5c0-3.8,1.4-7.2,4.1-9.9,1.3-1.3,2.9-2.4,4.5-3v-14.8c0-4.2,1.6-8,4.6-11s6.8-4.6,11-4.6h63.1c4.2,0,8,1.6,11,4.6s4.6,6.8,4.6,11v14.8c1.7.7,3.2,1.7,4.5,3.1,2.7,2.7,4.1,6.1,4.1,9.9v8.5c0,3.8-1.4,7.3-3.9,10.2-1.5,1.6-3.3,2.9-5.2,3.7v21.5c0,4.7,0,8.1-.4,10.4-.4,3.5-2,6.6-4.6,9-2.5,2.3-5.5,3.6-9,4-2.3.2-5.9.4-10.8.4s-7.1,0-10.7-.2c-3.4-.1-6.4-1.5-8.8-3.9-2.3-2.4-3.6-5.4-3.8-8.7,0-1.2,0-2.4.4-3.6h-15v1.4c0,4.2-1.6,7.9-4.5,10.8-2.9,2.9-6.7,4.4-10.8,4.4h0v-.3Z"/>
          <path class="cls-3" d="M990.9,75.7c-2.3,0-4.2-.9-5.7-2.6s-2.3-3.6-2.3-5.9v-8.5c0-2.1.8-3.9,2.2-5.4s3.3-2.2,5.4-2.2,1-.3,1-1v-19.1c0-2.5.9-4.7,2.7-6.5s4-2.7,6.5-2.7h63.1c2.5,0,4.7.9,6.5,2.7s2.7,4,2.7,6.5v19.1c0,.7.3,1,1,1,2.1,0,3.9.8,5.4,2.2s2.2,3.3,2.2,5.4v8.5c0,2.3-.8,4.2-2.3,5.9s-3.4,2.6-5.7,2.6-1.2.4-1.2,1.2v25.6c0,4.4,0,7.6-.4,9.6-.3,2-1.1,3.7-2.6,5.1s-3.2,2.1-5.3,2.4-5.5.3-10.2.3-6.9,0-10.5-.2c-1.8,0-3.2-.8-4.5-2s-1.9-2.8-2-4.5c0-1.7.5-3.1,1.7-4.4,1.2-1.2,2.6-1.8,4.3-1.8,3.8.2,6.7.3,8.6.3s2.2,0,2.5-.3.4-.9.4-2.2v-.2c0-.8-.4-1.2-1.3-1.2h-42.3c-.9,0-1.3.4-1.3,1.2v6.6c0,2.5-.9,4.6-2.6,6.3-1.8,1.7-3.9,2.6-6.3,2.6s-4.6-.9-6.3-2.6-2.6-3.8-2.6-6.3v-34.3c0-.8-.4-1.2-1.2-1.2h.4ZM1001,61.6c-.8,0-1.2.4-1.2,1.2v1.4c0,.8.4,1.2,1.1,1.2h.2c0,0,62.4,0,62.4,0h.2c.7,0,1.1-.3,1.1-1.1v-1.4c0-.8-.4-1.2-1.2-1.2h-62.6ZM1008.4,35.3v14.4c0,.9.4,1.3,1.2,1.3h7.1c.8,0,1.2-.4,1.2-1.3v-2.8c0-2.5.9-4.7,2.7-6.5s4-2.7,6.6-2.7h27.8c.8,0,1.2-.4,1.2-1.3v-1c0-.8-.4-1.2-1.2-1.2h-45.4c-.8,0-1.2.4-1.2,1.2h0ZM1054.8,78.8v-1.6c0-.4,0-.7-.4-.9-.3-.2-.6-.4-.9-.4h-42.3c-.3,0-.6,0-.9.4-.3.3-.4.6-.4.9v1.6c0,.3,0,.6.4.9.3.3.6.4.9.4h42.3c.3,0,.6-.2.9-.4s.4-.6.4-.9ZM1054.8,92.6v-1.8c0-.8-.4-1.2-1.3-1.2h-42.3c-.9,0-1.3.4-1.3,1.2v1.8c0,.8.4,1.2,1.3,1.2h42.3c.9,0,1.3-.4,1.3-1.2ZM1056.2,48c0-.8-.4-1.2-1.2-1.2h-19.9c-.8,0-1.2.4-1.2,1.2v1.7c0,.9.4,1.3,1.2,1.3h19.9c.8,0,1.2-.4,1.2-1.3,0,0,0-1.7,0-1.7Z"/>
          <path class="cls-4" d="M1100.7,126.6c-3.8,0-7.2-1.4-9.9-4.1-2.7-2.7-4.1-6.1-4.1-9.9V32.4c0-4.2,1.6-8,4.6-11s6.8-4.6,11.1-4.6h23.2c3.5,0,6.6,1.3,9,3.8.7.8,1.3,1.5,1.8,2.4h5.4c.7-2,1.9-3.9,3.6-5.5,2.9-2.8,6.6-4.3,10.6-4.3h.4c4.1,0,7.8,1.5,10.6,4.4,1.6,1.6,2.8,3.4,3.5,5.5h10.2c4.2,0,8,1.6,11.1,4.6,3,3,4.6,6.8,4.6,11v9.5c0,3.9-1.5,7.5-4.2,10.2-1.9,1.9-4.2,3.2-6.8,3.8,2.8.4,5.4,1.7,7.5,3.8,2.6,2.6,3.9,5.8,3.9,9.4s-1.3,6.8-3.8,9.3-1,.9-1.5,1.3c1.4.8,2.7,1.9,3.8,3.2,2.2,2.6,3.2,5.8,3.1,9.2-.2,2.9-.3,5.3-.4,7.1,0,2.1-.4,4.2-.9,6.2l-.9,3.7c-.6,2.3-1.7,4.1-3.5,5.8-1.3,1.2-2.3,1.9-3.4,2.5-1.3.7-2.9,1.1-5.2,1.4-1.8.3-3.4.4-4.8.4h-5.1c-5.9,0-9.9-.3-12.7-1-4-1-6.8-3-8.5-5.9-1.2-2.1-1.8-5-1.9-8.9-3.6,4.7-8.5,8.9-14.5,12.7-2.4,1.4-4.9,2.1-7.4,2.1s-2.5-.2-3.8-.5c-3.6-1-6.6-3.2-8.7-6.4-1.2-1.9-1.8-3.8-2.1-5.8v.9c0,3.8-1.4,7.2-4.1,9.9s-6.1,4.1-9.9,4.1h.1ZM1114.7,108.9c0-.7.2-1.3.3-2h-.3v2h0ZM1130.2,62.1c.4,0,.8,0,1.2,0h0c-.5-.2-1.1-.3-1.6-.6,0,.2.3.5.4.7Z"/>
          <path class="cls-3" d="M1106.1,118c-1.5,1.5-3.3,2.2-5.4,2.2s-3.9-.8-5.4-2.2-2.2-3.3-2.2-5.4V32.4c0-2.5.9-4.7,2.7-6.5s4-2.7,6.6-2.7h23.2c1.8,0,3.2.6,4.5,1.9,1.2,1.3,1.8,2.8,1.8,4.5s0,.5.4.7c.2,0,.5,0,.8,0,1.3-.6,2.6-.9,3.9-.9h9.2c.7,0,1.1-.4,1.1-1.2,0-2.4.9-4.4,2.6-6.1,1.7-1.7,3.8-2.5,6.2-2.5h.4c2.4,0,4.4.8,6.1,2.5s2.5,3.7,2.5,6.1.4,1.2,1.2,1.2h14.5c2.6,0,4.7.9,6.6,2.7,1.8,1.8,2.7,4,2.7,6.5v9.5c0,2.3-.8,4.2-2.3,5.7s-3.5,2.3-5.7,2.3-1.3.4-1.5,1.1c-.4,1.4-1.2,2.5-2.4,3.4-1.2.9-2.5,1.3-3.9,1.3h-31.6c-1.4,0-2.8-.4-3.9-1.3-1.2-.9-2-2-2.4-3.3-.3-.8-.8-1.2-1.4-1.2-1.9-.2-3.5-.9-4.8-2.2-1.3-1.3-2.1-3-2.1-4.8,0,0,0,0-.2,0s-.2,0-.3,0c-1.2,3.3-2.9,6.9-4.9,10.9-.4.7-.3,1.3.2,2.1,1.5,2.2,2.9,4.7,4,7.4,0,.3.3.4.6.4s.6,0,.8-.2c1.1-.9,2.4-1.3,4-1.3h51.4c1.9,0,3.5.7,4.8,2s2,3,2,4.8-.7,3.5-2,4.9-3,2.1-4.8,2.1h-9.4c-.8,0-1.2.4-1.2,1.2v19.5c0,1.1,0,1.7.3,1.9s1.1.3,2.5.3,1.3,0,1.6,0c.3,0,.6-.4.9-1s.5-1.4.6-2.6.2-2.9.3-5.2c0-1.7.8-3.2,2.1-4.2s2.8-1.5,4.5-1.3c1.8.3,3.3,1.1,4.5,2.6,1.2,1.4,1.7,3,1.6,4.8,0,2.8-.3,5.2-.4,6.9s-.4,3.5-.8,5.1-.7,2.9-.9,3.8c-.2.9-.8,1.7-1.6,2.5-.8.8-1.5,1.3-2.1,1.6s-1.6.6-3.1.8-2.8.3-3.9.3h-5.1c-5.2,0-9-.3-11.2-.8s-3.7-1.5-4.4-2.8c-.7-1.3-1.1-3.6-1.1-6.8v-25.2c0-.8-.4-1.2-1.2-1.2h-1.3c-.9,0-1.3.4-1.3,1.2-.4,7.6-2.3,14-5.5,19.2-3.2,5.3-8.2,10-14.9,14.1-2,1.2-4,1.5-6.1.9s-3.8-1.8-5-3.7c-1.1-1.8-1.4-3.6-.8-5.6s1.7-3.5,3.6-4.5c4.4-2.6,7.7-5.5,9.8-8.7,2.1-3.2,3.4-7.1,3.9-11.8.2-.7-.2-1.1-1.1-1.1h-5.3c-.3,0-.7,0-1.3-.2-.3,0-.6,0-.8.2-.3.2-.4.4-.4.7v.7c0,5.2-.9,9.2-2.7,11.9-1.8,2.7-4.6,4.4-8.4,5.2-1.9.4-3.6,0-5.2-1.3-1.6-1.2-2.6-2.9-3.1-4.9l-.7-2.4c-.4-1.8.7-3.4,3.3-4.8,1.4-.7,2.1-3.1,2.1-7.1s-.4-5.4-1.3-7.6c-.8-2.2-2.3-4.8-4.5-7.6-.2-.3-.4-.3-.7,0,0,0,0,.2,0,.3v47.5c0,2.1-.8,3.9-2.2,5.4h0v-.2ZM1108.4,37.2v19c0,0,0,.2.2.3,0,0,.2,0,.3-.2,3-5.9,5.6-12.2,7.8-19.1,0-.3,0-.6,0-.9-.2-.3-.5-.4-.8-.4h-6.2c-.8,0-1.2.4-1.2,1.3h0ZM1142.7,44.3v3.3c0,.8.4,1.2,1.3,1.2h28.6c.9,0,1.3-.4,1.3-1.2v-3.3c0-.8-.4-1.2-1.3-1.2h-28.6c-.9,0-1.3.4-1.3,1.2Z"/>
        </g>
        <g>
          <path class="cls-4" d="M260.4,184.3c-2.8,0-5.3-.9-7.4-2.7-2.3-2-3.5-4.7-3.5-7.6v-7.4l-9.5-16.1c-1.7-3-1.6-6.4.3-9.2,1.7-2.5,4.4-4,7.6-4h1.3c2.5,0,4.8.6,7,1.9,2,1.2,3.5,2.7,4.6,4.6,1.1-1.9,2.6-3.4,4.6-4.6,2.1-1.2,4.5-1.9,7-1.9h1.1c3.1,0,5.9,1.4,7.6,3.9,2,2.9,2.1,6.3.2,9.3l-9.6,16.1v7.4c0,2.9-1.2,5.6-3.5,7.6-2,1.8-4.6,2.8-7.4,2.8h-.4Z"/>
          <path class="cls-3" d="M255.6,164.3l-10.2-17.2c-.5-.8-.4-1.6,0-2.4.5-.8,1.3-1.1,2.3-1.1h1.3c1.3,0,2.6.3,3.7,1s2,1.6,2.5,2.7l5.2,11h0l5.2-11c.5-1.1,1.4-2,2.5-2.7s2.4-1,3.7-1h1.1c1,0,1.8.4,2.3,1.1s.5,1.6,0,2.4l-10.2,17.2c-.2.4-.3.8-.3,1v8.6c0,1.1-.4,2-1.3,2.8s-1.9,1.2-3.2,1.2h-.2c-1.2,0-2.3-.4-3.2-1.2-.9-.8-1.4-1.7-1.4-2.8v-8.6c0-.3,0-.6-.3-1h.5Z"/>
          <path class="cls-4" d="M289.1,184.8c-5,0-8.8-1.5-11.5-4.4-2.5-2.8-3.8-6.8-3.8-12.2v-11c0-2.9,1.2-5.5,3.4-7.4,2-1.8,4.5-2.7,7.2-2.7s5.2.9,7.2,2.7c.5.4.9.9,1.3,1.4.4-.5.8-1,1.3-1.4,2-1.8,4.5-2.7,7.3-2.7s5.3.9,7.3,2.7c2.2,1.9,3.4,4.6,3.4,7.5v17c0,2.8-1.2,5.4-3.3,7.3-2,1.7-4.4,2.7-7.1,2.7h-1c-1.6,0-3-.4-4.4-1-2.2,1-4.7,1.5-7.2,1.5h0Z"/>
          <path class="cls-4" d="M319.8,184.8c-4,0-7.5-1.3-10.2-3.7-2.9-2.6-4.5-6.1-4.5-10.2s.5-5.8,3.1-8.9c-1-1.4-1.5-3.1-1.5-4.8s.8-4.5,2.4-6.3c1.5-1.8,3.7-3,6.1-3.3,3.3-.6,6.2-.9,8.9-.9,6.1,0,10.6,1.1,13.7,3.5,2.5,1.9,5.4,5.6,5.4,12.4v11.9c0,2.8-1.2,5.4-3.3,7.2-2,1.7-4.4,2.6-7.1,2.6h-.7c-1.6,0-3.2-.4-4.6-1.1-2.3,1-4.8,1.6-7.6,1.6h0Z"/>
          <path class="cls-3" d="M319.8,178.4c-2.4,0-4.4-.7-6-2.1s-2.4-3.2-2.4-5.4c0-5.7,4.8-8.6,14.3-8.6h1.8c.4,0,.6-.2.6-.5h0c0-1.3-.3-2.1-1-2.7-.7-.5-1.8-.8-3.5-.8s-4.3.3-7.6.9c-.8.2-1.5,0-2.1-.4s-.9-1-.9-1.7.3-1.5.8-2.2c.5-.6,1.3-1,2.1-1.1,3.1-.5,5.7-.8,8-.8,4.6,0,7.9.7,9.8,2.2s2.9,3.9,2.9,7.3v11.9c0,1-.4,1.8-1.2,2.5s-1.7,1-2.9,1h-.7c-.9,0-1.7-.3-2.3-.9-.6-.6-1-1.2-1-2v-.3h-.1c-2.2,2.4-5.1,3.7-8.6,3.7h0ZM325.8,166.8c-4.3,0-6.5,1.2-6.5,3.5s.3,1.5.9,2,1.3.7,2.3.7c1.7,0,3.1-.5,4.1-1.4,1.1-1,1.6-2.2,1.6-3.8v-.4c0-.4-.2-.6-.6-.6h-1.8Z"/>
          <path class="cls-4" d="M349.3,184.3c-2.8,0-5.4-1-7.4-2.8-2.2-2-3.5-4.7-3.5-7.6v-16.4c0-2.2.7-4.3,2-6-1.3-1.6-2-3.6-2-5.7s1.1-5.1,3.1-6.9c1.8-1.6,4.1-2.5,6.7-2.5h2.1c2.5,0,4.8.9,6.6,2.5,2,1.8,3.1,4.3,3.1,6.9s-.7,4.1-2,5.7c1.3,1.7,2,3.8,2,6v16.4c0,2.9-1.2,5.6-3.5,7.6-2,1.8-4.6,2.8-7.4,2.8h.2Z"/>
          <path class="cls-3" d="M289.1,178.4c-3.1,0-5.4-.8-6.8-2.3s-2.1-4.2-2.1-7.9v-11c0-1,.4-1.9,1.2-2.6s1.8-1.1,3-1.1,2.1.4,2.9,1.1c.8.7,1.2,1.6,1.2,2.6v10.5c0,1.8.3,3.1.9,3.7.6.7,1.5,1,2.9,1s2.4-.4,3.4-1.3c1-.9,1.5-1.9,1.5-2.9v-10.9c0-1.1.4-2,1.2-2.7s1.8-1.1,3-1.1,2.2.4,3,1.1,1.2,1.6,1.2,2.7v17c0,1-.4,1.9-1.2,2.6s-1.8,1.1-2.9,1.1h-1c-.9,0-1.6-.3-2.2-.8s-1-1.2-1-1.9v-.3h-.1c-2.3,2.4-5,3.6-8.3,3.6h0l.2-.2Z"/>
          <path class="cls-3" d="M348.2,148.8c-1,0-1.8-.3-2.4-.9s-1-1.3-1-2.2.3-1.6,1-2.2,1.5-.9,2.4-.9h2.1c1,0,1.8.3,2.4.9.7.6,1,1.3,1,2.2s-.3,1.6-1,2.2c-.7.6-1.5.9-2.4.9h-2.1ZM352.5,176.8c-.9.8-1.9,1.2-3.2,1.2s-2.3-.4-3.2-1.2-1.3-1.7-1.3-2.8v-16.4c0-1.1.4-2,1.3-2.8s1.9-1.2,3.2-1.2,2.3.4,3.2,1.2,1.3,1.7,1.3,2.8v16.4c0,1.1-.4,2-1.3,2.8Z"/>
          <path class="cls-4" d="M403.4,184.3c-2.6,0-5-.7-7.1-2.2-2-1.3-3.4-3.1-4.2-5.2h-1.9c-.8,2.1-2.2,3.9-4.2,5.2-2.1,1.5-4.5,2.2-7.2,2.2h-.4c-3,0-5.7-1.3-7.5-3.5-2.1-2.6-2.6-5.8-1.5-8.9l9.7-26.6c.9-2.4,2.5-4.5,4.8-5.9,2.1-1.4,4.5-2.1,7.1-2.1h.5c2.6,0,5,.7,7.1,2.1,2.2,1.4,3.8,3.4,4.7,5.8l9.8,26.8c1.1,3,.6,6.2-1.4,8.8-1.9,2.3-4.6,3.6-7.6,3.6h-.7Z"/>
          <path class="cls-4" d="M424.1,184.8c-6.1,0-11.1-1.6-14.7-4.8-2.7-2.3-5.8-6.7-5.8-14.3s1.9-10.7,5.6-14.1c3.5-3.3,8.4-5,14.4-5s3.9.1,6.2.4c2.4.3,4.5,1.4,6.2,3.1,1.8,1.8,2.7,4.1,2.7,6.6s-1.4,5.4-3.7,7c-1.6,1.1-3.4,1.7-5.3,1.7s-1,0-1.5-.1c-.9-.1-1.8-.2-2.8-.2v1.2h0c1.1,0,2.1,0,3-.2.5-.1,1.1-.1,1.7-.1,1.8,0,3.6.5,5.1,1.5,2.5,1.6,3.9,4.2,3.9,7.1s-.9,4.7-2.5,6.5-3.8,2.9-6.2,3.3c-2.4.3-4.4.4-6.2.4h-.1Z"/>
          <path class="cls-3" d="M378.4,178c-1.1,0-2-.4-2.6-1.2s-.8-1.7-.5-2.6l9.7-26.7c.4-1.1,1.2-2.1,2.2-2.8,1.1-.7,2.3-1.1,3.6-1.1h.5c1.3,0,2.5.4,3.6,1.1,1.1.7,1.8,1.6,2.2,2.8l9.7,26.7c.4.9.2,1.8-.4,2.6s-1.5,1.2-2.6,1.2h-.6c-1.3,0-2.5-.4-3.5-1.1s-1.8-1.6-2.1-2.8l-.9-3.1c-.1-.3-.4-.5-.7-.5h-10.3c-.4,0-.6.2-.7.5l-.9,3.1c-.3,1.1-1,2.1-2,2.8s-2.2,1.1-3.6,1.1h-.4.3ZM391,150.6l-3.8,13.4c0,.2,0,.3.1.4s.2.1.4.1h6.8c.2,0,.3,0,.4-.1s.1-.2,0-.4l-3.8-13.4h-.1Z"/>
          <path class="cls-3" d="M424.1,178.4c-4.6,0-8-1.1-10.5-3.2-2.4-2.1-3.7-5.3-3.7-9.5s1.2-7.2,3.5-9.4c2.4-2.2,5.7-3.3,10.1-3.3s3.4.1,5.5.4c1,.1,1.7.5,2.4,1.1s.9,1.4.9,2.2-.3,1.3-1,1.8c-.6.4-1.4.6-2.2.5-1.3-.2-2.8-.3-4.2-.3s-3.5.6-4.5,1.7-1.5,2.9-1.5,5.3.5,4.3,1.6,5.4,2.7,1.6,4.9,1.6,2.8-.1,4.1-.3c.8-.2,1.5,0,2.2.4s1,1,1,1.7-.3,1.6-.9,2.3-1.4,1.1-2.3,1.2c-2,.2-3.9.4-5.4.4h0Z"/>
          <path class="cls-4" d="M448,184.8c-5,0-8.8-1.5-11.5-4.4-2.5-2.8-3.8-6.8-3.8-12.2v-11c0-2.9,1.2-5.5,3.4-7.4,2-1.8,4.5-2.7,7.2-2.7s5.2.9,7.2,2.7c.5.4.9.9,1.3,1.4.4-.5.8-1,1.3-1.4,2-1.8,4.5-2.7,7.3-2.7s5.3.9,7.3,2.7c2.2,1.9,3.4,4.6,3.4,7.5v17c0,2.8-1.2,5.4-3.3,7.3-2,1.7-4.4,2.7-7.1,2.7h-1c-1.6,0-3-.4-4.4-1-2.2,1-4.7,1.5-7.2,1.5h0Z"/>
          <path class="cls-3" d="M448,178.4c-3.1,0-5.4-.8-6.8-2.3s-2.1-4.2-2.1-7.9v-11c0-1,.4-1.9,1.2-2.6s1.8-1.1,3-1.1,2.1.4,2.9,1.1c.8.7,1.2,1.6,1.2,2.6v10.5c0,1.8.3,3.1.9,3.7.6.7,1.5,1,2.9,1s2.4-.4,3.4-1.3c1-.9,1.5-1.9,1.5-2.9v-10.9c0-1.1.4-2,1.2-2.7s1.8-1.1,3-1.1,2.2.4,3,1.1,1.2,1.6,1.2,2.7v17c0,1-.4,1.9-1.2,2.6s-1.8,1.1-2.9,1.1h-1c-.9,0-1.6-.3-2.2-.8s-1-1.2-1-1.9v-.3h-.1c-2.3,2.4-5,3.6-8.3,3.6h0l.2-.2Z"/>
          <path class="cls-4" d="M476,194.7c-2.8,0-5.3-.9-7.3-2.7-2.2-1.9-3.4-4.6-3.4-7.5v-27.4c0-2.8,1.2-5.4,3.3-7.3,2-1.8,4.4-2.7,7.1-2.7h1c1.5,0,3,.3,4.4,1,2.2-1,4.6-1.5,7.1-1.5,5.1,0,9.5,1.9,12.6,5.4,3,3.4,4.5,8,4.5,13.6s-1.6,10.1-4.7,13.6c-3.2,3.6-7.5,5.5-12.5,5.5s-1.1,0-1.6,0c0,2.8-1.3,5.3-3.4,7.2-2,1.8-4.5,2.7-7.3,2.7h.2Z"/>
          <path class="cls-4" d="M513.1,184.8c-5,0-8.8-1.5-11.5-4.4-2.5-2.8-3.8-6.8-3.8-12.2v-11c0-2.9,1.2-5.5,3.4-7.4,2-1.8,4.5-2.7,7.2-2.7s5.3.9,7.2,2.7c.5.4.9.9,1.3,1.4.4-.5.8-1,1.3-1.4,2-1.8,4.5-2.7,7.3-2.7s5.3.9,7.3,2.7c2.2,1.9,3.4,4.6,3.4,7.5v17c0,2.8-1.2,5.4-3.3,7.3-2,1.7-4.4,2.7-7.1,2.7h-1c-1.6,0-3-.4-4.4-1-2.2,1-4.7,1.5-7.2,1.5h0Z"/>
          <path class="cls-3" d="M479.1,187.2c-.8.7-1.8,1.1-3,1.1s-2.2-.4-3-1.1-1.2-1.6-1.2-2.7v-27.4c0-1,.4-1.9,1.2-2.6.8-.7,1.8-1.1,2.9-1.1h1c.9,0,1.6.3,2.2.8s.9,1.2,1,1.9v.3h.1c2.3-2.4,5-3.6,8.2-3.6s5.9,1.1,7.9,3.3,2.9,5.3,2.9,9.4-1,7.1-3,9.3-4.6,3.4-7.8,3.4-5.5-1-7.8-2.9h-.1c-.1,0,0,0,0,0v8.9c0,1.1-.4,2-1.2,2.7h0l-.3.3ZM480.1,162.8v5.8c0,1,.5,2,1.6,2.8s2.3,1.3,3.7,1.3,2.9-.6,3.9-1.8,1.4-2.9,1.4-5.3c0-4.7-1.8-7.1-5.3-7.1s-2.6.4-3.7,1.3-1.6,1.8-1.6,2.8h0v.2Z"/>
          <path class="cls-3" d="M513.1,178.4c-3.1,0-5.4-.8-6.8-2.3s-2.1-4.2-2.1-7.9v-11c0-1,.4-1.9,1.2-2.6s1.8-1.1,3-1.1,2.1.4,2.9,1.1c.8.7,1.2,1.6,1.2,2.6v10.5c0,1.8.3,3.1.8,3.7.6.7,1.5,1,2.9,1s2.4-.4,3.4-1.3c1-.9,1.5-1.9,1.5-2.9v-10.9c0-1.1.4-2,1.2-2.7s1.8-1.1,3-1.1,2.2.4,3,1.1,1.2,1.6,1.2,2.7v17c0,1-.4,1.9-1.2,2.6s-1.8,1.1-2.9,1.1h-1c-.8,0-1.6-.3-2.2-.8s-1-1.2-1-1.9v-.3h0c-2.3,2.4-5,3.6-8.3,3.6h0l.2-.2Z"/>
          <path class="cls-4" d="M558.4,184.3c-2.7,0-5.2-.9-7.2-2.7-.6-.5-1-1-1.5-1.6-.4.6-.9,1.1-1.4,1.6-2,1.8-4.5,2.7-7.3,2.7s-5.3-1-7.3-2.8c-2.1-1.9-3.3-4.6-3.3-7.4v-17c0-2.8,1.2-5.4,3.3-7.3,2-1.8,4.4-2.7,7.1-2.7h1c1.6,0,3,.4,4.4,1,2.2-1,4.7-1.5,7.2-1.5,5.1,0,9.1,1.6,11.7,4.6,2.5,2.9,3.7,6.9,3.7,12.4v10.5c0,2.8-1.2,5.4-3.3,7.3-2,1.8-4.5,2.7-7.2,2.7h0v.2Z"/>
          <path class="cls-4" d="M581.5,184.8c-6.1,0-11.1-1.6-14.7-4.8-2.7-2.3-5.8-6.7-5.8-14.3s1.9-10.7,5.6-14.1c3.5-3.3,8.4-5,14.4-5s3.9.1,6.2.4c2.4.3,4.5,1.4,6.2,3.1,1.8,1.8,2.7,4.1,2.7,6.6s-1.4,5.4-3.7,7c-1.6,1.1-3.4,1.7-5.3,1.7s-1,0-1.5-.1c-.9-.1-1.8-.2-2.8-.2v1.2h0c1.1,0,2.1,0,3-.2.5-.1,1.1-.1,1.7-.1,1.8,0,3.6.5,5.1,1.5,2.5,1.6,3.9,4.2,3.9,7.1s-.9,4.7-2.5,6.5-3.8,2.9-6.2,3.3c-2.3.3-4.4.4-6.2.4h-.1Z"/>
          <path class="cls-3" d="M544,176.9c-.8.7-1.8,1.1-3,1.1s-2.2-.4-3-1.1-1.2-1.6-1.2-2.7v-17c0-1,.4-1.9,1.2-2.6.8-.7,1.8-1.1,2.9-1.1h1c.8,0,1.6.3,2.2.8s.9,1.2,1,1.9v.3h0c2.3-2.4,5-3.6,8.3-3.6s5.5.8,6.9,2.4,2.1,4.4,2.1,8.2v10.5c0,1-.4,1.9-1.2,2.6-.8.7-1.8,1.1-2.9,1.1s-2.2-.4-3-1.1c-.8-.7-1.2-1.6-1.2-2.6v-10.3c0-1.9-.3-3.2-.8-3.9s-1.6-1.1-3.1-1.1-2.4.4-3.4,1.3-1.6,1.9-1.6,2.9v10.9c0,1.1-.4,2-1.2,2.7h0v.4Z"/>
          <path class="cls-4" d="M610.9,184.8c-5.3,0-9.2-1.2-11.9-3.8-2.8-2.6-4.2-6.6-4.2-12v-3.7c-.9-.4-1.7-.9-2.5-1.6-2-1.7-3.1-4.1-3.1-6.7s1.1-4.9,3-6.6c.8-.7,1.6-1.2,2.5-1.6,0-2.7,1.3-5.2,3.4-7,2-1.8,4.5-2.7,7.3-2.7s5.3.9,7.3,2.7c1.9,1.7,3,3.8,3.3,6.2,2.2.1,4.2,1,5.8,2.4,1.9,1.8,2.9,4.1,2.9,6.6s-1.1,4.9-3,6.6c-1.6,1.4-3.5,2.2-5.6,2.4v.3c1.6.2,3.1.8,4.4,1.7,2.3,1.6,3.6,4.2,3.6,6.9s-.9,4.7-2.6,6.5c-1.6,1.8-3.8,2.8-6.3,3.1-2,.2-3.4.2-4.4.2h0Z"/>
          <path class="cls-3" d="M581.5,178.4c-4.6,0-8-1.1-10.5-3.2-2.4-2.1-3.7-5.3-3.7-9.5s1.2-7.2,3.5-9.4,5.7-3.3,10.1-3.3,3.4.1,5.5.4c1,.1,1.7.5,2.4,1.1s.9,1.4.9,2.2-.3,1.3-1,1.8c-.7.4-1.4.6-2.2.5-1.3-.2-2.8-.3-4.2-.3s-3.5.6-4.5,1.7-1.5,2.9-1.5,5.3.5,4.3,1.6,5.4,2.7,1.6,4.9,1.6,2.8-.1,4.1-.3c.8-.2,1.5,0,2.2.4s1,1,1,1.7-.3,1.6-.9,2.3c-.6.7-1.4,1.1-2.3,1.2-2,.2-3.8.4-5.4.4h0Z"/>
          <path class="cls-3" d="M598.6,159.8c-.8,0-1.5-.3-2.1-.8s-.9-1.1-.9-1.9.3-1.4.9-1.9c.6-.5,1.3-.8,2.1-.8h2c.4,0,.6-.2.6-.5v-4.6c0-1.1.4-2,1.2-2.7s1.8-1.1,3-1.1,2.2.4,3,1.1,1.2,1.6,1.2,2.7v4.6c0,.3.2.5.6.5h5.1c.8,0,1.5.3,2.1.8s.9,1.2.9,1.9-.3,1.3-.9,1.9-1.3.8-2.1.8h-5.1c-.4,0-.6.2-.6.6v7.9c0,2,.2,3.2.6,3.8.4.5,1.3.8,2.7.8h1.6c.8,0,1.5,0,2.2.5s1,1,1,1.7-.3,1.6-.9,2.2-1.3,1-2.2,1.1c-1.6.1-2.9.2-3.7.2-3.6,0-6.1-.7-7.6-2.1s-2.2-3.8-2.2-7.4v-8.7c0-.4-.2-.6-.6-.6h-2,.1Z"/>
          <path class="cls-4" d="M633.9,184.8c-5,0-8.8-1.5-11.5-4.4-2.5-2.8-3.8-6.8-3.8-12.2v-11c0-2.9,1.2-5.5,3.4-7.4,2-1.8,4.5-2.7,7.2-2.7s5.2.9,7.2,2.7c.5.4.9.9,1.3,1.4.4-.5.8-1,1.3-1.4,2-1.8,4.5-2.7,7.3-2.7s5.3.9,7.3,2.7c2.2,1.9,3.4,4.6,3.4,7.5v17c0,2.8-1.2,5.4-3.3,7.3-2,1.7-4.4,2.7-7.1,2.7h-1c-1.6,0-3-.4-4.4-1-2.2,1-4.7,1.5-7.2,1.5h-.1Z"/>
          <path class="cls-3" d="M633.9,178.4c-3.1,0-5.4-.8-6.8-2.3-1.4-1.5-2.1-4.2-2.1-7.9v-11c0-1,.4-1.9,1.2-2.6s1.8-1.1,3-1.1,2.2.4,2.9,1.1c.8.7,1.2,1.6,1.2,2.6v10.5c0,1.8.3,3.1.8,3.7.6.7,1.5,1,2.9,1s2.4-.4,3.4-1.3c1-.9,1.5-1.9,1.5-2.9v-10.9c0-1.1.4-2,1.2-2.7s1.8-1.1,3-1.1,2.2.4,3,1.1,1.2,1.6,1.2,2.7v17c0,1-.4,1.9-1.2,2.6s-1.8,1.1-2.9,1.1h-1c-.8,0-1.6-.3-2.2-.8s-1-1.2-1-1.9v-.3h0c-2.3,2.4-5,3.6-8.3,3.6h0l.2-.2Z"/>
          <path class="cls-4" d="M662,184.3c-2.8,0-5.3-.9-7.3-2.7-2.2-1.9-3.4-4.6-3.4-7.5v-16.7c0-2.9,1.2-5.5,3.4-7.5,2-1.8,4.5-2.7,7.3-2.7s4.4.6,6.2,1.9c1.9-.8,4-1.4,6.3-1.7h1.3c2.2,0,4.3.8,6,2.3,2,1.8,3.1,4.2,3.1,6.8s-1.1,5-3.1,6.7c-1.6,1.4-3.6,2.3-5.8,2.6-1.3.1-2.3.5-2.8,1-.2.2-.3.3-.3,1v6.4c0,2.9-1.2,5.6-3.4,7.5-2,1.8-4.6,2.7-7.3,2.7h-.2Z"/>
          <path class="cls-4" d="M697.4,184.8c-6.3,0-11.4-1.6-15.2-4.7-2.8-2.3-6.2-6.7-6.2-14.3s1.8-10.6,5.5-14.1c3.5-3.3,8.4-5,14.4-5,11.3,0,18.2,6.1,19,16.7.2,2.9-.8,5.5-2.8,7.5.5,1.1.8,2.4.8,3.6,0,2.4-.8,4.6-2.4,6.3-1.5,1.7-3.5,2.9-5.8,3.3-2.4.4-4.9.6-7.4.6h.1Z"/>
          <path class="cls-3" d="M665.1,176.8c-.8.8-1.9,1.1-3.1,1.1s-2.3-.4-3.1-1.1c-.8-.8-1.3-1.7-1.3-2.8v-16.7c0-1.1.4-2,1.2-2.7s1.8-1.1,3-1.1,2.2.4,3,1.1,1.2,1.6,1.2,2.7v.9h0c2.1-2.5,5.1-4,9-4.5.8-.1,1.6,0,2.2.7s1,1.2,1,2.1-.3,1.4-1,2-1.4.9-2.3,1c-2.8.3-4.9,1.2-6.5,2.7s-2.3,3.3-2.3,5.6v6.4c0,1.1-.4,2-1.3,2.8h0l.2-.2Z"/>
          <path class="cls-3" d="M697.4,178.4c-4.8,0-8.5-1.1-11.1-3.2-2.6-2.2-3.9-5.3-3.9-9.4s1.2-7.2,3.5-9.4,5.7-3.3,10-3.3c7.9,0,12.1,3.6,12.7,10.9,0,1.1-.3,2.1-1.3,2.8-.9.8-2,1.2-3.3,1.2h-12.5c-.2,0-.3,0-.4.2,0,.1,0,.2,0,.4.3,1.7,1.1,2.9,2.3,3.6s3,1.1,5.4,1.1,3.3-.2,5.1-.6c.7-.2,1.4,0,2,.4s.9,1,.9,1.6-.3,1.5-.8,2.2c-.5.6-1.3,1-2.2,1.2-2,.3-4.2.5-6.3.5h0v-.2ZM696.1,158.2c-1.5,0-2.7.4-3.5,1.1-.8.7-1.3,1.9-1.6,3.6,0,.2,0,.3,0,.4,0,.1.2.2.4.2h8.7c.4,0,.6-.2.6-.5,0-3.2-1.7-4.8-4.7-4.8h0Z"/>
          <path class="cls-4" d="M745.7,184.8c-7.2,0-13.2-2.2-17.7-6.4-4.5-4.4-6.8-10.2-6.8-17.6s2.3-13.2,6.8-17.5,10.4-6.4,17.7-6.4,13.2,2.2,17.6,6.4c4.5,4.4,6.8,10.3,6.8,17.6s-2.3,13.2-6.8,17.5-10.4,6.4-17.7,6.4h.1ZM745.7,156.1c-1.5,0-2.5,0-2.5,4.7s1.1,4.7,2.5,4.7,2.5,0,2.5-4.7-1.1-4.7-2.5-4.7Z"/>
          <path class="cls-4" d="M773.4,184.3c-2.8,0-5.3-.9-7.3-2.7-2.2-1.9-3.4-4.6-3.4-7.5v-16.7c0-2.9,1.2-5.5,3.4-7.5,2-1.8,4.5-2.7,7.3-2.7s4.4.6,6.2,1.9c1.9-.8,4-1.4,6.3-1.7h1.3c2.2,0,4.3.8,6,2.3,2,1.8,3.1,4.2,3.1,6.8s-1.1,5-3.1,6.7c-1.6,1.4-3.6,2.3-5.8,2.6-1.3.1-2.3.5-2.8,1-.2.2-.3.3-.3,1v6.4c0,2.9-1.2,5.6-3.4,7.5-2,1.8-4.6,2.7-7.3,2.7h-.2Z"/>
          <path class="cls-3" d="M759,173.8c-3.2,3.1-7.7,4.7-13.2,4.7s-10-1.6-13.2-4.7-4.9-7.4-4.9-12.9,1.6-9.8,4.9-12.9,7.7-4.7,13.2-4.7,10,1.6,13.2,4.7,4.9,7.4,4.9,12.9-1.6,9.8-4.9,12.9ZM754.6,160.8c0-7.4-3-11.1-8.9-11.1s-8.9,3.7-8.9,11.1,3,11.1,8.9,11.1,8.9-3.7,8.9-11.1Z"/>
          <path class="cls-4" d="M809.8,184.8c-5.3,0-9.2-1.2-11.9-3.8-2.8-2.6-4.2-6.6-4.2-12v-3.7c-.9-.4-1.7-.9-2.5-1.6-2-1.7-3.1-4.1-3.1-6.7s1.1-4.9,3-6.6c.8-.7,1.6-1.2,2.5-1.6,0-2.7,1.3-5.2,3.4-7,2-1.8,4.5-2.7,7.3-2.7s5.3.9,7.3,2.7c1.9,1.7,3,3.8,3.3,6.2,2.2.1,4.2,1,5.8,2.4,1.9,1.8,2.9,4.1,2.9,6.6s-1.1,4.9-3,6.6c-1.6,1.4-3.5,2.2-5.6,2.4v.3c1.6.2,3.1.8,4.4,1.7,2.3,1.6,3.6,4.2,3.6,6.9s-.9,4.7-2.6,6.5c-1.6,1.8-3.8,2.8-6.3,3.1-2,.2-3.4.2-4.4.2h0Z"/>
          <path class="cls-3" d="M776.5,176.8c-.8.8-1.9,1.1-3.1,1.1s-2.3-.4-3.1-1.1c-.8-.8-1.3-1.7-1.3-2.8v-16.7c0-1.1.4-2,1.2-2.7s1.8-1.1,3-1.1,2.2.4,3,1.1,1.2,1.6,1.2,2.7v.9h0c2.1-2.5,5.1-4,9-4.5.8-.1,1.6,0,2.2.7s1,1.2,1,2.1-.3,1.4-1,2-1.4.9-2.3,1c-2.8.3-4.9,1.2-6.5,2.7s-2.3,3.3-2.3,5.6v6.4c0,1.1-.4,2-1.3,2.8h0l.2-.2Z"/>
          <path class="cls-3" d="M797.4,159.8c-.8,0-1.5-.3-2.1-.8s-.9-1.1-.9-1.9.3-1.4.9-1.9c.6-.5,1.3-.8,2.1-.8h2c.4,0,.6-.2.6-.5v-4.6c0-1.1.4-2,1.2-2.7s1.8-1.1,3-1.1,2.2.4,3,1.1,1.2,1.6,1.2,2.7v4.6c0,.3.2.5.6.5h5.1c.8,0,1.5.3,2.1.8s.9,1.2.9,1.9-.3,1.3-.9,1.9-1.3.8-2.1.8h-5.1c-.4,0-.6.2-.6.6v7.9c0,2,.2,3.2.6,3.8.4.5,1.3.8,2.7.8h1.6c.8,0,1.5,0,2.2.5s1,1,1,1.7-.3,1.6-.9,2.2-1.3,1-2.2,1.1c-1.6.1-2.9.2-3.7.2-3.6,0-6.1-.7-7.6-2.1s-2.2-3.8-2.2-7.4v-8.7c0-.4-.2-.6-.6-.6h-2,.1Z"/>
          <path class="cls-4" d="M846,184.3c-2.7,0-5.1-.9-7.1-2.6-.6-.5-1.1-1-1.5-1.6-.4.6-.9,1.1-1.4,1.6-2,1.8-4.5,2.7-7.3,2.7s-5.3-.9-7.3-2.7c-2.2-1.9-3.4-4.6-3.4-7.4v-27.6c0-2.9,1.2-5.5,3.4-7.5,2-1.8,4.5-2.7,7.3-2.7s5.3.9,7.3,2.7c2.2,1.9,3.4,4.6,3.4,7.5v.2h1.7c5.2,0,9.2,1.6,11.8,4.7,2.5,2.9,3.7,7.1,3.7,13v9.9c0,2.9-1.2,5.5-3.4,7.4-2,1.7-4.5,2.6-7.1,2.6h0v-.2Z"/>
          <path class="cls-4" d="M869,184.8c-6,0-10.9-1.7-14.5-5-2.6-2.4-5.7-6.8-5.7-14.1s3.1-11.7,5.7-14.1c3.6-3.3,8.5-5,14.5-5s10.9,1.7,14.5,5c2.6,2.4,5.7,6.8,5.7,14.1s-3.1,11.7-5.7,14.1c-3.6,3.3-8.5,5-14.5,5h0Z"/>
          <path class="cls-3" d="M831.8,176.9c-.8.7-1.8,1.1-3,1.1s-2.2-.4-3-1.1c-.8-.7-1.2-1.6-1.2-2.7v-27.6c0-1.1.4-2,1.2-2.7s1.8-1.1,3-1.1,2.2.4,3,1.1c.8.7,1.2,1.6,1.2,2.7v9.5h0c2.5-2,5.1-3,7.9-3s5.6.8,7,2.5,2.1,4.6,2.1,8.8v9.9c0,1-.4,1.9-1.2,2.6s-1.8,1.1-2.9,1.1-2.1-.4-2.9-1.1-1.2-1.6-1.2-2.6v-9c0-2.5-.3-4.2-.8-5s-1.6-1.2-3.1-1.2-2.3.5-3.4,1.4c-1,.9-1.6,1.9-1.6,2.9v10.8c0,1.1-.4,2-1.2,2.7h0Z"/>
          <path class="cls-4" d="M892.3,194.7c-2.8,0-5.3-.9-7.3-2.7-2.2-1.9-3.4-4.6-3.4-7.5v-27.4c0-2.8,1.2-5.4,3.3-7.3,2-1.8,4.4-2.7,7.1-2.7h1c1.5,0,3,.3,4.4,1,2.2-1,4.6-1.5,7.1-1.5,5.1,0,9.5,1.9,12.6,5.4,3,3.4,4.5,8,4.5,13.6s-1.6,10.1-4.7,13.6c-3.2,3.6-7.5,5.5-12.5,5.5s-1.1,0-1.6,0c0,2.8-1.3,5.3-3.4,7.2-2,1.8-4.5,2.7-7.3,2.7h.2Z"/>
          <path class="cls-3" d="M879.2,175.1c-2.4,2.2-5.8,3.3-10.2,3.3s-7.8-1.1-10.2-3.3-3.7-5.3-3.7-9.4,1.2-7.1,3.7-9.4c2.4-2.2,5.8-3.3,10.2-3.3s7.8,1.1,10.2,3.3,3.7,5.3,3.7,9.4-1.2,7.1-3.7,9.4ZM872.9,160.1c-.9-1.2-2.2-1.7-4-1.7s-3.1.6-4,1.7c-.9,1.2-1.3,3-1.3,5.6s.4,4.5,1.3,5.6,2.2,1.7,4,1.7,3.1-.6,4-1.7c.9-1.2,1.3-3,1.3-5.6s-.4-4.5-1.3-5.6Z"/>
          <path class="cls-4" d="M933.9,184.8c-6.3,0-11.4-1.6-15.2-4.7-2.8-2.3-6.2-6.7-6.2-14.3s1.8-10.6,5.5-14.1c3.5-3.3,8.4-5,14.4-5,11.3,0,18.2,6.1,19,16.7.2,2.9-.8,5.5-2.8,7.5.5,1.1.8,2.4.8,3.6,0,2.4-.8,4.6-2.4,6.3-1.5,1.7-3.5,2.9-5.8,3.3-2.4.4-4.9.6-7.4.6h.1Z"/>
          <path class="cls-3" d="M895.3,187.2c-.8.7-1.8,1.1-3,1.1s-2.2-.4-3-1.1-1.2-1.6-1.2-2.7v-27.4c0-1,.4-1.9,1.2-2.6.8-.7,1.8-1.1,2.9-1.1h1c.8,0,1.6.3,2.2.8s.9,1.2,1,1.9v.3h0c2.3-2.4,5-3.6,8.2-3.6s5.9,1.1,7.9,3.3,2.9,5.3,2.9,9.4-1,7.1-3,9.3c-2,2.3-4.6,3.4-7.8,3.4s-5.5-1-7.8-2.9h0c0,0,0,0,0,0v8.9c0,1.1-.4,2-1.2,2.7h0l-.3.3ZM896.3,162.8v5.8c0,1,.5,2,1.6,2.8s2.3,1.3,3.7,1.3,2.9-.6,3.9-1.8,1.4-2.9,1.4-5.3c0-4.7-1.8-7.1-5.3-7.1s-2.6.4-3.7,1.3-1.6,1.8-1.6,2.8h0v.2Z"/>
          <path class="cls-4" d="M959.7,184.8c-4.9,0-9.2-1.9-12.5-5.5-3.1-3.4-4.7-8-4.7-13.6s1.5-10.2,4.5-13.6c3.1-3.6,7.5-5.4,12.6-5.4s1.1,0,1.7,0v-.2c0-2.9,1.2-5.5,3.4-7.5,2-1.8,4.5-2.7,7.3-2.7s5.3.9,7.3,2.8c2.1,1.9,3.3,4.6,3.3,7.4v27.9c0,2.8-1.2,5.4-3.3,7.2-1.9,1.7-4.4,2.6-7,2.6h-.9c-1.6,0-3-.4-4.4-1-2.2,1-4.7,1.5-7.3,1.5h0Z"/>
          <path class="cls-3" d="M933.9,178.4c-4.8,0-8.5-1.1-11.1-3.2-2.6-2.2-3.9-5.3-3.9-9.4s1.2-7.2,3.5-9.4,5.7-3.3,10-3.3c7.9,0,12.1,3.6,12.7,10.9,0,1.1-.3,2.1-1.3,2.8-.9.8-2,1.2-3.3,1.2h-12.5c-.2,0-.3,0-.4.2,0,.1,0,.2,0,.4.3,1.7,1.1,2.9,2.3,3.6s3,1.1,5.4,1.1,3.3-.2,5.1-.6c.7-.2,1.4,0,2,.4s.9,1,.9,1.6-.3,1.5-.8,2.2c-.5.6-1.3,1-2.2,1.2-2,.3-4.2.5-6.3.5h0v-.2ZM932.6,158.2c-1.5,0-2.7.4-3.5,1.1-.8.7-1.3,1.9-1.6,3.6,0,.2,0,.3,0,.4,0,.1.2.2.4.2h8.7c.4,0,.6-.2.6-.5,0-3.2-1.7-4.8-4.7-4.8h0Z"/>
          <path class="cls-3" d="M959.7,178.4c-3.1,0-5.7-1.1-7.7-3.4s-3-5.4-3-9.3,1-7.2,2.9-9.4,4.5-3.3,7.8-3.3,5.5,1,7.9,2.9h0c0,0,0,0,0,0v-9.4c0-1.1.4-2,1.2-2.7s1.8-1.1,3-1.1,2.2.4,3,1.1c.8.7,1.2,1.6,1.2,2.7v27.9c0,1-.4,1.8-1.2,2.5s-1.7,1-2.8,1h-.9c-.8,0-1.6-.3-2.2-.8s-1-1.2-1-1.9v-.3h0c-2.2,2.4-5,3.6-8.4,3.6h.2ZM962.6,158.7c-3.5,0-5.3,2.4-5.3,7.1s.5,4.1,1.4,5.3c1,1.2,2.2,1.7,3.9,1.7s2.7-.4,3.7-1.3,1.6-1.8,1.6-2.9v-5.8c0-1.1-.5-2-1.6-2.9s-2.3-1.3-3.7-1.3h0Z"/>
          <path class="cls-4" d="M989.3,184.3c-2.8,0-5.3-1-7.4-2.8-2.2-2-3.5-4.7-3.5-7.6v-16.4c0-2.2.7-4.3,2-6-1.3-1.6-2-3.6-2-5.7s1.1-5.1,3.1-6.9c1.8-1.6,4.1-2.5,6.7-2.5h2.1c2.5,0,4.8.9,6.7,2.5,2,1.8,3.2,4.3,3.2,6.9s-.7,4.1-2,5.7c1.3,1.7,2,3.8,2,6v16.4c0,2.9-1.2,5.6-3.5,7.6-2,1.8-4.6,2.8-7.4,2.8h0Z"/>
          <path class="cls-3" d="M988.3,148.8c-1,0-1.8-.3-2.4-.9s-1-1.3-1-2.2.3-1.6,1-2.2,1.5-.9,2.4-.9h2.1c1,0,1.8.3,2.4.9.7.6,1,1.3,1,2.2s-.3,1.6-1,2.2c-.7.6-1.5.9-2.4.9h-2.1ZM992.5,176.8c-.9.8-1.9,1.2-3.2,1.2s-2.3-.4-3.2-1.2-1.3-1.7-1.3-2.8v-16.4c0-1.1.4-2,1.3-2.8s1.9-1.2,3.2-1.2,2.3.4,3.2,1.2,1.3,1.7,1.3,2.8v16.4c0,1.1-.4,2-1.3,2.8Z"/>
          <path class="cls-4" d="M1014.4,184.8c-6.1,0-11.1-1.6-14.7-4.8-2.7-2.3-5.8-6.7-5.8-14.3s1.9-10.7,5.6-14.1c3.5-3.3,8.4-5,14.4-5s3.9.1,6.2.4c2.4.3,4.5,1.4,6.2,3.1,1.8,1.8,2.7,4.1,2.7,6.6s-1.4,5.4-3.7,7c-1.6,1.1-3.4,1.7-5.3,1.7s-1,0-1.5-.1c-.9-.1-1.8-.2-2.8-.2v1.2h0c1.1,0,2.1,0,3-.2.5-.1,1.1-.1,1.7-.1,1.8,0,3.6.5,5.1,1.5,2.5,1.6,3.9,4.2,3.9,7.1s-.9,4.7-2.5,6.5-3.8,2.9-6.2,3.3c-2.3.3-4.4.4-6.2.4h-.1Z"/>
          <path class="cls-3" d="M1014.4,178.4c-4.6,0-8-1.1-10.5-3.2-2.4-2.1-3.7-5.3-3.7-9.5s1.2-7.2,3.5-9.4,5.7-3.3,10.1-3.3,3.4.1,5.5.4c1,.1,1.7.5,2.4,1.1s.9,1.4.9,2.2-.3,1.3-1,1.8c-.7.4-1.4.6-2.2.5-1.3-.2-2.8-.3-4.2-.3s-3.5.6-4.5,1.7-1.5,2.9-1.5,5.3.5,4.3,1.6,5.4,2.7,1.6,4.9,1.6,2.8-.1,4.1-.3c.8-.2,1.5,0,2.2.4s1,1,1,1.7-.3,1.6-.9,2.3c-.6.7-1.4,1.1-2.3,1.2-2,.2-3.8.4-5.4.4h0Z"/>
          <path class="cls-4" d="M1062,184.8c-7.4,0-13.4-2.1-18-6.2-4.7-4.3-7-10.3-7-17.8s2.3-13.3,6.8-17.6c4.4-4.2,10.4-6.4,17.9-6.4s5.2.1,7.2.4c2.6.4,4.8,1.6,6.5,3.4,1.8,2,2.7,4.4,2.7,7s-1.4,5.7-4,7.3c-1.6,1-3.4,1.6-5.3,1.6s-1.3,0-2-.2c-1.3-.3-2.7-.4-4.1-.4s-2.6.6-2.8.9c-.6.7-1,2.1-1,4s.4,3.2,1.1,3.9c.5.5,1.2,1,3.1,1s2.9-.1,4.2-.4c.7-.1,1.3-.2,2-.2,1.8,0,3.6.5,5.2,1.5,2.6,1.7,4.1,4.3,4.1,7.3s-.9,5-2.7,7c-1.7,1.9-3.9,3-6.5,3.4-2.3.3-4.8.5-7.3.5h0Z"/>
          <path class="cls-3" d="M1062,178.4c-5.8,0-10.3-1.5-13.7-4.6-3.3-3-5-7.4-5-13.1s1.6-9.9,4.8-13,7.7-4.6,13.4-4.6,4.6.1,6.3.4c1.1.2,2,.6,2.7,1.4s1.1,1.7,1.1,2.7-.4,1.5-1.1,2-1.6.6-2.5.4c-1.7-.3-3.4-.5-5.3-.5-3.2,0-5.7,1-7.4,2.9s-2.7,4.7-2.7,8.3.9,6.4,2.9,8.3c1.9,2,4.4,3,7.6,3s3.8-.2,5.4-.5c.9-.2,1.8,0,2.5.4.8.5,1.1,1.1,1.1,1.9s-.3,1.9-1.1,2.7c-.7.8-1.6,1.2-2.7,1.4-2,.3-4.2.4-6.4.4h0Z"/>
          <path class="cls-4" d="M1085.2,184.3c-2.8,0-5.3-1-7.4-2.8-2.2-2-3.5-4.7-3.5-7.6v-27.3c0-2.9,1.2-5.6,3.5-7.6,2.1-1.8,4.6-2.8,7.4-2.8s5.3,1,7.4,2.8c2.2,2,3.5,4.7,3.5,7.6v27.3c0,2.9-1.2,5.6-3.5,7.6-2.1,1.8-4.6,2.8-7.4,2.8Z"/>
          <path class="cls-3" d="M1088.4,176.8c-.9.8-1.9,1.2-3.2,1.2s-2.3-.4-3.2-1.2-1.3-1.7-1.3-2.8v-27.3c0-1.1.4-2,1.3-2.8s1.9-1.2,3.2-1.2,2.3.4,3.2,1.2,1.3,1.7,1.3,2.8v27.3c0,1.1-.4,2-1.3,2.8Z"/>
          <path class="cls-4" d="M1103.9,184.3c-2.8,0-5.3-1-7.4-2.8-2.2-2-3.5-4.7-3.5-7.6v-16.4c0-2.2.7-4.3,2-6-1.3-1.6-2-3.6-2-5.7s1.1-5.1,3.1-6.9c1.8-1.6,4.1-2.5,6.7-2.5h2.1c2.5,0,4.8.9,6.7,2.5,2,1.8,3.2,4.3,3.2,6.9s-.7,4.1-2,5.7c1.3,1.7,2,3.8,2,6v16.4c0,2.9-1.2,5.6-3.5,7.6-2.1,1.8-4.6,2.8-7.4,2.8h0Z"/>
          <path class="cls-3" d="M1102.8,148.8c-1,0-1.8-.3-2.4-.9s-1-1.3-1-2.2.3-1.6,1-2.2,1.5-.9,2.4-.9h2.1c.9,0,1.8.3,2.4.9.7.6,1,1.3,1,2.2s-.3,1.6-1,2.2c-.7.6-1.5.9-2.4.9h-2.1ZM1107.1,176.8c-.9.8-1.9,1.2-3.2,1.2s-2.3-.4-3.2-1.2-1.3-1.7-1.3-2.8v-16.4c0-1.1.4-2,1.3-2.8s1.9-1.2,3.2-1.2,2.3.4,3.2,1.2,1.3,1.7,1.3,2.8v16.4c0,1.1-.4,2-1.3,2.8Z"/>
          <path class="cls-4" d="M1138.3,184.3c-2.7,0-5.2-.9-7.2-2.7-.6-.5-1.1-1-1.5-1.6-.4.6-.9,1.1-1.4,1.6-2,1.8-4.5,2.7-7.3,2.7s-5.3-1-7.3-2.8c-2.1-1.9-3.3-4.6-3.3-7.4v-17c0-2.8,1.2-5.4,3.3-7.3,2-1.8,4.4-2.7,7.1-2.7h1c1.6,0,3,.4,4.4,1,2.2-1,4.7-1.5,7.2-1.5,5.1,0,9.1,1.6,11.7,4.6,2.5,2.9,3.7,6.9,3.7,12.4v10.5c0,2.8-1.2,5.4-3.3,7.3-2,1.8-4.5,2.7-7.2,2.7h0v.2Z"/>
          <path class="cls-3" d="M1124,176.9c-.8.7-1.8,1.1-3,1.1s-2.2-.4-3-1.1-1.2-1.6-1.2-2.7v-17c0-1,.4-1.9,1.2-2.6.8-.7,1.8-1.1,2.9-1.1h1c.8,0,1.6.3,2.2.8s.9,1.2,1,1.9v.3h.2c2.3-2.4,5.1-3.6,8.3-3.6s5.5.8,6.9,2.4c1.4,1.6,2.1,4.4,2.1,8.2v10.5c0,1-.4,1.9-1.2,2.6-.8.7-1.8,1.1-2.9,1.1s-2.2-.4-3-1.1c-.8-.7-1.2-1.6-1.2-2.6v-10.3c0-1.9-.3-3.2-.8-3.9s-1.6-1.1-3.1-1.1-2.4.4-3.4,1.3-1.6,1.9-1.6,2.9v10.9c0,1.1-.4,2-1.2,2.7h0l-.2.4Z"/>
          <path class="cls-4" d="M1155,184.3c-2.8,0-5.3-1-7.4-2.8-2.2-2-3.5-4.7-3.5-7.6v-16.4c0-2.2.7-4.3,2-6-1.3-1.6-2-3.6-2-5.7s1.1-5.1,3.1-6.9c1.8-1.6,4.1-2.5,6.7-2.5h2.1c2.5,0,4.8.9,6.7,2.5,2,1.8,3.2,4.3,3.2,6.9s-.7,4.1-2,5.7c1.3,1.7,2,3.8,2,6v16.4c0,2.9-1.2,5.6-3.5,7.6-2.1,1.8-4.6,2.8-7.4,2.8h0Z"/>
          <path class="cls-3" d="M1153.9,148.8c-1,0-1.8-.3-2.4-.9s-1-1.3-1-2.2.3-1.6,1-2.2,1.5-.9,2.4-.9h2.1c.9,0,1.8.3,2.4.9.7.6,1,1.3,1,2.2s-.3,1.6-1,2.2c-.7.6-1.5.9-2.4.9h-2.1ZM1158.2,176.8c-.9.8-1.9,1.2-3.2,1.2s-2.3-.4-3.2-1.2-1.3-1.7-1.3-2.8v-16.4c0-1.1.4-2,1.3-2.8s1.9-1.2,3.2-1.2,2.3.4,3.2,1.2,1.3,1.7,1.3,2.8v16.4c0,1.1-.4,2-1.3,2.8Z"/>
          <path class="cls-4" d="M1180.1,184.8c-6.1,0-11.1-1.6-14.7-4.8-2.7-2.3-5.8-6.7-5.8-14.3s1.9-10.7,5.6-14.1c3.6-3.3,8.4-5,14.4-5s3.9.1,6.2.4c2.4.3,4.6,1.4,6.2,3.1,1.8,1.8,2.7,4.1,2.7,6.6s-1.4,5.4-3.7,7c-1.6,1.1-3.4,1.7-5.3,1.7s-1,0-1.5-.1c-.9-.1-1.8-.2-2.8-.2v1.2h0c1.1,0,2.1,0,3-.2.5-.1,1.1-.1,1.7-.1,1.8,0,3.6.5,5.1,1.5,2.5,1.6,3.9,4.2,3.9,7.1s-.9,4.7-2.5,6.5-3.8,2.9-6.2,3.3c-2.3.3-4.4.4-6.2.4h0Z"/>
          <path class="cls-3" d="M1180.1,178.4c-4.6,0-8.1-1.1-10.5-3.2-2.4-2.1-3.7-5.3-3.7-9.5s1.2-7.2,3.5-9.4,5.7-3.3,10.1-3.3,3.4.1,5.5.4c.9.1,1.7.5,2.4,1.1s.9,1.4.9,2.2-.3,1.3-1,1.8-1.4.6-2.2.5c-1.3-.2-2.8-.3-4.2-.3s-3.5.6-4.5,1.7-1.5,2.9-1.5,5.3.5,4.3,1.6,5.4,2.7,1.6,4.9,1.6,2.8-.1,4.1-.3c.8-.2,1.6,0,2.2.4s1,1,1,1.7-.3,1.6-.9,2.3-1.4,1.1-2.3,1.2c-2.1.2-3.8.4-5.4.4h0Z"/>
        </g>
        <path class="cls-1" d="M174,43.3c.1,2.5-1.8,4.6-4.3,4.7h-.2c-1.1,0-2.2-.4-3-1.2-.9-.8-1.4-1.9-1.5-3.1-.1-2.5,1.8-4.6,4.2-4.7h.9c.9,0,1.7.5,2.4,1.1.8.7,1.3,1.7,1.4,2.8v.3h.1Z"/>
      </g>
    </g>
  </g>
</svg>